G04*
G04 #@! TF.GenerationSoftware,Altium Limited,Altium Designer,21.6.4 (81)*
G04*
G04 Layer_Color=255*
%FSLAX25Y25*%
%MOIN*%
G70*
G04*
G04 #@! TF.SameCoordinates,21ADAE42-517F-4329-814C-ACF1F8BA2FEA*
G04*
G04*
G04 #@! TF.FilePolarity,Positive*
G04*
G01*
G75*
%ADD184C,0.06260*%
%ADD185R,0.06260X0.06260*%
%ADD186C,0.12008*%
%ADD188R,0.06260X0.06260*%
%ADD190C,0.06265*%
%ADD191R,0.06265X0.06265*%
%ADD192C,0.18996*%
%ADD209C,0.07000*%
%ADD210C,0.29134*%
%ADD211C,0.01968*%
%ADD212O,0.03543X0.06299*%
%ADD213R,0.06102X0.06102*%
%ADD214C,0.06102*%
D184*
X146524Y223094D02*
D03*
X135737D02*
D03*
X124950D02*
D03*
X114162D02*
D03*
X151918Y211912D02*
D03*
X141131D02*
D03*
X130343D02*
D03*
X119556D02*
D03*
X13970Y69930D02*
D03*
Y80717D02*
D03*
Y91505D02*
D03*
Y102292D02*
D03*
X2788Y64536D02*
D03*
Y75323D02*
D03*
Y86111D02*
D03*
Y96898D02*
D03*
X395068Y223094D02*
D03*
X384280D02*
D03*
X373493D02*
D03*
X362705D02*
D03*
X400461Y211912D02*
D03*
X389674D02*
D03*
X378887D02*
D03*
X368099D02*
D03*
X243729D02*
D03*
X254516D02*
D03*
X265304D02*
D03*
X276091D02*
D03*
X238335Y223094D02*
D03*
X249123D02*
D03*
X259910D02*
D03*
X270698D02*
D03*
D185*
X108768Y211912D02*
D03*
X357312D02*
D03*
X232942D02*
D03*
D186*
X81170Y217503D02*
D03*
X179556D02*
D03*
X8379Y129930D02*
D03*
Y31544D02*
D03*
X329713Y217503D02*
D03*
X428099D02*
D03*
X303729D02*
D03*
X205343D02*
D03*
D188*
X13970Y59142D02*
D03*
D190*
X492597Y68710D02*
D03*
Y57910D02*
D03*
Y47110D02*
D03*
Y36310D02*
D03*
X481397Y63310D02*
D03*
Y52510D02*
D03*
Y41710D02*
D03*
Y30910D02*
D03*
Y155477D02*
D03*
Y166277D02*
D03*
Y177077D02*
D03*
Y187877D02*
D03*
X492597Y160877D02*
D03*
Y171677D02*
D03*
Y182477D02*
D03*
Y193277D02*
D03*
D191*
X481397Y74110D02*
D03*
Y198677D02*
D03*
D192*
X486997Y101710D02*
D03*
Y3310D02*
D03*
Y127877D02*
D03*
Y226277D02*
D03*
D209*
X304000Y-4739D02*
D03*
X294000D02*
D03*
X314000Y-4500D02*
D03*
X324000Y-4291D02*
D03*
X334000Y-4606D02*
D03*
D210*
X-125Y-306D02*
D03*
X455816Y82D02*
D03*
X15Y228045D02*
D03*
X455816Y228428D02*
D03*
D211*
X61844Y-109D02*
D03*
X57906D02*
D03*
X53969D02*
D03*
X61844Y3827D02*
D03*
X57906D02*
D03*
X61844Y7764D02*
D03*
X57906D02*
D03*
X53969D02*
D03*
Y3827D02*
D03*
X53064Y34930D02*
D03*
Y38867D02*
D03*
X57001D02*
D03*
X60938D02*
D03*
X57001Y34930D02*
D03*
X60938D02*
D03*
X53064Y30993D02*
D03*
X57001D02*
D03*
X60938D02*
D03*
X53103Y98788D02*
D03*
Y102725D02*
D03*
X57040D02*
D03*
X60977D02*
D03*
X57040Y98788D02*
D03*
X60977D02*
D03*
X53103Y94851D02*
D03*
X57040D02*
D03*
X60977D02*
D03*
X60899Y62843D02*
D03*
X56962D02*
D03*
X53025D02*
D03*
X60899Y66780D02*
D03*
X56962D02*
D03*
X60899Y70717D02*
D03*
X56962D02*
D03*
X53025D02*
D03*
Y66780D02*
D03*
D212*
X199713Y-7950D02*
D03*
X225698D02*
D03*
D213*
X325186Y101263D02*
D03*
X355186D02*
D03*
D214*
X315186D02*
D03*
X345186D02*
D03*
M02*
