G04*
G04 #@! TF.GenerationSoftware,Altium Limited,Altium Designer,21.6.4 (81)*
G04*
G04 Layer_Color=16711935*
%FSLAX25Y25*%
%MOIN*%
G70*
G04*
G04 #@! TF.SameCoordinates,21ADAE42-517F-4329-814C-ACF1F8BA2FEA*
G04*
G04*
G04 #@! TF.FilePolarity,Negative*
G04*
G01*
G75*
%ADD182C,0.07800*%
%ADD183C,0.07060*%
%ADD184C,0.06260*%
%ADD185R,0.06260X0.06260*%
%ADD186C,0.12008*%
%ADD187C,0.29934*%
%ADD188R,0.06260X0.06260*%
%ADD189C,0.02769*%
%ADD190C,0.06265*%
%ADD191R,0.06265X0.06265*%
%ADD192C,0.18996*%
%ADD193O,0.04343X0.07099*%
%ADD194R,0.06902X0.06902*%
%ADD195C,0.06902*%
%ADD196C,0.02787*%
%ADD197C,0.02788*%
%ADD198C,0.05800*%
D182*
X304000Y-4739D02*
D03*
X294000D02*
D03*
X314000Y-4500D02*
D03*
X324000Y-4291D02*
D03*
X334000Y-4606D02*
D03*
D183*
X146524Y223094D02*
D03*
D184*
X135737D02*
D03*
X124950D02*
D03*
X114162D02*
D03*
X151918Y211912D02*
D03*
X141131D02*
D03*
X130343D02*
D03*
X119556D02*
D03*
X13970Y69930D02*
D03*
Y80717D02*
D03*
Y91505D02*
D03*
Y102292D02*
D03*
X2788Y64536D02*
D03*
Y75323D02*
D03*
Y86111D02*
D03*
Y96898D02*
D03*
X395068Y223094D02*
D03*
X384280D02*
D03*
X373493D02*
D03*
X362705D02*
D03*
X400461Y211912D02*
D03*
X389674D02*
D03*
X378887D02*
D03*
X368099D02*
D03*
X243729D02*
D03*
X254516D02*
D03*
X265304D02*
D03*
X276091D02*
D03*
X238335Y223094D02*
D03*
X249123D02*
D03*
X259910D02*
D03*
X270698D02*
D03*
D185*
X108768Y211912D02*
D03*
X357312D02*
D03*
X232942D02*
D03*
D186*
X81170Y217503D02*
D03*
X179556D02*
D03*
X8379Y129930D02*
D03*
Y31544D02*
D03*
X329713Y217503D02*
D03*
X428099D02*
D03*
X303729D02*
D03*
X205343D02*
D03*
D187*
X-125Y-306D02*
D03*
X455816Y82D02*
D03*
X15Y228045D02*
D03*
X455816Y228428D02*
D03*
D188*
X13970Y59142D02*
D03*
D189*
X61844Y-109D02*
D03*
X57906D02*
D03*
X53969D02*
D03*
X61844Y3827D02*
D03*
X57906D02*
D03*
X61844Y7764D02*
D03*
X57906D02*
D03*
X53969D02*
D03*
Y3827D02*
D03*
X53064Y34930D02*
D03*
Y38867D02*
D03*
X57001D02*
D03*
X60938D02*
D03*
X57001Y34930D02*
D03*
X60938D02*
D03*
X53064Y30993D02*
D03*
X57001D02*
D03*
X60938D02*
D03*
X53103Y98788D02*
D03*
Y102725D02*
D03*
X57040D02*
D03*
X60977D02*
D03*
X57040Y98788D02*
D03*
X60977D02*
D03*
X53103Y94851D02*
D03*
X57040D02*
D03*
X60977D02*
D03*
X60899Y62843D02*
D03*
X56962D02*
D03*
X53025D02*
D03*
X60899Y66780D02*
D03*
X56962D02*
D03*
X60899Y70717D02*
D03*
X56962D02*
D03*
X53025D02*
D03*
Y66780D02*
D03*
D190*
X492597Y68710D02*
D03*
Y57910D02*
D03*
Y47110D02*
D03*
Y36310D02*
D03*
X481397Y63310D02*
D03*
Y52510D02*
D03*
Y41710D02*
D03*
Y30910D02*
D03*
Y155477D02*
D03*
Y166277D02*
D03*
Y177077D02*
D03*
Y187877D02*
D03*
X492597Y160877D02*
D03*
Y171677D02*
D03*
Y182477D02*
D03*
Y193277D02*
D03*
D191*
X481397Y74110D02*
D03*
Y198677D02*
D03*
D192*
X486997Y101710D02*
D03*
Y3310D02*
D03*
Y127877D02*
D03*
Y226277D02*
D03*
D193*
X199713Y-7950D02*
D03*
X225698D02*
D03*
D194*
X325186Y101263D02*
D03*
X355186D02*
D03*
D195*
X315186D02*
D03*
X345186D02*
D03*
D196*
X198920Y116457D02*
D03*
X416485Y239D02*
D03*
X173244Y73314D02*
D03*
X302377Y126434D02*
D03*
X253000Y125000D02*
D03*
X195500Y123500D02*
D03*
X183000Y117000D02*
D03*
X202725Y123526D02*
D03*
X352000Y129106D02*
D03*
X139634Y49815D02*
D03*
X379500Y500D02*
D03*
X307000Y61000D02*
D03*
X306345Y70255D02*
D03*
X306000Y67000D02*
D03*
X312000Y52500D02*
D03*
X322500Y67500D02*
D03*
X312000Y57500D02*
D03*
X307365Y51755D02*
D03*
X322500Y94500D02*
D03*
X316378Y69646D02*
D03*
X310329Y89500D02*
D03*
X333354Y52500D02*
D03*
X311823Y79500D02*
D03*
X121500Y50000D02*
D03*
X168500Y38500D02*
D03*
X169877Y59623D02*
D03*
X166809Y59572D02*
D03*
X168000Y32321D02*
D03*
D197*
X146777Y186565D02*
D03*
X105687Y190114D02*
D03*
X145717Y-4249D02*
D03*
X136760Y-4643D02*
D03*
X132981Y-4091D02*
D03*
X131000Y50000D02*
D03*
D198*
X113229Y27168D02*
D03*
X92011Y27426D02*
D03*
M02*
