G04*
G04 #@! TF.GenerationSoftware,Altium Limited,Altium Designer,21.6.4 (81)*
G04*
G04 Layer_Physical_Order=3*
G04 Layer_Color=16440176*
%FSLAX25Y25*%
%MOIN*%
G70*
G04*
G04 #@! TF.SameCoordinates,21ADAE42-517F-4329-814C-ACF1F8BA2FEA*
G04*
G04*
G04 #@! TF.FilePolarity,Positive*
G04*
G01*
G75*
%ADD12C,0.02362*%
%ADD190C,0.06265*%
%ADD202C,0.00630*%
%ADD204C,0.01200*%
%ADD205C,0.01968*%
%ADD209C,0.07000*%
%ADD216C,0.01988*%
%ADD217C,0.01987*%
%ADD218C,0.05000*%
G36*
X397400Y226571D02*
X397269Y226506D01*
X396900Y226372D01*
X396041Y226728D01*
X395068Y226856D01*
X394094Y226728D01*
X393187Y226352D01*
X392407Y225754D01*
X391810Y224975D01*
X391434Y224067D01*
X391305Y223094D01*
X391434Y222120D01*
X391810Y221213D01*
X392407Y220433D01*
X393187Y219835D01*
X394094Y219460D01*
X395068Y219332D01*
X396041Y219460D01*
X396900Y219815D01*
X397269Y219681D01*
X397400Y219616D01*
X397400Y214050D01*
X397203Y213794D01*
X396827Y212886D01*
X396699Y211912D01*
X396827Y210939D01*
X397203Y210031D01*
X397400Y209775D01*
Y207649D01*
X396750D01*
X396291Y207459D01*
X396101Y207000D01*
Y67762D01*
X395639Y67571D01*
X384984Y78225D01*
X384395Y78619D01*
X383701Y78757D01*
X315132D01*
X314043Y79845D01*
X314235Y80307D01*
X390224Y80307D01*
X390684Y80497D01*
X390920Y80734D01*
X391110Y81193D01*
Y99264D01*
X390920Y99723D01*
X390461Y99913D01*
X388250D01*
X388139Y99936D01*
X388027Y99913D01*
X383920D01*
X383808Y99936D01*
X383696Y99913D01*
X367485D01*
X366879Y100034D01*
X366272Y99913D01*
X358837D01*
Y104914D01*
X351535D01*
Y99913D01*
X349047D01*
X348757Y100413D01*
X348868Y101263D01*
X348743Y102216D01*
X348375Y103104D01*
X347790Y103867D01*
X347027Y104452D01*
X346139Y104820D01*
X345186Y104946D01*
X344233Y104820D01*
X343344Y104452D01*
X342582Y103867D01*
X341996Y103104D01*
X341629Y102216D01*
X341503Y101263D01*
X341615Y100413D01*
X341324Y99913D01*
X328837D01*
Y104914D01*
X321535D01*
Y99913D01*
X319047D01*
X318757Y100413D01*
X318868Y101263D01*
X318743Y102216D01*
X318375Y103104D01*
X317790Y103867D01*
X317027Y104452D01*
X316139Y104820D01*
X315186Y104946D01*
X314233Y104820D01*
X313344Y104452D01*
X312582Y103867D01*
X311996Y103104D01*
X311629Y102216D01*
X311503Y101263D01*
X311615Y100413D01*
X311324Y99913D01*
X295122D01*
X265242Y129477D01*
X265012Y129571D01*
X264785Y129665D01*
X264783Y129665D01*
X264781Y129665D01*
X264553Y129569D01*
X264325Y129475D01*
X257626Y122775D01*
X257553Y122600D01*
X257448Y122442D01*
X257375Y122075D01*
X257166Y121763D01*
X256854Y121554D01*
X256485Y121481D01*
X256116Y121554D01*
X255804Y121763D01*
X255595Y122075D01*
X255522Y122444D01*
X255595Y122813D01*
X255804Y123125D01*
X256116Y123334D01*
X256483Y123407D01*
X256641Y123512D01*
X256816Y123585D01*
X263256Y130025D01*
X263256Y130025D01*
X263257Y130026D01*
X263351Y130254D01*
X263446Y130484D01*
X263446Y130485D01*
X263446Y130486D01*
X263445Y130986D01*
X263445Y130986D01*
X263445Y130987D01*
X263349Y131216D01*
X263253Y131444D01*
X263253Y131445D01*
X263252Y131446D01*
X260638Y134033D01*
Y158595D01*
X260447Y159054D01*
X259988Y159244D01*
X210501D01*
X210272Y159149D01*
X210043Y159055D01*
X210042Y159054D01*
X209537Y159140D01*
X209476Y159165D01*
X156707D01*
X156588Y159116D01*
X156458D01*
X156367Y159024D01*
X156248Y158975D01*
X156198Y158856D01*
X156107Y158764D01*
X156042Y158607D01*
Y158478D01*
X155992Y158358D01*
X155992Y132965D01*
X156183Y132505D01*
X182843Y105845D01*
X182990Y105784D01*
X183113Y105683D01*
X183211Y105693D01*
X183302Y105655D01*
X183449Y105716D01*
X183608Y105732D01*
X183920Y105898D01*
X184233Y105429D01*
X184703Y105115D01*
X184536Y104803D01*
X184521Y104645D01*
X184460Y104497D01*
X184497Y104406D01*
X184488Y104309D01*
X184589Y104185D01*
X184650Y104038D01*
X189911Y98777D01*
X189943Y98764D01*
X189959Y98734D01*
X190168Y98670D01*
X190371Y98586D01*
X190496Y98124D01*
X190594Y97631D01*
X190946Y97103D01*
X191474Y96751D01*
X192096Y96627D01*
X192393Y96686D01*
X192806Y96259D01*
X192744Y95944D01*
X192867Y95322D01*
X193220Y94794D01*
X193747Y94442D01*
X194262Y94340D01*
X194724Y94233D01*
X194808Y94030D01*
X194871Y93821D01*
X194901Y93805D01*
X194914Y93774D01*
X251236Y37452D01*
X251237Y37451D01*
X251238Y37450D01*
X251467Y37356D01*
X251695Y37261D01*
X251696Y37262D01*
X251698Y37261D01*
X262125Y37298D01*
X262185Y37323D01*
X262249Y37310D01*
X262408Y37416D01*
X262584Y37490D01*
X262604Y37541D01*
X262967Y37783D01*
X263335Y37856D01*
X263704Y37783D01*
X264065Y37541D01*
X264085Y37495D01*
X264259Y37424D01*
X264416Y37319D01*
X264482Y37332D01*
X264545Y37306D01*
X326635Y37524D01*
X326725Y37562D01*
X326823Y37552D01*
X326946Y37654D01*
X327094Y37716D01*
X327538Y37952D01*
X327609Y37969D01*
X327706Y37905D01*
X328328Y37781D01*
X328950Y37905D01*
X329059Y37978D01*
X329116Y37964D01*
X329573Y37725D01*
X329720Y37664D01*
X329843Y37563D01*
X329941Y37573D01*
X330033Y37536D01*
X390286Y37747D01*
X390405Y37797D01*
X390534Y37797D01*
X390625Y37889D01*
X390745Y37939D01*
X390794Y38058D01*
X390884Y38149D01*
X390982Y38386D01*
X390982Y38515D01*
X391031Y38634D01*
Y57295D01*
X390841Y57754D01*
X390382Y57945D01*
X313584Y57945D01*
X313531Y57973D01*
X313501Y58122D01*
X313149Y58649D01*
X312622Y59001D01*
X312000Y59125D01*
X311378Y59001D01*
X310851Y58649D01*
X310499Y58122D01*
X310469Y57973D01*
X310416Y57945D01*
X278643Y57945D01*
X210126Y126462D01*
X210126Y141688D01*
X210588Y141880D01*
X211506Y140961D01*
X211539Y140798D01*
X211891Y140271D01*
X212418Y139919D01*
X212581Y139886D01*
X257802Y94665D01*
X258261Y94475D01*
X258720Y94665D01*
X261825Y97769D01*
X261832Y97787D01*
X262179Y98019D01*
X262548Y98092D01*
X262916Y98019D01*
X263229Y97810D01*
X263438Y97498D01*
X263511Y97129D01*
X263438Y96760D01*
X263206Y96413D01*
X263188Y96406D01*
X260084Y93302D01*
X260084D01*
X259894Y92842D01*
X259895Y92840D01*
X260084Y92383D01*
X262204Y90263D01*
X261958Y89803D01*
X261734Y89847D01*
X261112Y89723D01*
X260585Y89371D01*
X260233Y88844D01*
X260109Y88222D01*
X260233Y87600D01*
X260585Y87072D01*
X260739Y86970D01*
X260769Y86388D01*
X260416Y85861D01*
X260293Y85239D01*
X260416Y84617D01*
X260769Y84090D01*
X261124Y83852D01*
X261287Y83599D01*
X261263Y83235D01*
X261042Y82904D01*
X260918Y82282D01*
X261042Y81660D01*
X261394Y81133D01*
X261922Y80781D01*
X262544Y80657D01*
X263166Y80781D01*
X263693Y81133D01*
X264045Y81660D01*
X264169Y82282D01*
X264045Y82904D01*
X263693Y83432D01*
X263337Y83669D01*
X263175Y83922D01*
X263199Y84287D01*
X263420Y84617D01*
X263543Y85239D01*
X263420Y85861D01*
X263067Y86388D01*
X262914Y86491D01*
X262884Y87073D01*
X263236Y87600D01*
X263360Y88222D01*
X263315Y88445D01*
X263776Y88691D01*
X271970Y80497D01*
X272429Y80307D01*
X309666Y80307D01*
X310069Y79807D01*
X310008Y79500D01*
X310146Y78806D01*
X310540Y78217D01*
X313097Y75660D01*
X313686Y75266D01*
X314380Y75128D01*
X352362D01*
X352629Y74628D01*
X352469Y74389D01*
X352346Y73767D01*
X352469Y73145D01*
X352822Y72618D01*
X353349Y72266D01*
X353971Y72142D01*
X354593Y72266D01*
X355120Y72618D01*
X355473Y73145D01*
X355596Y73767D01*
X355473Y74389D01*
X355313Y74628D01*
X355580Y75128D01*
X357395D01*
X357663Y74628D01*
X357503Y74389D01*
X357379Y73767D01*
X357503Y73145D01*
X357855Y72618D01*
X358383Y72266D01*
X359005Y72142D01*
X359627Y72266D01*
X360154Y72618D01*
X360506Y73145D01*
X360630Y73767D01*
X360506Y74389D01*
X360347Y74628D01*
X360614Y75128D01*
X382949D01*
X394592Y63485D01*
Y31425D01*
X368194Y5028D01*
X260034D01*
X259923Y5528D01*
X260341Y5807D01*
X260693Y6334D01*
X260817Y6956D01*
X260693Y7578D01*
X260341Y8106D01*
X259813Y8458D01*
X259191Y8582D01*
X258569Y8458D01*
X258042Y8106D01*
X257690Y7578D01*
X257566Y6956D01*
X257690Y6334D01*
X258042Y5807D01*
X258460Y5528D01*
X258348Y5028D01*
X194563D01*
X194448Y5105D01*
X193754Y5243D01*
X183799D01*
X145677Y43365D01*
X145088Y43758D01*
X144394Y43896D01*
X135179D01*
X131390Y47686D01*
X131597Y48186D01*
X143512D01*
X181824Y9874D01*
X182413Y9480D01*
X183107Y9342D01*
X216706D01*
X217011Y8878D01*
X217007Y8842D01*
X216517Y8514D01*
X216164Y7987D01*
X216041Y7365D01*
X216164Y6743D01*
X216517Y6216D01*
X217044Y5864D01*
X217666Y5740D01*
X218288Y5864D01*
X218815Y6216D01*
X219168Y6743D01*
X219291Y7365D01*
X219168Y7987D01*
X218815Y8514D01*
X218325Y8842D01*
X218321Y8878D01*
X218626Y9342D01*
X327419D01*
X328513Y8248D01*
X329102Y7854D01*
X329796Y7716D01*
X330491Y7854D01*
X331079Y8248D01*
X331473Y8836D01*
X331611Y9531D01*
X331473Y10225D01*
X331079Y10814D01*
X329453Y12439D01*
X328865Y12833D01*
X328170Y12971D01*
X183859D01*
X145547Y51283D01*
X144958Y51676D01*
X144264Y51814D01*
X131000D01*
X130306Y51676D01*
X129717Y51283D01*
X129324Y50694D01*
X129285Y50498D01*
X128742Y50333D01*
X127720Y51355D01*
Y68750D01*
X130002D01*
X130378Y68498D01*
X131000Y68375D01*
X131622Y68498D01*
X132149Y68851D01*
X132502Y69378D01*
X132625Y70000D01*
X132502Y70622D01*
X132149Y71149D01*
X131622Y71502D01*
X131000Y71625D01*
X130378Y71502D01*
X129917Y71193D01*
X127210D01*
X127189Y71226D01*
X126600Y71619D01*
X125906Y71757D01*
X125211Y71619D01*
X124623Y71226D01*
X124601Y71193D01*
X122083D01*
X121622Y71502D01*
X121000Y71625D01*
X120378Y71502D01*
X119851Y71149D01*
X119498Y70622D01*
X119375Y70000D01*
X119498Y69378D01*
X119851Y68851D01*
X120378Y68498D01*
X121000Y68375D01*
X121622Y68498D01*
X121998Y68750D01*
X124091D01*
Y50604D01*
X124230Y49909D01*
X124623Y49321D01*
X133144Y40799D01*
X133733Y40406D01*
X134427Y40268D01*
X143642D01*
X181764Y2145D01*
X182353Y1752D01*
X183047Y1614D01*
X193160D01*
X193275Y1537D01*
X193969Y1399D01*
X258126D01*
X258270Y1032D01*
X258297Y899D01*
X257960Y395D01*
X257836Y-227D01*
X257960Y-849D01*
X258312Y-1376D01*
X258840Y-1729D01*
X259462Y-1852D01*
X260084Y-1729D01*
X260611Y-1376D01*
X260963Y-849D01*
X261087Y-227D01*
X260963Y395D01*
X260627Y899D01*
X260654Y1032D01*
X260798Y1399D01*
X310419D01*
Y-1092D01*
X310557Y-1786D01*
X310723Y-2035D01*
X310419Y-2432D01*
X310005Y-3430D01*
X309865Y-4500D01*
X310005Y-5570D01*
X310419Y-6568D01*
X311076Y-7424D01*
X311932Y-8081D01*
X312930Y-8495D01*
X314000Y-8635D01*
X315070Y-8495D01*
X316068Y-8081D01*
X316924Y-7424D01*
X317581Y-6568D01*
X317994Y-5570D01*
X318033Y-5281D01*
X318090Y-5194D01*
X318229Y-4500D01*
X318090Y-3806D01*
X318033Y-3719D01*
X317994Y-3430D01*
X317581Y-2432D01*
X316924Y-1576D01*
X316068Y-919D01*
X315070Y-506D01*
X314047Y-371D01*
Y1399D01*
X368946D01*
X369640Y1537D01*
X370229Y1930D01*
X395639Y27340D01*
X396101Y27149D01*
Y-9733D01*
X335614D01*
Y-8376D01*
X336068Y-8188D01*
X336924Y-7530D01*
X337581Y-6674D01*
X337995Y-5677D01*
X338135Y-4606D01*
X337995Y-3536D01*
X337581Y-2539D01*
X336924Y-1682D01*
X336068Y-1025D01*
X335070Y-612D01*
X334000Y-471D01*
X332930Y-612D01*
X331932Y-1025D01*
X331076Y-1682D01*
X330419Y-2539D01*
X330006Y-3536D01*
X329865Y-4606D01*
X330006Y-5677D01*
X330419Y-6674D01*
X331076Y-7530D01*
X331932Y-8188D01*
X332386Y-8376D01*
Y-9733D01*
X310575D01*
X307601Y-6759D01*
X307898Y-6043D01*
X308141Y-5880D01*
X308491Y-5357D01*
X308614Y-4739D01*
X308491Y-4122D01*
X308141Y-3598D01*
X307898Y-3436D01*
X307581Y-2672D01*
X306924Y-1815D01*
X306068Y-1158D01*
X305070Y-745D01*
X304000Y-604D01*
X302930Y-745D01*
X301932Y-1158D01*
X301076Y-1815D01*
X300419Y-2672D01*
X300006Y-3669D01*
X299865Y-4739D01*
X300006Y-5810D01*
X300419Y-6807D01*
X301076Y-7663D01*
X301932Y-8321D01*
X302930Y-8734D01*
X304000Y-8875D01*
X305018Y-8741D01*
X308765Y-12487D01*
X309289Y-12837D01*
X309906Y-12960D01*
X396101D01*
Y-15047D01*
X396123Y-15102D01*
X395789Y-15602D01*
X3277Y-15602D01*
X3218Y-15102D01*
X4576Y-14776D01*
X6782Y-13862D01*
X8817Y-12615D01*
X10633Y-11064D01*
X12183Y-9249D01*
X13431Y-7213D01*
X14344Y-5008D01*
X14901Y-2686D01*
X15089Y-306D01*
X14901Y2074D01*
X14344Y4395D01*
X13431Y6600D01*
X12183Y8636D01*
X10633Y10451D01*
X8817Y12002D01*
X6782Y13249D01*
X4576Y14163D01*
X2255Y14720D01*
X-125Y14907D01*
X-2505Y14720D01*
X-4826Y14163D01*
X-7032Y13249D01*
X-9067Y12002D01*
X-10883Y10451D01*
X-12433Y8636D01*
X-13681Y6600D01*
X-14594Y4395D01*
X-15152Y2074D01*
X-15339Y-306D01*
X-15152Y-2686D01*
X-15025Y-3213D01*
X-15461Y-3457D01*
X-17092Y-1827D01*
X-17203Y-120D01*
X-17203Y-120D01*
X-17206D01*
X-17207Y-112D01*
Y200154D01*
X-17195Y227734D01*
X-17099Y229204D01*
X-15247Y231532D01*
X-14798Y231313D01*
X-15011Y230425D01*
X-15199Y228045D01*
X-15011Y225665D01*
X-14454Y223343D01*
X-13540Y221138D01*
X-12293Y219102D01*
X-10743Y217287D01*
X-8927Y215737D01*
X-6892Y214489D01*
X-4686Y213576D01*
X-2365Y213018D01*
X15Y212831D01*
X2395Y213018D01*
X4716Y213576D01*
X6922Y214489D01*
X8958Y215737D01*
X10773Y217287D01*
X12323Y219102D01*
X13571Y221138D01*
X14484Y223343D01*
X15042Y225665D01*
X15229Y228045D01*
X15042Y230425D01*
X14484Y232746D01*
X13571Y234952D01*
X12323Y236987D01*
X10773Y238803D01*
X8958Y240353D01*
X6922Y241600D01*
X4716Y242514D01*
X2395Y243071D01*
X15Y243259D01*
X-2365Y243071D01*
X-4686Y242514D01*
X-6460Y241779D01*
X-6771Y242192D01*
X-5056Y244349D01*
X-4073Y244682D01*
X-1800Y245134D01*
X25Y245254D01*
X513Y245285D01*
Y245285D01*
X516Y245286D01*
X1012Y245287D01*
X397400Y245287D01*
Y226571D01*
D02*
G37*
G36*
X209476Y126193D02*
X278374Y57295D01*
X310416Y57295D01*
X310499Y56878D01*
X310851Y56351D01*
X311378Y55999D01*
X312000Y55875D01*
X312622Y55999D01*
X313149Y56351D01*
X313501Y56878D01*
X313584Y57295D01*
X390382Y57295D01*
Y38634D01*
X390284Y38396D01*
X330030Y38185D01*
X329763Y38684D01*
X329829Y38784D01*
X329953Y39406D01*
X329829Y40028D01*
X329477Y40556D01*
X328950Y40908D01*
X328328Y41032D01*
X327706Y40908D01*
X327179Y40556D01*
X326826Y40028D01*
X326702Y39406D01*
X326826Y38784D01*
X326900Y38674D01*
X326633Y38173D01*
X264542Y37956D01*
X264485Y38042D01*
X263957Y38394D01*
X263335Y38518D01*
X262713Y38394D01*
X262186Y38042D01*
X262123Y37947D01*
X251695Y37911D01*
X195373Y94233D01*
X195423Y94730D01*
X195518Y94794D01*
X195871Y95322D01*
X195994Y95944D01*
X195871Y96566D01*
X195518Y97093D01*
X194991Y97445D01*
X194915Y97460D01*
Y97970D01*
X195401Y98067D01*
X195928Y98419D01*
X196280Y98946D01*
X196404Y99568D01*
X196297Y100106D01*
X196478Y100385D01*
X196643Y100547D01*
X196866Y100502D01*
X197488Y100626D01*
X198016Y100979D01*
X198368Y101506D01*
X198492Y102128D01*
X198368Y102750D01*
X198331Y102804D01*
X198632Y103254D01*
X199001Y103181D01*
X199623Y103305D01*
X200150Y103657D01*
X200502Y104184D01*
X200626Y104806D01*
X200502Y105428D01*
X200150Y105956D01*
X199623Y106308D01*
X199001Y106431D01*
X198379Y106308D01*
X197851Y105956D01*
X197499Y105428D01*
X197375Y104806D01*
X197499Y104184D01*
X197536Y104130D01*
X197235Y103680D01*
X196866Y103753D01*
X196244Y103629D01*
X195717Y103277D01*
X195365Y102750D01*
X195241Y102128D01*
X195348Y101590D01*
X195167Y101311D01*
X195002Y101149D01*
X194779Y101194D01*
X194157Y101070D01*
X193629Y100717D01*
X193277Y100190D01*
X193240Y100006D01*
X192718Y99754D01*
X192096Y99878D01*
X191474Y99754D01*
X190946Y99402D01*
X190868Y99285D01*
X190371Y99236D01*
X185109Y104497D01*
X185355Y104958D01*
X185383Y104953D01*
X186005Y105076D01*
X186532Y105429D01*
X186884Y105956D01*
X187008Y106578D01*
X186884Y107200D01*
X186532Y107727D01*
X186005Y108079D01*
X185383Y108203D01*
X184761Y108079D01*
X184233Y107727D01*
X183881Y107200D01*
X183757Y106578D01*
X183763Y106551D01*
X183302Y106304D01*
X156642Y132965D01*
X156642Y158358D01*
X156707Y158516D01*
X209476D01*
X209476Y126193D01*
D02*
G37*
G36*
X259988Y133762D02*
X262795Y130984D01*
X262797Y130484D01*
X256357Y124044D01*
X255863Y123946D01*
X255336Y123593D01*
X254983Y123066D01*
X254860Y122444D01*
X254983Y121822D01*
X255336Y121295D01*
X255863Y120942D01*
X256485Y120819D01*
X257107Y120942D01*
X257634Y121295D01*
X257986Y121822D01*
X258085Y122316D01*
X264785Y129016D01*
X294854Y99264D01*
X312118D01*
X312582Y98659D01*
X313344Y98074D01*
X314233Y97706D01*
X315186Y97580D01*
X316139Y97706D01*
X317027Y98074D01*
X317790Y98659D01*
X318254Y99264D01*
X321535D01*
Y97612D01*
X328837D01*
Y99264D01*
X342118D01*
X342582Y98659D01*
X343344Y98074D01*
X344233Y97706D01*
X345186Y97580D01*
X346139Y97706D01*
X347027Y98074D01*
X347790Y98659D01*
X348254Y99264D01*
X351535D01*
Y97612D01*
X358837D01*
Y99264D01*
X390461D01*
Y81193D01*
X390224Y80957D01*
X312846Y80957D01*
X312517Y81176D01*
X311823Y81314D01*
X311128Y81176D01*
X310800Y80957D01*
X272429Y80957D01*
X260543Y92842D01*
X263648Y95947D01*
X263697Y95980D01*
X264050Y96507D01*
X264173Y97129D01*
X264050Y97751D01*
X263697Y98278D01*
X263170Y98631D01*
X262548Y98754D01*
X261926Y98631D01*
X261399Y98278D01*
X261366Y98229D01*
X258261Y95125D01*
X210470Y142916D01*
X210501Y158595D01*
X259988D01*
Y133762D01*
D02*
G37*
G36*
X486250Y137950D02*
X485017Y137829D01*
X483114Y137252D01*
X481359Y136314D01*
X479822Y135052D01*
X478560Y133514D01*
X477622Y131760D01*
X477045Y129857D01*
X476850Y127877D01*
X477045Y125898D01*
X477622Y123994D01*
X478560Y122240D01*
X479822Y120702D01*
X481359Y119440D01*
X483114Y118503D01*
X485017Y117925D01*
X486250Y117804D01*
Y111784D01*
X485017Y111662D01*
X483114Y111085D01*
X481359Y110147D01*
X479822Y108885D01*
X478560Y107347D01*
X477622Y105593D01*
X477045Y103690D01*
X476850Y101710D01*
X477045Y99731D01*
X477622Y97827D01*
X478560Y96073D01*
X479822Y94535D01*
X481359Y93273D01*
X483114Y92336D01*
X485017Y91758D01*
X486250Y91637D01*
Y13384D01*
X485017Y13262D01*
X483114Y12685D01*
X481359Y11747D01*
X479822Y10485D01*
X478560Y8947D01*
X477622Y7193D01*
X477045Y5290D01*
X476850Y3310D01*
X477045Y1331D01*
X477622Y-573D01*
X478560Y-2327D01*
X479822Y-3865D01*
X481359Y-5127D01*
X483114Y-6064D01*
X485017Y-6642D01*
X486250Y-6763D01*
Y-14949D01*
X486152Y-15047D01*
X459910D01*
X459851Y-14547D01*
X460517Y-14387D01*
X462723Y-13474D01*
X464758Y-12227D01*
X466573Y-10676D01*
X468124Y-8861D01*
X469371Y-6825D01*
X470285Y-4620D01*
X470842Y-2298D01*
X471030Y82D01*
X470842Y2462D01*
X470285Y4783D01*
X469371Y6989D01*
X468124Y9024D01*
X466573Y10840D01*
X464758Y12390D01*
X462723Y13637D01*
X460517Y14551D01*
X458196Y15108D01*
X455816Y15296D01*
X453436Y15108D01*
X451114Y14551D01*
X448909Y13637D01*
X446873Y12390D01*
X445058Y10840D01*
X443507Y9024D01*
X442260Y6989D01*
X441347Y4783D01*
X440789Y2462D01*
X440602Y82D01*
X440789Y-2298D01*
X441347Y-4620D01*
X442260Y-6825D01*
X443507Y-8861D01*
X445058Y-10676D01*
X446873Y-12227D01*
X448909Y-13474D01*
X451114Y-14387D01*
X451780Y-14547D01*
X451721Y-15047D01*
X396750D01*
Y28452D01*
X397689Y29391D01*
X397689Y29391D01*
X398082Y29980D01*
X398221Y30674D01*
X398221Y30674D01*
Y64237D01*
X398221Y64237D01*
X398082Y64931D01*
X397689Y65520D01*
X396750Y66459D01*
Y207000D01*
X486250D01*
Y137950D01*
D02*
G37*
%LPC*%
G36*
X384280Y226856D02*
X383307Y226728D01*
X382399Y226352D01*
X381620Y225754D01*
X381022Y224975D01*
X380646Y224067D01*
X380518Y223094D01*
X380646Y222120D01*
X381022Y221213D01*
X381620Y220433D01*
X382399Y219835D01*
X383307Y219460D01*
X384280Y219332D01*
X385254Y219460D01*
X386161Y219835D01*
X386940Y220433D01*
X387538Y221213D01*
X387914Y222120D01*
X388042Y223094D01*
X387914Y224067D01*
X387538Y224975D01*
X386940Y225754D01*
X386161Y226352D01*
X385254Y226728D01*
X384280Y226856D01*
D02*
G37*
G36*
X373493D02*
X372519Y226728D01*
X371612Y226352D01*
X370833Y225754D01*
X370235Y224975D01*
X369859Y224067D01*
X369731Y223094D01*
X369859Y222120D01*
X370235Y221213D01*
X370833Y220433D01*
X371612Y219835D01*
X372519Y219460D01*
X373493Y219332D01*
X374466Y219460D01*
X375374Y219835D01*
X376153Y220433D01*
X376751Y221213D01*
X377127Y222120D01*
X377255Y223094D01*
X377127Y224067D01*
X376751Y224975D01*
X376153Y225754D01*
X375374Y226352D01*
X374466Y226728D01*
X373493Y226856D01*
D02*
G37*
G36*
X362705D02*
X361732Y226728D01*
X360824Y226352D01*
X360045Y225754D01*
X359447Y224975D01*
X359071Y224067D01*
X358943Y223094D01*
X359071Y222120D01*
X359447Y221213D01*
X360045Y220433D01*
X360824Y219835D01*
X361732Y219460D01*
X362705Y219332D01*
X363679Y219460D01*
X364586Y219835D01*
X365366Y220433D01*
X365964Y221213D01*
X366339Y222120D01*
X366467Y223094D01*
X366339Y224067D01*
X365964Y224975D01*
X365366Y225754D01*
X364586Y226352D01*
X363679Y226728D01*
X362705Y226856D01*
D02*
G37*
G36*
X270698D02*
X269724Y226728D01*
X268816Y226352D01*
X268037Y225754D01*
X267440Y224975D01*
X267064Y224067D01*
X266935Y223094D01*
X267064Y222120D01*
X267440Y221213D01*
X268037Y220433D01*
X268816Y219835D01*
X269724Y219460D01*
X270698Y219332D01*
X271671Y219460D01*
X272579Y219835D01*
X273358Y220433D01*
X273956Y221213D01*
X274331Y222120D01*
X274460Y223094D01*
X274331Y224067D01*
X273956Y224975D01*
X273358Y225754D01*
X272579Y226352D01*
X271671Y226728D01*
X270698Y226856D01*
D02*
G37*
G36*
X259910D02*
X258936Y226728D01*
X258029Y226352D01*
X257250Y225754D01*
X256652Y224975D01*
X256276Y224067D01*
X256148Y223094D01*
X256276Y222120D01*
X256652Y221213D01*
X257250Y220433D01*
X258029Y219835D01*
X258936Y219460D01*
X259910Y219332D01*
X260884Y219460D01*
X261791Y219835D01*
X262570Y220433D01*
X263168Y221213D01*
X263544Y222120D01*
X263672Y223094D01*
X263544Y224067D01*
X263168Y224975D01*
X262570Y225754D01*
X261791Y226352D01*
X260884Y226728D01*
X259910Y226856D01*
D02*
G37*
G36*
X249123D02*
X248149Y226728D01*
X247242Y226352D01*
X246462Y225754D01*
X245865Y224975D01*
X245489Y224067D01*
X245361Y223094D01*
X245489Y222120D01*
X245865Y221213D01*
X246462Y220433D01*
X247242Y219835D01*
X248149Y219460D01*
X249123Y219332D01*
X250097Y219460D01*
X251004Y219835D01*
X251783Y220433D01*
X252381Y221213D01*
X252757Y222120D01*
X252885Y223094D01*
X252757Y224067D01*
X252381Y224975D01*
X251783Y225754D01*
X251004Y226352D01*
X250097Y226728D01*
X249123Y226856D01*
D02*
G37*
G36*
X238335D02*
X237362Y226728D01*
X236454Y226352D01*
X235675Y225754D01*
X235077Y224975D01*
X234701Y224067D01*
X234573Y223094D01*
X234701Y222120D01*
X235077Y221213D01*
X235675Y220433D01*
X236454Y219835D01*
X237362Y219460D01*
X238335Y219332D01*
X239309Y219460D01*
X240216Y219835D01*
X240996Y220433D01*
X241593Y221213D01*
X241969Y222120D01*
X242097Y223094D01*
X241969Y224067D01*
X241593Y224975D01*
X240996Y225754D01*
X240216Y226352D01*
X239309Y226728D01*
X238335Y226856D01*
D02*
G37*
G36*
X146524D02*
X145551Y226728D01*
X144643Y226352D01*
X143864Y225754D01*
X143266Y224975D01*
X142890Y224067D01*
X142762Y223094D01*
X142890Y222120D01*
X143266Y221213D01*
X143864Y220433D01*
X144643Y219835D01*
X145551Y219460D01*
X146524Y219332D01*
X147498Y219460D01*
X148405Y219835D01*
X149185Y220433D01*
X149782Y221213D01*
X150158Y222120D01*
X150286Y223094D01*
X150158Y224067D01*
X149782Y224975D01*
X149185Y225754D01*
X148405Y226352D01*
X147498Y226728D01*
X146524Y226856D01*
D02*
G37*
G36*
X135737D02*
X134763Y226728D01*
X133856Y226352D01*
X133077Y225754D01*
X132479Y224975D01*
X132103Y224067D01*
X131975Y223094D01*
X132103Y222120D01*
X132479Y221213D01*
X133077Y220433D01*
X133856Y219835D01*
X134763Y219460D01*
X135737Y219332D01*
X136711Y219460D01*
X137618Y219835D01*
X138397Y220433D01*
X138995Y221213D01*
X139371Y222120D01*
X139499Y223094D01*
X139371Y224067D01*
X138995Y224975D01*
X138397Y225754D01*
X137618Y226352D01*
X136711Y226728D01*
X135737Y226856D01*
D02*
G37*
G36*
X124950D02*
X123976Y226728D01*
X123068Y226352D01*
X122289Y225754D01*
X121691Y224975D01*
X121316Y224067D01*
X121187Y223094D01*
X121316Y222120D01*
X121691Y221213D01*
X122289Y220433D01*
X123068Y219835D01*
X123976Y219460D01*
X124950Y219332D01*
X125923Y219460D01*
X126830Y219835D01*
X127610Y220433D01*
X128208Y221213D01*
X128583Y222120D01*
X128712Y223094D01*
X128583Y224067D01*
X128208Y224975D01*
X127610Y225754D01*
X126830Y226352D01*
X125923Y226728D01*
X124950Y226856D01*
D02*
G37*
G36*
X114162D02*
X113188Y226728D01*
X112281Y226352D01*
X111502Y225754D01*
X110904Y224975D01*
X110528Y224067D01*
X110400Y223094D01*
X110528Y222120D01*
X110904Y221213D01*
X111502Y220433D01*
X112281Y219835D01*
X113188Y219460D01*
X114162Y219332D01*
X115136Y219460D01*
X116043Y219835D01*
X116822Y220433D01*
X117420Y221213D01*
X117796Y222120D01*
X117924Y223094D01*
X117796Y224067D01*
X117420Y224975D01*
X116822Y225754D01*
X116043Y226352D01*
X115136Y226728D01*
X114162Y226856D01*
D02*
G37*
G36*
X329713Y224139D02*
X328419Y224011D01*
X327174Y223634D01*
X326027Y223021D01*
X325021Y222195D01*
X324196Y221190D01*
X323583Y220042D01*
X323205Y218798D01*
X323077Y217503D01*
X323205Y216208D01*
X323583Y214964D01*
X324196Y213816D01*
X325021Y212811D01*
X326027Y211985D01*
X327174Y211372D01*
X328419Y210995D01*
X329713Y210867D01*
X331008Y210995D01*
X332253Y211372D01*
X333400Y211985D01*
X334406Y212811D01*
X335231Y213816D01*
X335844Y214964D01*
X336222Y216208D01*
X336349Y217503D01*
X336222Y218798D01*
X335844Y220042D01*
X335231Y221190D01*
X334406Y222195D01*
X333400Y223021D01*
X332253Y223634D01*
X331008Y224011D01*
X329713Y224139D01*
D02*
G37*
G36*
X303729D02*
X302434Y224011D01*
X301190Y223634D01*
X300042Y223021D01*
X299037Y222195D01*
X298212Y221190D01*
X297598Y220042D01*
X297221Y218798D01*
X297093Y217503D01*
X297221Y216208D01*
X297598Y214964D01*
X298212Y213816D01*
X299037Y212811D01*
X300042Y211985D01*
X301190Y211372D01*
X302434Y210995D01*
X303729Y210867D01*
X305024Y210995D01*
X306269Y211372D01*
X307416Y211985D01*
X308421Y212811D01*
X309247Y213816D01*
X309860Y214964D01*
X310237Y216208D01*
X310365Y217503D01*
X310237Y218798D01*
X309860Y220042D01*
X309247Y221190D01*
X308421Y222195D01*
X307416Y223021D01*
X306269Y223634D01*
X305024Y224011D01*
X303729Y224139D01*
D02*
G37*
G36*
X205343D02*
X204049Y224011D01*
X202804Y223634D01*
X201657Y223021D01*
X200651Y222195D01*
X199826Y221190D01*
X199213Y220042D01*
X198835Y218798D01*
X198707Y217503D01*
X198835Y216208D01*
X199213Y214964D01*
X199826Y213816D01*
X200651Y212811D01*
X201657Y211985D01*
X202804Y211372D01*
X204049Y210995D01*
X205343Y210867D01*
X206638Y210995D01*
X207883Y211372D01*
X209030Y211985D01*
X210035Y212811D01*
X210861Y213816D01*
X211474Y214964D01*
X211852Y216208D01*
X211979Y217503D01*
X211852Y218798D01*
X211474Y220042D01*
X210861Y221190D01*
X210035Y222195D01*
X209030Y223021D01*
X207883Y223634D01*
X206638Y224011D01*
X205343Y224139D01*
D02*
G37*
G36*
X179556D02*
X178261Y224011D01*
X177016Y223634D01*
X175869Y223021D01*
X174864Y222195D01*
X174038Y221190D01*
X173425Y220042D01*
X173047Y218798D01*
X172920Y217503D01*
X173047Y216208D01*
X173425Y214964D01*
X174038Y213816D01*
X174864Y212811D01*
X175869Y211985D01*
X177016Y211372D01*
X178261Y210995D01*
X179556Y210867D01*
X180850Y210995D01*
X182095Y211372D01*
X183242Y211985D01*
X184248Y212811D01*
X185073Y213816D01*
X185687Y214964D01*
X186064Y216208D01*
X186192Y217503D01*
X186064Y218798D01*
X185687Y220042D01*
X185073Y221190D01*
X184248Y222195D01*
X183242Y223021D01*
X182095Y223634D01*
X180850Y224011D01*
X179556Y224139D01*
D02*
G37*
G36*
X81170D02*
X79875Y224011D01*
X78631Y223634D01*
X77483Y223021D01*
X76478Y222195D01*
X75652Y221190D01*
X75039Y220042D01*
X74662Y218798D01*
X74534Y217503D01*
X74662Y216208D01*
X75039Y214964D01*
X75652Y213816D01*
X76478Y212811D01*
X77483Y211985D01*
X78631Y211372D01*
X79875Y210995D01*
X81170Y210867D01*
X82465Y210995D01*
X83709Y211372D01*
X84857Y211985D01*
X85862Y212811D01*
X86687Y213816D01*
X87301Y214964D01*
X87678Y216208D01*
X87806Y217503D01*
X87678Y218798D01*
X87301Y220042D01*
X86687Y221190D01*
X85862Y222195D01*
X84857Y223021D01*
X83709Y223634D01*
X82465Y224011D01*
X81170Y224139D01*
D02*
G37*
G36*
X361042Y215642D02*
X353582D01*
Y208183D01*
X361042D01*
Y215642D01*
D02*
G37*
G36*
X236672D02*
X229212D01*
Y208183D01*
X236672D01*
Y215642D01*
D02*
G37*
G36*
X112498D02*
X105038D01*
Y208183D01*
X112498D01*
Y215642D01*
D02*
G37*
G36*
X389674Y215675D02*
X388700Y215546D01*
X387793Y215171D01*
X387014Y214573D01*
X386416Y213794D01*
X386040Y212886D01*
X385912Y211912D01*
X386040Y210939D01*
X386416Y210031D01*
X387014Y209252D01*
X387793Y208654D01*
X388700Y208279D01*
X389674Y208150D01*
X390648Y208279D01*
X391555Y208654D01*
X392334Y209252D01*
X392932Y210031D01*
X393308Y210939D01*
X393436Y211912D01*
X393308Y212886D01*
X392932Y213794D01*
X392334Y214573D01*
X391555Y215171D01*
X390648Y215546D01*
X389674Y215675D01*
D02*
G37*
G36*
X378887D02*
X377913Y215546D01*
X377006Y215171D01*
X376226Y214573D01*
X375628Y213794D01*
X375253Y212886D01*
X375124Y211912D01*
X375253Y210939D01*
X375628Y210031D01*
X376226Y209252D01*
X377006Y208654D01*
X377913Y208279D01*
X378887Y208150D01*
X379860Y208279D01*
X380768Y208654D01*
X381547Y209252D01*
X382145Y210031D01*
X382520Y210939D01*
X382649Y211912D01*
X382520Y212886D01*
X382145Y213794D01*
X381547Y214573D01*
X380768Y215171D01*
X379860Y215546D01*
X378887Y215675D01*
D02*
G37*
G36*
X368099D02*
X367125Y215546D01*
X366218Y215171D01*
X365439Y214573D01*
X364841Y213794D01*
X364465Y212886D01*
X364337Y211912D01*
X364465Y210939D01*
X364841Y210031D01*
X365439Y209252D01*
X366218Y208654D01*
X367125Y208279D01*
X368099Y208150D01*
X369073Y208279D01*
X369980Y208654D01*
X370759Y209252D01*
X371357Y210031D01*
X371733Y210939D01*
X371861Y211912D01*
X371733Y212886D01*
X371357Y213794D01*
X370759Y214573D01*
X369980Y215171D01*
X369073Y215546D01*
X368099Y215675D01*
D02*
G37*
G36*
X276091D02*
X275117Y215546D01*
X274210Y215171D01*
X273431Y214573D01*
X272833Y213794D01*
X272457Y212886D01*
X272329Y211912D01*
X272457Y210939D01*
X272833Y210031D01*
X273431Y209252D01*
X274210Y208654D01*
X275117Y208279D01*
X276091Y208150D01*
X277065Y208279D01*
X277972Y208654D01*
X278751Y209252D01*
X279349Y210031D01*
X279725Y210939D01*
X279853Y211912D01*
X279725Y212886D01*
X279349Y213794D01*
X278751Y214573D01*
X277972Y215171D01*
X277065Y215546D01*
X276091Y215675D01*
D02*
G37*
G36*
X265304D02*
X264330Y215546D01*
X263423Y215171D01*
X262644Y214573D01*
X262046Y213794D01*
X261670Y212886D01*
X261542Y211912D01*
X261670Y210939D01*
X262046Y210031D01*
X262644Y209252D01*
X263423Y208654D01*
X264330Y208279D01*
X265304Y208150D01*
X266278Y208279D01*
X267185Y208654D01*
X267964Y209252D01*
X268562Y210031D01*
X268938Y210939D01*
X269066Y211912D01*
X268938Y212886D01*
X268562Y213794D01*
X267964Y214573D01*
X267185Y215171D01*
X266278Y215546D01*
X265304Y215675D01*
D02*
G37*
G36*
X254516D02*
X253543Y215546D01*
X252635Y215171D01*
X251856Y214573D01*
X251258Y213794D01*
X250883Y212886D01*
X250754Y211912D01*
X250883Y210939D01*
X251258Y210031D01*
X251856Y209252D01*
X252635Y208654D01*
X253543Y208279D01*
X254516Y208150D01*
X255490Y208279D01*
X256398Y208654D01*
X257177Y209252D01*
X257774Y210031D01*
X258150Y210939D01*
X258278Y211912D01*
X258150Y212886D01*
X257774Y213794D01*
X257177Y214573D01*
X256398Y215171D01*
X255490Y215546D01*
X254516Y215675D01*
D02*
G37*
G36*
X243729D02*
X242755Y215546D01*
X241848Y215171D01*
X241069Y214573D01*
X240471Y213794D01*
X240095Y212886D01*
X239967Y211912D01*
X240095Y210939D01*
X240471Y210031D01*
X241069Y209252D01*
X241848Y208654D01*
X242755Y208279D01*
X243729Y208150D01*
X244703Y208279D01*
X245610Y208654D01*
X246389Y209252D01*
X246987Y210031D01*
X247363Y210939D01*
X247491Y211912D01*
X247363Y212886D01*
X246987Y213794D01*
X246389Y214573D01*
X245610Y215171D01*
X244703Y215546D01*
X243729Y215675D01*
D02*
G37*
G36*
X151918D02*
X150944Y215546D01*
X150037Y215171D01*
X149258Y214573D01*
X148660Y213794D01*
X148284Y212886D01*
X148156Y211912D01*
X148284Y210939D01*
X148660Y210031D01*
X149258Y209252D01*
X150037Y208654D01*
X150944Y208279D01*
X151918Y208150D01*
X152892Y208279D01*
X153799Y208654D01*
X154578Y209252D01*
X155176Y210031D01*
X155552Y210939D01*
X155680Y211912D01*
X155552Y212886D01*
X155176Y213794D01*
X154578Y214573D01*
X153799Y215171D01*
X152892Y215546D01*
X151918Y215675D01*
D02*
G37*
G36*
X141131D02*
X140157Y215546D01*
X139250Y215171D01*
X138470Y214573D01*
X137873Y213794D01*
X137497Y212886D01*
X137369Y211912D01*
X137497Y210939D01*
X137873Y210031D01*
X138470Y209252D01*
X139250Y208654D01*
X140157Y208279D01*
X141131Y208150D01*
X142104Y208279D01*
X143012Y208654D01*
X143791Y209252D01*
X144389Y210031D01*
X144764Y210939D01*
X144893Y211912D01*
X144764Y212886D01*
X144389Y213794D01*
X143791Y214573D01*
X143012Y215171D01*
X142104Y215546D01*
X141131Y215675D01*
D02*
G37*
G36*
X130343D02*
X129369Y215546D01*
X128462Y215171D01*
X127683Y214573D01*
X127085Y213794D01*
X126709Y212886D01*
X126581Y211912D01*
X126709Y210939D01*
X127085Y210031D01*
X127683Y209252D01*
X128462Y208654D01*
X129369Y208279D01*
X130343Y208150D01*
X131317Y208279D01*
X132224Y208654D01*
X133003Y209252D01*
X133601Y210031D01*
X133977Y210939D01*
X134105Y211912D01*
X133977Y212886D01*
X133601Y213794D01*
X133003Y214573D01*
X132224Y215171D01*
X131317Y215546D01*
X130343Y215675D01*
D02*
G37*
G36*
X119556D02*
X118582Y215546D01*
X117675Y215171D01*
X116896Y214573D01*
X116298Y213794D01*
X115922Y212886D01*
X115794Y211912D01*
X115922Y210939D01*
X116298Y210031D01*
X116896Y209252D01*
X117675Y208654D01*
X118582Y208279D01*
X119556Y208150D01*
X120529Y208279D01*
X121437Y208654D01*
X122216Y209252D01*
X122814Y210031D01*
X123190Y210939D01*
X123318Y211912D01*
X123190Y212886D01*
X122814Y213794D01*
X122216Y214573D01*
X121437Y215171D01*
X120529Y215546D01*
X119556Y215675D01*
D02*
G37*
G36*
X105687Y191739D02*
X105065Y191615D01*
X104538Y191263D01*
X104186Y190736D01*
X104062Y190114D01*
X104186Y189492D01*
X104538Y188965D01*
X105065Y188612D01*
X105687Y188489D01*
X106309Y188612D01*
X106836Y188965D01*
X107189Y189492D01*
X107313Y190114D01*
X107189Y190736D01*
X106836Y191263D01*
X106309Y191615D01*
X105687Y191739D01*
D02*
G37*
G36*
X146777Y188190D02*
X146155Y188066D01*
X145628Y187714D01*
X145275Y187187D01*
X145152Y186565D01*
X145275Y185942D01*
X145628Y185415D01*
X146155Y185063D01*
X146777Y184939D01*
X147399Y185063D01*
X147926Y185415D01*
X148279Y185942D01*
X148402Y186565D01*
X148279Y187187D01*
X147926Y187714D01*
X147399Y188066D01*
X146777Y188190D01*
D02*
G37*
G36*
X301991Y186641D02*
X301369Y186517D01*
X300842Y186164D01*
X300489Y185637D01*
X300365Y185015D01*
X300489Y184393D01*
X300842Y183866D01*
X301369Y183514D01*
X301991Y183390D01*
X302613Y183514D01*
X303140Y183866D01*
X303492Y184393D01*
X303616Y185015D01*
X303492Y185637D01*
X303140Y186164D01*
X302613Y186517D01*
X301991Y186641D01*
D02*
G37*
G36*
X251131Y184975D02*
X250509Y184851D01*
X249981Y184499D01*
X249629Y183972D01*
X249505Y183350D01*
X249629Y182728D01*
X249981Y182200D01*
X250509Y181848D01*
X251131Y181724D01*
X251753Y181848D01*
X252280Y182200D01*
X252632Y182728D01*
X252756Y183350D01*
X252632Y183972D01*
X252280Y184499D01*
X251753Y184851D01*
X251131Y184975D01*
D02*
G37*
G36*
X197587Y184581D02*
X196965Y184457D01*
X196438Y184105D01*
X196086Y183578D01*
X195962Y182956D01*
X196086Y182334D01*
X196438Y181807D01*
X196965Y181454D01*
X197587Y181331D01*
X198209Y181454D01*
X198737Y181807D01*
X199089Y182334D01*
X199213Y182956D01*
X199089Y183578D01*
X198737Y184105D01*
X198209Y184457D01*
X197587Y184581D01*
D02*
G37*
G36*
X197194Y178282D02*
X196572Y178158D01*
X196044Y177806D01*
X195692Y177279D01*
X195568Y176657D01*
X195692Y176035D01*
X196044Y175507D01*
X196572Y175155D01*
X197194Y175031D01*
X197816Y175155D01*
X198343Y175507D01*
X198695Y176035D01*
X198819Y176657D01*
X198695Y177279D01*
X198343Y177806D01*
X197816Y178158D01*
X197194Y178282D01*
D02*
G37*
G36*
X301499Y177822D02*
X300877Y177699D01*
X300349Y177346D01*
X299997Y176819D01*
X299873Y176197D01*
X299997Y175575D01*
X300349Y175048D01*
X300877Y174695D01*
X301499Y174572D01*
X302121Y174695D01*
X302648Y175048D01*
X303000Y175575D01*
X303124Y176197D01*
X303000Y176819D01*
X302648Y177346D01*
X302121Y177699D01*
X301499Y177822D01*
D02*
G37*
G36*
X48517Y177447D02*
X47895Y177323D01*
X47368Y176971D01*
X47015Y176444D01*
X46891Y175822D01*
X47015Y175200D01*
X47186Y174944D01*
X46919Y174444D01*
X40284D01*
X40138Y174662D01*
X39611Y175014D01*
X38989Y175138D01*
X38367Y175014D01*
X37840Y174662D01*
X37694Y174444D01*
X23060D01*
X22914Y174662D01*
X22387Y175014D01*
X21765Y175138D01*
X21143Y175014D01*
X20616Y174662D01*
X20404Y174345D01*
X1734D01*
X1654Y174465D01*
X1127Y174817D01*
X505Y174941D01*
X-117Y174817D01*
X-644Y174465D01*
X-997Y173938D01*
X-1120Y173316D01*
X-997Y172694D01*
X-644Y172166D01*
X-117Y171814D01*
X505Y171690D01*
X1127Y171814D01*
X1654Y172166D01*
X1866Y172483D01*
X20536D01*
X20616Y172363D01*
X21143Y172011D01*
X21765Y171887D01*
X22387Y172011D01*
X22914Y172363D01*
X23060Y172581D01*
X37694D01*
X37840Y172363D01*
X38367Y172011D01*
X38989Y171887D01*
X39611Y172011D01*
X40138Y172363D01*
X40284Y172581D01*
X46227D01*
Y170811D01*
X45727Y170544D01*
X45471Y170714D01*
X44849Y170838D01*
X44227Y170714D01*
X43700Y170362D01*
X43348Y169835D01*
X43224Y169213D01*
X43348Y168591D01*
X43700Y168064D01*
X44227Y167711D01*
X44849Y167588D01*
X45471Y167711D01*
X45727Y167882D01*
X46227Y167615D01*
Y147824D01*
X46298Y147467D01*
X46500Y147165D01*
X48832Y144833D01*
X48781Y144576D01*
X48905Y143954D01*
X49257Y143426D01*
X49784Y143074D01*
X50406Y142950D01*
X51028Y143074D01*
X51556Y143426D01*
X51908Y143954D01*
X52032Y144576D01*
X51908Y145197D01*
X51556Y145725D01*
X51028Y146077D01*
X50406Y146201D01*
X50149Y146150D01*
X48090Y148209D01*
Y172581D01*
X61008D01*
X61064Y172544D01*
X61686Y172420D01*
X62164Y172515D01*
X75755D01*
X75906Y172289D01*
X76433Y171937D01*
X77055Y171813D01*
X77677Y171937D01*
X78204Y172289D01*
X78350Y172507D01*
X84251D01*
X84275Y172496D01*
X84623Y172007D01*
X84557Y171673D01*
X84680Y171051D01*
X85032Y170524D01*
X85560Y170172D01*
X86182Y170048D01*
X86804Y170172D01*
X87331Y170524D01*
X87683Y171051D01*
X87807Y171673D01*
X87683Y172295D01*
X87512Y172551D01*
X87780Y173051D01*
X98147D01*
X99928Y171269D01*
X99875Y171000D01*
X99998Y170378D01*
X100351Y169851D01*
X100569Y169705D01*
Y145267D01*
X97908Y142606D01*
X97650Y142657D01*
X97029Y142534D01*
X96501Y142182D01*
X96149Y141654D01*
X96025Y141032D01*
X96149Y140410D01*
X96501Y139883D01*
X97029Y139531D01*
X97650Y139407D01*
X98273Y139531D01*
X98800Y139883D01*
X99152Y140410D01*
X99276Y141032D01*
X99225Y141289D01*
X102158Y144223D01*
X102360Y144525D01*
X102431Y144882D01*
Y169705D01*
X102649Y169851D01*
X103002Y170378D01*
X103125Y171000D01*
X103002Y171622D01*
X102649Y172149D01*
X102122Y172502D01*
X101500Y172625D01*
X101255Y172577D01*
X99191Y174641D01*
X98889Y174843D01*
X98532Y174914D01*
X85225D01*
X84869Y174843D01*
X84567Y174641D01*
X84296Y174370D01*
X78350D01*
X78204Y174588D01*
X77677Y174940D01*
X77055Y175064D01*
X76433Y174940D01*
X75906Y174588D01*
X75765Y174377D01*
X63245D01*
X63188Y174667D01*
X62835Y175194D01*
X62308Y175547D01*
X61686Y175670D01*
X61064Y175547D01*
X60537Y175194D01*
X60184Y174667D01*
X60140Y174444D01*
X50115D01*
X49847Y174944D01*
X50018Y175200D01*
X50142Y175822D01*
X50018Y176444D01*
X49666Y176971D01*
X49139Y177323D01*
X48517Y177447D01*
D02*
G37*
G36*
X251131Y177101D02*
X250509Y176977D01*
X249981Y176625D01*
X249629Y176098D01*
X249505Y175476D01*
X249629Y174854D01*
X249981Y174326D01*
X250509Y173974D01*
X251131Y173850D01*
X251753Y173974D01*
X252280Y174326D01*
X252632Y174854D01*
X252756Y175476D01*
X252632Y176098D01*
X252280Y176625D01*
X251753Y176977D01*
X251131Y177101D01*
D02*
G37*
G36*
X232627Y172770D02*
X232005Y172646D01*
X231477Y172294D01*
X231125Y171767D01*
X231001Y171145D01*
X231125Y170523D01*
X231477Y169995D01*
X232005Y169643D01*
X232627Y169519D01*
X233249Y169643D01*
X233776Y169995D01*
X234128Y170523D01*
X234252Y171145D01*
X234128Y171767D01*
X233776Y172294D01*
X233249Y172646D01*
X232627Y172770D01*
D02*
G37*
G36*
X281446Y172376D02*
X280824Y172253D01*
X280296Y171900D01*
X279944Y171373D01*
X279820Y170751D01*
X279944Y170129D01*
X280296Y169602D01*
X280824Y169249D01*
X281446Y169126D01*
X282068Y169249D01*
X282595Y169602D01*
X282947Y170129D01*
X283071Y170751D01*
X282947Y171373D01*
X282595Y171900D01*
X282068Y172253D01*
X281446Y172376D01*
D02*
G37*
G36*
X176141Y171510D02*
X175519Y171386D01*
X174992Y171034D01*
X174640Y170507D01*
X174516Y169885D01*
X174640Y169263D01*
X174992Y168735D01*
X175519Y168383D01*
X176141Y168259D01*
X176763Y168383D01*
X177291Y168735D01*
X177643Y169263D01*
X177767Y169885D01*
X177643Y170507D01*
X177291Y171034D01*
X176763Y171386D01*
X176141Y171510D01*
D02*
G37*
G36*
X7296Y170149D02*
X6674Y170026D01*
X6147Y169673D01*
X5795Y169146D01*
X5671Y168524D01*
X5795Y167902D01*
X6147Y167375D01*
X6674Y167022D01*
X7296Y166899D01*
X7918Y167022D01*
X8445Y167375D01*
X8798Y167902D01*
X8922Y168524D01*
X8798Y169146D01*
X8445Y169673D01*
X7918Y170026D01*
X7296Y170149D01*
D02*
G37*
G36*
X389122Y187354D02*
X342154D01*
X341694Y187164D01*
X313466Y158936D01*
X313276Y158476D01*
Y137886D01*
X313466Y137427D01*
X313925Y137236D01*
X363138Y137236D01*
X363597Y137427D01*
X363642Y137535D01*
X364142Y137435D01*
Y136173D01*
X312409D01*
Y158752D01*
X312219Y159211D01*
X311760Y159401D01*
X262350D01*
X261891Y159211D01*
X261701Y158752D01*
X261701Y142217D01*
X261891Y141757D01*
X282757Y120891D01*
X283217Y120701D01*
X350210Y120701D01*
X350375Y120500D01*
X350498Y119878D01*
X350851Y119351D01*
X351378Y118998D01*
X352000Y118875D01*
X352622Y118998D01*
X353149Y119351D01*
X353502Y119878D01*
X353625Y120500D01*
X353790Y120701D01*
X389516Y120701D01*
X389975Y120891D01*
X390165Y121350D01*
X390165Y143398D01*
X389975Y143857D01*
X389581Y144251D01*
X389122Y144441D01*
X388663Y144251D01*
X388558Y144145D01*
X364791D01*
X364332Y143955D01*
X364287Y143847D01*
X363787Y143946D01*
X363787Y158680D01*
X371674Y166567D01*
X387869D01*
X387875Y166560D01*
X388335Y166370D01*
X388794Y166560D01*
X389581Y167348D01*
X389772Y167807D01*
Y186705D01*
X389581Y187164D01*
X389122Y187354D01*
D02*
G37*
G36*
X56213Y168593D02*
X55592Y168469D01*
X55064Y168116D01*
X54712Y167589D01*
X54588Y166967D01*
X54712Y166345D01*
X55064Y165818D01*
X55592Y165466D01*
X56213Y165342D01*
X56836Y165466D01*
X57363Y165818D01*
X57715Y166345D01*
X57839Y166967D01*
X57715Y167589D01*
X57363Y168116D01*
X56836Y168469D01*
X56213Y168593D01*
D02*
G37*
G36*
X12944Y165025D02*
X12322Y164901D01*
X11795Y164549D01*
X11652Y164335D01*
X11070Y164307D01*
X10542Y164659D01*
X9920Y164783D01*
X9298Y164659D01*
X8771Y164307D01*
X8419Y163779D01*
X8295Y163157D01*
X8419Y162535D01*
X8771Y162008D01*
X9298Y161656D01*
X9920Y161532D01*
X10542Y161656D01*
X11070Y162008D01*
X11212Y162222D01*
X11795Y162250D01*
X12322Y161898D01*
X12944Y161774D01*
X13566Y161898D01*
X14093Y162250D01*
X14327Y162600D01*
X14858Y162494D01*
X14864Y162460D01*
X15217Y161933D01*
X15744Y161581D01*
X16366Y161457D01*
X16988Y161581D01*
X17515Y161933D01*
X17868Y162460D01*
X17991Y163082D01*
X17868Y163704D01*
X17515Y164231D01*
X16988Y164584D01*
X16366Y164708D01*
X15744Y164584D01*
X15217Y164231D01*
X14983Y163882D01*
X14452Y163987D01*
X14446Y164021D01*
X14093Y164549D01*
X13566Y164901D01*
X12944Y165025D01*
D02*
G37*
G36*
X52900Y166410D02*
X52278Y166286D01*
X51751Y165934D01*
X51398Y165406D01*
X51275Y164784D01*
X51383Y164237D01*
X51196Y164012D01*
X50996Y163864D01*
X50440Y163974D01*
X49818Y163851D01*
X49291Y163498D01*
X48938Y162971D01*
X48815Y162349D01*
X48938Y161727D01*
X49291Y161200D01*
X49818Y160847D01*
X50440Y160724D01*
X51062Y160847D01*
X51589Y161200D01*
X51942Y161727D01*
X52065Y162349D01*
X51956Y162896D01*
X52144Y163121D01*
X52343Y163270D01*
X52900Y163159D01*
X53522Y163283D01*
X54049Y163635D01*
X54401Y164162D01*
X54525Y164784D01*
X54401Y165406D01*
X54049Y165934D01*
X53522Y166286D01*
X52900Y166410D01*
D02*
G37*
G36*
X91070Y161805D02*
X90448Y161681D01*
X89921Y161329D01*
X89568Y160802D01*
X89497Y160443D01*
X89445Y160180D01*
X88959Y160105D01*
X88876Y160517D01*
X88524Y161045D01*
X87997Y161397D01*
X87375Y161521D01*
X86753Y161397D01*
X86226Y161045D01*
X85873Y160517D01*
X85750Y159895D01*
X85873Y159273D01*
X86226Y158746D01*
X86753Y158394D01*
X87375Y158270D01*
X87997Y158394D01*
X88524Y158746D01*
X88876Y159273D01*
X88948Y159632D01*
X89000Y159895D01*
X89486Y159970D01*
X89568Y159558D01*
X89921Y159031D01*
X90448Y158678D01*
X91070Y158554D01*
X91692Y158678D01*
X92219Y159031D01*
X92571Y159558D01*
X92695Y160180D01*
X92571Y160802D01*
X92219Y161329D01*
X91692Y161681D01*
X91070Y161805D01*
D02*
G37*
G36*
X94932Y161599D02*
X94310Y161475D01*
X93783Y161123D01*
X93430Y160596D01*
X93306Y159974D01*
X93430Y159352D01*
X93783Y158824D01*
X94310Y158472D01*
X94932Y158348D01*
X95554Y158472D01*
X96081Y158824D01*
X96433Y159352D01*
X96557Y159974D01*
X96433Y160596D01*
X96081Y161123D01*
X95554Y161475D01*
X94932Y161599D01*
D02*
G37*
G36*
X64088Y146004D02*
X63466Y145880D01*
X62938Y145528D01*
X62586Y145001D01*
X62462Y144379D01*
X62586Y143757D01*
X62938Y143229D01*
X63466Y142877D01*
X64088Y142753D01*
X64710Y142877D01*
X65237Y143229D01*
X65589Y143757D01*
X65713Y144379D01*
X65589Y145001D01*
X65237Y145528D01*
X64710Y145880D01*
X64088Y146004D01*
D02*
G37*
G36*
X56312Y132028D02*
X55690Y131904D01*
X55163Y131552D01*
X54810Y131024D01*
X54687Y130402D01*
X54810Y129780D01*
X55163Y129253D01*
X55690Y128901D01*
X56312Y128777D01*
X56934Y128901D01*
X57461Y129253D01*
X57814Y129780D01*
X57937Y130402D01*
X57814Y131024D01*
X57461Y131552D01*
X56934Y131904D01*
X56312Y132028D01*
D02*
G37*
G36*
X60741Y140492D02*
X60119Y140368D01*
X59592Y140016D01*
X59240Y139489D01*
X59116Y138867D01*
X59240Y138245D01*
X59592Y137718D01*
X60119Y137365D01*
X60741Y137241D01*
X61354Y137363D01*
X61385Y137342D01*
X61709Y136995D01*
X61549Y136755D01*
X61425Y136133D01*
X61549Y135511D01*
X61901Y134984D01*
X62050Y134884D01*
Y134384D01*
X61910Y134290D01*
X61557Y133762D01*
X61433Y133141D01*
X61557Y132518D01*
X61910Y131991D01*
X62047Y131899D01*
Y131399D01*
X61901Y131301D01*
X61549Y130774D01*
X61425Y130152D01*
X61549Y129530D01*
X61901Y129003D01*
X62428Y128651D01*
X63050Y128527D01*
X63672Y128651D01*
X64199Y129003D01*
X64552Y129530D01*
X64675Y130152D01*
X64552Y130774D01*
X64199Y131301D01*
X64062Y131394D01*
Y131894D01*
X64208Y131991D01*
X64560Y132518D01*
X64684Y133141D01*
X64560Y133762D01*
X64208Y134290D01*
X64059Y134389D01*
Y134889D01*
X64199Y134984D01*
X64552Y135511D01*
X64675Y136133D01*
X64552Y136755D01*
X64199Y137282D01*
X63672Y137634D01*
X63050Y137758D01*
X62437Y137636D01*
X62406Y137658D01*
X62082Y138004D01*
X62243Y138245D01*
X62366Y138867D01*
X62243Y139489D01*
X61890Y140016D01*
X61363Y140368D01*
X60741Y140492D01*
D02*
G37*
G36*
X8379Y136566D02*
X7084Y136438D01*
X5839Y136061D01*
X4692Y135447D01*
X3687Y134622D01*
X2861Y133616D01*
X2248Y132469D01*
X1870Y131224D01*
X1743Y129930D01*
X1870Y128635D01*
X2248Y127390D01*
X2861Y126243D01*
X3687Y125238D01*
X4692Y124412D01*
X5839Y123799D01*
X7084Y123422D01*
X8379Y123294D01*
X9674Y123422D01*
X10918Y123799D01*
X12066Y124412D01*
X13071Y125238D01*
X13896Y126243D01*
X14510Y127390D01*
X14887Y128635D01*
X15015Y129930D01*
X14887Y131224D01*
X14510Y132469D01*
X13896Y133616D01*
X13071Y134622D01*
X12066Y135447D01*
X10918Y136061D01*
X9674Y136438D01*
X8379Y136566D01*
D02*
G37*
G36*
X68065Y121275D02*
X67443Y121152D01*
X66916Y120799D01*
X66564Y120272D01*
X66440Y119650D01*
X66564Y119028D01*
X66916Y118501D01*
X67443Y118149D01*
X68065Y118025D01*
X68687Y118149D01*
X69215Y118501D01*
X69567Y119028D01*
X69691Y119650D01*
X69567Y120272D01*
X69215Y120799D01*
X68687Y121152D01*
X68065Y121275D01*
D02*
G37*
G36*
X301000Y119625D02*
X300378Y119501D01*
X299851Y119149D01*
X299499Y118622D01*
X299375Y118000D01*
X299499Y117378D01*
X299851Y116851D01*
X300378Y116499D01*
X301000Y116375D01*
X301622Y116499D01*
X302149Y116851D01*
X302501Y117378D01*
X302625Y118000D01*
X302501Y118622D01*
X302149Y119149D01*
X301622Y119501D01*
X301000Y119625D01*
D02*
G37*
G36*
X348500Y117410D02*
X347878Y117287D01*
X347351Y116934D01*
X346998Y116407D01*
X346875Y115785D01*
X346998Y115163D01*
X347351Y114636D01*
X347878Y114283D01*
X348500Y114160D01*
X349122Y114283D01*
X349649Y114636D01*
X350002Y115163D01*
X350125Y115785D01*
X350002Y116407D01*
X349649Y116934D01*
X349122Y117287D01*
X348500Y117410D01*
D02*
G37*
G36*
X297500Y117046D02*
X296878Y116923D01*
X296351Y116570D01*
X295998Y116043D01*
X295875Y115421D01*
X295998Y114799D01*
X296351Y114272D01*
X296878Y113919D01*
X297500Y113796D01*
X298122Y113919D01*
X298649Y114272D01*
X299002Y114799D01*
X299125Y115421D01*
X299002Y116043D01*
X298649Y116570D01*
X298122Y116923D01*
X297500Y117046D01*
D02*
G37*
G36*
X54517Y113598D02*
X53895Y113475D01*
X53367Y113122D01*
X53015Y112595D01*
X52891Y111973D01*
X53015Y111351D01*
X53367Y110824D01*
X53895Y110471D01*
X54517Y110348D01*
X55138Y110471D01*
X55666Y110824D01*
X56018Y111351D01*
X56142Y111973D01*
X56018Y112595D01*
X55666Y113122D01*
X55138Y113475D01*
X54517Y113598D01*
D02*
G37*
G36*
X49127Y112638D02*
X48505Y112514D01*
X47978Y112162D01*
X47625Y111635D01*
X47502Y111012D01*
X47625Y110390D01*
X47978Y109863D01*
X48505Y109511D01*
X49127Y109387D01*
X49749Y109511D01*
X50276Y109863D01*
X50629Y110390D01*
X50752Y111012D01*
X50629Y111635D01*
X50276Y112162D01*
X49749Y112514D01*
X49127Y112638D01*
D02*
G37*
G36*
X240737Y105309D02*
X240115Y105186D01*
X239588Y104833D01*
X239235Y104306D01*
X239112Y103684D01*
X239235Y103062D01*
X239588Y102535D01*
X240115Y102183D01*
X240737Y102059D01*
X241359Y102183D01*
X241886Y102535D01*
X242238Y103062D01*
X242362Y103684D01*
X242238Y104306D01*
X241886Y104833D01*
X241359Y105186D01*
X240737Y105309D01*
D02*
G37*
G36*
X236800Y105211D02*
X236178Y105087D01*
X235651Y104735D01*
X235298Y104208D01*
X235175Y103586D01*
X235298Y102964D01*
X235651Y102436D01*
X236178Y102084D01*
X236800Y101960D01*
X237422Y102084D01*
X237949Y102436D01*
X238301Y102964D01*
X238425Y103586D01*
X238301Y104208D01*
X237949Y104735D01*
X237422Y105087D01*
X236800Y105211D01*
D02*
G37*
G36*
X60977Y104340D02*
X60359Y104218D01*
X59835Y103867D01*
X59485Y103343D01*
X59362Y102725D01*
X59485Y102107D01*
X59835Y101583D01*
X60359Y101233D01*
X60977Y101110D01*
X61595Y101233D01*
X62120Y101583D01*
X62470Y102107D01*
X62593Y102725D01*
X62470Y103343D01*
X62120Y103867D01*
X61595Y104218D01*
X60977Y104340D01*
D02*
G37*
G36*
X57040D02*
X56422Y104218D01*
X55898Y103867D01*
X55548Y103343D01*
X55425Y102725D01*
X55548Y102107D01*
X55898Y101583D01*
X56422Y101233D01*
X57040Y101110D01*
X57658Y101233D01*
X58183Y101583D01*
X58533Y102107D01*
X58656Y102725D01*
X58533Y103343D01*
X58183Y103867D01*
X57658Y104218D01*
X57040Y104340D01*
D02*
G37*
G36*
X53103D02*
X52485Y104218D01*
X51961Y103867D01*
X51611Y103343D01*
X51488Y102725D01*
X51611Y102107D01*
X51961Y101583D01*
X52485Y101233D01*
X53103Y101110D01*
X53721Y101233D01*
X54246Y101583D01*
X54596Y102107D01*
X54719Y102725D01*
X54596Y103343D01*
X54246Y103867D01*
X53721Y104218D01*
X53103Y104340D01*
D02*
G37*
G36*
X13970Y106054D02*
X12996Y105926D01*
X12088Y105550D01*
X11309Y104952D01*
X10711Y104173D01*
X10335Y103266D01*
X10207Y102292D01*
X10335Y101318D01*
X10711Y100411D01*
X11309Y99632D01*
X12088Y99034D01*
X12996Y98658D01*
X13970Y98530D01*
X14943Y98658D01*
X15850Y99034D01*
X16630Y99632D01*
X17228Y100411D01*
X17603Y101318D01*
X17732Y102292D01*
X17603Y103266D01*
X17228Y104173D01*
X16630Y104952D01*
X15850Y105550D01*
X14943Y105926D01*
X13970Y106054D01*
D02*
G37*
G36*
X60977Y100403D02*
X60359Y100280D01*
X59835Y99930D01*
X59485Y99406D01*
X59362Y98788D01*
X59485Y98170D01*
X59835Y97646D01*
X60359Y97296D01*
X60977Y97173D01*
X61595Y97296D01*
X62120Y97646D01*
X62470Y98170D01*
X62593Y98788D01*
X62470Y99406D01*
X62120Y99930D01*
X61595Y100280D01*
X60977Y100403D01*
D02*
G37*
G36*
X57040D02*
X56422Y100280D01*
X55898Y99930D01*
X55548Y99406D01*
X55425Y98788D01*
X55548Y98170D01*
X55898Y97646D01*
X56422Y97296D01*
X57040Y97173D01*
X57658Y97296D01*
X58183Y97646D01*
X58533Y98170D01*
X58656Y98788D01*
X58533Y99406D01*
X58183Y99930D01*
X57658Y100280D01*
X57040Y100403D01*
D02*
G37*
G36*
X53103D02*
X52485Y100280D01*
X51961Y99930D01*
X51611Y99406D01*
X51488Y98788D01*
X51611Y98170D01*
X51961Y97646D01*
X52485Y97296D01*
X53103Y97173D01*
X53721Y97296D01*
X54246Y97646D01*
X54596Y98170D01*
X54719Y98788D01*
X54596Y99406D01*
X54246Y99930D01*
X53721Y100280D01*
X53103Y100403D01*
D02*
G37*
G36*
X60977Y96466D02*
X60359Y96343D01*
X59835Y95993D01*
X59485Y95469D01*
X59362Y94851D01*
X59485Y94233D01*
X59835Y93709D01*
X60359Y93359D01*
X60977Y93236D01*
X61595Y93359D01*
X62120Y93709D01*
X62470Y94233D01*
X62593Y94851D01*
X62470Y95469D01*
X62120Y95993D01*
X61595Y96343D01*
X60977Y96466D01*
D02*
G37*
G36*
X57040D02*
X56422Y96343D01*
X55898Y95993D01*
X55548Y95469D01*
X55425Y94851D01*
X55548Y94233D01*
X55898Y93709D01*
X56422Y93359D01*
X57040Y93236D01*
X57658Y93359D01*
X58183Y93709D01*
X58533Y94233D01*
X58656Y94851D01*
X58533Y95469D01*
X58183Y95993D01*
X57658Y96343D01*
X57040Y96466D01*
D02*
G37*
G36*
X53103D02*
X52485Y96343D01*
X51961Y95993D01*
X51611Y95469D01*
X51488Y94851D01*
X51611Y94233D01*
X51961Y93709D01*
X52485Y93359D01*
X53103Y93236D01*
X53721Y93359D01*
X54246Y93709D01*
X54596Y94233D01*
X54719Y94851D01*
X54596Y95469D01*
X54246Y95993D01*
X53721Y96343D01*
X53103Y96466D01*
D02*
G37*
G36*
X2788Y100660D02*
X1815Y100532D01*
X907Y100156D01*
X128Y99559D01*
X-470Y98779D01*
X-846Y97872D01*
X-974Y96898D01*
X-846Y95925D01*
X-470Y95017D01*
X128Y94238D01*
X907Y93640D01*
X1815Y93264D01*
X2788Y93136D01*
X3762Y93264D01*
X4669Y93640D01*
X5449Y94238D01*
X6046Y95017D01*
X6422Y95925D01*
X6550Y96898D01*
X6422Y97872D01*
X6046Y98779D01*
X5449Y99559D01*
X4669Y100156D01*
X3762Y100532D01*
X2788Y100660D01*
D02*
G37*
G36*
X169896Y94108D02*
X169274Y93985D01*
X168747Y93632D01*
X168394Y93105D01*
X168271Y92483D01*
X168394Y91861D01*
X168747Y91334D01*
X169274Y90981D01*
X169896Y90858D01*
X170518Y90981D01*
X171045Y91334D01*
X171397Y91861D01*
X171521Y92483D01*
X171397Y93105D01*
X171045Y93632D01*
X170518Y93985D01*
X169896Y94108D01*
D02*
G37*
G36*
X173060Y91799D02*
X172438Y91676D01*
X171910Y91323D01*
X171558Y90796D01*
X171434Y90174D01*
X171558Y89552D01*
X171910Y89025D01*
X172438Y88672D01*
X173060Y88549D01*
X173682Y88672D01*
X174209Y89025D01*
X174561Y89552D01*
X174685Y90174D01*
X174561Y90796D01*
X174209Y91323D01*
X173682Y91676D01*
X173060Y91799D01*
D02*
G37*
G36*
X13970Y95267D02*
X12996Y95139D01*
X12088Y94763D01*
X11309Y94165D01*
X10711Y93386D01*
X10335Y92478D01*
X10207Y91505D01*
X10335Y90531D01*
X10711Y89624D01*
X11309Y88844D01*
X12088Y88247D01*
X12996Y87871D01*
X13970Y87743D01*
X14943Y87871D01*
X15850Y88247D01*
X16630Y88844D01*
X17228Y89624D01*
X17603Y90531D01*
X17732Y91505D01*
X17603Y92478D01*
X17228Y93386D01*
X16630Y94165D01*
X15850Y94763D01*
X14943Y95139D01*
X13970Y95267D01*
D02*
G37*
G36*
X62988Y87354D02*
X62366Y87230D01*
X61839Y86878D01*
X61487Y86351D01*
X61363Y85729D01*
X61487Y85107D01*
X61839Y84579D01*
X62366Y84227D01*
X62988Y84104D01*
X63610Y84227D01*
X64137Y84579D01*
X64490Y85107D01*
X64613Y85729D01*
X64490Y86351D01*
X64137Y86878D01*
X63610Y87230D01*
X62988Y87354D01*
D02*
G37*
G36*
X56257Y86690D02*
X55635Y86566D01*
X55108Y86214D01*
X54755Y85686D01*
X54632Y85064D01*
X54755Y84442D01*
X55108Y83915D01*
X55635Y83563D01*
X56257Y83439D01*
X56879Y83563D01*
X57406Y83915D01*
X57759Y84442D01*
X57882Y85064D01*
X57759Y85686D01*
X57406Y86214D01*
X56879Y86566D01*
X56257Y86690D01*
D02*
G37*
G36*
X2788Y89873D02*
X1815Y89745D01*
X907Y89369D01*
X128Y88771D01*
X-470Y87992D01*
X-846Y87085D01*
X-974Y86111D01*
X-846Y85137D01*
X-470Y84230D01*
X128Y83451D01*
X907Y82853D01*
X1815Y82477D01*
X2788Y82349D01*
X3762Y82477D01*
X4669Y82853D01*
X5449Y83451D01*
X6046Y84230D01*
X6422Y85137D01*
X6550Y86111D01*
X6422Y87085D01*
X6046Y87992D01*
X5449Y88771D01*
X4669Y89369D01*
X3762Y89745D01*
X2788Y89873D01*
D02*
G37*
G36*
X51890Y83013D02*
X51268Y82889D01*
X50741Y82537D01*
X50543Y82241D01*
X50198Y82057D01*
X49913Y82129D01*
X49572Y82357D01*
X48950Y82481D01*
X48328Y82357D01*
X47800Y82005D01*
X47448Y81477D01*
X47324Y80855D01*
X47448Y80234D01*
X47800Y79706D01*
X48328Y79354D01*
X48950Y79230D01*
X49572Y79354D01*
X50099Y79706D01*
X50297Y80003D01*
X50642Y80186D01*
X50927Y80114D01*
X51268Y79886D01*
X51890Y79763D01*
X52512Y79886D01*
X53039Y80239D01*
X53392Y80766D01*
X53515Y81388D01*
X53392Y82010D01*
X53039Y82537D01*
X52512Y82889D01*
X51890Y83013D01*
D02*
G37*
G36*
X13970Y84479D02*
X12996Y84351D01*
X12088Y83975D01*
X11309Y83377D01*
X10711Y82598D01*
X10335Y81691D01*
X10207Y80717D01*
X10335Y79743D01*
X10711Y78836D01*
X11309Y78057D01*
X12088Y77459D01*
X12996Y77083D01*
X13970Y76955D01*
X14943Y77083D01*
X15850Y77459D01*
X16630Y78057D01*
X17228Y78836D01*
X17603Y79743D01*
X17732Y80717D01*
X17603Y81691D01*
X17228Y82598D01*
X16630Y83377D01*
X15850Y83975D01*
X14943Y84351D01*
X13970Y84479D01*
D02*
G37*
G36*
X177755Y76661D02*
X177133Y76538D01*
X176605Y76185D01*
X176253Y75658D01*
X176129Y75036D01*
X176253Y74414D01*
X176602Y73892D01*
X176605Y73885D01*
X176565Y73312D01*
X176284Y73125D01*
X175932Y72597D01*
X175902Y72448D01*
X175346Y72218D01*
X175345Y72219D01*
X174723Y72342D01*
X174101Y72219D01*
X173574Y71866D01*
X173222Y71339D01*
X173098Y70717D01*
X173170Y70353D01*
X172784Y69920D01*
X172162Y69797D01*
X171635Y69444D01*
X171283Y68917D01*
X171159Y68295D01*
X171283Y67673D01*
X171635Y67146D01*
X172162Y66793D01*
X172784Y66670D01*
X173406Y66793D01*
X173933Y67146D01*
X174286Y67673D01*
X174409Y68295D01*
X174337Y68659D01*
X174723Y69092D01*
X175345Y69216D01*
X175872Y69568D01*
X176225Y70095D01*
X176254Y70245D01*
X176810Y70475D01*
X176811Y70474D01*
X177433Y70350D01*
X178055Y70474D01*
X178583Y70826D01*
X178935Y71354D01*
X179059Y71975D01*
X178935Y72597D01*
X178586Y73119D01*
X178583Y73126D01*
X178623Y73699D01*
X178904Y73887D01*
X179256Y74414D01*
X179380Y75036D01*
X179256Y75658D01*
X178904Y76185D01*
X178377Y76538D01*
X177755Y76661D01*
D02*
G37*
G36*
X2788Y79086D02*
X1815Y78957D01*
X907Y78582D01*
X128Y77984D01*
X-470Y77205D01*
X-846Y76297D01*
X-974Y75323D01*
X-846Y74350D01*
X-470Y73443D01*
X128Y72663D01*
X907Y72065D01*
X1815Y71690D01*
X2788Y71561D01*
X3762Y71690D01*
X4669Y72065D01*
X5449Y72663D01*
X6046Y73443D01*
X6422Y74350D01*
X6550Y75323D01*
X6422Y76297D01*
X6046Y77205D01*
X5449Y77984D01*
X4669Y78582D01*
X3762Y78957D01*
X2788Y79086D01*
D02*
G37*
G36*
X60899Y72333D02*
X60280Y72210D01*
X59756Y71859D01*
X59406Y71335D01*
X59283Y70717D01*
X59406Y70099D01*
X59756Y69575D01*
X60280Y69225D01*
X60899Y69102D01*
X61517Y69225D01*
X62041Y69575D01*
X62391Y70099D01*
X62514Y70717D01*
X62391Y71335D01*
X62041Y71859D01*
X61517Y72210D01*
X60899Y72333D01*
D02*
G37*
G36*
X56962D02*
X56343Y72210D01*
X55819Y71859D01*
X55469Y71335D01*
X55346Y70717D01*
X55469Y70099D01*
X55819Y69575D01*
X56343Y69225D01*
X56962Y69102D01*
X57580Y69225D01*
X58104Y69575D01*
X58454Y70099D01*
X58577Y70717D01*
X58454Y71335D01*
X58104Y71859D01*
X57580Y72210D01*
X56962Y72333D01*
D02*
G37*
G36*
X53025D02*
X52406Y72210D01*
X51882Y71859D01*
X51532Y71335D01*
X51409Y70717D01*
X51532Y70099D01*
X51882Y69575D01*
X52406Y69225D01*
X53025Y69102D01*
X53643Y69225D01*
X54167Y69575D01*
X54517Y70099D01*
X54640Y70717D01*
X54517Y71335D01*
X54167Y71859D01*
X53643Y72210D01*
X53025Y72333D01*
D02*
G37*
G36*
X316378Y71271D02*
X315756Y71147D01*
X315229Y70795D01*
X314877Y70267D01*
X314753Y69646D01*
X314877Y69024D01*
X315229Y68497D01*
X315756Y68144D01*
X316378Y68021D01*
X317000Y68144D01*
X317527Y68497D01*
X317879Y69024D01*
X318003Y69646D01*
X317879Y70267D01*
X317527Y70795D01*
X317000Y71147D01*
X316378Y71271D01*
D02*
G37*
G36*
X13970Y73692D02*
X12996Y73564D01*
X12088Y73188D01*
X11309Y72590D01*
X10711Y71811D01*
X10335Y70903D01*
X10207Y69930D01*
X10335Y68956D01*
X10711Y68049D01*
X11309Y67270D01*
X12088Y66672D01*
X12996Y66296D01*
X13970Y66168D01*
X14943Y66296D01*
X15850Y66672D01*
X16630Y67270D01*
X17228Y68049D01*
X17603Y68956D01*
X17732Y69930D01*
X17603Y70903D01*
X17228Y71811D01*
X16630Y72590D01*
X15850Y73188D01*
X14943Y73564D01*
X13970Y73692D01*
D02*
G37*
G36*
X322500Y69125D02*
X321878Y69001D01*
X321351Y68649D01*
X320999Y68122D01*
X320875Y67500D01*
X320999Y66878D01*
X321351Y66351D01*
X321878Y65999D01*
X322500Y65875D01*
X323122Y65999D01*
X323649Y66351D01*
X324001Y66878D01*
X324125Y67500D01*
X324001Y68122D01*
X323649Y68649D01*
X323122Y69001D01*
X322500Y69125D01*
D02*
G37*
G36*
X306345Y71880D02*
X305723Y71756D01*
X305196Y71404D01*
X304843Y70876D01*
X304720Y70255D01*
X304843Y69633D01*
X305196Y69106D01*
X305347Y69005D01*
X305359Y68806D01*
X305289Y68442D01*
X304851Y68149D01*
X304499Y67622D01*
X304375Y67000D01*
X304499Y66378D01*
X304851Y65851D01*
X305378Y65499D01*
X306000Y65375D01*
X306622Y65499D01*
X307149Y65851D01*
X307501Y66378D01*
X307625Y67000D01*
X307501Y67622D01*
X307149Y68149D01*
X306998Y68250D01*
X306985Y68448D01*
X307055Y68813D01*
X307493Y69106D01*
X307846Y69633D01*
X307969Y70255D01*
X307846Y70876D01*
X307493Y71404D01*
X306966Y71756D01*
X306345Y71880D01*
D02*
G37*
G36*
X60899Y68396D02*
X60280Y68273D01*
X59756Y67922D01*
X59406Y67398D01*
X59283Y66780D01*
X59406Y66162D01*
X59756Y65638D01*
X60280Y65288D01*
X60899Y65165D01*
X61517Y65288D01*
X62041Y65638D01*
X62391Y66162D01*
X62514Y66780D01*
X62391Y67398D01*
X62041Y67922D01*
X61517Y68273D01*
X60899Y68396D01*
D02*
G37*
G36*
X56962D02*
X56343Y68273D01*
X55819Y67922D01*
X55469Y67398D01*
X55346Y66780D01*
X55469Y66162D01*
X55819Y65638D01*
X56343Y65288D01*
X56962Y65165D01*
X57580Y65288D01*
X58104Y65638D01*
X58454Y66162D01*
X58577Y66780D01*
X58454Y67398D01*
X58104Y67922D01*
X57580Y68273D01*
X56962Y68396D01*
D02*
G37*
G36*
X53025D02*
X52406Y68273D01*
X51882Y67922D01*
X51532Y67398D01*
X51409Y66780D01*
X51532Y66162D01*
X51882Y65638D01*
X52406Y65288D01*
X53025Y65165D01*
X53643Y65288D01*
X54167Y65638D01*
X54517Y66162D01*
X54640Y66780D01*
X54517Y67398D01*
X54167Y67922D01*
X53643Y68273D01*
X53025Y68396D01*
D02*
G37*
G36*
X176047Y67752D02*
X175425Y67628D01*
X174897Y67276D01*
X174545Y66748D01*
X174421Y66126D01*
X174545Y65504D01*
X174621Y65390D01*
X174261Y65029D01*
X174231Y65050D01*
X173609Y65174D01*
X172986Y65050D01*
X172459Y64697D01*
X172107Y64170D01*
X171983Y63548D01*
X172107Y62926D01*
X172459Y62399D01*
X172986Y62046D01*
X173609Y61923D01*
X174231Y62046D01*
X174758Y62399D01*
X175110Y62926D01*
X175234Y63548D01*
X175110Y64170D01*
X175034Y64285D01*
X175394Y64645D01*
X175425Y64625D01*
X176047Y64501D01*
X176669Y64625D01*
X177196Y64977D01*
X177548Y65504D01*
X177672Y66126D01*
X177548Y66748D01*
X177196Y67276D01*
X176669Y67628D01*
X176047Y67752D01*
D02*
G37*
G36*
X60899Y64459D02*
X60280Y64336D01*
X59756Y63985D01*
X59406Y63461D01*
X59283Y62843D01*
X59406Y62225D01*
X59756Y61701D01*
X60280Y61351D01*
X60899Y61228D01*
X61517Y61351D01*
X62041Y61701D01*
X62391Y62225D01*
X62514Y62843D01*
X62391Y63461D01*
X62041Y63985D01*
X61517Y64336D01*
X60899Y64459D01*
D02*
G37*
G36*
X56962D02*
X56343Y64336D01*
X55819Y63985D01*
X55469Y63461D01*
X55346Y62843D01*
X55469Y62225D01*
X55819Y61701D01*
X56343Y61351D01*
X56962Y61228D01*
X57580Y61351D01*
X58104Y61701D01*
X58454Y62225D01*
X58577Y62843D01*
X58454Y63461D01*
X58104Y63985D01*
X57580Y64336D01*
X56962Y64459D01*
D02*
G37*
G36*
X53025D02*
X52406Y64336D01*
X51882Y63985D01*
X51532Y63461D01*
X51409Y62843D01*
X51532Y62225D01*
X51882Y61701D01*
X52406Y61351D01*
X53025Y61228D01*
X53643Y61351D01*
X54167Y61701D01*
X54517Y62225D01*
X54640Y62843D01*
X54517Y63461D01*
X54167Y63985D01*
X53643Y64336D01*
X53025Y64459D01*
D02*
G37*
G36*
X2788Y68298D02*
X1815Y68170D01*
X907Y67794D01*
X128Y67196D01*
X-470Y66417D01*
X-846Y65510D01*
X-974Y64536D01*
X-846Y63562D01*
X-470Y62655D01*
X128Y61876D01*
X907Y61278D01*
X1815Y60902D01*
X2788Y60774D01*
X3762Y60902D01*
X4669Y61278D01*
X5449Y61876D01*
X6046Y62655D01*
X6422Y63562D01*
X6550Y64536D01*
X6422Y65510D01*
X6046Y66417D01*
X5449Y67196D01*
X4669Y67794D01*
X3762Y68170D01*
X2788Y68298D01*
D02*
G37*
G36*
X169877Y61248D02*
X169255Y61125D01*
X168728Y60772D01*
X168627Y60621D01*
X168025D01*
X167958Y60721D01*
X167431Y61073D01*
X166809Y61197D01*
X166188Y61073D01*
X165660Y60721D01*
X165308Y60194D01*
X165184Y59572D01*
X165308Y58950D01*
X165660Y58423D01*
X166188Y58071D01*
X166809Y57947D01*
X167431Y58071D01*
X167958Y58423D01*
X168059Y58574D01*
X168661D01*
X168728Y58474D01*
X169255Y58122D01*
X169877Y57998D01*
X170499Y58122D01*
X171026Y58474D01*
X171378Y59001D01*
X171502Y59623D01*
X171378Y60245D01*
X171026Y60772D01*
X170499Y61125D01*
X169877Y61248D01*
D02*
G37*
G36*
X307000Y62625D02*
X306378Y62501D01*
X305851Y62149D01*
X305499Y61622D01*
X305375Y61000D01*
X305499Y60378D01*
X305851Y59851D01*
X306378Y59499D01*
X307000Y59375D01*
X307622Y59499D01*
X308149Y59851D01*
X308501Y60378D01*
X308625Y61000D01*
X308501Y61622D01*
X308149Y62149D01*
X307622Y62501D01*
X307000Y62625D01*
D02*
G37*
G36*
X17699Y62872D02*
X10239D01*
Y55413D01*
X17699D01*
Y62872D01*
D02*
G37*
G36*
X60853Y55484D02*
X60231Y55360D01*
X59704Y55008D01*
X59352Y54481D01*
X59228Y53859D01*
X59352Y53237D01*
X59704Y52710D01*
X60231Y52357D01*
X60853Y52233D01*
X61475Y52357D01*
X62003Y52710D01*
X62355Y53237D01*
X62479Y53859D01*
X62355Y54481D01*
X62003Y55008D01*
X61475Y55360D01*
X60853Y55484D01*
D02*
G37*
G36*
X54058Y55242D02*
X53436Y55118D01*
X52909Y54766D01*
X52557Y54239D01*
X52433Y53617D01*
X52557Y52995D01*
X52909Y52468D01*
X53436Y52115D01*
X54058Y51991D01*
X54680Y52115D01*
X55207Y52468D01*
X55560Y52995D01*
X55683Y53617D01*
X55560Y54239D01*
X55207Y54766D01*
X54680Y55118D01*
X54058Y55242D01*
D02*
G37*
G36*
X52483Y49600D02*
X51861Y49477D01*
X51333Y49124D01*
X50981Y48597D01*
X50858Y47975D01*
X50981Y47353D01*
X51333Y46826D01*
X51861Y46474D01*
X52483Y46350D01*
X53105Y46474D01*
X53632Y46826D01*
X53984Y47353D01*
X54108Y47975D01*
X53984Y48597D01*
X53632Y49124D01*
X53105Y49477D01*
X52483Y49600D01*
D02*
G37*
G36*
X48680Y49154D02*
X48058Y49030D01*
X47531Y48678D01*
X47179Y48150D01*
X47055Y47528D01*
X47179Y46906D01*
X47531Y46379D01*
X48058Y46027D01*
X48680Y45903D01*
X49302Y46027D01*
X49829Y46379D01*
X50182Y46906D01*
X50305Y47528D01*
X50182Y48150D01*
X49829Y48678D01*
X49302Y49030D01*
X48680Y49154D01*
D02*
G37*
G36*
Y43839D02*
X48058Y43715D01*
X47531Y43363D01*
X47179Y42835D01*
X47055Y42213D01*
X47179Y41591D01*
X47531Y41064D01*
X48058Y40712D01*
X48680Y40588D01*
X49302Y40712D01*
X49829Y41064D01*
X50182Y41591D01*
X50305Y42213D01*
X50182Y42835D01*
X49829Y43363D01*
X49302Y43715D01*
X48680Y43839D01*
D02*
G37*
G36*
X176622Y41865D02*
X176000Y41741D01*
X175473Y41388D01*
X175120Y40861D01*
X174997Y40239D01*
X175120Y39617D01*
X175473Y39090D01*
X176000Y38738D01*
X176622Y38614D01*
X177244Y38738D01*
X177771Y39090D01*
X178123Y39617D01*
X178247Y40239D01*
X178123Y40861D01*
X177771Y41388D01*
X177244Y41741D01*
X176622Y41865D01*
D02*
G37*
G36*
X189562Y40329D02*
X188940Y40205D01*
X188412Y39853D01*
X188060Y39326D01*
X187936Y38704D01*
X188060Y38082D01*
X188353Y37644D01*
X187992Y37283D01*
X187875Y37362D01*
X187253Y37485D01*
X186631Y37362D01*
X186103Y37009D01*
X185751Y36482D01*
X185627Y35860D01*
X185751Y35238D01*
X186103Y34711D01*
X186631Y34359D01*
X187253Y34235D01*
X187875Y34359D01*
X188402Y34711D01*
X188754Y35238D01*
X188878Y35860D01*
X188754Y36482D01*
X188461Y36920D01*
X188822Y37281D01*
X188940Y37202D01*
X189562Y37078D01*
X190184Y37202D01*
X190711Y37554D01*
X191063Y38082D01*
X191187Y38704D01*
X191063Y39326D01*
X190711Y39853D01*
X190184Y40205D01*
X189562Y40329D01*
D02*
G37*
G36*
X60938Y40482D02*
X60320Y40359D01*
X59796Y40009D01*
X59446Y39485D01*
X59323Y38867D01*
X59446Y38249D01*
X59796Y37725D01*
X60320Y37374D01*
X60938Y37252D01*
X61556Y37374D01*
X62080Y37725D01*
X62430Y38249D01*
X62553Y38867D01*
X62430Y39485D01*
X62080Y40009D01*
X61556Y40359D01*
X60938Y40482D01*
D02*
G37*
G36*
X57001D02*
X56383Y40359D01*
X55859Y40009D01*
X55509Y39485D01*
X55386Y38867D01*
X55509Y38249D01*
X55859Y37725D01*
X56383Y37374D01*
X57001Y37252D01*
X57619Y37374D01*
X58143Y37725D01*
X58493Y38249D01*
X58616Y38867D01*
X58493Y39485D01*
X58143Y40009D01*
X57619Y40359D01*
X57001Y40482D01*
D02*
G37*
G36*
X53064D02*
X52446Y40359D01*
X51922Y40009D01*
X51572Y39485D01*
X51449Y38867D01*
X51572Y38249D01*
X51922Y37725D01*
X52446Y37374D01*
X53064Y37252D01*
X53682Y37374D01*
X54206Y37725D01*
X54556Y38249D01*
X54679Y38867D01*
X54556Y39485D01*
X54206Y40009D01*
X53682Y40359D01*
X53064Y40482D01*
D02*
G37*
G36*
X168500Y40125D02*
X167878Y40001D01*
X167351Y39649D01*
X166999Y39122D01*
X166875Y38500D01*
X166999Y37878D01*
X167351Y37351D01*
X167878Y36999D01*
X168500Y36875D01*
X169122Y36999D01*
X169649Y37351D01*
X170001Y37878D01*
X170125Y38500D01*
X170001Y39122D01*
X169649Y39649D01*
X169122Y40001D01*
X168500Y40125D01*
D02*
G37*
G36*
X178931Y37485D02*
X178309Y37362D01*
X177782Y37009D01*
X177429Y36482D01*
X177306Y35860D01*
X177429Y35238D01*
X177782Y34711D01*
X178309Y34359D01*
X178931Y34235D01*
X179553Y34359D01*
X180080Y34711D01*
X180433Y35238D01*
X180556Y35860D01*
X180433Y36482D01*
X180080Y37009D01*
X179553Y37362D01*
X178931Y37485D01*
D02*
G37*
G36*
X60938Y36545D02*
X60320Y36422D01*
X59796Y36072D01*
X59446Y35548D01*
X59323Y34930D01*
X59446Y34312D01*
X59796Y33788D01*
X60320Y33437D01*
X60938Y33315D01*
X61556Y33437D01*
X62080Y33788D01*
X62430Y34312D01*
X62553Y34930D01*
X62430Y35548D01*
X62080Y36072D01*
X61556Y36422D01*
X60938Y36545D01*
D02*
G37*
G36*
X57001D02*
X56383Y36422D01*
X55859Y36072D01*
X55509Y35548D01*
X55386Y34930D01*
X55509Y34312D01*
X55859Y33788D01*
X56383Y33437D01*
X57001Y33315D01*
X57619Y33437D01*
X58143Y33788D01*
X58493Y34312D01*
X58616Y34930D01*
X58493Y35548D01*
X58143Y36072D01*
X57619Y36422D01*
X57001Y36545D01*
D02*
G37*
G36*
X53064D02*
X52446Y36422D01*
X51922Y36072D01*
X51572Y35548D01*
X51449Y34930D01*
X51572Y34312D01*
X51922Y33788D01*
X52446Y33437D01*
X53064Y33315D01*
X53682Y33437D01*
X54206Y33788D01*
X54556Y34312D01*
X54679Y34930D01*
X54556Y35548D01*
X54206Y36072D01*
X53682Y36422D01*
X53064Y36545D01*
D02*
G37*
G36*
X295570Y35648D02*
X294948Y35524D01*
X294420Y35172D01*
X294068Y34645D01*
X293944Y34023D01*
X294068Y33401D01*
X294420Y32874D01*
X294948Y32521D01*
X295570Y32398D01*
X296192Y32521D01*
X296719Y32874D01*
X297071Y33401D01*
X297195Y34023D01*
X297071Y34645D01*
X296719Y35172D01*
X296192Y35524D01*
X295570Y35648D01*
D02*
G37*
G36*
X302076Y35647D02*
X301453Y35523D01*
X300926Y35171D01*
X300574Y34643D01*
X300450Y34021D01*
X300574Y33400D01*
X300926Y32872D01*
X301453Y32520D01*
X302076Y32396D01*
X302697Y32520D01*
X303225Y32872D01*
X303577Y33400D01*
X303701Y34021D01*
X303577Y34643D01*
X303225Y35171D01*
X302697Y35523D01*
X302076Y35647D01*
D02*
G37*
G36*
X307568Y35638D02*
X306946Y35515D01*
X306418Y35162D01*
X306066Y34635D01*
X305942Y34013D01*
X306066Y33391D01*
X306418Y32864D01*
X306946Y32511D01*
X307568Y32388D01*
X308190Y32511D01*
X308717Y32864D01*
X309069Y33391D01*
X309193Y34013D01*
X309069Y34635D01*
X308717Y35162D01*
X308190Y35515D01*
X307568Y35638D01*
D02*
G37*
G36*
X290501Y34975D02*
X289879Y34851D01*
X289351Y34499D01*
X288999Y33972D01*
X288875Y33349D01*
X288999Y32728D01*
X289351Y32200D01*
X289879Y31848D01*
X290501Y31724D01*
X291123Y31848D01*
X291650Y32200D01*
X292002Y32728D01*
X292126Y33349D01*
X292002Y33972D01*
X291650Y34499D01*
X291123Y34851D01*
X290501Y34975D01*
D02*
G37*
G36*
X192360Y31726D02*
X191738Y31602D01*
X191211Y31250D01*
X190998Y30931D01*
X190717Y30745D01*
X190364Y30800D01*
X190054Y31007D01*
X189432Y31131D01*
X188810Y31007D01*
X188283Y30655D01*
X187930Y30128D01*
X187806Y29506D01*
X187930Y28884D01*
X188283Y28357D01*
X188810Y28004D01*
X189432Y27880D01*
X190054Y28004D01*
X190581Y28357D01*
X190794Y28675D01*
X191075Y28862D01*
X191428Y28807D01*
X191738Y28599D01*
X192360Y28475D01*
X192647Y28533D01*
X193086Y28296D01*
X193133Y28158D01*
X193231Y27663D01*
X193584Y27135D01*
X194111Y26783D01*
X194733Y26659D01*
X195355Y26783D01*
X195882Y27135D01*
X196235Y27663D01*
X196333Y28156D01*
X196382Y28297D01*
X196819Y28530D01*
X197108Y28473D01*
X197730Y28596D01*
X198257Y28949D01*
X198610Y29476D01*
X198733Y30098D01*
X198610Y30720D01*
X198257Y31247D01*
X197730Y31599D01*
X197108Y31723D01*
X196486Y31599D01*
X195959Y31247D01*
X195607Y30720D01*
X195508Y30227D01*
X195459Y30085D01*
X195022Y29852D01*
X194733Y29910D01*
X194446Y29853D01*
X194008Y30089D01*
X193960Y30227D01*
X193862Y30723D01*
X193509Y31250D01*
X192982Y31602D01*
X192360Y31726D01*
D02*
G37*
G36*
X168000Y33946D02*
X167378Y33822D01*
X166851Y33470D01*
X166499Y32943D01*
X166375Y32321D01*
X166499Y31699D01*
X166851Y31172D01*
X167378Y30820D01*
X168000Y30696D01*
X168622Y30820D01*
X169149Y31172D01*
X169501Y31699D01*
X169625Y32321D01*
X169501Y32943D01*
X169149Y33470D01*
X168622Y33822D01*
X168000Y33946D01*
D02*
G37*
G36*
X216815Y30740D02*
X216194Y30617D01*
X215666Y30264D01*
X215504Y30022D01*
X214903D01*
X214824Y30140D01*
X214297Y30492D01*
X213675Y30616D01*
X213053Y30492D01*
X212525Y30140D01*
X212173Y29612D01*
X212049Y28991D01*
X212173Y28368D01*
X212525Y27841D01*
X213053Y27489D01*
X213675Y27365D01*
X214297Y27489D01*
X214824Y27841D01*
X214986Y28084D01*
X215587D01*
X215666Y27966D01*
X216194Y27613D01*
X216815Y27490D01*
X217438Y27613D01*
X217965Y27966D01*
X218317Y28493D01*
X218441Y29115D01*
X218317Y29737D01*
X217965Y30264D01*
X217438Y30617D01*
X216815Y30740D01*
D02*
G37*
G36*
X60938Y32608D02*
X60320Y32485D01*
X59796Y32135D01*
X59446Y31611D01*
X59323Y30993D01*
X59446Y30375D01*
X59796Y29851D01*
X60320Y29500D01*
X60938Y29377D01*
X61556Y29500D01*
X62080Y29851D01*
X62430Y30375D01*
X62553Y30993D01*
X62430Y31611D01*
X62080Y32135D01*
X61556Y32485D01*
X60938Y32608D01*
D02*
G37*
G36*
X57001D02*
X56383Y32485D01*
X55859Y32135D01*
X55509Y31611D01*
X55386Y30993D01*
X55509Y30375D01*
X55859Y29851D01*
X56383Y29500D01*
X57001Y29377D01*
X57619Y29500D01*
X58143Y29851D01*
X58493Y30375D01*
X58616Y30993D01*
X58493Y31611D01*
X58143Y32135D01*
X57619Y32485D01*
X57001Y32608D01*
D02*
G37*
G36*
X53064D02*
X52446Y32485D01*
X51922Y32135D01*
X51572Y31611D01*
X51449Y30993D01*
X51572Y30375D01*
X51922Y29851D01*
X52446Y29500D01*
X53064Y29377D01*
X53682Y29500D01*
X54206Y29851D01*
X54556Y30375D01*
X54679Y30993D01*
X54556Y31611D01*
X54206Y32135D01*
X53682Y32485D01*
X53064Y32608D01*
D02*
G37*
G36*
X121500Y51814D02*
X120806Y51676D01*
X120217Y51283D01*
X111946Y43012D01*
X111553Y42423D01*
X111414Y41729D01*
Y32000D01*
Y29783D01*
X111391Y29743D01*
X111385Y29698D01*
X111354Y29666D01*
X111336Y29623D01*
X111018Y29379D01*
X110873Y29190D01*
X110830Y29172D01*
X110798Y29141D01*
X110754Y29135D01*
X110714Y29112D01*
X94724D01*
X94684Y29135D01*
X94640Y29141D01*
X94608Y29172D01*
X94565Y29190D01*
X94222Y29637D01*
X93642Y30082D01*
X93642D01*
X93575Y30134D01*
X93496Y30167D01*
X93496Y30167D01*
X92821Y30446D01*
X92011Y30553D01*
X91202Y30446D01*
X90527Y30167D01*
X90527Y30167D01*
X90448Y30134D01*
X90380Y30082D01*
X90380D01*
X89868Y29689D01*
X89868Y29689D01*
X89800Y29637D01*
X89303Y28989D01*
X89271Y28910D01*
X89271Y28910D01*
X88991Y28235D01*
X88885Y27426D01*
X88991Y26617D01*
X89303Y25863D01*
X89800Y25215D01*
X90380Y24770D01*
X90380D01*
X90448Y24718D01*
X90527Y24686D01*
X90527Y24685D01*
X91202Y24406D01*
X92011Y24299D01*
X92821Y24406D01*
X93496Y24686D01*
X93496Y24686D01*
X93575Y24718D01*
X93642Y24770D01*
X93642D01*
X94154Y25163D01*
X94154Y25163D01*
X94222Y25215D01*
X94367Y25404D01*
X94410Y25422D01*
X94442Y25454D01*
X94486Y25460D01*
X94527Y25483D01*
X110516D01*
X110556Y25460D01*
X110600Y25454D01*
X110632Y25422D01*
X110675Y25404D01*
X111018Y24958D01*
X111598Y24513D01*
X111598D01*
X111665Y24461D01*
X111744Y24428D01*
X111744Y24428D01*
X112419Y24148D01*
X113229Y24042D01*
X114038Y24148D01*
X114713Y24428D01*
X114713Y24428D01*
X114792Y24461D01*
X114860Y24513D01*
X114860D01*
X115372Y24905D01*
X115372Y24905D01*
X115440Y24958D01*
X115937Y25605D01*
X115969Y25684D01*
X115969Y25684D01*
X116249Y26359D01*
X116356Y27168D01*
X116249Y27978D01*
X115937Y28732D01*
X115440Y29379D01*
X115372Y29432D01*
X115372Y29432D01*
X115122Y29623D01*
X115104Y29666D01*
X115072Y29698D01*
X115066Y29742D01*
X115043Y29783D01*
Y32000D01*
Y40977D01*
X122783Y48717D01*
X123176Y49306D01*
X123314Y50000D01*
X123176Y50694D01*
X122783Y51283D01*
X122194Y51676D01*
X121500Y51814D01*
D02*
G37*
G36*
X201958Y30604D02*
X201337Y30480D01*
X200809Y30128D01*
X200457Y29600D01*
X200333Y28978D01*
X200457Y28356D01*
X200809Y27829D01*
X201337Y27477D01*
X201958Y27353D01*
X202580Y27477D01*
X202833Y27645D01*
X203388Y27417D01*
X203395Y27384D01*
X203747Y26856D01*
X204274Y26504D01*
X204896Y26380D01*
X205518Y26504D01*
X206046Y26856D01*
X206398Y27384D01*
X206522Y28005D01*
X206398Y28627D01*
X206046Y29155D01*
X205518Y29507D01*
X204896Y29631D01*
X204274Y29507D01*
X204022Y29338D01*
X203467Y29567D01*
X203460Y29600D01*
X203108Y30128D01*
X202580Y30480D01*
X201958Y30604D01*
D02*
G37*
G36*
X8379Y38180D02*
X7084Y38052D01*
X5839Y37675D01*
X4692Y37062D01*
X3687Y36236D01*
X2861Y35231D01*
X2248Y34083D01*
X1870Y32839D01*
X1743Y31544D01*
X1870Y30249D01*
X2248Y29005D01*
X2861Y27857D01*
X3687Y26852D01*
X4692Y26026D01*
X5839Y25413D01*
X7084Y25036D01*
X8379Y24908D01*
X9674Y25036D01*
X10918Y25413D01*
X12066Y26026D01*
X13071Y26852D01*
X13896Y27857D01*
X14510Y29005D01*
X14887Y30249D01*
X15015Y31544D01*
X14887Y32839D01*
X14510Y34083D01*
X13896Y35231D01*
X13071Y36236D01*
X12066Y37062D01*
X10918Y37675D01*
X9674Y38052D01*
X8379Y38180D01*
D02*
G37*
G36*
X325806Y25721D02*
X325184Y25597D01*
X324657Y25245D01*
X324304Y24717D01*
X324181Y24096D01*
X324304Y23474D01*
X324657Y22946D01*
X325184Y22594D01*
X325806Y22470D01*
X326428Y22594D01*
X326955Y22946D01*
X327307Y23474D01*
X327431Y24096D01*
X327307Y24717D01*
X326955Y25245D01*
X326428Y25597D01*
X325806Y25721D01*
D02*
G37*
G36*
X60803Y23937D02*
X60181Y23814D01*
X59654Y23461D01*
X59301Y22934D01*
X59178Y22312D01*
X59301Y21690D01*
X59654Y21163D01*
X60181Y20811D01*
X60803Y20687D01*
X61425Y20811D01*
X61952Y21163D01*
X62304Y21690D01*
X62428Y22312D01*
X62304Y22934D01*
X61952Y23461D01*
X61425Y23814D01*
X60803Y23937D01*
D02*
G37*
G36*
X53851Y23904D02*
X53229Y23780D01*
X52702Y23427D01*
X52350Y22900D01*
X52226Y22278D01*
X52350Y21656D01*
X52702Y21129D01*
X53229Y20777D01*
X53851Y20653D01*
X54473Y20777D01*
X55001Y21129D01*
X55353Y21656D01*
X55477Y22278D01*
X55353Y22900D01*
X55001Y23427D01*
X54473Y23780D01*
X53851Y23904D01*
D02*
G37*
G36*
X333722Y23250D02*
X333100Y23126D01*
X332573Y22774D01*
X332220Y22246D01*
X332097Y21624D01*
X332220Y21002D01*
X332573Y20475D01*
X333100Y20123D01*
X333722Y19999D01*
X334344Y20123D01*
X334871Y20475D01*
X335224Y21002D01*
X335347Y21624D01*
X335224Y22246D01*
X334871Y22774D01*
X334344Y23126D01*
X333722Y23250D01*
D02*
G37*
G36*
X41962Y19163D02*
X41340Y19040D01*
X40812Y18687D01*
X40460Y18160D01*
X40336Y17538D01*
X40460Y16916D01*
X40812Y16389D01*
X41340Y16037D01*
X41962Y15913D01*
X42584Y16037D01*
X43111Y16389D01*
X43463Y16916D01*
X43587Y17538D01*
X43463Y18160D01*
X43111Y18687D01*
X42584Y19040D01*
X41962Y19163D01*
D02*
G37*
G36*
X53081Y18659D02*
X52459Y18535D01*
X51932Y18183D01*
X51580Y17656D01*
X51456Y17034D01*
X51580Y16412D01*
X51932Y15885D01*
X52459Y15532D01*
X53081Y15408D01*
X53703Y15532D01*
X54230Y15885D01*
X54583Y16412D01*
X54707Y17034D01*
X54583Y17656D01*
X54230Y18183D01*
X53703Y18535D01*
X53081Y18659D01*
D02*
G37*
G36*
X48110Y17677D02*
X47488Y17553D01*
X46961Y17201D01*
X46608Y16674D01*
X46485Y16052D01*
X46608Y15430D01*
X46961Y14903D01*
X47488Y14550D01*
X48110Y14427D01*
X48732Y14550D01*
X49259Y14903D01*
X49611Y15430D01*
X49735Y16052D01*
X49611Y16674D01*
X49259Y17201D01*
X48732Y17553D01*
X48110Y17677D01*
D02*
G37*
G36*
X350973Y17376D02*
X350351Y17253D01*
X349824Y16900D01*
X349471Y16373D01*
X349348Y15751D01*
X349471Y15129D01*
X349824Y14602D01*
X350351Y14250D01*
X350973Y14126D01*
X351595Y14250D01*
X352122Y14602D01*
X352475Y15129D01*
X352599Y15751D01*
X352475Y16373D01*
X352122Y16900D01*
X351595Y17253D01*
X350973Y17376D01*
D02*
G37*
G36*
X385026Y13518D02*
X384404Y13394D01*
X383876Y13042D01*
X383524Y12515D01*
X383401Y11893D01*
X383524Y11271D01*
X383876Y10744D01*
X384404Y10391D01*
X385026Y10267D01*
X385648Y10391D01*
X386175Y10744D01*
X386527Y11271D01*
X386651Y11893D01*
X386527Y12515D01*
X386175Y13042D01*
X385648Y13394D01*
X385026Y13518D01*
D02*
G37*
G36*
X47847Y12835D02*
X47225Y12711D01*
X46698Y12359D01*
X46346Y11831D01*
X46222Y11209D01*
X46346Y10587D01*
X46698Y10060D01*
X47225Y9708D01*
X47847Y9584D01*
X48469Y9708D01*
X48997Y10060D01*
X49349Y10587D01*
X49473Y11209D01*
X49349Y11831D01*
X48997Y12359D01*
X48469Y12711D01*
X47847Y12835D01*
D02*
G37*
G36*
X61844Y9380D02*
X61225Y9257D01*
X60701Y8907D01*
X60351Y8383D01*
X60228Y7764D01*
X60351Y7146D01*
X60701Y6622D01*
X61225Y6272D01*
X61844Y6149D01*
X62462Y6272D01*
X62986Y6622D01*
X63336Y7146D01*
X63459Y7764D01*
X63336Y8383D01*
X62986Y8907D01*
X62462Y9257D01*
X61844Y9380D01*
D02*
G37*
G36*
X57906D02*
X57288Y9257D01*
X56764Y8907D01*
X56414Y8383D01*
X56291Y7764D01*
X56414Y7146D01*
X56764Y6622D01*
X57288Y6272D01*
X57906Y6149D01*
X58525Y6272D01*
X59049Y6622D01*
X59399Y7146D01*
X59522Y7764D01*
X59399Y8383D01*
X59049Y8907D01*
X58525Y9257D01*
X57906Y9380D01*
D02*
G37*
G36*
X53969D02*
X53351Y9257D01*
X52827Y8907D01*
X52477Y8383D01*
X52354Y7764D01*
X52477Y7146D01*
X52827Y6622D01*
X53351Y6272D01*
X53969Y6149D01*
X54588Y6272D01*
X55112Y6622D01*
X55462Y7146D01*
X55585Y7764D01*
X55462Y8383D01*
X55112Y8907D01*
X54588Y9257D01*
X53969Y9380D01*
D02*
G37*
G36*
X61844Y5443D02*
X61225Y5320D01*
X60701Y4970D01*
X60351Y4446D01*
X60228Y3827D01*
X60351Y3209D01*
X60701Y2685D01*
X61225Y2335D01*
X61844Y2212D01*
X62462Y2335D01*
X62986Y2685D01*
X63336Y3209D01*
X63459Y3827D01*
X63336Y4446D01*
X62986Y4970D01*
X62462Y5320D01*
X61844Y5443D01*
D02*
G37*
G36*
X57906D02*
X57288Y5320D01*
X56764Y4970D01*
X56414Y4446D01*
X56291Y3827D01*
X56414Y3209D01*
X56764Y2685D01*
X57288Y2335D01*
X57906Y2212D01*
X58525Y2335D01*
X59049Y2685D01*
X59399Y3209D01*
X59522Y3827D01*
X59399Y4446D01*
X59049Y4970D01*
X58525Y5320D01*
X57906Y5443D01*
D02*
G37*
G36*
X53969D02*
X53351Y5320D01*
X52827Y4970D01*
X52477Y4446D01*
X52354Y3827D01*
X52477Y3209D01*
X52827Y2685D01*
X53351Y2335D01*
X53969Y2212D01*
X54588Y2335D01*
X55112Y2685D01*
X55462Y3209D01*
X55585Y3827D01*
X55462Y4446D01*
X55112Y4970D01*
X54588Y5320D01*
X53969Y5443D01*
D02*
G37*
G36*
X71174Y5453D02*
X70552Y5329D01*
X70025Y4977D01*
X69673Y4450D01*
X69549Y3827D01*
X69673Y3206D01*
X70025Y2678D01*
X70552Y2326D01*
X71174Y2202D01*
X71796Y2326D01*
X72323Y2678D01*
X72676Y3206D01*
X72799Y3827D01*
X72676Y4450D01*
X72323Y4977D01*
X71796Y5329D01*
X71174Y5453D01*
D02*
G37*
G36*
X61844Y1506D02*
X61225Y1383D01*
X60701Y1033D01*
X60351Y509D01*
X60228Y-109D01*
X60351Y-728D01*
X60701Y-1252D01*
X61225Y-1602D01*
X61844Y-1725D01*
X62462Y-1602D01*
X62986Y-1252D01*
X63336Y-728D01*
X63459Y-109D01*
X63336Y509D01*
X62986Y1033D01*
X62462Y1383D01*
X61844Y1506D01*
D02*
G37*
G36*
X57906D02*
X57288Y1383D01*
X56764Y1033D01*
X56414Y509D01*
X56291Y-109D01*
X56414Y-728D01*
X56764Y-1252D01*
X57288Y-1602D01*
X57906Y-1725D01*
X58525Y-1602D01*
X59049Y-1252D01*
X59399Y-728D01*
X59522Y-109D01*
X59399Y509D01*
X59049Y1033D01*
X58525Y1383D01*
X57906Y1506D01*
D02*
G37*
G36*
X53969D02*
X53351Y1383D01*
X52827Y1033D01*
X52477Y509D01*
X52354Y-109D01*
X52477Y-728D01*
X52827Y-1252D01*
X53351Y-1602D01*
X53969Y-1725D01*
X54588Y-1602D01*
X55112Y-1252D01*
X55462Y-728D01*
X55585Y-109D01*
X55462Y509D01*
X55112Y1033D01*
X54588Y1383D01*
X53969Y1506D01*
D02*
G37*
G36*
X379500Y2125D02*
X378878Y2001D01*
X378351Y1649D01*
X377999Y1122D01*
X377875Y500D01*
X377999Y-122D01*
X378351Y-649D01*
X378501Y-749D01*
Y-1249D01*
X378368Y-1338D01*
X378015Y-1866D01*
X377892Y-2488D01*
X378015Y-3110D01*
X378368Y-3637D01*
X378895Y-3989D01*
X379517Y-4113D01*
X380139Y-3989D01*
X380666Y-3637D01*
X381019Y-3110D01*
X381142Y-2488D01*
X381019Y-1866D01*
X380666Y-1338D01*
X380516Y-1238D01*
Y-738D01*
X380649Y-649D01*
X381001Y-122D01*
X381125Y500D01*
X381001Y1122D01*
X380649Y1649D01*
X380122Y2001D01*
X379500Y2125D01*
D02*
G37*
G36*
X158690Y-2387D02*
X158068Y-2511D01*
X157540Y-2863D01*
X157188Y-3391D01*
X157064Y-4013D01*
X157188Y-4635D01*
X157540Y-5162D01*
X158068Y-5514D01*
X158690Y-5638D01*
X159312Y-5514D01*
X159839Y-5162D01*
X160191Y-4635D01*
X160315Y-4013D01*
X160191Y-3391D01*
X159839Y-2863D01*
X159312Y-2511D01*
X158690Y-2387D01*
D02*
G37*
G36*
X132981Y-2466D02*
X132359Y-2590D01*
X131832Y-2942D01*
X131479Y-3469D01*
X131356Y-4091D01*
X131479Y-4713D01*
X131832Y-5241D01*
X132359Y-5593D01*
X132981Y-5717D01*
X133603Y-5593D01*
X134130Y-5241D01*
X134483Y-4713D01*
X134606Y-4091D01*
X134483Y-3469D01*
X134130Y-2942D01*
X133603Y-2590D01*
X132981Y-2466D01*
D02*
G37*
G36*
X162784Y-2584D02*
X162162Y-2708D01*
X161635Y-3060D01*
X161283Y-3588D01*
X161159Y-4210D01*
X161283Y-4831D01*
X161635Y-5359D01*
X162162Y-5711D01*
X162784Y-5835D01*
X163406Y-5711D01*
X163933Y-5359D01*
X164286Y-4831D01*
X164409Y-4210D01*
X164286Y-3588D01*
X163933Y-3060D01*
X163406Y-2708D01*
X162784Y-2584D01*
D02*
G37*
G36*
X145717Y-2624D02*
X145095Y-2747D01*
X144568Y-3100D01*
X144216Y-3627D01*
X144092Y-4249D01*
X144216Y-4871D01*
X144568Y-5398D01*
X145095Y-5751D01*
X145717Y-5874D01*
X146339Y-5751D01*
X146867Y-5398D01*
X147219Y-4871D01*
X147343Y-4249D01*
X147219Y-3627D01*
X146867Y-3100D01*
X146339Y-2747D01*
X145717Y-2624D01*
D02*
G37*
G36*
X153886Y-2742D02*
X153265Y-2865D01*
X152737Y-3218D01*
X152385Y-3745D01*
X152261Y-4367D01*
X152385Y-4989D01*
X152737Y-5516D01*
X153265Y-5869D01*
X153886Y-5992D01*
X154508Y-5869D01*
X155036Y-5516D01*
X155388Y-4989D01*
X155512Y-4367D01*
X155388Y-3745D01*
X155036Y-3218D01*
X154508Y-2865D01*
X153886Y-2742D01*
D02*
G37*
G36*
X136760Y-3017D02*
X136139Y-3141D01*
X135611Y-3493D01*
X135259Y-4021D01*
X135135Y-4643D01*
X135259Y-5265D01*
X135611Y-5792D01*
X136139Y-6144D01*
X136760Y-6268D01*
X137382Y-6144D01*
X137910Y-5792D01*
X138262Y-5265D01*
X138386Y-4643D01*
X138262Y-4021D01*
X137910Y-3493D01*
X137382Y-3141D01*
X136760Y-3017D01*
D02*
G37*
G36*
X259307Y-3932D02*
X258685Y-4056D01*
X258157Y-4408D01*
X257805Y-4936D01*
X257681Y-5557D01*
X257805Y-6179D01*
X258157Y-6707D01*
X258685Y-7059D01*
X259307Y-7183D01*
X259929Y-7059D01*
X260456Y-6707D01*
X260808Y-6179D01*
X260932Y-5557D01*
X260808Y-4936D01*
X260456Y-4408D01*
X259929Y-4056D01*
X259307Y-3932D01*
D02*
G37*
G36*
X324000Y-156D02*
X322930Y-297D01*
X321932Y-710D01*
X321076Y-1367D01*
X320419Y-2224D01*
X320005Y-3221D01*
X319865Y-4291D01*
X320005Y-5362D01*
X320419Y-6359D01*
X321076Y-7215D01*
X321932Y-7873D01*
X322930Y-8286D01*
X324000Y-8427D01*
X325070Y-8286D01*
X326068Y-7873D01*
X326924Y-7215D01*
X327581Y-6359D01*
X327994Y-5362D01*
X328135Y-4291D01*
X327994Y-3221D01*
X327581Y-2224D01*
X326924Y-1367D01*
X326068Y-710D01*
X325070Y-297D01*
X324000Y-156D01*
D02*
G37*
G36*
X54416Y-6947D02*
X53794Y-7070D01*
X53267Y-7423D01*
X52914Y-7950D01*
X52790Y-8572D01*
X52914Y-9194D01*
X53267Y-9721D01*
X53794Y-10074D01*
X54416Y-10197D01*
X55038Y-10074D01*
X55565Y-9721D01*
X55917Y-9194D01*
X56041Y-8572D01*
X55917Y-7950D01*
X55565Y-7423D01*
X55038Y-7070D01*
X54416Y-6947D01*
D02*
G37*
G36*
X68143Y-7087D02*
X67522Y-7211D01*
X66994Y-7564D01*
X66642Y-8091D01*
X66518Y-8713D01*
X66642Y-9335D01*
X66994Y-9862D01*
X67522Y-10214D01*
X68143Y-10338D01*
X68765Y-10214D01*
X69293Y-9862D01*
X69645Y-9335D01*
X69769Y-8713D01*
X69645Y-8091D01*
X69293Y-7564D01*
X68765Y-7211D01*
X68143Y-7087D01*
D02*
G37*
G36*
X225698Y-4154D02*
X224772Y-4338D01*
X223988Y-4862D01*
X223464Y-5646D01*
X223279Y-6572D01*
Y-9328D01*
X223464Y-10253D01*
X223988Y-11038D01*
X224772Y-11562D01*
X225698Y-11746D01*
X226623Y-11562D01*
X227407Y-11038D01*
X227932Y-10253D01*
X228116Y-9328D01*
Y-6572D01*
X227932Y-5646D01*
X227407Y-4862D01*
X226623Y-4338D01*
X225698Y-4154D01*
D02*
G37*
G36*
X199713D02*
X198788Y-4338D01*
X198003Y-4862D01*
X197479Y-5646D01*
X197295Y-6572D01*
Y-9328D01*
X197479Y-10253D01*
X198003Y-11038D01*
X198788Y-11562D01*
X199713Y-11746D01*
X200639Y-11562D01*
X201423Y-11038D01*
X201947Y-10253D01*
X202131Y-9328D01*
Y-6572D01*
X201947Y-5646D01*
X201423Y-4862D01*
X200639Y-4338D01*
X199713Y-4154D01*
D02*
G37*
%LPD*%
G36*
X389122Y167807D02*
X388335Y167020D01*
X388138Y167217D01*
X371406D01*
X363138Y158949D01*
X363138Y137886D01*
X313925Y137886D01*
Y158476D01*
X342154Y186705D01*
X389122D01*
Y167807D01*
D02*
G37*
G36*
X311760Y135524D02*
X364713D01*
X364791Y135602D01*
Y143496D01*
X388827D01*
X389122Y143791D01*
X389516Y143398D01*
X389516Y121350D01*
X353349Y121350D01*
X353149Y121649D01*
X352622Y122002D01*
X352000Y122125D01*
X351378Y122002D01*
X350851Y121649D01*
X350651Y121350D01*
X283217Y121350D01*
X262350Y142217D01*
X262350Y158752D01*
X311760D01*
Y135524D01*
D02*
G37*
%LPC*%
G36*
X353467Y184581D02*
X352845Y184457D01*
X352318Y184105D01*
X351966Y183578D01*
X351842Y182956D01*
X351966Y182334D01*
X352318Y181807D01*
X352845Y181454D01*
X353467Y181331D01*
X354089Y181454D01*
X354616Y181807D01*
X354969Y182334D01*
X355093Y182956D01*
X354969Y183578D01*
X354616Y184105D01*
X354089Y184457D01*
X353467Y184581D01*
D02*
G37*
G36*
X352800Y177263D02*
X352178Y177140D01*
X351650Y176787D01*
X351298Y176260D01*
X351174Y175638D01*
X351298Y175016D01*
X351650Y174489D01*
X352178Y174136D01*
X352800Y174013D01*
X353421Y174136D01*
X353949Y174489D01*
X354301Y175016D01*
X354425Y175638D01*
X354301Y176260D01*
X353949Y176787D01*
X353421Y177140D01*
X352800Y177263D01*
D02*
G37*
G36*
X336957Y171983D02*
X336335Y171859D01*
X335808Y171507D01*
X335456Y170979D01*
X335332Y170357D01*
X335456Y169735D01*
X335808Y169208D01*
X336335Y168856D01*
X336957Y168732D01*
X337579Y168856D01*
X338107Y169208D01*
X338459Y169735D01*
X338583Y170357D01*
X338459Y170979D01*
X338107Y171507D01*
X337579Y171859D01*
X336957Y171983D01*
D02*
G37*
G36*
X301500Y132625D02*
X300878Y132502D01*
X300351Y132149D01*
X299998Y131622D01*
X299875Y131000D01*
X299998Y130378D01*
X300351Y129851D01*
X300878Y129498D01*
X301500Y129375D01*
X302122Y129498D01*
X302649Y129851D01*
X303002Y130378D01*
X303125Y131000D01*
X303002Y131622D01*
X302649Y132149D01*
X302122Y132502D01*
X301500Y132625D01*
D02*
G37*
G36*
X352000Y130731D02*
X351378Y130607D01*
X350851Y130255D01*
X350499Y129728D01*
X350375Y129106D01*
X350499Y128484D01*
X350851Y127957D01*
X351378Y127605D01*
X352000Y127481D01*
X352622Y127605D01*
X353149Y127957D01*
X353501Y128484D01*
X353625Y129106D01*
X353501Y129728D01*
X353149Y130255D01*
X352622Y130607D01*
X352000Y130731D01*
D02*
G37*
G36*
X302377Y128059D02*
X301755Y127935D01*
X301228Y127583D01*
X300876Y127056D01*
X300752Y126434D01*
X300876Y125812D01*
X301228Y125285D01*
X301755Y124933D01*
X302377Y124809D01*
X302999Y124933D01*
X303526Y125285D01*
X303878Y125812D01*
X304002Y126434D01*
X303878Y127056D01*
X303526Y127583D01*
X302999Y127935D01*
X302377Y128059D01*
D02*
G37*
G36*
X353506Y127142D02*
X352884Y127018D01*
X352357Y126666D01*
X352005Y126139D01*
X351881Y125517D01*
X352005Y124895D01*
X352357Y124368D01*
X352884Y124015D01*
X353506Y123892D01*
X354128Y124015D01*
X354655Y124368D01*
X355008Y124895D01*
X355132Y125517D01*
X355008Y126139D01*
X354655Y126666D01*
X354128Y127018D01*
X353506Y127142D01*
D02*
G37*
%LPD*%
G36*
X114394Y29684D02*
X114411Y29642D01*
X114399Y29599D01*
X114504Y29418D01*
X114584Y29225D01*
X114625Y29207D01*
X114648Y29168D01*
X114977Y28916D01*
X115369Y28404D01*
X115616Y27808D01*
X115700Y27168D01*
X115616Y26529D01*
X115369Y25933D01*
X114977Y25421D01*
X114465Y25028D01*
X113868Y24781D01*
X113229Y24697D01*
X112589Y24781D01*
X111993Y25028D01*
X111481Y25421D01*
X111130Y25878D01*
X111091Y25901D01*
X111074Y25942D01*
X110881Y26022D01*
X110699Y26127D01*
X110656Y26115D01*
X110615Y26132D01*
X94428D01*
X94386Y26115D01*
X94343Y26127D01*
X94162Y26022D01*
X93968Y25942D01*
X93951Y25901D01*
X93913Y25878D01*
X93759Y25678D01*
X93247Y25286D01*
X92651Y25038D01*
X92011Y24954D01*
X91372Y25038D01*
X90776Y25286D01*
X90263Y25678D01*
X89871Y26190D01*
X89624Y26786D01*
X89540Y27426D01*
X89624Y28066D01*
X89871Y28662D01*
X90263Y29174D01*
X90776Y29567D01*
X91372Y29814D01*
X92011Y29898D01*
X92651Y29814D01*
X93247Y29567D01*
X93759Y29174D01*
X94110Y28716D01*
X94149Y28694D01*
X94166Y28652D01*
X94359Y28572D01*
X94541Y28468D01*
X94584Y28479D01*
X94625Y28462D01*
X110812D01*
X110854Y28479D01*
X110897Y28468D01*
X111078Y28572D01*
X111272Y28652D01*
X111289Y28694D01*
X111328Y28716D01*
X111481Y28916D01*
X111810Y29168D01*
X111832Y29207D01*
X111874Y29225D01*
X111954Y29418D01*
X112058Y29599D01*
X112047Y29642D01*
X112064Y29684D01*
Y32000D01*
X114394D01*
Y29684D01*
D02*
G37*
%LPC*%
G36*
X199000Y132625D02*
X198378Y132502D01*
X197851Y132149D01*
X197498Y131622D01*
X197375Y131000D01*
X197498Y130378D01*
X197851Y129851D01*
X198378Y129498D01*
X199000Y129375D01*
X199622Y129498D01*
X200149Y129851D01*
X200502Y130378D01*
X200625Y131000D01*
X200502Y131622D01*
X200149Y132149D01*
X199622Y132502D01*
X199000Y132625D01*
D02*
G37*
G36*
X202725Y125151D02*
X202103Y125028D01*
X201576Y124675D01*
X201224Y124148D01*
X201100Y123526D01*
X201224Y122905D01*
X201576Y122377D01*
X202103Y122025D01*
X202725Y121902D01*
X203347Y122025D01*
X203874Y122377D01*
X204226Y122905D01*
X204350Y123526D01*
X204226Y124148D01*
X203874Y124675D01*
X203347Y125028D01*
X202725Y125151D01*
D02*
G37*
G36*
X195500Y125125D02*
X194878Y125001D01*
X194351Y124649D01*
X193999Y124122D01*
X193875Y123500D01*
X193999Y122878D01*
X194351Y122351D01*
X194878Y121999D01*
X195500Y121875D01*
X196122Y121999D01*
X196649Y122351D01*
X197001Y122878D01*
X197125Y123500D01*
X197001Y124122D01*
X196649Y124649D01*
X196122Y125001D01*
X195500Y125125D01*
D02*
G37*
G36*
X208335Y122441D02*
X207713Y122317D01*
X207186Y121965D01*
X206833Y121438D01*
X206710Y120816D01*
X206833Y120194D01*
X207186Y119666D01*
X207713Y119314D01*
X208335Y119190D01*
X208957Y119314D01*
X209484Y119666D01*
X209837Y120194D01*
X209960Y120816D01*
X209837Y121438D01*
X209484Y121965D01*
X208957Y122317D01*
X208335Y122441D01*
D02*
G37*
G36*
X183000Y118625D02*
X182378Y118501D01*
X181851Y118149D01*
X181499Y117622D01*
X181375Y117000D01*
X181499Y116378D01*
X181851Y115851D01*
X182378Y115499D01*
X183000Y115375D01*
X183622Y115499D01*
X184149Y115851D01*
X184501Y116378D01*
X184625Y117000D01*
X184501Y117622D01*
X184149Y118149D01*
X183622Y118501D01*
X183000Y118625D01*
D02*
G37*
G36*
X198920Y118082D02*
X198298Y117958D01*
X197771Y117606D01*
X197419Y117079D01*
X197295Y116457D01*
X197419Y115835D01*
X197673Y115454D01*
X197650Y115083D01*
X197533Y114866D01*
X197113Y114585D01*
X196761Y114058D01*
X196637Y113436D01*
X196761Y112814D01*
X197113Y112287D01*
X197640Y111935D01*
X198262Y111811D01*
X198884Y111935D01*
X199412Y112287D01*
X199764Y112814D01*
X199888Y113436D01*
X199764Y114058D01*
X199509Y114439D01*
X199520Y114613D01*
X199598Y114931D01*
X199650Y115028D01*
X200069Y115308D01*
X200421Y115835D01*
X200545Y116457D01*
X200421Y117079D01*
X200069Y117606D01*
X199542Y117958D01*
X198920Y118082D01*
D02*
G37*
G36*
X194383Y106530D02*
X193761Y106406D01*
X193233Y106054D01*
X192881Y105527D01*
X192757Y104905D01*
X192881Y104283D01*
X193233Y103755D01*
X193761Y103403D01*
X194383Y103279D01*
X195005Y103403D01*
X195532Y103755D01*
X195884Y104283D01*
X196008Y104905D01*
X195884Y105527D01*
X195532Y106054D01*
X195005Y106406D01*
X194383Y106530D01*
D02*
G37*
G36*
X224446Y106399D02*
X223824Y106275D01*
X223297Y105923D01*
X222945Y105395D01*
X222821Y104773D01*
X222945Y104151D01*
X223297Y103624D01*
X223824Y103272D01*
X224446Y103148D01*
X225068Y103272D01*
X225596Y103624D01*
X225948Y104151D01*
X226072Y104773D01*
X225948Y105395D01*
X225596Y105923D01*
X225068Y106275D01*
X224446Y106399D01*
D02*
G37*
G36*
X216091Y106235D02*
X215469Y106111D01*
X214942Y105759D01*
X214590Y105231D01*
X214466Y104609D01*
X214590Y103987D01*
X214942Y103460D01*
X215354Y103184D01*
X215421Y102774D01*
X215398Y102612D01*
X215220Y102493D01*
X214867Y101966D01*
X214744Y101344D01*
X214867Y100722D01*
X215220Y100195D01*
X215747Y99842D01*
X216369Y99718D01*
X216991Y99842D01*
X217518Y100195D01*
X217871Y100722D01*
X217994Y101344D01*
X217871Y101966D01*
X217518Y102493D01*
X217106Y102769D01*
X217039Y103179D01*
X217062Y103341D01*
X217241Y103460D01*
X217593Y103987D01*
X217610Y104073D01*
X218120D01*
X218138Y103983D01*
X218490Y103455D01*
X219017Y103103D01*
X219639Y102979D01*
X220261Y103103D01*
X220789Y103455D01*
X221141Y103983D01*
X221265Y104605D01*
X221141Y105227D01*
X220789Y105754D01*
X220261Y106106D01*
X219639Y106230D01*
X219017Y106106D01*
X218490Y105754D01*
X218138Y105227D01*
X218121Y105141D01*
X217611D01*
X217593Y105231D01*
X217241Y105759D01*
X216713Y106111D01*
X216091Y106235D01*
D02*
G37*
G36*
X222778Y102838D02*
X222156Y102714D01*
X221629Y102362D01*
X221276Y101834D01*
X221153Y101212D01*
X221276Y100590D01*
X221629Y100063D01*
X222156Y99711D01*
X222778Y99587D01*
X223400Y99711D01*
X223927Y100063D01*
X224279Y100590D01*
X224403Y101212D01*
X224279Y101834D01*
X223927Y102362D01*
X223400Y102714D01*
X222778Y102838D01*
D02*
G37*
G36*
X262843Y65782D02*
X262221Y65658D01*
X261694Y65306D01*
X261342Y64779D01*
X261218Y64157D01*
X261342Y63535D01*
X261694Y63007D01*
X261619Y62456D01*
X261415Y62319D01*
X261063Y61792D01*
X260939Y61170D01*
X261063Y60548D01*
X261415Y60021D01*
X261942Y59668D01*
X262313Y59595D01*
X262419Y59064D01*
X262186Y58908D01*
X261834Y58381D01*
X261710Y57759D01*
X261834Y57137D01*
X262186Y56610D01*
X262713Y56257D01*
X263335Y56134D01*
X263957Y56257D01*
X264485Y56610D01*
X264837Y57137D01*
X264961Y57759D01*
X264837Y58381D01*
X264485Y58908D01*
X263957Y59261D01*
X263586Y59334D01*
X263481Y59865D01*
X263714Y60021D01*
X264066Y60548D01*
X264190Y61170D01*
X264066Y61792D01*
X263714Y62319D01*
X263788Y62871D01*
X263993Y63007D01*
X264345Y63535D01*
X264469Y64157D01*
X264345Y64779D01*
X263993Y65306D01*
X263465Y65658D01*
X262843Y65782D01*
D02*
G37*
G36*
X333354Y54125D02*
X332733Y54001D01*
X332205Y53649D01*
X331853Y53122D01*
X331729Y52500D01*
X331853Y51878D01*
X332205Y51351D01*
X332733Y50999D01*
X333354Y50875D01*
X333976Y50999D01*
X334503Y51351D01*
X334856Y51878D01*
X334979Y52500D01*
X334856Y53122D01*
X334503Y53649D01*
X333976Y54001D01*
X333354Y54125D01*
D02*
G37*
G36*
X312000D02*
X311378Y54001D01*
X310851Y53649D01*
X310499Y53122D01*
X310375Y52500D01*
X310499Y51878D01*
X310851Y51351D01*
X311378Y50999D01*
X312000Y50875D01*
X312622Y50999D01*
X313149Y51351D01*
X313501Y51878D01*
X313625Y52500D01*
X313501Y53122D01*
X313149Y53649D01*
X312622Y54001D01*
X312000Y54125D01*
D02*
G37*
G36*
X307365Y53380D02*
X306743Y53256D01*
X306216Y52904D01*
X305864Y52377D01*
X305740Y51755D01*
X305864Y51133D01*
X306216Y50606D01*
X306743Y50254D01*
X307365Y50130D01*
X307987Y50254D01*
X308514Y50606D01*
X308867Y51133D01*
X308990Y51755D01*
X308867Y52377D01*
X308514Y52904D01*
X307987Y53256D01*
X307365Y53380D01*
D02*
G37*
G36*
X272489Y53380D02*
X271867Y53257D01*
X271340Y52904D01*
X270987Y52377D01*
X270864Y51755D01*
X270987Y51133D01*
X271340Y50606D01*
X271867Y50253D01*
X272489Y50130D01*
X273111Y50253D01*
X273638Y50606D01*
X273991Y51133D01*
X274114Y51755D01*
X273991Y52377D01*
X273638Y52904D01*
X273111Y53257D01*
X272489Y53380D01*
D02*
G37*
G36*
X337790Y49935D02*
X337168Y49812D01*
X336641Y49459D01*
X336288Y48932D01*
X336165Y48310D01*
X336288Y47688D01*
X336641Y47161D01*
X337168Y46808D01*
X337790Y46685D01*
X338412Y46808D01*
X338939Y47161D01*
X339292Y47688D01*
X339415Y48310D01*
X339292Y48932D01*
X338939Y49459D01*
X338412Y49812D01*
X337790Y49935D01*
D02*
G37*
G36*
X262559Y51584D02*
X261937Y51460D01*
X261409Y51108D01*
X261057Y50581D01*
X260933Y49959D01*
X261057Y49337D01*
X261409Y48809D01*
X261779Y48562D01*
X261842Y48019D01*
X261839Y48001D01*
X261486Y47473D01*
X261363Y46852D01*
X261486Y46230D01*
X261839Y45702D01*
X262366Y45350D01*
X262988Y45226D01*
X263610Y45350D01*
X264137Y45702D01*
X264490Y46230D01*
X264613Y46852D01*
X264490Y47473D01*
X264137Y48001D01*
X263768Y48248D01*
X263704Y48792D01*
X263708Y48809D01*
X264060Y49337D01*
X264184Y49959D01*
X264060Y50581D01*
X263708Y51108D01*
X263181Y51460D01*
X262559Y51584D01*
D02*
G37*
G36*
X251347Y132625D02*
X250726Y132502D01*
X250198Y132149D01*
X249846Y131622D01*
X249722Y131000D01*
X249846Y130378D01*
X250198Y129851D01*
X250726Y129498D01*
X251347Y129375D01*
X251970Y129498D01*
X252497Y129851D01*
X252849Y130378D01*
X252973Y131000D01*
X252849Y131622D01*
X252497Y132149D01*
X251970Y132502D01*
X251347Y132625D01*
D02*
G37*
G36*
X253000Y126625D02*
X252378Y126501D01*
X251851Y126149D01*
X251499Y125622D01*
X251375Y125000D01*
X251499Y124378D01*
X251851Y123851D01*
X252378Y123499D01*
X253000Y123375D01*
X253622Y123499D01*
X254149Y123851D01*
X254501Y124378D01*
X254625Y125000D01*
X254501Y125622D01*
X254149Y126149D01*
X253622Y126501D01*
X253000Y126625D01*
D02*
G37*
G36*
X249300Y119029D02*
X248678Y118905D01*
X248151Y118553D01*
X247798Y118026D01*
X247683Y117448D01*
X247549Y117374D01*
X247187Y117290D01*
X247149Y117347D01*
X246622Y117699D01*
X246000Y117823D01*
X245378Y117699D01*
X244851Y117347D01*
X244498Y116820D01*
X244375Y116198D01*
X244498Y115576D01*
X244851Y115048D01*
X245378Y114696D01*
X246000Y114572D01*
X246622Y114696D01*
X247149Y115048D01*
X247502Y115576D01*
X247617Y116154D01*
X247751Y116227D01*
X248112Y116312D01*
X248151Y116254D01*
X248678Y115902D01*
X249300Y115778D01*
X249922Y115902D01*
X250449Y116254D01*
X250801Y116782D01*
X250925Y117404D01*
X250801Y118026D01*
X250449Y118553D01*
X249922Y118905D01*
X249300Y119029D01*
D02*
G37*
G36*
X257627Y105565D02*
X257005Y105442D01*
X256477Y105089D01*
X256125Y104562D01*
X256001Y103940D01*
X256125Y103318D01*
X256477Y102791D01*
X257005Y102438D01*
X257627Y102315D01*
X258249Y102438D01*
X258776Y102791D01*
X259128Y103318D01*
X259252Y103940D01*
X259128Y104562D01*
X258776Y105089D01*
X258249Y105442D01*
X257627Y105565D01*
D02*
G37*
G36*
X262117Y104319D02*
X261495Y104196D01*
X260968Y103843D01*
X260615Y103316D01*
X260492Y102694D01*
X260615Y102072D01*
X260968Y101545D01*
X261495Y101192D01*
X262117Y101069D01*
X262739Y101192D01*
X263266Y101545D01*
X263619Y102072D01*
X263742Y102694D01*
X263619Y103316D01*
X263266Y103843D01*
X262739Y104196D01*
X262117Y104319D01*
D02*
G37*
G36*
X277689Y101105D02*
X277067Y100981D01*
X276540Y100629D01*
X276187Y100101D01*
X276064Y99479D01*
X276187Y98857D01*
X276540Y98330D01*
X277067Y97978D01*
X277689Y97854D01*
X278311Y97978D01*
X278838Y98330D01*
X279190Y98857D01*
X279314Y99479D01*
X279190Y100101D01*
X278838Y100629D01*
X278311Y100981D01*
X277689Y101105D01*
D02*
G37*
G36*
X322500Y96125D02*
X321878Y96001D01*
X321351Y95649D01*
X320999Y95122D01*
X320875Y94500D01*
X320999Y93878D01*
X321351Y93351D01*
X321878Y92999D01*
X322500Y92875D01*
X323122Y92999D01*
X323649Y93351D01*
X324001Y93878D01*
X324125Y94500D01*
X324001Y95122D01*
X323649Y95649D01*
X323122Y96001D01*
X322500Y96125D01*
D02*
G37*
G36*
X273493Y95683D02*
X272871Y95560D01*
X272344Y95207D01*
X271991Y94680D01*
X271867Y94058D01*
X271991Y93436D01*
X272344Y92909D01*
X272871Y92557D01*
X273493Y92433D01*
X274115Y92557D01*
X274642Y92909D01*
X274994Y93436D01*
X275118Y94058D01*
X274994Y94680D01*
X274642Y95207D01*
X274115Y95560D01*
X273493Y95683D01*
D02*
G37*
G36*
X310329Y91125D02*
X309707Y91001D01*
X309180Y90649D01*
X308827Y90122D01*
X308704Y89500D01*
X308827Y88878D01*
X309180Y88351D01*
X309707Y87999D01*
X310329Y87875D01*
X310950Y87999D01*
X311477Y88351D01*
X311830Y88878D01*
X311953Y89500D01*
X311830Y90122D01*
X311477Y90649D01*
X310950Y91001D01*
X310329Y91125D01*
D02*
G37*
G36*
X485129Y202410D02*
X477664D01*
Y194944D01*
X485129D01*
Y202410D01*
D02*
G37*
G36*
X481397Y191642D02*
X480422Y191514D01*
X479514Y191138D01*
X478735Y190539D01*
X478136Y189760D01*
X477760Y188851D01*
X477632Y187877D01*
X477760Y186903D01*
X478136Y185995D01*
X478735Y185215D01*
X479514Y184617D01*
X480422Y184240D01*
X481397Y184112D01*
X482371Y184240D01*
X483279Y184617D01*
X484059Y185215D01*
X484657Y185995D01*
X485033Y186903D01*
X485162Y187877D01*
X485033Y188851D01*
X484657Y189760D01*
X484059Y190539D01*
X483279Y191138D01*
X482371Y191514D01*
X481397Y191642D01*
D02*
G37*
G36*
X429005Y174354D02*
X428264Y174207D01*
X427635Y173787D01*
X427216Y173159D01*
X427068Y172418D01*
X427216Y171677D01*
X427635Y171048D01*
X428264Y170629D01*
X429005Y170481D01*
X429746Y170629D01*
X430374Y171048D01*
X430794Y171677D01*
X430941Y172418D01*
X430794Y173159D01*
X430374Y173787D01*
X429746Y174207D01*
X429005Y174354D01*
D02*
G37*
G36*
X424280D02*
X423539Y174207D01*
X422911Y173787D01*
X422491Y173159D01*
X422344Y172418D01*
X422491Y171677D01*
X422911Y171048D01*
X423539Y170629D01*
X424280Y170481D01*
X425021Y170629D01*
X425649Y171048D01*
X426069Y171677D01*
X426217Y172418D01*
X426069Y173159D01*
X425649Y173787D01*
X425021Y174207D01*
X424280Y174354D01*
D02*
G37*
G36*
X419556D02*
X418815Y174207D01*
X418187Y173787D01*
X417767Y173159D01*
X417619Y172418D01*
X417767Y171677D01*
X418187Y171048D01*
X418815Y170629D01*
X419556Y170481D01*
X420297Y170629D01*
X420925Y171048D01*
X421345Y171677D01*
X421492Y172418D01*
X421345Y173159D01*
X420925Y173787D01*
X420297Y174207D01*
X419556Y174354D01*
D02*
G37*
G36*
X414831D02*
X414090Y174207D01*
X413462Y173787D01*
X413042Y173159D01*
X412895Y172418D01*
X413042Y171677D01*
X413462Y171048D01*
X414090Y170629D01*
X414831Y170481D01*
X415573Y170629D01*
X416201Y171048D01*
X416620Y171677D01*
X416768Y172418D01*
X416620Y173159D01*
X416201Y173787D01*
X415573Y174207D01*
X414831Y174354D01*
D02*
G37*
G36*
X410107D02*
X409366Y174207D01*
X408738Y173787D01*
X408318Y173159D01*
X408171Y172418D01*
X408318Y171677D01*
X408738Y171048D01*
X409366Y170629D01*
X410107Y170481D01*
X410848Y170629D01*
X411476Y171048D01*
X411896Y171677D01*
X412043Y172418D01*
X411896Y173159D01*
X411476Y173787D01*
X410848Y174207D01*
X410107Y174354D01*
D02*
G37*
G36*
X405383D02*
X404642Y174207D01*
X404013Y173787D01*
X403594Y173159D01*
X403446Y172418D01*
X403594Y171677D01*
X404013Y171048D01*
X404642Y170629D01*
X405383Y170481D01*
X406124Y170629D01*
X406752Y171048D01*
X407172Y171677D01*
X407319Y172418D01*
X407172Y173159D01*
X406752Y173787D01*
X406124Y174207D01*
X405383Y174354D01*
D02*
G37*
G36*
X400658D02*
X399917Y174207D01*
X399289Y173787D01*
X398869Y173159D01*
X398722Y172418D01*
X398869Y171677D01*
X399289Y171048D01*
X399917Y170629D01*
X400658Y170481D01*
X401399Y170629D01*
X402027Y171048D01*
X402447Y171677D01*
X402595Y172418D01*
X402447Y173159D01*
X402027Y173787D01*
X401399Y174207D01*
X400658Y174354D01*
D02*
G37*
G36*
X429005Y169630D02*
X428264Y169482D01*
X427635Y169062D01*
X427216Y168434D01*
X427068Y167693D01*
X427216Y166952D01*
X427635Y166324D01*
X428264Y165904D01*
X429005Y165757D01*
X429746Y165904D01*
X430374Y166324D01*
X430794Y166952D01*
X430941Y167693D01*
X430794Y168434D01*
X430374Y169062D01*
X429746Y169482D01*
X429005Y169630D01*
D02*
G37*
G36*
X424280D02*
X423539Y169482D01*
X422911Y169062D01*
X422491Y168434D01*
X422344Y167693D01*
X422491Y166952D01*
X422911Y166324D01*
X423539Y165904D01*
X424280Y165757D01*
X425021Y165904D01*
X425649Y166324D01*
X426069Y166952D01*
X426217Y167693D01*
X426069Y168434D01*
X425649Y169062D01*
X425021Y169482D01*
X424280Y169630D01*
D02*
G37*
G36*
X419556D02*
X418815Y169482D01*
X418187Y169062D01*
X417767Y168434D01*
X417619Y167693D01*
X417767Y166952D01*
X418187Y166324D01*
X418815Y165904D01*
X419556Y165757D01*
X420297Y165904D01*
X420925Y166324D01*
X421345Y166952D01*
X421492Y167693D01*
X421345Y168434D01*
X420925Y169062D01*
X420297Y169482D01*
X419556Y169630D01*
D02*
G37*
G36*
X414831D02*
X414090Y169482D01*
X413462Y169062D01*
X413042Y168434D01*
X412895Y167693D01*
X413042Y166952D01*
X413462Y166324D01*
X414090Y165904D01*
X414831Y165757D01*
X415573Y165904D01*
X416201Y166324D01*
X416620Y166952D01*
X416768Y167693D01*
X416620Y168434D01*
X416201Y169062D01*
X415573Y169482D01*
X414831Y169630D01*
D02*
G37*
G36*
X410107D02*
X409366Y169482D01*
X408738Y169062D01*
X408318Y168434D01*
X408171Y167693D01*
X408318Y166952D01*
X408738Y166324D01*
X409366Y165904D01*
X410107Y165757D01*
X410848Y165904D01*
X411476Y166324D01*
X411896Y166952D01*
X412043Y167693D01*
X411896Y168434D01*
X411476Y169062D01*
X410848Y169482D01*
X410107Y169630D01*
D02*
G37*
G36*
X405383D02*
X404642Y169482D01*
X404013Y169062D01*
X403594Y168434D01*
X403446Y167693D01*
X403594Y166952D01*
X404013Y166324D01*
X404642Y165904D01*
X405383Y165757D01*
X406124Y165904D01*
X406752Y166324D01*
X407172Y166952D01*
X407319Y167693D01*
X407172Y168434D01*
X406752Y169062D01*
X406124Y169482D01*
X405383Y169630D01*
D02*
G37*
G36*
X400658D02*
X399917Y169482D01*
X399289Y169062D01*
X398869Y168434D01*
X398722Y167693D01*
X398869Y166952D01*
X399289Y166324D01*
X399917Y165904D01*
X400658Y165757D01*
X401399Y165904D01*
X402027Y166324D01*
X402447Y166952D01*
X402595Y167693D01*
X402447Y168434D01*
X402027Y169062D01*
X401399Y169482D01*
X400658Y169630D01*
D02*
G37*
G36*
X429005Y164905D02*
X428264Y164758D01*
X427635Y164338D01*
X427216Y163710D01*
X427068Y162969D01*
X427216Y162228D01*
X427635Y161600D01*
X428264Y161180D01*
X429005Y161032D01*
X429746Y161180D01*
X430374Y161600D01*
X430794Y162228D01*
X430941Y162969D01*
X430794Y163710D01*
X430374Y164338D01*
X429746Y164758D01*
X429005Y164905D01*
D02*
G37*
G36*
X424280D02*
X423539Y164758D01*
X422911Y164338D01*
X422491Y163710D01*
X422344Y162969D01*
X422491Y162228D01*
X422911Y161600D01*
X423539Y161180D01*
X424280Y161032D01*
X425021Y161180D01*
X425649Y161600D01*
X426069Y162228D01*
X426217Y162969D01*
X426069Y163710D01*
X425649Y164338D01*
X425021Y164758D01*
X424280Y164905D01*
D02*
G37*
G36*
X419556D02*
X418815Y164758D01*
X418187Y164338D01*
X417767Y163710D01*
X417619Y162969D01*
X417767Y162228D01*
X418187Y161600D01*
X418815Y161180D01*
X419556Y161032D01*
X420297Y161180D01*
X420925Y161600D01*
X421345Y162228D01*
X421492Y162969D01*
X421345Y163710D01*
X420925Y164338D01*
X420297Y164758D01*
X419556Y164905D01*
D02*
G37*
G36*
X414831D02*
X414090Y164758D01*
X413462Y164338D01*
X413042Y163710D01*
X412895Y162969D01*
X413042Y162228D01*
X413462Y161600D01*
X414090Y161180D01*
X414831Y161032D01*
X415573Y161180D01*
X416201Y161600D01*
X416620Y162228D01*
X416768Y162969D01*
X416620Y163710D01*
X416201Y164338D01*
X415573Y164758D01*
X414831Y164905D01*
D02*
G37*
G36*
X410107D02*
X409366Y164758D01*
X408738Y164338D01*
X408318Y163710D01*
X408171Y162969D01*
X408318Y162228D01*
X408738Y161600D01*
X409366Y161180D01*
X410107Y161032D01*
X410848Y161180D01*
X411476Y161600D01*
X411896Y162228D01*
X412043Y162969D01*
X411896Y163710D01*
X411476Y164338D01*
X410848Y164758D01*
X410107Y164905D01*
D02*
G37*
G36*
X405383D02*
X404642Y164758D01*
X404013Y164338D01*
X403594Y163710D01*
X403446Y162969D01*
X403594Y162228D01*
X404013Y161600D01*
X404642Y161180D01*
X405383Y161032D01*
X406124Y161180D01*
X406752Y161600D01*
X407172Y162228D01*
X407319Y162969D01*
X407172Y163710D01*
X406752Y164338D01*
X406124Y164758D01*
X405383Y164905D01*
D02*
G37*
G36*
X400658D02*
X399917Y164758D01*
X399289Y164338D01*
X398869Y163710D01*
X398722Y162969D01*
X398869Y162228D01*
X399289Y161600D01*
X399917Y161180D01*
X400658Y161032D01*
X401399Y161180D01*
X402027Y161600D01*
X402447Y162228D01*
X402595Y162969D01*
X402447Y163710D01*
X402027Y164338D01*
X401399Y164758D01*
X400658Y164905D01*
D02*
G37*
G36*
X429005Y160181D02*
X428264Y160033D01*
X427635Y159614D01*
X427216Y158985D01*
X427068Y158244D01*
X427216Y157503D01*
X427635Y156875D01*
X428264Y156455D01*
X429005Y156308D01*
X429746Y156455D01*
X430374Y156875D01*
X430794Y157503D01*
X430941Y158244D01*
X430794Y158985D01*
X430374Y159614D01*
X429746Y160033D01*
X429005Y160181D01*
D02*
G37*
G36*
X424280D02*
X423539Y160033D01*
X422911Y159614D01*
X422491Y158985D01*
X422344Y158244D01*
X422491Y157503D01*
X422911Y156875D01*
X423539Y156455D01*
X424280Y156308D01*
X425021Y156455D01*
X425649Y156875D01*
X426069Y157503D01*
X426217Y158244D01*
X426069Y158985D01*
X425649Y159614D01*
X425021Y160033D01*
X424280Y160181D01*
D02*
G37*
G36*
X419556D02*
X418815Y160033D01*
X418187Y159614D01*
X417767Y158985D01*
X417619Y158244D01*
X417767Y157503D01*
X418187Y156875D01*
X418815Y156455D01*
X419556Y156308D01*
X420297Y156455D01*
X420925Y156875D01*
X421345Y157503D01*
X421492Y158244D01*
X421345Y158985D01*
X420925Y159614D01*
X420297Y160033D01*
X419556Y160181D01*
D02*
G37*
G36*
X414831D02*
X414090Y160033D01*
X413462Y159614D01*
X413042Y158985D01*
X412895Y158244D01*
X413042Y157503D01*
X413462Y156875D01*
X414090Y156455D01*
X414831Y156308D01*
X415573Y156455D01*
X416201Y156875D01*
X416620Y157503D01*
X416768Y158244D01*
X416620Y158985D01*
X416201Y159614D01*
X415573Y160033D01*
X414831Y160181D01*
D02*
G37*
G36*
X410107D02*
X409366Y160033D01*
X408738Y159614D01*
X408318Y158985D01*
X408171Y158244D01*
X408318Y157503D01*
X408738Y156875D01*
X409366Y156455D01*
X410107Y156308D01*
X410848Y156455D01*
X411476Y156875D01*
X411896Y157503D01*
X412043Y158244D01*
X411896Y158985D01*
X411476Y159614D01*
X410848Y160033D01*
X410107Y160181D01*
D02*
G37*
G36*
X405383D02*
X404642Y160033D01*
X404013Y159614D01*
X403594Y158985D01*
X403446Y158244D01*
X403594Y157503D01*
X404013Y156875D01*
X404642Y156455D01*
X405383Y156308D01*
X406124Y156455D01*
X406752Y156875D01*
X407172Y157503D01*
X407319Y158244D01*
X407172Y158985D01*
X406752Y159614D01*
X406124Y160033D01*
X405383Y160181D01*
D02*
G37*
G36*
X400658D02*
X399917Y160033D01*
X399289Y159614D01*
X398869Y158985D01*
X398722Y158244D01*
X398869Y157503D01*
X399289Y156875D01*
X399917Y156455D01*
X400658Y156308D01*
X401399Y156455D01*
X402027Y156875D01*
X402447Y157503D01*
X402595Y158244D01*
X402447Y158985D01*
X402027Y159614D01*
X401399Y160033D01*
X400658Y160181D01*
D02*
G37*
G36*
X429005Y131939D02*
X428264Y131792D01*
X427635Y131372D01*
X427216Y130744D01*
X427068Y130003D01*
X427216Y129262D01*
X427635Y128634D01*
X428264Y128214D01*
X429005Y128067D01*
X429746Y128214D01*
X430374Y128634D01*
X430794Y129262D01*
X430941Y130003D01*
X430794Y130744D01*
X430374Y131372D01*
X429746Y131792D01*
X429005Y131939D01*
D02*
G37*
G36*
X424280D02*
X423539Y131792D01*
X422911Y131372D01*
X422491Y130744D01*
X422344Y130003D01*
X422491Y129262D01*
X422911Y128634D01*
X423539Y128214D01*
X424280Y128067D01*
X425021Y128214D01*
X425649Y128634D01*
X426069Y129262D01*
X426217Y130003D01*
X426069Y130744D01*
X425649Y131372D01*
X425021Y131792D01*
X424280Y131939D01*
D02*
G37*
G36*
X419556D02*
X418815Y131792D01*
X418187Y131372D01*
X417767Y130744D01*
X417619Y130003D01*
X417767Y129262D01*
X418187Y128634D01*
X418815Y128214D01*
X419556Y128067D01*
X420297Y128214D01*
X420925Y128634D01*
X421345Y129262D01*
X421492Y130003D01*
X421345Y130744D01*
X420925Y131372D01*
X420297Y131792D01*
X419556Y131939D01*
D02*
G37*
G36*
X414831D02*
X414090Y131792D01*
X413462Y131372D01*
X413042Y130744D01*
X412895Y130003D01*
X413042Y129262D01*
X413462Y128634D01*
X414090Y128214D01*
X414831Y128067D01*
X415573Y128214D01*
X416201Y128634D01*
X416620Y129262D01*
X416768Y130003D01*
X416620Y130744D01*
X416201Y131372D01*
X415573Y131792D01*
X414831Y131939D01*
D02*
G37*
G36*
X410107D02*
X409366Y131792D01*
X408738Y131372D01*
X408318Y130744D01*
X408171Y130003D01*
X408318Y129262D01*
X408738Y128634D01*
X409366Y128214D01*
X410107Y128067D01*
X410848Y128214D01*
X411476Y128634D01*
X411896Y129262D01*
X412043Y130003D01*
X411896Y130744D01*
X411476Y131372D01*
X410848Y131792D01*
X410107Y131939D01*
D02*
G37*
G36*
X405383D02*
X404642Y131792D01*
X404013Y131372D01*
X403594Y130744D01*
X403446Y130003D01*
X403594Y129262D01*
X404013Y128634D01*
X404642Y128214D01*
X405383Y128067D01*
X406124Y128214D01*
X406752Y128634D01*
X407172Y129262D01*
X407319Y130003D01*
X407172Y130744D01*
X406752Y131372D01*
X406124Y131792D01*
X405383Y131939D01*
D02*
G37*
G36*
X400658D02*
X399917Y131792D01*
X399289Y131372D01*
X398869Y130744D01*
X398722Y130003D01*
X398869Y129262D01*
X399289Y128634D01*
X399917Y128214D01*
X400658Y128067D01*
X401399Y128214D01*
X402027Y128634D01*
X402447Y129262D01*
X402595Y130003D01*
X402447Y130744D01*
X402027Y131372D01*
X401399Y131792D01*
X400658Y131939D01*
D02*
G37*
G36*
X429005Y127215D02*
X428264Y127068D01*
X427635Y126648D01*
X427216Y126020D01*
X427068Y125279D01*
X427216Y124538D01*
X427635Y123909D01*
X428264Y123490D01*
X429005Y123342D01*
X429746Y123490D01*
X430374Y123909D01*
X430794Y124538D01*
X430941Y125279D01*
X430794Y126020D01*
X430374Y126648D01*
X429746Y127068D01*
X429005Y127215D01*
D02*
G37*
G36*
X424280D02*
X423539Y127068D01*
X422911Y126648D01*
X422491Y126020D01*
X422344Y125279D01*
X422491Y124538D01*
X422911Y123909D01*
X423539Y123490D01*
X424280Y123342D01*
X425021Y123490D01*
X425649Y123909D01*
X426069Y124538D01*
X426217Y125279D01*
X426069Y126020D01*
X425649Y126648D01*
X425021Y127068D01*
X424280Y127215D01*
D02*
G37*
G36*
X419556D02*
X418815Y127068D01*
X418187Y126648D01*
X417767Y126020D01*
X417619Y125279D01*
X417767Y124538D01*
X418187Y123909D01*
X418815Y123490D01*
X419556Y123342D01*
X420297Y123490D01*
X420925Y123909D01*
X421345Y124538D01*
X421492Y125279D01*
X421345Y126020D01*
X420925Y126648D01*
X420297Y127068D01*
X419556Y127215D01*
D02*
G37*
G36*
X414831D02*
X414090Y127068D01*
X413462Y126648D01*
X413042Y126020D01*
X412895Y125279D01*
X413042Y124538D01*
X413462Y123909D01*
X414090Y123490D01*
X414831Y123342D01*
X415573Y123490D01*
X416201Y123909D01*
X416620Y124538D01*
X416768Y125279D01*
X416620Y126020D01*
X416201Y126648D01*
X415573Y127068D01*
X414831Y127215D01*
D02*
G37*
G36*
X410107D02*
X409366Y127068D01*
X408738Y126648D01*
X408318Y126020D01*
X408171Y125279D01*
X408318Y124538D01*
X408738Y123909D01*
X409366Y123490D01*
X410107Y123342D01*
X410848Y123490D01*
X411476Y123909D01*
X411896Y124538D01*
X412043Y125279D01*
X411896Y126020D01*
X411476Y126648D01*
X410848Y127068D01*
X410107Y127215D01*
D02*
G37*
G36*
X405383D02*
X404642Y127068D01*
X404013Y126648D01*
X403594Y126020D01*
X403446Y125279D01*
X403594Y124538D01*
X404013Y123909D01*
X404642Y123490D01*
X405383Y123342D01*
X406124Y123490D01*
X406752Y123909D01*
X407172Y124538D01*
X407319Y125279D01*
X407172Y126020D01*
X406752Y126648D01*
X406124Y127068D01*
X405383Y127215D01*
D02*
G37*
G36*
X400658D02*
X399917Y127068D01*
X399289Y126648D01*
X398869Y126020D01*
X398722Y125279D01*
X398869Y124538D01*
X399289Y123909D01*
X399917Y123490D01*
X400658Y123342D01*
X401399Y123490D01*
X402027Y123909D01*
X402447Y124538D01*
X402595Y125279D01*
X402447Y126020D01*
X402027Y126648D01*
X401399Y127068D01*
X400658Y127215D01*
D02*
G37*
G36*
X429005Y122491D02*
X428264Y122343D01*
X427635Y121923D01*
X427216Y121295D01*
X427068Y120554D01*
X427216Y119813D01*
X427635Y119185D01*
X428264Y118765D01*
X429005Y118618D01*
X429746Y118765D01*
X430374Y119185D01*
X430794Y119813D01*
X430941Y120554D01*
X430794Y121295D01*
X430374Y121923D01*
X429746Y122343D01*
X429005Y122491D01*
D02*
G37*
G36*
X424280D02*
X423539Y122343D01*
X422911Y121923D01*
X422491Y121295D01*
X422344Y120554D01*
X422491Y119813D01*
X422911Y119185D01*
X423539Y118765D01*
X424280Y118618D01*
X425021Y118765D01*
X425649Y119185D01*
X426069Y119813D01*
X426217Y120554D01*
X426069Y121295D01*
X425649Y121923D01*
X425021Y122343D01*
X424280Y122491D01*
D02*
G37*
G36*
X419556D02*
X418815Y122343D01*
X418187Y121923D01*
X417767Y121295D01*
X417619Y120554D01*
X417767Y119813D01*
X418187Y119185D01*
X418815Y118765D01*
X419556Y118618D01*
X420297Y118765D01*
X420925Y119185D01*
X421345Y119813D01*
X421492Y120554D01*
X421345Y121295D01*
X420925Y121923D01*
X420297Y122343D01*
X419556Y122491D01*
D02*
G37*
G36*
X414831D02*
X414090Y122343D01*
X413462Y121923D01*
X413042Y121295D01*
X412895Y120554D01*
X413042Y119813D01*
X413462Y119185D01*
X414090Y118765D01*
X414831Y118618D01*
X415573Y118765D01*
X416201Y119185D01*
X416620Y119813D01*
X416768Y120554D01*
X416620Y121295D01*
X416201Y121923D01*
X415573Y122343D01*
X414831Y122491D01*
D02*
G37*
G36*
X410107D02*
X409366Y122343D01*
X408738Y121923D01*
X408318Y121295D01*
X408171Y120554D01*
X408318Y119813D01*
X408738Y119185D01*
X409366Y118765D01*
X410107Y118618D01*
X410848Y118765D01*
X411476Y119185D01*
X411896Y119813D01*
X412043Y120554D01*
X411896Y121295D01*
X411476Y121923D01*
X410848Y122343D01*
X410107Y122491D01*
D02*
G37*
G36*
X405383D02*
X404642Y122343D01*
X404013Y121923D01*
X403594Y121295D01*
X403446Y120554D01*
X403594Y119813D01*
X404013Y119185D01*
X404642Y118765D01*
X405383Y118618D01*
X406124Y118765D01*
X406752Y119185D01*
X407172Y119813D01*
X407319Y120554D01*
X407172Y121295D01*
X406752Y121923D01*
X406124Y122343D01*
X405383Y122491D01*
D02*
G37*
G36*
X400658D02*
X399917Y122343D01*
X399289Y121923D01*
X398869Y121295D01*
X398722Y120554D01*
X398869Y119813D01*
X399289Y119185D01*
X399917Y118765D01*
X400658Y118618D01*
X401399Y118765D01*
X402027Y119185D01*
X402447Y119813D01*
X402595Y120554D01*
X402447Y121295D01*
X402027Y121923D01*
X401399Y122343D01*
X400658Y122491D01*
D02*
G37*
G36*
X429005Y117766D02*
X428264Y117619D01*
X427635Y117199D01*
X427216Y116571D01*
X427068Y115830D01*
X427216Y115089D01*
X427635Y114461D01*
X428264Y114041D01*
X429005Y113893D01*
X429746Y114041D01*
X430374Y114461D01*
X430794Y115089D01*
X430941Y115830D01*
X430794Y116571D01*
X430374Y117199D01*
X429746Y117619D01*
X429005Y117766D01*
D02*
G37*
G36*
X424280D02*
X423539Y117619D01*
X422911Y117199D01*
X422491Y116571D01*
X422344Y115830D01*
X422491Y115089D01*
X422911Y114461D01*
X423539Y114041D01*
X424280Y113893D01*
X425021Y114041D01*
X425649Y114461D01*
X426069Y115089D01*
X426217Y115830D01*
X426069Y116571D01*
X425649Y117199D01*
X425021Y117619D01*
X424280Y117766D01*
D02*
G37*
G36*
X419556D02*
X418815Y117619D01*
X418187Y117199D01*
X417767Y116571D01*
X417619Y115830D01*
X417767Y115089D01*
X418187Y114461D01*
X418815Y114041D01*
X419556Y113893D01*
X420297Y114041D01*
X420925Y114461D01*
X421345Y115089D01*
X421492Y115830D01*
X421345Y116571D01*
X420925Y117199D01*
X420297Y117619D01*
X419556Y117766D01*
D02*
G37*
G36*
X414831D02*
X414090Y117619D01*
X413462Y117199D01*
X413042Y116571D01*
X412895Y115830D01*
X413042Y115089D01*
X413462Y114461D01*
X414090Y114041D01*
X414831Y113893D01*
X415573Y114041D01*
X416201Y114461D01*
X416620Y115089D01*
X416768Y115830D01*
X416620Y116571D01*
X416201Y117199D01*
X415573Y117619D01*
X414831Y117766D01*
D02*
G37*
G36*
X410107D02*
X409366Y117619D01*
X408738Y117199D01*
X408318Y116571D01*
X408171Y115830D01*
X408318Y115089D01*
X408738Y114461D01*
X409366Y114041D01*
X410107Y113893D01*
X410848Y114041D01*
X411476Y114461D01*
X411896Y115089D01*
X412043Y115830D01*
X411896Y116571D01*
X411476Y117199D01*
X410848Y117619D01*
X410107Y117766D01*
D02*
G37*
G36*
X405383D02*
X404642Y117619D01*
X404013Y117199D01*
X403594Y116571D01*
X403446Y115830D01*
X403594Y115089D01*
X404013Y114461D01*
X404642Y114041D01*
X405383Y113893D01*
X406124Y114041D01*
X406752Y114461D01*
X407172Y115089D01*
X407319Y115830D01*
X407172Y116571D01*
X406752Y117199D01*
X406124Y117619D01*
X405383Y117766D01*
D02*
G37*
G36*
X400658D02*
X399917Y117619D01*
X399289Y117199D01*
X398869Y116571D01*
X398722Y115830D01*
X398869Y115089D01*
X399289Y114461D01*
X399917Y114041D01*
X400658Y113893D01*
X401399Y114041D01*
X402027Y114461D01*
X402447Y115089D01*
X402595Y115830D01*
X402447Y116571D01*
X402027Y117199D01*
X401399Y117619D01*
X400658Y117766D01*
D02*
G37*
G36*
X429005Y88396D02*
X428264Y88249D01*
X427635Y87829D01*
X427216Y87201D01*
X427068Y86460D01*
X427216Y85719D01*
X427635Y85091D01*
X428264Y84671D01*
X429005Y84523D01*
X429746Y84671D01*
X430374Y85091D01*
X430794Y85719D01*
X430941Y86460D01*
X430794Y87201D01*
X430374Y87829D01*
X429746Y88249D01*
X429005Y88396D01*
D02*
G37*
G36*
X424280D02*
X423539Y88249D01*
X422911Y87829D01*
X422491Y87201D01*
X422344Y86460D01*
X422491Y85719D01*
X422911Y85091D01*
X423539Y84671D01*
X424280Y84523D01*
X425021Y84671D01*
X425649Y85091D01*
X426069Y85719D01*
X426217Y86460D01*
X426069Y87201D01*
X425649Y87829D01*
X425021Y88249D01*
X424280Y88396D01*
D02*
G37*
G36*
X419556D02*
X418815Y88249D01*
X418187Y87829D01*
X417767Y87201D01*
X417619Y86460D01*
X417767Y85719D01*
X418187Y85091D01*
X418815Y84671D01*
X419556Y84523D01*
X420297Y84671D01*
X420925Y85091D01*
X421345Y85719D01*
X421492Y86460D01*
X421345Y87201D01*
X420925Y87829D01*
X420297Y88249D01*
X419556Y88396D01*
D02*
G37*
G36*
X414831D02*
X414090Y88249D01*
X413462Y87829D01*
X413042Y87201D01*
X412895Y86460D01*
X413042Y85719D01*
X413462Y85091D01*
X414090Y84671D01*
X414831Y84523D01*
X415573Y84671D01*
X416201Y85091D01*
X416620Y85719D01*
X416768Y86460D01*
X416620Y87201D01*
X416201Y87829D01*
X415573Y88249D01*
X414831Y88396D01*
D02*
G37*
G36*
X410107D02*
X409366Y88249D01*
X408738Y87829D01*
X408318Y87201D01*
X408171Y86460D01*
X408318Y85719D01*
X408738Y85091D01*
X409366Y84671D01*
X410107Y84523D01*
X410848Y84671D01*
X411476Y85091D01*
X411896Y85719D01*
X412043Y86460D01*
X411896Y87201D01*
X411476Y87829D01*
X410848Y88249D01*
X410107Y88396D01*
D02*
G37*
G36*
X405383D02*
X404642Y88249D01*
X404013Y87829D01*
X403594Y87201D01*
X403446Y86460D01*
X403594Y85719D01*
X404013Y85091D01*
X404642Y84671D01*
X405383Y84523D01*
X406124Y84671D01*
X406752Y85091D01*
X407172Y85719D01*
X407319Y86460D01*
X407172Y87201D01*
X406752Y87829D01*
X406124Y88249D01*
X405383Y88396D01*
D02*
G37*
G36*
X400658D02*
X399917Y88249D01*
X399289Y87829D01*
X398869Y87201D01*
X398722Y86460D01*
X398869Y85719D01*
X399289Y85091D01*
X399917Y84671D01*
X400658Y84523D01*
X401399Y84671D01*
X402027Y85091D01*
X402447Y85719D01*
X402595Y86460D01*
X402447Y87201D01*
X402027Y87829D01*
X401399Y88249D01*
X400658Y88396D01*
D02*
G37*
G36*
X429005Y83672D02*
X428264Y83524D01*
X427635Y83105D01*
X427216Y82476D01*
X427068Y81735D01*
X427216Y80994D01*
X427635Y80366D01*
X428264Y79946D01*
X429005Y79799D01*
X429746Y79946D01*
X430374Y80366D01*
X430794Y80994D01*
X430941Y81735D01*
X430794Y82476D01*
X430374Y83105D01*
X429746Y83524D01*
X429005Y83672D01*
D02*
G37*
G36*
X424280D02*
X423539Y83524D01*
X422911Y83105D01*
X422491Y82476D01*
X422344Y81735D01*
X422491Y80994D01*
X422911Y80366D01*
X423539Y79946D01*
X424280Y79799D01*
X425021Y79946D01*
X425649Y80366D01*
X426069Y80994D01*
X426217Y81735D01*
X426069Y82476D01*
X425649Y83105D01*
X425021Y83524D01*
X424280Y83672D01*
D02*
G37*
G36*
X419556D02*
X418815Y83524D01*
X418187Y83105D01*
X417767Y82476D01*
X417619Y81735D01*
X417767Y80994D01*
X418187Y80366D01*
X418815Y79946D01*
X419556Y79799D01*
X420297Y79946D01*
X420925Y80366D01*
X421345Y80994D01*
X421492Y81735D01*
X421345Y82476D01*
X420925Y83105D01*
X420297Y83524D01*
X419556Y83672D01*
D02*
G37*
G36*
X414831D02*
X414090Y83524D01*
X413462Y83105D01*
X413042Y82476D01*
X412895Y81735D01*
X413042Y80994D01*
X413462Y80366D01*
X414090Y79946D01*
X414831Y79799D01*
X415573Y79946D01*
X416201Y80366D01*
X416620Y80994D01*
X416768Y81735D01*
X416620Y82476D01*
X416201Y83105D01*
X415573Y83524D01*
X414831Y83672D01*
D02*
G37*
G36*
X410107D02*
X409366Y83524D01*
X408738Y83105D01*
X408318Y82476D01*
X408171Y81735D01*
X408318Y80994D01*
X408738Y80366D01*
X409366Y79946D01*
X410107Y79799D01*
X410848Y79946D01*
X411476Y80366D01*
X411896Y80994D01*
X412043Y81735D01*
X411896Y82476D01*
X411476Y83105D01*
X410848Y83524D01*
X410107Y83672D01*
D02*
G37*
G36*
X405383D02*
X404642Y83524D01*
X404013Y83105D01*
X403594Y82476D01*
X403446Y81735D01*
X403594Y80994D01*
X404013Y80366D01*
X404642Y79946D01*
X405383Y79799D01*
X406124Y79946D01*
X406752Y80366D01*
X407172Y80994D01*
X407319Y81735D01*
X407172Y82476D01*
X406752Y83105D01*
X406124Y83524D01*
X405383Y83672D01*
D02*
G37*
G36*
X400658D02*
X399917Y83524D01*
X399289Y83105D01*
X398869Y82476D01*
X398722Y81735D01*
X398869Y80994D01*
X399289Y80366D01*
X399917Y79946D01*
X400658Y79799D01*
X401399Y79946D01*
X402027Y80366D01*
X402447Y80994D01*
X402595Y81735D01*
X402447Y82476D01*
X402027Y83105D01*
X401399Y83524D01*
X400658Y83672D01*
D02*
G37*
G36*
X429005Y78947D02*
X428264Y78800D01*
X427635Y78380D01*
X427216Y77752D01*
X427068Y77011D01*
X427216Y76270D01*
X427635Y75642D01*
X428264Y75222D01*
X429005Y75074D01*
X429746Y75222D01*
X430374Y75642D01*
X430794Y76270D01*
X430941Y77011D01*
X430794Y77752D01*
X430374Y78380D01*
X429746Y78800D01*
X429005Y78947D01*
D02*
G37*
G36*
X424280D02*
X423539Y78800D01*
X422911Y78380D01*
X422491Y77752D01*
X422344Y77011D01*
X422491Y76270D01*
X422911Y75642D01*
X423539Y75222D01*
X424280Y75074D01*
X425021Y75222D01*
X425649Y75642D01*
X426069Y76270D01*
X426217Y77011D01*
X426069Y77752D01*
X425649Y78380D01*
X425021Y78800D01*
X424280Y78947D01*
D02*
G37*
G36*
X419556D02*
X418815Y78800D01*
X418187Y78380D01*
X417767Y77752D01*
X417619Y77011D01*
X417767Y76270D01*
X418187Y75642D01*
X418815Y75222D01*
X419556Y75074D01*
X420297Y75222D01*
X420925Y75642D01*
X421345Y76270D01*
X421492Y77011D01*
X421345Y77752D01*
X420925Y78380D01*
X420297Y78800D01*
X419556Y78947D01*
D02*
G37*
G36*
X414831D02*
X414090Y78800D01*
X413462Y78380D01*
X413042Y77752D01*
X412895Y77011D01*
X413042Y76270D01*
X413462Y75642D01*
X414090Y75222D01*
X414831Y75074D01*
X415573Y75222D01*
X416201Y75642D01*
X416620Y76270D01*
X416768Y77011D01*
X416620Y77752D01*
X416201Y78380D01*
X415573Y78800D01*
X414831Y78947D01*
D02*
G37*
G36*
X410107D02*
X409366Y78800D01*
X408738Y78380D01*
X408318Y77752D01*
X408171Y77011D01*
X408318Y76270D01*
X408738Y75642D01*
X409366Y75222D01*
X410107Y75074D01*
X410848Y75222D01*
X411476Y75642D01*
X411896Y76270D01*
X412043Y77011D01*
X411896Y77752D01*
X411476Y78380D01*
X410848Y78800D01*
X410107Y78947D01*
D02*
G37*
G36*
X405383D02*
X404642Y78800D01*
X404013Y78380D01*
X403594Y77752D01*
X403446Y77011D01*
X403594Y76270D01*
X404013Y75642D01*
X404642Y75222D01*
X405383Y75074D01*
X406124Y75222D01*
X406752Y75642D01*
X407172Y76270D01*
X407319Y77011D01*
X407172Y77752D01*
X406752Y78380D01*
X406124Y78800D01*
X405383Y78947D01*
D02*
G37*
G36*
X400658D02*
X399917Y78800D01*
X399289Y78380D01*
X398869Y77752D01*
X398722Y77011D01*
X398869Y76270D01*
X399289Y75642D01*
X399917Y75222D01*
X400658Y75074D01*
X401399Y75222D01*
X402027Y75642D01*
X402447Y76270D01*
X402595Y77011D01*
X402447Y77752D01*
X402027Y78380D01*
X401399Y78800D01*
X400658Y78947D01*
D02*
G37*
G36*
X485129Y77843D02*
X477664D01*
Y70377D01*
X485129D01*
Y77843D01*
D02*
G37*
G36*
X429005Y74223D02*
X428264Y74076D01*
X427635Y73656D01*
X427216Y73028D01*
X427068Y72286D01*
X427216Y71545D01*
X427635Y70917D01*
X428264Y70498D01*
X429005Y70350D01*
X429746Y70498D01*
X430374Y70917D01*
X430794Y71545D01*
X430941Y72286D01*
X430794Y73028D01*
X430374Y73656D01*
X429746Y74076D01*
X429005Y74223D01*
D02*
G37*
G36*
X424280D02*
X423539Y74076D01*
X422911Y73656D01*
X422491Y73028D01*
X422344Y72286D01*
X422491Y71545D01*
X422911Y70917D01*
X423539Y70498D01*
X424280Y70350D01*
X425021Y70498D01*
X425649Y70917D01*
X426069Y71545D01*
X426217Y72286D01*
X426069Y73028D01*
X425649Y73656D01*
X425021Y74076D01*
X424280Y74223D01*
D02*
G37*
G36*
X419556D02*
X418815Y74076D01*
X418187Y73656D01*
X417767Y73028D01*
X417619Y72286D01*
X417767Y71545D01*
X418187Y70917D01*
X418815Y70498D01*
X419556Y70350D01*
X420297Y70498D01*
X420925Y70917D01*
X421345Y71545D01*
X421492Y72286D01*
X421345Y73028D01*
X420925Y73656D01*
X420297Y74076D01*
X419556Y74223D01*
D02*
G37*
G36*
X414831D02*
X414090Y74076D01*
X413462Y73656D01*
X413042Y73028D01*
X412895Y72286D01*
X413042Y71545D01*
X413462Y70917D01*
X414090Y70498D01*
X414831Y70350D01*
X415573Y70498D01*
X416201Y70917D01*
X416620Y71545D01*
X416768Y72286D01*
X416620Y73028D01*
X416201Y73656D01*
X415573Y74076D01*
X414831Y74223D01*
D02*
G37*
G36*
X410107D02*
X409366Y74076D01*
X408738Y73656D01*
X408318Y73028D01*
X408171Y72286D01*
X408318Y71545D01*
X408738Y70917D01*
X409366Y70498D01*
X410107Y70350D01*
X410848Y70498D01*
X411476Y70917D01*
X411896Y71545D01*
X412043Y72286D01*
X411896Y73028D01*
X411476Y73656D01*
X410848Y74076D01*
X410107Y74223D01*
D02*
G37*
G36*
X405383D02*
X404642Y74076D01*
X404013Y73656D01*
X403594Y73028D01*
X403446Y72286D01*
X403594Y71545D01*
X404013Y70917D01*
X404642Y70498D01*
X405383Y70350D01*
X406124Y70498D01*
X406752Y70917D01*
X407172Y71545D01*
X407319Y72286D01*
X407172Y73028D01*
X406752Y73656D01*
X406124Y74076D01*
X405383Y74223D01*
D02*
G37*
G36*
X400658D02*
X399917Y74076D01*
X399289Y73656D01*
X398869Y73028D01*
X398722Y72286D01*
X398869Y71545D01*
X399289Y70917D01*
X399917Y70498D01*
X400658Y70350D01*
X401399Y70498D01*
X402027Y70917D01*
X402447Y71545D01*
X402595Y72286D01*
X402447Y73028D01*
X402027Y73656D01*
X401399Y74076D01*
X400658Y74223D01*
D02*
G37*
G36*
X481397Y67075D02*
X480422Y66947D01*
X479514Y66571D01*
X478735Y65972D01*
X478136Y65193D01*
X477760Y64285D01*
X477632Y63310D01*
X477760Y62336D01*
X478136Y61428D01*
X478735Y60648D01*
X479514Y60050D01*
X480422Y59674D01*
X481397Y59545D01*
X482371Y59674D01*
X483279Y60050D01*
X484059Y60648D01*
X484657Y61428D01*
X485033Y62336D01*
X485162Y63310D01*
X485033Y64285D01*
X484657Y65193D01*
X484059Y65972D01*
X483279Y66571D01*
X482371Y66947D01*
X481397Y67075D01*
D02*
G37*
G36*
X429005Y46270D02*
X428264Y46123D01*
X427635Y45703D01*
X427216Y45075D01*
X427068Y44334D01*
X427216Y43593D01*
X427635Y42965D01*
X428264Y42545D01*
X429005Y42397D01*
X429746Y42545D01*
X430374Y42965D01*
X430794Y43593D01*
X430941Y44334D01*
X430794Y45075D01*
X430374Y45703D01*
X429746Y46123D01*
X429005Y46270D01*
D02*
G37*
G36*
X424280D02*
X423539Y46123D01*
X422911Y45703D01*
X422491Y45075D01*
X422344Y44334D01*
X422491Y43593D01*
X422911Y42965D01*
X423539Y42545D01*
X424280Y42397D01*
X425021Y42545D01*
X425649Y42965D01*
X426069Y43593D01*
X426217Y44334D01*
X426069Y45075D01*
X425649Y45703D01*
X425021Y46123D01*
X424280Y46270D01*
D02*
G37*
G36*
X419556D02*
X418815Y46123D01*
X418187Y45703D01*
X417767Y45075D01*
X417619Y44334D01*
X417767Y43593D01*
X418187Y42965D01*
X418815Y42545D01*
X419556Y42397D01*
X420297Y42545D01*
X420925Y42965D01*
X421345Y43593D01*
X421492Y44334D01*
X421345Y45075D01*
X420925Y45703D01*
X420297Y46123D01*
X419556Y46270D01*
D02*
G37*
G36*
X414831D02*
X414090Y46123D01*
X413462Y45703D01*
X413042Y45075D01*
X412895Y44334D01*
X413042Y43593D01*
X413462Y42965D01*
X414090Y42545D01*
X414831Y42397D01*
X415573Y42545D01*
X416201Y42965D01*
X416620Y43593D01*
X416768Y44334D01*
X416620Y45075D01*
X416201Y45703D01*
X415573Y46123D01*
X414831Y46270D01*
D02*
G37*
G36*
X410107D02*
X409366Y46123D01*
X408738Y45703D01*
X408318Y45075D01*
X408171Y44334D01*
X408318Y43593D01*
X408738Y42965D01*
X409366Y42545D01*
X410107Y42397D01*
X410848Y42545D01*
X411476Y42965D01*
X411896Y43593D01*
X412043Y44334D01*
X411896Y45075D01*
X411476Y45703D01*
X410848Y46123D01*
X410107Y46270D01*
D02*
G37*
G36*
X405383D02*
X404642Y46123D01*
X404013Y45703D01*
X403594Y45075D01*
X403446Y44334D01*
X403594Y43593D01*
X404013Y42965D01*
X404642Y42545D01*
X405383Y42397D01*
X406124Y42545D01*
X406752Y42965D01*
X407172Y43593D01*
X407319Y44334D01*
X407172Y45075D01*
X406752Y45703D01*
X406124Y46123D01*
X405383Y46270D01*
D02*
G37*
G36*
X400658D02*
X399917Y46123D01*
X399289Y45703D01*
X398869Y45075D01*
X398722Y44334D01*
X398869Y43593D01*
X399289Y42965D01*
X399917Y42545D01*
X400658Y42397D01*
X401399Y42545D01*
X402027Y42965D01*
X402447Y43593D01*
X402595Y44334D01*
X402447Y45075D01*
X402027Y45703D01*
X401399Y46123D01*
X400658Y46270D01*
D02*
G37*
G36*
X429005Y41546D02*
X428264Y41398D01*
X427635Y40979D01*
X427216Y40350D01*
X427068Y39609D01*
X427216Y38868D01*
X427635Y38240D01*
X428264Y37820D01*
X429005Y37673D01*
X429746Y37820D01*
X430374Y38240D01*
X430794Y38868D01*
X430941Y39609D01*
X430794Y40350D01*
X430374Y40979D01*
X429746Y41398D01*
X429005Y41546D01*
D02*
G37*
G36*
X424280D02*
X423539Y41398D01*
X422911Y40979D01*
X422491Y40350D01*
X422344Y39609D01*
X422491Y38868D01*
X422911Y38240D01*
X423539Y37820D01*
X424280Y37673D01*
X425021Y37820D01*
X425649Y38240D01*
X426069Y38868D01*
X426217Y39609D01*
X426069Y40350D01*
X425649Y40979D01*
X425021Y41398D01*
X424280Y41546D01*
D02*
G37*
G36*
X419556D02*
X418815Y41398D01*
X418187Y40979D01*
X417767Y40350D01*
X417619Y39609D01*
X417767Y38868D01*
X418187Y38240D01*
X418815Y37820D01*
X419556Y37673D01*
X420297Y37820D01*
X420925Y38240D01*
X421345Y38868D01*
X421492Y39609D01*
X421345Y40350D01*
X420925Y40979D01*
X420297Y41398D01*
X419556Y41546D01*
D02*
G37*
G36*
X414831D02*
X414090Y41398D01*
X413462Y40979D01*
X413042Y40350D01*
X412895Y39609D01*
X413042Y38868D01*
X413462Y38240D01*
X414090Y37820D01*
X414831Y37673D01*
X415573Y37820D01*
X416201Y38240D01*
X416620Y38868D01*
X416768Y39609D01*
X416620Y40350D01*
X416201Y40979D01*
X415573Y41398D01*
X414831Y41546D01*
D02*
G37*
G36*
X410107D02*
X409366Y41398D01*
X408738Y40979D01*
X408318Y40350D01*
X408171Y39609D01*
X408318Y38868D01*
X408738Y38240D01*
X409366Y37820D01*
X410107Y37673D01*
X410848Y37820D01*
X411476Y38240D01*
X411896Y38868D01*
X412043Y39609D01*
X411896Y40350D01*
X411476Y40979D01*
X410848Y41398D01*
X410107Y41546D01*
D02*
G37*
G36*
X405383D02*
X404642Y41398D01*
X404013Y40979D01*
X403594Y40350D01*
X403446Y39609D01*
X403594Y38868D01*
X404013Y38240D01*
X404642Y37820D01*
X405383Y37673D01*
X406124Y37820D01*
X406752Y38240D01*
X407172Y38868D01*
X407319Y39609D01*
X407172Y40350D01*
X406752Y40979D01*
X406124Y41398D01*
X405383Y41546D01*
D02*
G37*
G36*
X400658D02*
X399917Y41398D01*
X399289Y40979D01*
X398869Y40350D01*
X398722Y39609D01*
X398869Y38868D01*
X399289Y38240D01*
X399917Y37820D01*
X400658Y37673D01*
X401399Y37820D01*
X402027Y38240D01*
X402447Y38868D01*
X402595Y39609D01*
X402447Y40350D01*
X402027Y40979D01*
X401399Y41398D01*
X400658Y41546D01*
D02*
G37*
G36*
X429005Y36821D02*
X428264Y36674D01*
X427635Y36254D01*
X427216Y35626D01*
X427068Y34885D01*
X427216Y34144D01*
X427635Y33516D01*
X428264Y33096D01*
X429005Y32948D01*
X429746Y33096D01*
X430374Y33516D01*
X430794Y34144D01*
X430941Y34885D01*
X430794Y35626D01*
X430374Y36254D01*
X429746Y36674D01*
X429005Y36821D01*
D02*
G37*
G36*
X424280D02*
X423539Y36674D01*
X422911Y36254D01*
X422491Y35626D01*
X422344Y34885D01*
X422491Y34144D01*
X422911Y33516D01*
X423539Y33096D01*
X424280Y32948D01*
X425021Y33096D01*
X425649Y33516D01*
X426069Y34144D01*
X426217Y34885D01*
X426069Y35626D01*
X425649Y36254D01*
X425021Y36674D01*
X424280Y36821D01*
D02*
G37*
G36*
X419556D02*
X418815Y36674D01*
X418187Y36254D01*
X417767Y35626D01*
X417619Y34885D01*
X417767Y34144D01*
X418187Y33516D01*
X418815Y33096D01*
X419556Y32948D01*
X420297Y33096D01*
X420925Y33516D01*
X421345Y34144D01*
X421492Y34885D01*
X421345Y35626D01*
X420925Y36254D01*
X420297Y36674D01*
X419556Y36821D01*
D02*
G37*
G36*
X414831D02*
X414090Y36674D01*
X413462Y36254D01*
X413042Y35626D01*
X412895Y34885D01*
X413042Y34144D01*
X413462Y33516D01*
X414090Y33096D01*
X414831Y32948D01*
X415573Y33096D01*
X416201Y33516D01*
X416620Y34144D01*
X416768Y34885D01*
X416620Y35626D01*
X416201Y36254D01*
X415573Y36674D01*
X414831Y36821D01*
D02*
G37*
G36*
X410107D02*
X409366Y36674D01*
X408738Y36254D01*
X408318Y35626D01*
X408171Y34885D01*
X408318Y34144D01*
X408738Y33516D01*
X409366Y33096D01*
X410107Y32948D01*
X410848Y33096D01*
X411476Y33516D01*
X411896Y34144D01*
X412043Y34885D01*
X411896Y35626D01*
X411476Y36254D01*
X410848Y36674D01*
X410107Y36821D01*
D02*
G37*
G36*
X405383D02*
X404642Y36674D01*
X404013Y36254D01*
X403594Y35626D01*
X403446Y34885D01*
X403594Y34144D01*
X404013Y33516D01*
X404642Y33096D01*
X405383Y32948D01*
X406124Y33096D01*
X406752Y33516D01*
X407172Y34144D01*
X407319Y34885D01*
X407172Y35626D01*
X406752Y36254D01*
X406124Y36674D01*
X405383Y36821D01*
D02*
G37*
G36*
X400658D02*
X399917Y36674D01*
X399289Y36254D01*
X398869Y35626D01*
X398722Y34885D01*
X398869Y34144D01*
X399289Y33516D01*
X399917Y33096D01*
X400658Y32948D01*
X401399Y33096D01*
X402027Y33516D01*
X402447Y34144D01*
X402595Y34885D01*
X402447Y35626D01*
X402027Y36254D01*
X401399Y36674D01*
X400658Y36821D01*
D02*
G37*
G36*
X429005Y32097D02*
X428264Y31949D01*
X427635Y31530D01*
X427216Y30902D01*
X427068Y30160D01*
X427216Y29419D01*
X427635Y28791D01*
X428264Y28372D01*
X429005Y28224D01*
X429746Y28372D01*
X430374Y28791D01*
X430794Y29419D01*
X430941Y30160D01*
X430794Y30902D01*
X430374Y31530D01*
X429746Y31949D01*
X429005Y32097D01*
D02*
G37*
G36*
X424280D02*
X423539Y31949D01*
X422911Y31530D01*
X422491Y30902D01*
X422344Y30160D01*
X422491Y29419D01*
X422911Y28791D01*
X423539Y28372D01*
X424280Y28224D01*
X425021Y28372D01*
X425649Y28791D01*
X426069Y29419D01*
X426217Y30160D01*
X426069Y30902D01*
X425649Y31530D01*
X425021Y31949D01*
X424280Y32097D01*
D02*
G37*
G36*
X419556D02*
X418815Y31949D01*
X418187Y31530D01*
X417767Y30902D01*
X417619Y30160D01*
X417767Y29419D01*
X418187Y28791D01*
X418815Y28372D01*
X419556Y28224D01*
X420297Y28372D01*
X420925Y28791D01*
X421345Y29419D01*
X421492Y30160D01*
X421345Y30902D01*
X420925Y31530D01*
X420297Y31949D01*
X419556Y32097D01*
D02*
G37*
G36*
X414831D02*
X414090Y31949D01*
X413462Y31530D01*
X413042Y30902D01*
X412895Y30160D01*
X413042Y29419D01*
X413462Y28791D01*
X414090Y28372D01*
X414831Y28224D01*
X415573Y28372D01*
X416201Y28791D01*
X416620Y29419D01*
X416768Y30160D01*
X416620Y30902D01*
X416201Y31530D01*
X415573Y31949D01*
X414831Y32097D01*
D02*
G37*
G36*
X410107D02*
X409366Y31949D01*
X408738Y31530D01*
X408318Y30902D01*
X408171Y30160D01*
X408318Y29419D01*
X408738Y28791D01*
X409366Y28372D01*
X410107Y28224D01*
X410848Y28372D01*
X411476Y28791D01*
X411896Y29419D01*
X412043Y30160D01*
X411896Y30902D01*
X411476Y31530D01*
X410848Y31949D01*
X410107Y32097D01*
D02*
G37*
G36*
X405383D02*
X404642Y31949D01*
X404013Y31530D01*
X403594Y30902D01*
X403446Y30160D01*
X403594Y29419D01*
X404013Y28791D01*
X404642Y28372D01*
X405383Y28224D01*
X406124Y28372D01*
X406752Y28791D01*
X407172Y29419D01*
X407319Y30160D01*
X407172Y30902D01*
X406752Y31530D01*
X406124Y31949D01*
X405383Y32097D01*
D02*
G37*
G36*
X400658D02*
X399917Y31949D01*
X399289Y31530D01*
X398869Y30902D01*
X398722Y30160D01*
X398869Y29419D01*
X399289Y28791D01*
X399917Y28372D01*
X400658Y28224D01*
X401399Y28372D01*
X402027Y28791D01*
X402447Y29419D01*
X402595Y30160D01*
X402447Y30902D01*
X402027Y31530D01*
X401399Y31949D01*
X400658Y32097D01*
D02*
G37*
%LPD*%
D12*
X131000Y50000D02*
X144264D01*
X92140Y27297D02*
X113100D01*
X113229Y27168D01*
X92011Y27426D02*
X92140Y27297D01*
X311823Y79500D02*
X314380Y76942D01*
X383701D01*
X193749Y3428D02*
X193754D01*
X183047D02*
X193749D01*
X144264Y50000D02*
X183107Y11157D01*
X328170D02*
X329796Y9531D01*
X183107Y11157D02*
X328170D01*
X396406Y30674D02*
Y64237D01*
X193754Y3428D02*
X193969Y3213D01*
X315451Y-3537D02*
X316414Y-4500D01*
X193969Y3213D02*
X312233D01*
X368946D02*
X396406Y30674D01*
X312233Y3213D02*
X368946D01*
X312233Y-1092D02*
X312451Y-1310D01*
X383701Y76942D02*
X396406Y64237D01*
X312233Y3213D02*
X312233Y3213D01*
X312233Y-1092D02*
Y3213D01*
X144394Y42082D02*
X183047Y3428D01*
X134427Y42082D02*
X144394D01*
X125906Y50604D02*
Y69943D01*
Y50604D02*
X134427Y42082D01*
X113229Y41729D02*
X121500Y50000D01*
X113229Y27168D02*
Y41729D01*
D190*
X481397Y52510D02*
D03*
Y41710D02*
D03*
Y30910D02*
D03*
Y155477D02*
D03*
Y166277D02*
D03*
Y177077D02*
D03*
D202*
X21765Y173512D02*
X47158D01*
X101500Y171000D02*
Y171015D01*
Y144882D02*
Y171000D01*
X97650Y141032D02*
X101500Y144882D01*
X98532Y173982D02*
X101500Y171015D01*
X85225Y173982D02*
X98532D01*
X77055Y173439D02*
X84682D01*
X85225Y173982D01*
X61627Y173986D02*
X61686Y174045D01*
X61627Y173512D02*
Y173986D01*
X256249Y92405D02*
X257823D01*
X603Y173414D02*
X21666D01*
X505Y173316D02*
X603Y173414D01*
X21666D02*
X21765Y173512D01*
X47158Y147824D02*
Y173512D01*
Y147824D02*
X50406Y144576D01*
X47158Y173512D02*
X61627D01*
X77048Y173446D02*
X77055Y173439D01*
X61627Y173512D02*
X61693Y173446D01*
X77048D01*
D204*
X265638Y131597D02*
X265737D01*
X256485Y122444D02*
X265638Y131597D01*
X121028Y69972D02*
X125877D01*
X125906Y69943D01*
X121000Y70000D02*
X121028Y69972D01*
X125934D02*
X130972D01*
X131000Y70000D01*
X125906Y69943D02*
X125934Y69972D01*
D205*
X428086Y-10732D02*
X428690Y-11336D01*
X309906Y-11346D02*
X334000D01*
Y-4606D01*
Y-11346D02*
X407414D01*
X407421Y-11339D02*
X407423Y-11342D01*
X407414Y-11346D02*
X407421Y-11339D01*
X303363Y-4803D02*
X309906Y-11346D01*
X407430Y-11336D02*
X411440D01*
X427064Y-9710D02*
X428086Y-10732D01*
X427064Y-9710D02*
Y-8383D01*
X431406Y-11336D02*
X441485D01*
X428690D02*
X431406D01*
X427482D02*
X428690D01*
X423471D02*
X427482D01*
X419461D02*
X423471D01*
X415451D02*
X419461D01*
X411440D02*
X415451D01*
X305484Y-4739D02*
X307000D01*
X268454Y129019D02*
Y129412D01*
X257823Y92405D02*
X262548Y97129D01*
X441485Y-11336D02*
X441592Y-11228D01*
D209*
X304000Y-4739D02*
D03*
X294000D02*
D03*
X314000Y-4500D02*
D03*
X334000Y-4606D02*
D03*
D216*
X206410Y155950D02*
D03*
X207395Y143943D02*
D03*
X206115Y148175D02*
D03*
X162709Y155163D02*
D03*
X161528Y144533D02*
D03*
Y151718D02*
D03*
X207591Y152112D02*
D03*
X256485Y122444D02*
D03*
X101500Y171000D02*
D03*
X316553Y115605D02*
D03*
X231446Y113461D02*
D03*
X360087Y140830D02*
D03*
X359891Y148999D02*
D03*
X360186Y156775D02*
D03*
X61686Y174045D02*
D03*
X411761Y8940D02*
D03*
X287193Y62483D02*
D03*
X235787Y14332D02*
D03*
X131000Y50000D02*
D03*
X150000Y-8000D02*
D03*
X143500Y111500D02*
D03*
X131000Y70000D02*
D03*
X125906Y69943D02*
D03*
X121000Y70000D02*
D03*
X162709Y140695D02*
D03*
X206312Y140498D02*
D03*
X48688Y-12183D02*
D03*
X57175Y53468D02*
D03*
X55379Y82011D02*
D03*
X65465Y108631D02*
D03*
X57776Y21885D02*
D03*
X77055Y173439D02*
D03*
X309202Y157168D02*
D03*
X308906Y149393D02*
D03*
X310186Y145160D02*
D03*
X310383Y153330D02*
D03*
X309103Y141224D02*
D03*
X256741Y156676D02*
D03*
X256642Y141224D02*
D03*
X257725Y144668D02*
D03*
X256446Y148901D02*
D03*
X213040Y155889D02*
D03*
Y148901D02*
D03*
Y141420D02*
D03*
X211859Y145259D02*
D03*
Y152444D02*
D03*
X265501Y141912D02*
D03*
X257922Y152838D02*
D03*
X264320Y145751D02*
D03*
Y152936D02*
D03*
X265501Y149393D02*
D03*
Y156381D02*
D03*
X505Y173316D02*
D03*
X38989Y173512D02*
D03*
X21765Y173512D02*
D03*
X20548Y149264D02*
D03*
X97650Y141032D02*
D03*
X93032Y145453D02*
D03*
X79652Y139052D02*
D03*
X61390Y151570D02*
D03*
X50406Y144576D02*
D03*
X174457Y43979D02*
D03*
X179083Y108153D02*
D03*
X431406Y-11336D02*
D03*
Y-8383D02*
D03*
X427482D02*
D03*
X407430Y-11336D02*
D03*
X419461D02*
D03*
X423471D02*
D03*
X427482D02*
D03*
X415451D02*
D03*
X411440D02*
D03*
X431690Y18541D02*
D03*
X435627D02*
D03*
X344067Y73370D02*
D03*
X316485Y155987D02*
D03*
X367692Y175869D02*
D03*
Y180200D02*
D03*
X367469Y170456D02*
D03*
X370934Y178727D02*
D03*
X447535Y146735D02*
D03*
X443650D02*
D03*
X439320D02*
D03*
X448768Y103034D02*
D03*
X443975Y103330D02*
D03*
X439713Y103034D02*
D03*
X447194Y60909D02*
D03*
X443257D02*
D03*
X439320D02*
D03*
X447194Y18389D02*
D03*
X443257D02*
D03*
X439320D02*
D03*
X468847Y197129D02*
D03*
X468825Y201964D02*
D03*
X383808Y98310D02*
D03*
X388139D02*
D03*
X386234Y44083D02*
D03*
X388596Y40540D02*
D03*
X367336Y55599D02*
D03*
X370028Y45948D02*
D03*
X368123Y48414D02*
D03*
X367666Y43586D02*
D03*
X370486Y51958D02*
D03*
X388926Y53428D02*
D03*
X388596Y47627D02*
D03*
X386170Y50672D02*
D03*
X384595Y137286D02*
D03*
X388139Y90436D02*
D03*
X262548Y97129D02*
D03*
X263335Y36893D02*
D03*
X192883Y18783D02*
D03*
X357823Y60121D02*
D03*
X246200Y18067D02*
D03*
X329796Y9531D02*
D03*
X193749Y3428D02*
D03*
X384595Y173901D02*
D03*
Y182168D02*
D03*
X386957Y170357D02*
D03*
Y177838D02*
D03*
X387154Y184826D02*
D03*
X370816Y173507D02*
D03*
X387745Y141617D02*
D03*
X384595Y130594D02*
D03*
X387548Y127346D02*
D03*
X387351Y133743D02*
D03*
X368847Y138468D02*
D03*
X366879Y127444D02*
D03*
X369241Y131381D02*
D03*
X366406Y134540D02*
D03*
X366190Y142109D02*
D03*
X370028Y94767D02*
D03*
X367666Y83743D02*
D03*
Y91224D02*
D03*
X370422Y87287D02*
D03*
X366879Y98409D02*
D03*
X388139Y83350D02*
D03*
X385776Y86893D02*
D03*
X316485Y148999D02*
D03*
X315304Y145357D02*
D03*
X316485Y141519D02*
D03*
X315304Y152542D02*
D03*
X361170Y144767D02*
D03*
X361367Y152936D02*
D03*
X213729Y16105D02*
D03*
D217*
X416485Y239D02*
D03*
X173244Y73314D02*
D03*
X139634Y49815D02*
D03*
X311823Y79500D02*
D03*
X121500Y50000D02*
D03*
D218*
X113229Y27168D02*
D03*
X92011Y27426D02*
D03*
M02*
