G04*
G04 #@! TF.GenerationSoftware,Altium Limited,Altium Designer,21.6.4 (81)*
G04*
G04 Layer_Color=16711935*
%FSLAX25Y25*%
%MOIN*%
G70*
G04*
G04 #@! TF.SameCoordinates,21ADAE42-517F-4329-814C-ACF1F8BA2FEA*
G04*
G04*
G04 #@! TF.FilePolarity,Positive*
G04*
G01*
G75*
%ADD219C,0.00591*%
%ADD220C,0.00236*%
D219*
X110103Y57327D02*
Y61590D01*
X109250Y62443D01*
X107544D01*
X106692Y61590D01*
Y57327D01*
X104986Y62443D02*
X103281D01*
X104133D01*
Y57327D01*
X104986Y58179D01*
X100722D02*
X99870Y57327D01*
X98164D01*
X97312Y58179D01*
Y59032D01*
X98164Y59885D01*
X97312Y60738D01*
Y61590D01*
X98164Y62443D01*
X99870D01*
X100722Y61590D01*
Y60738D01*
X99870Y59885D01*
X100722Y59032D01*
Y58179D01*
X99870Y59885D02*
X98164D01*
D220*
X77332Y164260D02*
X78644D01*
X78907Y164523D01*
Y165048D01*
X78644Y165310D01*
X77332D01*
X77595Y165835D02*
X77332Y166097D01*
Y166622D01*
X77595Y166884D01*
X77857D01*
X78119Y166622D01*
X78382Y166884D01*
X78644D01*
X78907Y166622D01*
Y166097D01*
X78644Y165835D01*
X78382D01*
X78119Y166097D01*
X77857Y165835D01*
X77595D01*
X78119Y166097D02*
Y166622D01*
X38907Y166421D02*
X40219D01*
X40481Y166683D01*
Y167208D01*
X40219Y167471D01*
X38907D01*
Y169045D02*
X39169Y168520D01*
X39694Y167995D01*
X40219D01*
X40481Y168258D01*
Y168783D01*
X40219Y169045D01*
X39957D01*
X39694Y168783D01*
Y167995D01*
X60781Y119076D02*
Y120388D01*
X60518Y120650D01*
X59993D01*
X59731Y120388D01*
Y119076D01*
X59206Y120388D02*
X58944Y120650D01*
X58419D01*
X58157Y120388D01*
Y119338D01*
X58419Y119076D01*
X58944D01*
X59206Y119338D01*
Y119601D01*
X58944Y119863D01*
X58157D01*
X29Y166024D02*
X1341D01*
X1603Y166286D01*
Y166811D01*
X1341Y167074D01*
X29D01*
Y167598D02*
Y168648D01*
X291D01*
X1341Y167598D01*
X1603D01*
M02*
