G04*
G04 #@! TF.GenerationSoftware,Altium Limited,Altium Designer,21.6.4 (81)*
G04*
G04 Layer_Physical_Order=2*
G04 Layer_Color=36540*
%FSLAX25Y25*%
%MOIN*%
G70*
G04*
G04 #@! TF.SameCoordinates,21ADAE42-517F-4329-814C-ACF1F8BA2FEA*
G04*
G04*
G04 #@! TF.FilePolarity,Positive*
G04*
G01*
G75*
%ADD184C,0.06260*%
%ADD185R,0.06260X0.06260*%
%ADD190C,0.06265*%
%ADD212O,0.03543X0.06299*%
%ADD215C,0.02598*%
%ADD216C,0.01988*%
%ADD217C,0.01987*%
G36*
X522939Y244933D02*
X522492Y-15602D01*
X456221D01*
X456202Y-15102D01*
X458196Y-14945D01*
X460517Y-14387D01*
X462723Y-13474D01*
X464758Y-12227D01*
X466573Y-10676D01*
X468124Y-8861D01*
X469371Y-6825D01*
X470285Y-4620D01*
X470842Y-2298D01*
X471030Y82D01*
X470842Y2462D01*
X470285Y4783D01*
X469371Y6989D01*
X468124Y9024D01*
X466573Y10840D01*
X464758Y12390D01*
X462723Y13637D01*
X460517Y14551D01*
X458196Y15108D01*
X455816Y15296D01*
X453436Y15108D01*
X451114Y14551D01*
X448909Y13637D01*
X446873Y12390D01*
X445058Y10840D01*
X443507Y9024D01*
X442260Y6989D01*
X441347Y4783D01*
X440789Y2462D01*
X440602Y82D01*
X440789Y-2298D01*
X441347Y-4620D01*
X442260Y-6825D01*
X443507Y-8861D01*
X445058Y-10676D01*
X446873Y-12227D01*
X448909Y-13474D01*
X451114Y-14387D01*
X453436Y-14945D01*
X455430Y-15102D01*
X455410Y-15602D01*
X3277D01*
X3218Y-15102D01*
X4576Y-14776D01*
X6782Y-13862D01*
X8817Y-12615D01*
X10633Y-11064D01*
X12183Y-9249D01*
X13431Y-7213D01*
X14344Y-5008D01*
X14901Y-2686D01*
X15089Y-306D01*
X14901Y2074D01*
X14344Y4395D01*
X13431Y6600D01*
X12183Y8636D01*
X10633Y10451D01*
X8817Y12002D01*
X6782Y13249D01*
X4576Y14163D01*
X2255Y14720D01*
X-125Y14907D01*
X-2505Y14720D01*
X-4826Y14163D01*
X-7032Y13249D01*
X-9067Y12002D01*
X-10883Y10451D01*
X-12433Y8636D01*
X-13681Y6600D01*
X-14594Y4395D01*
X-15152Y2074D01*
X-15339Y-306D01*
X-15152Y-2686D01*
X-15025Y-3213D01*
X-15461Y-3457D01*
X-17092Y-1827D01*
X-17203Y-120D01*
X-17203Y-120D01*
X-17206D01*
X-17207Y-112D01*
Y200154D01*
X-17195Y227734D01*
X-17099Y229204D01*
X-15247Y231532D01*
X-14798Y231313D01*
X-15011Y230425D01*
X-15199Y228045D01*
X-15011Y225665D01*
X-14454Y223343D01*
X-13540Y221138D01*
X-12293Y219102D01*
X-10743Y217287D01*
X-8927Y215737D01*
X-6892Y214489D01*
X-4686Y213576D01*
X-2365Y213018D01*
X15Y212831D01*
X2395Y213018D01*
X4716Y213576D01*
X6922Y214489D01*
X8958Y215737D01*
X10773Y217287D01*
X12323Y219102D01*
X13571Y221138D01*
X14484Y223343D01*
X15042Y225665D01*
X15229Y228045D01*
X15042Y230425D01*
X14484Y232746D01*
X13571Y234952D01*
X12323Y236987D01*
X10773Y238803D01*
X8958Y240353D01*
X6922Y241600D01*
X4716Y242514D01*
X2395Y243071D01*
X15Y243259D01*
X-2365Y243071D01*
X-4686Y242514D01*
X-6460Y241779D01*
X-6771Y242192D01*
X-5056Y244349D01*
X-4073Y244682D01*
X-1800Y245134D01*
X25Y245254D01*
X513Y245285D01*
Y245285D01*
X516Y245286D01*
X1012Y245287D01*
X522586Y245287D01*
X522939Y244933D01*
D02*
G37*
%LPC*%
G36*
X395068Y226856D02*
X394094Y226728D01*
X393187Y226352D01*
X392407Y225754D01*
X391810Y224975D01*
X391434Y224067D01*
X391305Y223094D01*
X391434Y222120D01*
X391810Y221213D01*
X392407Y220433D01*
X393187Y219835D01*
X394094Y219460D01*
X395068Y219332D01*
X396041Y219460D01*
X396949Y219835D01*
X397728Y220433D01*
X398326Y221213D01*
X398702Y222120D01*
X398830Y223094D01*
X398702Y224067D01*
X398326Y224975D01*
X397728Y225754D01*
X396949Y226352D01*
X396041Y226728D01*
X395068Y226856D01*
D02*
G37*
G36*
X373493D02*
X372519Y226728D01*
X371612Y226352D01*
X370833Y225754D01*
X370235Y224975D01*
X369859Y224067D01*
X369731Y223094D01*
X369859Y222120D01*
X370235Y221213D01*
X370833Y220433D01*
X371612Y219835D01*
X372519Y219460D01*
X373493Y219332D01*
X374466Y219460D01*
X375374Y219835D01*
X376153Y220433D01*
X376751Y221213D01*
X377127Y222120D01*
X377255Y223094D01*
X377127Y224067D01*
X376751Y224975D01*
X376153Y225754D01*
X375374Y226352D01*
X374466Y226728D01*
X373493Y226856D01*
D02*
G37*
G36*
X270698D02*
X269724Y226728D01*
X268816Y226352D01*
X268037Y225754D01*
X267440Y224975D01*
X267064Y224067D01*
X266935Y223094D01*
X267064Y222120D01*
X267440Y221213D01*
X268037Y220433D01*
X268816Y219835D01*
X269724Y219460D01*
X270698Y219332D01*
X271671Y219460D01*
X272579Y219835D01*
X273358Y220433D01*
X273956Y221213D01*
X274331Y222120D01*
X274460Y223094D01*
X274331Y224067D01*
X273956Y224975D01*
X273358Y225754D01*
X272579Y226352D01*
X271671Y226728D01*
X270698Y226856D01*
D02*
G37*
G36*
X259910D02*
X258936Y226728D01*
X258029Y226352D01*
X257250Y225754D01*
X256652Y224975D01*
X256276Y224067D01*
X256148Y223094D01*
X256276Y222120D01*
X256652Y221213D01*
X257250Y220433D01*
X258029Y219835D01*
X258936Y219460D01*
X259910Y219332D01*
X260884Y219460D01*
X261791Y219835D01*
X262570Y220433D01*
X263168Y221213D01*
X263544Y222120D01*
X263672Y223094D01*
X263544Y224067D01*
X263168Y224975D01*
X262570Y225754D01*
X261791Y226352D01*
X260884Y226728D01*
X259910Y226856D01*
D02*
G37*
G36*
X238335D02*
X237362Y226728D01*
X236454Y226352D01*
X235675Y225754D01*
X235077Y224975D01*
X234701Y224067D01*
X234573Y223094D01*
X234701Y222120D01*
X235077Y221213D01*
X235675Y220433D01*
X236454Y219835D01*
X237362Y219460D01*
X238335Y219332D01*
X239309Y219460D01*
X240216Y219835D01*
X240996Y220433D01*
X241593Y221213D01*
X241969Y222120D01*
X242097Y223094D01*
X241969Y224067D01*
X241593Y224975D01*
X240996Y225754D01*
X240216Y226352D01*
X239309Y226728D01*
X238335Y226856D01*
D02*
G37*
G36*
X146524D02*
X145551Y226728D01*
X144643Y226352D01*
X143864Y225754D01*
X143266Y224975D01*
X142890Y224067D01*
X142762Y223094D01*
X142890Y222120D01*
X143266Y221213D01*
X143864Y220433D01*
X144643Y219835D01*
X145551Y219460D01*
X146524Y219332D01*
X147498Y219460D01*
X148405Y219835D01*
X149185Y220433D01*
X149782Y221213D01*
X150158Y222120D01*
X150286Y223094D01*
X150158Y224067D01*
X149782Y224975D01*
X149185Y225754D01*
X148405Y226352D01*
X147498Y226728D01*
X146524Y226856D01*
D02*
G37*
G36*
X135737D02*
X134763Y226728D01*
X133856Y226352D01*
X133077Y225754D01*
X132479Y224975D01*
X132103Y224067D01*
X131975Y223094D01*
X132103Y222120D01*
X132479Y221213D01*
X133077Y220433D01*
X133856Y219835D01*
X134763Y219460D01*
X135737Y219332D01*
X136711Y219460D01*
X137618Y219835D01*
X138397Y220433D01*
X138995Y221213D01*
X139371Y222120D01*
X139499Y223094D01*
X139371Y224067D01*
X138995Y224975D01*
X138397Y225754D01*
X137618Y226352D01*
X136711Y226728D01*
X135737Y226856D01*
D02*
G37*
G36*
X114162D02*
X113188Y226728D01*
X112281Y226352D01*
X111502Y225754D01*
X110904Y224975D01*
X110528Y224067D01*
X110400Y223094D01*
X110528Y222120D01*
X110904Y221213D01*
X111502Y220433D01*
X112281Y219835D01*
X113188Y219460D01*
X114162Y219332D01*
X115136Y219460D01*
X116043Y219835D01*
X116822Y220433D01*
X117420Y221213D01*
X117796Y222120D01*
X117924Y223094D01*
X117796Y224067D01*
X117420Y224975D01*
X116822Y225754D01*
X116043Y226352D01*
X115136Y226728D01*
X114162Y226856D01*
D02*
G37*
G36*
X486997Y236424D02*
X485017Y236229D01*
X483114Y235652D01*
X481359Y234714D01*
X479822Y233452D01*
X478560Y231914D01*
X477622Y230160D01*
X477045Y228257D01*
X476850Y226277D01*
X477045Y224297D01*
X477622Y222394D01*
X478560Y220640D01*
X479822Y219102D01*
X481359Y217840D01*
X483114Y216903D01*
X485017Y216325D01*
X486997Y216130D01*
X488976Y216325D01*
X490880Y216903D01*
X492634Y217840D01*
X494172Y219102D01*
X495434Y220640D01*
X496371Y222394D01*
X496949Y224297D01*
X497144Y226277D01*
X496949Y228257D01*
X496371Y230160D01*
X495434Y231914D01*
X494172Y233452D01*
X492634Y234714D01*
X490880Y235652D01*
X488976Y236229D01*
X486997Y236424D01*
D02*
G37*
G36*
X455816Y243642D02*
X453436Y243455D01*
X451114Y242898D01*
X448909Y241984D01*
X446873Y240737D01*
X445058Y239186D01*
X443507Y237371D01*
X442260Y235335D01*
X441347Y233130D01*
X440789Y230808D01*
X440602Y228428D01*
X440789Y226048D01*
X441347Y223727D01*
X442260Y221521D01*
X443507Y219486D01*
X445058Y217670D01*
X446873Y216120D01*
X448909Y214873D01*
X451114Y213959D01*
X453436Y213402D01*
X455816Y213214D01*
X458196Y213402D01*
X460517Y213959D01*
X462723Y214873D01*
X464758Y216120D01*
X466573Y217670D01*
X468124Y219486D01*
X469371Y221521D01*
X470285Y223727D01*
X470842Y226048D01*
X471030Y228428D01*
X470842Y230808D01*
X470285Y233130D01*
X469371Y235335D01*
X468124Y237371D01*
X466573Y239186D01*
X464758Y240737D01*
X462723Y241984D01*
X460517Y242898D01*
X458196Y243455D01*
X455816Y243642D01*
D02*
G37*
G36*
X428099Y224139D02*
X426804Y224011D01*
X425560Y223634D01*
X424412Y223021D01*
X423407Y222195D01*
X422582Y221190D01*
X421968Y220042D01*
X421591Y218798D01*
X421463Y217503D01*
X421591Y216208D01*
X421968Y214964D01*
X422582Y213816D01*
X423407Y212811D01*
X424412Y211985D01*
X425560Y211372D01*
X426804Y210995D01*
X428099Y210867D01*
X429394Y210995D01*
X430639Y211372D01*
X431786Y211985D01*
X432791Y212811D01*
X433617Y213816D01*
X434230Y214964D01*
X434608Y216208D01*
X434735Y217503D01*
X434608Y218798D01*
X434230Y220042D01*
X433617Y221190D01*
X432791Y222195D01*
X431786Y223021D01*
X430639Y223634D01*
X429394Y224011D01*
X428099Y224139D01*
D02*
G37*
G36*
X329713D02*
X328419Y224011D01*
X327174Y223634D01*
X326027Y223021D01*
X325021Y222195D01*
X324196Y221190D01*
X323583Y220042D01*
X323205Y218798D01*
X323077Y217503D01*
X323205Y216208D01*
X323583Y214964D01*
X324196Y213816D01*
X325021Y212811D01*
X326027Y211985D01*
X327174Y211372D01*
X328419Y210995D01*
X329713Y210867D01*
X331008Y210995D01*
X332253Y211372D01*
X333400Y211985D01*
X334406Y212811D01*
X335231Y213816D01*
X335844Y214964D01*
X336222Y216208D01*
X336349Y217503D01*
X336222Y218798D01*
X335844Y220042D01*
X335231Y221190D01*
X334406Y222195D01*
X333400Y223021D01*
X332253Y223634D01*
X331008Y224011D01*
X329713Y224139D01*
D02*
G37*
G36*
X303729D02*
X302434Y224011D01*
X301190Y223634D01*
X300042Y223021D01*
X299037Y222195D01*
X298212Y221190D01*
X297598Y220042D01*
X297221Y218798D01*
X297093Y217503D01*
X297221Y216208D01*
X297598Y214964D01*
X298212Y213816D01*
X299037Y212811D01*
X300042Y211985D01*
X301190Y211372D01*
X302434Y210995D01*
X303729Y210867D01*
X305024Y210995D01*
X306269Y211372D01*
X307416Y211985D01*
X308421Y212811D01*
X309247Y213816D01*
X309860Y214964D01*
X310237Y216208D01*
X310365Y217503D01*
X310237Y218798D01*
X309860Y220042D01*
X309247Y221190D01*
X308421Y222195D01*
X307416Y223021D01*
X306269Y223634D01*
X305024Y224011D01*
X303729Y224139D01*
D02*
G37*
G36*
X205343D02*
X204049Y224011D01*
X202804Y223634D01*
X201657Y223021D01*
X200651Y222195D01*
X199826Y221190D01*
X199213Y220042D01*
X198835Y218798D01*
X198707Y217503D01*
X198835Y216208D01*
X199213Y214964D01*
X199826Y213816D01*
X200651Y212811D01*
X201657Y211985D01*
X202804Y211372D01*
X204049Y210995D01*
X205343Y210867D01*
X206638Y210995D01*
X207883Y211372D01*
X209030Y211985D01*
X210035Y212811D01*
X210861Y213816D01*
X211474Y214964D01*
X211852Y216208D01*
X211979Y217503D01*
X211852Y218798D01*
X211474Y220042D01*
X210861Y221190D01*
X210035Y222195D01*
X209030Y223021D01*
X207883Y223634D01*
X206638Y224011D01*
X205343Y224139D01*
D02*
G37*
G36*
X179556D02*
X178261Y224011D01*
X177016Y223634D01*
X175869Y223021D01*
X174864Y222195D01*
X174038Y221190D01*
X173425Y220042D01*
X173047Y218798D01*
X172920Y217503D01*
X173047Y216208D01*
X173425Y214964D01*
X174038Y213816D01*
X174864Y212811D01*
X175869Y211985D01*
X177016Y211372D01*
X178261Y210995D01*
X179556Y210867D01*
X180850Y210995D01*
X182095Y211372D01*
X183242Y211985D01*
X184248Y212811D01*
X185073Y213816D01*
X185687Y214964D01*
X186064Y216208D01*
X186192Y217503D01*
X186064Y218798D01*
X185687Y220042D01*
X185073Y221190D01*
X184248Y222195D01*
X183242Y223021D01*
X182095Y223634D01*
X180850Y224011D01*
X179556Y224139D01*
D02*
G37*
G36*
X81170D02*
X79875Y224011D01*
X78631Y223634D01*
X77483Y223021D01*
X76478Y222195D01*
X75652Y221190D01*
X75039Y220042D01*
X74662Y218798D01*
X74534Y217503D01*
X74662Y216208D01*
X75039Y214964D01*
X75652Y213816D01*
X76478Y212811D01*
X77483Y211985D01*
X78631Y211372D01*
X79875Y210995D01*
X81170Y210867D01*
X82465Y210995D01*
X83709Y211372D01*
X84857Y211985D01*
X85862Y212811D01*
X86687Y213816D01*
X87301Y214964D01*
X87678Y216208D01*
X87806Y217503D01*
X87678Y218798D01*
X87301Y220042D01*
X86687Y221190D01*
X85862Y222195D01*
X84857Y223021D01*
X83709Y223634D01*
X82465Y224011D01*
X81170Y224139D01*
D02*
G37*
G36*
X361042Y215642D02*
X353582D01*
Y208183D01*
X361042D01*
Y215642D01*
D02*
G37*
G36*
X400461Y215675D02*
X399488Y215546D01*
X398580Y215171D01*
X397801Y214573D01*
X397203Y213794D01*
X396827Y212886D01*
X396699Y211912D01*
X396827Y210939D01*
X397203Y210031D01*
X397801Y209252D01*
X398580Y208654D01*
X399488Y208279D01*
X400461Y208150D01*
X401435Y208279D01*
X402342Y208654D01*
X403122Y209252D01*
X403719Y210031D01*
X404095Y210939D01*
X404223Y211912D01*
X404095Y212886D01*
X403719Y213794D01*
X403122Y214573D01*
X402342Y215171D01*
X401435Y215546D01*
X400461Y215675D01*
D02*
G37*
G36*
X378887D02*
X377913Y215546D01*
X377006Y215171D01*
X376226Y214573D01*
X375628Y213794D01*
X375253Y212886D01*
X375124Y211912D01*
X375253Y210939D01*
X375628Y210031D01*
X376226Y209252D01*
X377006Y208654D01*
X377913Y208279D01*
X378887Y208150D01*
X379860Y208279D01*
X380768Y208654D01*
X381547Y209252D01*
X382145Y210031D01*
X382520Y210939D01*
X382649Y211912D01*
X382520Y212886D01*
X382145Y213794D01*
X381547Y214573D01*
X380768Y215171D01*
X379860Y215546D01*
X378887Y215675D01*
D02*
G37*
G36*
X265304D02*
X264330Y215546D01*
X263423Y215171D01*
X262644Y214573D01*
X262046Y213794D01*
X261670Y212886D01*
X261542Y211912D01*
X261670Y210939D01*
X262046Y210031D01*
X262644Y209252D01*
X263423Y208654D01*
X264330Y208279D01*
X265304Y208150D01*
X266278Y208279D01*
X267185Y208654D01*
X267964Y209252D01*
X268562Y210031D01*
X268938Y210939D01*
X269066Y211912D01*
X268938Y212886D01*
X268562Y213794D01*
X267964Y214573D01*
X267185Y215171D01*
X266278Y215546D01*
X265304Y215675D01*
D02*
G37*
G36*
X243729D02*
X242755Y215546D01*
X241848Y215171D01*
X241069Y214573D01*
X240471Y213794D01*
X240095Y212886D01*
X239967Y211912D01*
X240095Y210939D01*
X240471Y210031D01*
X241069Y209252D01*
X241848Y208654D01*
X242755Y208279D01*
X243729Y208150D01*
X244703Y208279D01*
X245610Y208654D01*
X246389Y209252D01*
X246987Y210031D01*
X247363Y210939D01*
X247491Y211912D01*
X247363Y212886D01*
X246987Y213794D01*
X246389Y214573D01*
X245610Y215171D01*
X244703Y215546D01*
X243729Y215675D01*
D02*
G37*
G36*
X141131D02*
X140157Y215546D01*
X139250Y215171D01*
X138470Y214573D01*
X137873Y213794D01*
X137497Y212886D01*
X137369Y211912D01*
X137497Y210939D01*
X137873Y210031D01*
X138470Y209252D01*
X139250Y208654D01*
X140157Y208279D01*
X141131Y208150D01*
X142104Y208279D01*
X143012Y208654D01*
X143791Y209252D01*
X144389Y210031D01*
X144764Y210939D01*
X144893Y211912D01*
X144764Y212886D01*
X144389Y213794D01*
X143791Y214573D01*
X143012Y215171D01*
X142104Y215546D01*
X141131Y215675D01*
D02*
G37*
G36*
X119556D02*
X118582Y215546D01*
X117675Y215171D01*
X116896Y214573D01*
X116298Y213794D01*
X115922Y212886D01*
X115794Y211912D01*
X115922Y210939D01*
X116298Y210031D01*
X116896Y209252D01*
X117675Y208654D01*
X118582Y208279D01*
X119556Y208150D01*
X120529Y208279D01*
X121437Y208654D01*
X122216Y209252D01*
X122814Y210031D01*
X123190Y210939D01*
X123318Y211912D01*
X123190Y212886D01*
X122814Y213794D01*
X122216Y214573D01*
X121437Y215171D01*
X120529Y215546D01*
X119556Y215675D01*
D02*
G37*
G36*
X468825Y203590D02*
X468203Y203466D01*
X467676Y203113D01*
X467324Y202586D01*
X467200Y201964D01*
X467324Y201342D01*
X467676Y200815D01*
X468203Y200463D01*
X468825Y200339D01*
X469447Y200463D01*
X469974Y200815D01*
X470327Y201342D01*
X470450Y201964D01*
X470327Y202586D01*
X469974Y203113D01*
X469447Y203466D01*
X468825Y203590D01*
D02*
G37*
G36*
X468847Y198754D02*
X468225Y198631D01*
X467698Y198278D01*
X467346Y197751D01*
X467222Y197129D01*
X467346Y196507D01*
X467698Y195980D01*
X468225Y195627D01*
X468847Y195504D01*
X469469Y195627D01*
X469996Y195980D01*
X470349Y196507D01*
X470472Y197129D01*
X470349Y197751D01*
X469996Y198278D01*
X469469Y198631D01*
X468847Y198754D01*
D02*
G37*
G36*
X485129Y202410D02*
X477664D01*
Y194944D01*
X485129D01*
Y202410D01*
D02*
G37*
G36*
X105687Y191739D02*
X105065Y191615D01*
X104538Y191263D01*
X104186Y190736D01*
X104062Y190114D01*
X104186Y189492D01*
X104538Y188965D01*
X105065Y188612D01*
X105687Y188489D01*
X106309Y188612D01*
X106836Y188965D01*
X107189Y189492D01*
X107313Y190114D01*
X107189Y190736D01*
X106836Y191263D01*
X106309Y191615D01*
X105687Y191739D01*
D02*
G37*
G36*
X146777Y188190D02*
X146155Y188066D01*
X145628Y187714D01*
X145275Y187187D01*
X145152Y186565D01*
X145275Y185942D01*
X145628Y185415D01*
X146155Y185063D01*
X146777Y184939D01*
X147399Y185063D01*
X147926Y185415D01*
X148279Y185942D01*
X148402Y186565D01*
X148279Y187187D01*
X147926Y187714D01*
X147399Y188066D01*
X146777Y188190D01*
D02*
G37*
G36*
X481397Y191642D02*
X480422Y191514D01*
X479514Y191138D01*
X478735Y190539D01*
X478136Y189760D01*
X477760Y188851D01*
X477632Y187877D01*
X477760Y186903D01*
X478136Y185995D01*
X478735Y185215D01*
X479514Y184617D01*
X480422Y184240D01*
X481397Y184112D01*
X482371Y184240D01*
X483279Y184617D01*
X484059Y185215D01*
X484657Y185995D01*
X485033Y186903D01*
X485162Y187877D01*
X485033Y188851D01*
X484657Y189760D01*
X484059Y190539D01*
X483279Y191138D01*
X482371Y191514D01*
X481397Y191642D01*
D02*
G37*
G36*
X387154Y186451D02*
X386532Y186328D01*
X386005Y185975D01*
X385653Y185448D01*
X385529Y184826D01*
X385653Y184204D01*
X385847Y183914D01*
X385922Y183800D01*
X385562Y183440D01*
X385457Y183509D01*
X385217Y183670D01*
X384595Y183794D01*
X383973Y183670D01*
X383446Y183318D01*
X383094Y182790D01*
X382970Y182168D01*
X383094Y181546D01*
X383446Y181019D01*
X383973Y180667D01*
X384595Y180543D01*
X385217Y180667D01*
X385745Y181019D01*
X386097Y181546D01*
X386221Y182168D01*
X386097Y182790D01*
X385903Y183081D01*
X385827Y183194D01*
X386187Y183555D01*
X386292Y183485D01*
X386532Y183324D01*
X387154Y183201D01*
X387776Y183324D01*
X388303Y183677D01*
X388656Y184204D01*
X388780Y184826D01*
X388656Y185448D01*
X388303Y185975D01*
X387776Y186328D01*
X387154Y186451D01*
D02*
G37*
G36*
X367692Y181825D02*
X367070Y181702D01*
X366542Y181349D01*
X366190Y180822D01*
X366066Y180200D01*
X366190Y179578D01*
X366542Y179051D01*
X367070Y178698D01*
X367692Y178575D01*
X368314Y178698D01*
X368841Y179051D01*
X368872Y179098D01*
X369343Y178903D01*
X369308Y178727D01*
X369432Y178105D01*
X369784Y177577D01*
X370312Y177225D01*
X370934Y177101D01*
X371556Y177225D01*
X372083Y177577D01*
X372435Y178105D01*
X372559Y178727D01*
X372435Y179349D01*
X372083Y179876D01*
X371556Y180228D01*
X370934Y180352D01*
X370312Y180228D01*
X369784Y179876D01*
X369753Y179829D01*
X369282Y180024D01*
X369317Y180200D01*
X369193Y180822D01*
X368841Y181349D01*
X368314Y181702D01*
X367692Y181825D01*
D02*
G37*
G36*
X386957Y179463D02*
X386335Y179339D01*
X385808Y178987D01*
X385456Y178460D01*
X385332Y177838D01*
X385456Y177216D01*
X385808Y176688D01*
X386335Y176336D01*
X386957Y176212D01*
X387579Y176336D01*
X388107Y176688D01*
X388459Y177216D01*
X388583Y177838D01*
X388459Y178460D01*
X388107Y178987D01*
X387579Y179339D01*
X386957Y179463D01*
D02*
G37*
G36*
X367692Y177495D02*
X367070Y177371D01*
X366542Y177018D01*
X366190Y176491D01*
X366066Y175869D01*
X366190Y175247D01*
X366542Y174720D01*
X367070Y174368D01*
X367692Y174244D01*
X368314Y174368D01*
X368841Y174720D01*
X369193Y175247D01*
X369317Y175869D01*
X369193Y176491D01*
X368841Y177018D01*
X368314Y177371D01*
X367692Y177495D01*
D02*
G37*
G36*
X481397Y180842D02*
X480422Y180714D01*
X479514Y180338D01*
X478735Y179739D01*
X478136Y178960D01*
X477760Y178051D01*
X477632Y177077D01*
X477760Y176103D01*
X478136Y175195D01*
X478735Y174415D01*
X479514Y173817D01*
X480422Y173441D01*
X481397Y173312D01*
X482371Y173441D01*
X483279Y173817D01*
X484059Y174415D01*
X484657Y175195D01*
X485033Y176103D01*
X485162Y177077D01*
X485033Y178051D01*
X484657Y178960D01*
X484059Y179739D01*
X483279Y180338D01*
X482371Y180714D01*
X481397Y180842D01*
D02*
G37*
G36*
X61686Y175670D02*
X61064Y175547D01*
X60537Y175194D01*
X60184Y174667D01*
X60061Y174045D01*
X60184Y173423D01*
X60537Y172896D01*
X61064Y172544D01*
X61686Y172420D01*
X62308Y172544D01*
X62835Y172896D01*
X63188Y173423D01*
X63311Y174045D01*
X63188Y174667D01*
X62835Y175194D01*
X62308Y175547D01*
X61686Y175670D01*
D02*
G37*
G36*
X384595Y175526D02*
X383973Y175402D01*
X383446Y175050D01*
X383094Y174523D01*
X382970Y173901D01*
X383094Y173279D01*
X383446Y172751D01*
X383973Y172399D01*
X384595Y172275D01*
X385217Y172399D01*
X385745Y172751D01*
X386097Y173279D01*
X386221Y173901D01*
X386097Y174523D01*
X385745Y175050D01*
X385217Y175402D01*
X384595Y175526D01*
D02*
G37*
G36*
X38989Y175138D02*
X38367Y175014D01*
X37840Y174662D01*
X37488Y174135D01*
X37364Y173512D01*
X37488Y172890D01*
X37840Y172363D01*
X38367Y172011D01*
X38989Y171887D01*
X39611Y172011D01*
X40138Y172363D01*
X40491Y172890D01*
X40614Y173512D01*
X40491Y174135D01*
X40138Y174662D01*
X39611Y175014D01*
X38989Y175138D01*
D02*
G37*
G36*
X21765Y175138D02*
X21143Y175014D01*
X20616Y174662D01*
X20263Y174135D01*
X20139Y173512D01*
X20263Y172890D01*
X20616Y172363D01*
X21143Y172011D01*
X21765Y171887D01*
X22387Y172011D01*
X22914Y172363D01*
X23266Y172890D01*
X23390Y173512D01*
X23266Y174135D01*
X22914Y174662D01*
X22387Y175014D01*
X21765Y175138D01*
D02*
G37*
G36*
X370816Y175132D02*
X370194Y175009D01*
X369666Y174656D01*
X369314Y174129D01*
X369190Y173507D01*
X369314Y172885D01*
X369666Y172358D01*
X370194Y172005D01*
X370816Y171882D01*
X371438Y172005D01*
X371965Y172358D01*
X372317Y172885D01*
X372441Y173507D01*
X372317Y174129D01*
X371965Y174656D01*
X371438Y175009D01*
X370816Y175132D01*
D02*
G37*
G36*
X77055Y175064D02*
X76433Y174940D01*
X75906Y174588D01*
X75554Y174061D01*
X75430Y173439D01*
X75554Y172817D01*
X75906Y172289D01*
X76433Y171937D01*
X77055Y171813D01*
X77677Y171937D01*
X78204Y172289D01*
X78557Y172817D01*
X78680Y173439D01*
X78557Y174061D01*
X78204Y174588D01*
X77677Y174940D01*
X77055Y175064D01*
D02*
G37*
G36*
X505Y174941D02*
X-117Y174817D01*
X-644Y174465D01*
X-997Y173938D01*
X-1120Y173316D01*
X-997Y172694D01*
X-644Y172166D01*
X-117Y171814D01*
X505Y171690D01*
X1127Y171814D01*
X1654Y172166D01*
X2007Y172694D01*
X2130Y173316D01*
X2007Y173938D01*
X1654Y174465D01*
X1127Y174817D01*
X505Y174941D01*
D02*
G37*
G36*
X86182Y173299D02*
X85560Y173175D01*
X85032Y172823D01*
X84680Y172295D01*
X84557Y171673D01*
X84680Y171051D01*
X85032Y170524D01*
X85560Y170172D01*
X86182Y170048D01*
X86804Y170172D01*
X87331Y170524D01*
X87683Y171051D01*
X87807Y171673D01*
X87683Y172295D01*
X87331Y172823D01*
X86804Y173175D01*
X86182Y173299D01*
D02*
G37*
G36*
X101500Y172625D02*
X100878Y172502D01*
X100351Y172149D01*
X99998Y171622D01*
X99875Y171000D01*
X99998Y170378D01*
X100351Y169851D01*
X100878Y169498D01*
X101500Y169375D01*
X102122Y169498D01*
X102649Y169851D01*
X103002Y170378D01*
X103125Y171000D01*
X103002Y171622D01*
X102649Y172149D01*
X102122Y172502D01*
X101500Y172625D01*
D02*
G37*
G36*
X367469Y172081D02*
X366847Y171957D01*
X366320Y171605D01*
X365968Y171078D01*
X365844Y170456D01*
X365968Y169834D01*
X366320Y169307D01*
X366847Y168954D01*
X367469Y168831D01*
X368091Y168954D01*
X368618Y169307D01*
X368971Y169834D01*
X369094Y170456D01*
X368971Y171078D01*
X368618Y171605D01*
X368091Y171957D01*
X367469Y172081D01*
D02*
G37*
G36*
X386957Y171983D02*
X386335Y171859D01*
X385808Y171507D01*
X385456Y170979D01*
X385332Y170357D01*
X385456Y169735D01*
X385808Y169208D01*
X386335Y168856D01*
X386957Y168732D01*
X387579Y168856D01*
X388107Y169208D01*
X388459Y169735D01*
X388583Y170357D01*
X388459Y170979D01*
X388107Y171507D01*
X387579Y171859D01*
X386957Y171983D01*
D02*
G37*
G36*
X44849Y170838D02*
X44227Y170714D01*
X43700Y170362D01*
X43348Y169835D01*
X43224Y169213D01*
X43348Y168591D01*
X43700Y168064D01*
X44227Y167711D01*
X44849Y167588D01*
X45471Y167711D01*
X45999Y168064D01*
X46351Y168591D01*
X46475Y169213D01*
X46351Y169835D01*
X45999Y170362D01*
X45471Y170714D01*
X44849Y170838D01*
D02*
G37*
G36*
X7296Y170149D02*
X6674Y170026D01*
X6147Y169673D01*
X5795Y169146D01*
X5671Y168524D01*
X5795Y167902D01*
X6147Y167375D01*
X6674Y167022D01*
X7296Y166899D01*
X7918Y167022D01*
X8445Y167375D01*
X8798Y167902D01*
X8922Y168524D01*
X8798Y169146D01*
X8445Y169673D01*
X7918Y170026D01*
X7296Y170149D01*
D02*
G37*
G36*
X56213Y168593D02*
X55592Y168469D01*
X55064Y168116D01*
X54712Y167589D01*
X54588Y166967D01*
X54712Y166345D01*
X55064Y165818D01*
X55592Y165466D01*
X56213Y165342D01*
X56836Y165466D01*
X57363Y165818D01*
X57715Y166345D01*
X57839Y166967D01*
X57715Y167589D01*
X57363Y168116D01*
X56836Y168469D01*
X56213Y168593D01*
D02*
G37*
G36*
X12944Y165025D02*
X12322Y164901D01*
X11795Y164549D01*
X11652Y164335D01*
X11070Y164307D01*
X10542Y164659D01*
X9920Y164783D01*
X9298Y164659D01*
X8771Y164307D01*
X8419Y163779D01*
X8295Y163157D01*
X8419Y162535D01*
X8771Y162008D01*
X9298Y161656D01*
X9920Y161532D01*
X10542Y161656D01*
X11070Y162008D01*
X11212Y162222D01*
X11795Y162250D01*
X12322Y161898D01*
X12944Y161774D01*
X13566Y161898D01*
X14093Y162250D01*
X14327Y162600D01*
X14858Y162494D01*
X14864Y162460D01*
X15217Y161933D01*
X15744Y161581D01*
X16366Y161457D01*
X16988Y161581D01*
X17515Y161933D01*
X17868Y162460D01*
X17991Y163082D01*
X17868Y163704D01*
X17515Y164231D01*
X16988Y164584D01*
X16366Y164708D01*
X15744Y164584D01*
X15217Y164231D01*
X14983Y163882D01*
X14452Y163987D01*
X14446Y164021D01*
X14093Y164549D01*
X13566Y164901D01*
X12944Y165025D01*
D02*
G37*
G36*
X52900Y166410D02*
X52278Y166286D01*
X51751Y165934D01*
X51398Y165406D01*
X51275Y164784D01*
X51383Y164237D01*
X51196Y164012D01*
X50996Y163864D01*
X50440Y163974D01*
X49818Y163851D01*
X49291Y163498D01*
X48938Y162971D01*
X48815Y162349D01*
X48938Y161727D01*
X49291Y161200D01*
X49818Y160847D01*
X50440Y160724D01*
X51062Y160847D01*
X51589Y161200D01*
X51942Y161727D01*
X52065Y162349D01*
X51956Y162896D01*
X52144Y163121D01*
X52343Y163270D01*
X52900Y163159D01*
X53522Y163283D01*
X54049Y163635D01*
X54401Y164162D01*
X54525Y164784D01*
X54401Y165406D01*
X54049Y165934D01*
X53522Y166286D01*
X52900Y166410D01*
D02*
G37*
G36*
X481397Y170042D02*
X480422Y169914D01*
X479514Y169537D01*
X478735Y168939D01*
X478136Y168159D01*
X477760Y167252D01*
X477632Y166277D01*
X477760Y165303D01*
X478136Y164395D01*
X478735Y163615D01*
X479514Y163017D01*
X480422Y162641D01*
X481397Y162512D01*
X482371Y162641D01*
X483279Y163017D01*
X484059Y163615D01*
X484657Y164395D01*
X485033Y165303D01*
X485162Y166277D01*
X485033Y167252D01*
X484657Y168159D01*
X484059Y168939D01*
X483279Y169537D01*
X482371Y169914D01*
X481397Y170042D01*
D02*
G37*
G36*
X91070Y161805D02*
X90448Y161681D01*
X89921Y161329D01*
X89568Y160802D01*
X89497Y160443D01*
X89445Y160180D01*
X88959Y160105D01*
X88876Y160517D01*
X88524Y161045D01*
X87997Y161397D01*
X87375Y161521D01*
X86753Y161397D01*
X86226Y161045D01*
X85873Y160517D01*
X85750Y159895D01*
X85873Y159273D01*
X86226Y158746D01*
X86753Y158394D01*
X87375Y158270D01*
X87997Y158394D01*
X88524Y158746D01*
X88876Y159273D01*
X88948Y159632D01*
X89000Y159895D01*
X89486Y159970D01*
X89568Y159558D01*
X89921Y159031D01*
X90448Y158678D01*
X91070Y158554D01*
X91692Y158678D01*
X92219Y159031D01*
X92571Y159558D01*
X92695Y160180D01*
X92571Y160802D01*
X92219Y161329D01*
X91692Y161681D01*
X91070Y161805D01*
D02*
G37*
G36*
X94932Y161599D02*
X94310Y161475D01*
X93783Y161123D01*
X93430Y160596D01*
X93306Y159974D01*
X93430Y159352D01*
X93783Y158824D01*
X94310Y158472D01*
X94932Y158348D01*
X95554Y158472D01*
X96081Y158824D01*
X96433Y159352D01*
X96557Y159974D01*
X96433Y160596D01*
X96081Y161123D01*
X95554Y161475D01*
X94932Y161599D01*
D02*
G37*
G36*
X309202Y158794D02*
X308579Y158670D01*
X308052Y158318D01*
X307700Y157790D01*
X307576Y157168D01*
X307700Y156546D01*
X308052Y156019D01*
X308579Y155667D01*
X309202Y155543D01*
X309823Y155667D01*
X310351Y156019D01*
X310703Y156546D01*
X310827Y157168D01*
X310703Y157790D01*
X310351Y158318D01*
X309823Y158670D01*
X309202Y158794D01*
D02*
G37*
G36*
X360186Y158400D02*
X359564Y158276D01*
X359036Y157924D01*
X358684Y157397D01*
X358560Y156775D01*
X358684Y156153D01*
X359036Y155625D01*
X359564Y155273D01*
X360186Y155149D01*
X360808Y155273D01*
X361335Y155625D01*
X361687Y156153D01*
X361811Y156775D01*
X361687Y157397D01*
X361335Y157924D01*
X360808Y158276D01*
X360186Y158400D01*
D02*
G37*
G36*
X256741Y158302D02*
X256119Y158178D01*
X255592Y157826D01*
X255239Y157298D01*
X255116Y156676D01*
X255239Y156054D01*
X255592Y155527D01*
X256119Y155175D01*
X256741Y155051D01*
X257363Y155175D01*
X257890Y155527D01*
X258243Y156054D01*
X258366Y156676D01*
X258243Y157298D01*
X257890Y157826D01*
X257363Y158178D01*
X256741Y158302D01*
D02*
G37*
G36*
X265501Y158006D02*
X264879Y157883D01*
X264351Y157530D01*
X263999Y157003D01*
X263875Y156381D01*
X263999Y155759D01*
X264351Y155232D01*
X264707Y154994D01*
X264512Y154523D01*
X264320Y154561D01*
X263698Y154438D01*
X263170Y154085D01*
X262818Y153558D01*
X262694Y152936D01*
X262818Y152314D01*
X263170Y151787D01*
X263698Y151435D01*
X264320Y151311D01*
X264942Y151435D01*
X265469Y151787D01*
X265821Y152314D01*
X265945Y152936D01*
X265821Y153558D01*
X265469Y154085D01*
X265113Y154323D01*
X265308Y154794D01*
X265501Y154756D01*
X266123Y154879D01*
X266650Y155232D01*
X267002Y155759D01*
X267126Y156381D01*
X267002Y157003D01*
X266650Y157530D01*
X266123Y157883D01*
X265501Y158006D01*
D02*
G37*
G36*
X316485Y157613D02*
X315863Y157489D01*
X315336Y157137D01*
X314983Y156609D01*
X314860Y155987D01*
X314983Y155365D01*
X315336Y154838D01*
X315691Y154601D01*
X315496Y154130D01*
X315304Y154168D01*
X314682Y154044D01*
X314155Y153692D01*
X313802Y153164D01*
X313679Y152542D01*
X313802Y151920D01*
X314155Y151393D01*
X314682Y151041D01*
X315304Y150917D01*
X315926Y151041D01*
X316453Y151393D01*
X316806Y151920D01*
X316929Y152542D01*
X316806Y153164D01*
X316453Y153692D01*
X316098Y153929D01*
X316293Y154400D01*
X316485Y154362D01*
X317107Y154486D01*
X317634Y154838D01*
X317987Y155365D01*
X318110Y155987D01*
X317987Y156609D01*
X317634Y157137D01*
X317107Y157489D01*
X316485Y157613D01*
D02*
G37*
G36*
X206410Y157576D02*
X205788Y157452D01*
X205261Y157100D01*
X204909Y156572D01*
X204785Y155950D01*
X204909Y155329D01*
X205261Y154801D01*
X205788Y154449D01*
X206410Y154325D01*
X207032Y154449D01*
X207559Y154801D01*
X207912Y155329D01*
X208035Y155950D01*
X207912Y156572D01*
X207559Y157100D01*
X207032Y157452D01*
X206410Y157576D01*
D02*
G37*
G36*
X213040Y157514D02*
X212418Y157390D01*
X211891Y157038D01*
X211539Y156511D01*
X211415Y155889D01*
X211539Y155267D01*
X211891Y154740D01*
X212246Y154502D01*
X212051Y154031D01*
X211859Y154069D01*
X211237Y153946D01*
X210710Y153593D01*
X210357Y153066D01*
X210234Y152444D01*
X210357Y151822D01*
X210710Y151295D01*
X211237Y150942D01*
X211859Y150819D01*
X212481Y150942D01*
X213008Y151295D01*
X213361Y151822D01*
X213484Y152444D01*
X213361Y153066D01*
X213008Y153593D01*
X212653Y153831D01*
X212848Y154302D01*
X213040Y154264D01*
X213662Y154387D01*
X214189Y154740D01*
X214542Y155267D01*
X214665Y155889D01*
X214542Y156511D01*
X214189Y157038D01*
X213662Y157390D01*
X213040Y157514D01*
D02*
G37*
G36*
X162709Y156788D02*
X162087Y156665D01*
X161560Y156312D01*
X161208Y155785D01*
X161084Y155163D01*
X161208Y154541D01*
X161560Y154014D01*
X161916Y153776D01*
X161721Y153305D01*
X161528Y153344D01*
X160906Y153220D01*
X160379Y152867D01*
X160027Y152340D01*
X159903Y151718D01*
X160027Y151096D01*
X160379Y150569D01*
X160906Y150217D01*
X161528Y150093D01*
X162150Y150217D01*
X162678Y150569D01*
X163030Y151096D01*
X163154Y151718D01*
X163030Y152340D01*
X162678Y152867D01*
X162322Y153105D01*
X162517Y153576D01*
X162709Y153538D01*
X163331Y153662D01*
X163859Y154014D01*
X164211Y154541D01*
X164335Y155163D01*
X164211Y155785D01*
X163859Y156312D01*
X163331Y156665D01*
X162709Y156788D01*
D02*
G37*
G36*
X481397Y159242D02*
X480422Y159114D01*
X479514Y158738D01*
X478735Y158139D01*
X478136Y157360D01*
X477760Y156451D01*
X477632Y155477D01*
X477760Y154503D01*
X478136Y153595D01*
X478735Y152815D01*
X479514Y152217D01*
X480422Y151840D01*
X481397Y151712D01*
X482371Y151840D01*
X483279Y152217D01*
X484059Y152815D01*
X484657Y153595D01*
X485033Y154503D01*
X485162Y155477D01*
X485033Y156451D01*
X484657Y157360D01*
X484059Y158139D01*
X483279Y158738D01*
X482371Y159114D01*
X481397Y159242D01*
D02*
G37*
G36*
X310383Y154955D02*
X309761Y154831D01*
X309233Y154479D01*
X308881Y153952D01*
X308757Y153330D01*
X308881Y152708D01*
X309233Y152181D01*
X309761Y151828D01*
X310383Y151705D01*
X311005Y151828D01*
X311532Y152181D01*
X311884Y152708D01*
X312008Y153330D01*
X311884Y153952D01*
X311532Y154479D01*
X311005Y154831D01*
X310383Y154955D01*
D02*
G37*
G36*
X361367Y154561D02*
X360745Y154438D01*
X360218Y154085D01*
X359865Y153558D01*
X359741Y152936D01*
X359865Y152314D01*
X360218Y151787D01*
X360745Y151435D01*
X361367Y151311D01*
X361989Y151435D01*
X362516Y151787D01*
X362868Y152314D01*
X362992Y152936D01*
X362868Y153558D01*
X362516Y154085D01*
X361989Y154438D01*
X361367Y154561D01*
D02*
G37*
G36*
X257922Y154463D02*
X257300Y154339D01*
X256773Y153987D01*
X256420Y153460D01*
X256297Y152838D01*
X256420Y152216D01*
X256773Y151688D01*
X257300Y151336D01*
X257922Y151212D01*
X258544Y151336D01*
X259071Y151688D01*
X259424Y152216D01*
X259547Y152838D01*
X259424Y153460D01*
X259071Y153987D01*
X258544Y154339D01*
X257922Y154463D01*
D02*
G37*
G36*
X207591Y153737D02*
X206969Y153613D01*
X206442Y153261D01*
X206090Y152734D01*
X205966Y152112D01*
X206090Y151490D01*
X206442Y150963D01*
X206969Y150610D01*
X207591Y150487D01*
X208213Y150610D01*
X208741Y150963D01*
X209093Y151490D01*
X209217Y152112D01*
X209093Y152734D01*
X208741Y153261D01*
X208213Y153613D01*
X207591Y153737D01*
D02*
G37*
G36*
X61390Y153195D02*
X60768Y153071D01*
X60241Y152719D01*
X59888Y152192D01*
X59765Y151570D01*
X59888Y150948D01*
X60241Y150421D01*
X60768Y150068D01*
X61390Y149944D01*
X62012Y150068D01*
X62539Y150421D01*
X62892Y150948D01*
X63015Y151570D01*
X62892Y152192D01*
X62539Y152719D01*
X62012Y153071D01*
X61390Y153195D01*
D02*
G37*
G36*
X308906Y151018D02*
X308284Y150894D01*
X307757Y150542D01*
X307405Y150015D01*
X307281Y149393D01*
X307405Y148771D01*
X307757Y148244D01*
X308284Y147891D01*
X308906Y147767D01*
X309528Y147891D01*
X310055Y148244D01*
X310408Y148771D01*
X310531Y149393D01*
X310408Y150015D01*
X310055Y150542D01*
X309528Y150894D01*
X308906Y151018D01*
D02*
G37*
G36*
X265501D02*
X264879Y150894D01*
X264351Y150542D01*
X263999Y150015D01*
X263875Y149393D01*
X263999Y148771D01*
X264351Y148244D01*
X264879Y147891D01*
X265501Y147767D01*
X266123Y147891D01*
X266650Y148244D01*
X267002Y148771D01*
X267126Y149393D01*
X267002Y150015D01*
X266650Y150542D01*
X266123Y150894D01*
X265501Y151018D01*
D02*
G37*
G36*
X20548Y150890D02*
X19926Y150766D01*
X19399Y150414D01*
X19046Y149886D01*
X18923Y149264D01*
X19046Y148642D01*
X19399Y148115D01*
X19926Y147763D01*
X20548Y147639D01*
X21170Y147763D01*
X21697Y148115D01*
X22050Y148642D01*
X22173Y149264D01*
X22050Y149886D01*
X21697Y150414D01*
X21170Y150766D01*
X20548Y150890D01*
D02*
G37*
G36*
X359891Y150624D02*
X359268Y150501D01*
X358741Y150148D01*
X358389Y149621D01*
X358265Y148999D01*
X358389Y148377D01*
X358741Y147850D01*
X359268Y147497D01*
X359891Y147374D01*
X360512Y147497D01*
X361040Y147850D01*
X361392Y148377D01*
X361516Y148999D01*
X361392Y149621D01*
X361040Y150148D01*
X360512Y150501D01*
X359891Y150624D01*
D02*
G37*
G36*
X316485D02*
X315863Y150501D01*
X315336Y150148D01*
X314983Y149621D01*
X314860Y148999D01*
X314983Y148377D01*
X315336Y147850D01*
X315863Y147497D01*
X316485Y147374D01*
X317107Y147497D01*
X317634Y147850D01*
X317987Y148377D01*
X318110Y148999D01*
X317987Y149621D01*
X317634Y150148D01*
X317107Y150501D01*
X316485Y150624D01*
D02*
G37*
G36*
X256446Y150526D02*
X255824Y150402D01*
X255296Y150050D01*
X254944Y149523D01*
X254820Y148901D01*
X254944Y148279D01*
X255296Y147751D01*
X255824Y147399D01*
X256446Y147275D01*
X257068Y147399D01*
X257595Y147751D01*
X257947Y148279D01*
X258071Y148901D01*
X257947Y149523D01*
X257595Y150050D01*
X257068Y150402D01*
X256446Y150526D01*
D02*
G37*
G36*
X213040D02*
X212418Y150402D01*
X211891Y150050D01*
X211539Y149523D01*
X211415Y148901D01*
X211539Y148279D01*
X211891Y147751D01*
X212418Y147399D01*
X213040Y147275D01*
X213662Y147399D01*
X214189Y147751D01*
X214542Y148279D01*
X214665Y148901D01*
X214542Y149523D01*
X214189Y150050D01*
X213662Y150402D01*
X213040Y150526D01*
D02*
G37*
G36*
X206115Y149800D02*
X205493Y149677D01*
X204966Y149324D01*
X204613Y148797D01*
X204490Y148175D01*
X204613Y147553D01*
X204966Y147026D01*
X205493Y146673D01*
X206115Y146550D01*
X206737Y146673D01*
X207264Y147026D01*
X207616Y147553D01*
X207740Y148175D01*
X207616Y148797D01*
X207264Y149324D01*
X206737Y149677D01*
X206115Y149800D01*
D02*
G37*
G36*
X447535Y148361D02*
X446913Y148237D01*
X446386Y147885D01*
X446033Y147357D01*
X445910Y146735D01*
X446033Y146113D01*
X446386Y145586D01*
X446913Y145234D01*
X447535Y145110D01*
X448157Y145234D01*
X448684Y145586D01*
X449037Y146113D01*
X449160Y146735D01*
X449037Y147357D01*
X448684Y147885D01*
X448157Y148237D01*
X447535Y148361D01*
D02*
G37*
G36*
X443650D02*
X443028Y148237D01*
X442501Y147885D01*
X442149Y147357D01*
X442025Y146735D01*
X442149Y146113D01*
X442501Y145586D01*
X443028Y145234D01*
X443650Y145110D01*
X444272Y145234D01*
X444800Y145586D01*
X445152Y146113D01*
X445276Y146735D01*
X445152Y147357D01*
X444800Y147885D01*
X444272Y148237D01*
X443650Y148361D01*
D02*
G37*
G36*
X439320D02*
X438698Y148237D01*
X438170Y147885D01*
X437818Y147357D01*
X437694Y146735D01*
X437818Y146113D01*
X438170Y145586D01*
X438698Y145234D01*
X439320Y145110D01*
X439942Y145234D01*
X440469Y145586D01*
X440821Y146113D01*
X440945Y146735D01*
X440821Y147357D01*
X440469Y147885D01*
X439942Y148237D01*
X439320Y148361D01*
D02*
G37*
G36*
X264320Y147376D02*
X263698Y147253D01*
X263170Y146900D01*
X262818Y146373D01*
X262694Y145751D01*
X262818Y145129D01*
X263170Y144602D01*
X263698Y144249D01*
X264320Y144126D01*
X264942Y144249D01*
X265469Y144602D01*
X265821Y145129D01*
X265945Y145751D01*
X265821Y146373D01*
X265469Y146900D01*
X264942Y147253D01*
X264320Y147376D01*
D02*
G37*
G36*
X93032Y147078D02*
X92410Y146954D01*
X91883Y146602D01*
X91531Y146075D01*
X91407Y145453D01*
X91531Y144831D01*
X91883Y144303D01*
X92410Y143951D01*
X93032Y143827D01*
X93654Y143951D01*
X94182Y144303D01*
X94534Y144831D01*
X94658Y145453D01*
X94534Y146075D01*
X94182Y146602D01*
X93654Y146954D01*
X93032Y147078D01*
D02*
G37*
G36*
X315304Y146983D02*
X314682Y146859D01*
X314155Y146507D01*
X313802Y145979D01*
X313679Y145357D01*
X313802Y144735D01*
X314155Y144208D01*
X314682Y143856D01*
X315304Y143732D01*
X315926Y143856D01*
X316453Y144208D01*
X316806Y144735D01*
X316929Y145357D01*
X316806Y145979D01*
X316453Y146507D01*
X315926Y146859D01*
X315304Y146983D01*
D02*
G37*
G36*
X211859Y146884D02*
X211237Y146760D01*
X210710Y146408D01*
X210357Y145881D01*
X210234Y145259D01*
X210357Y144637D01*
X210710Y144110D01*
X211237Y143757D01*
X211859Y143634D01*
X212481Y143757D01*
X213008Y144110D01*
X213361Y144637D01*
X213484Y145259D01*
X213361Y145881D01*
X213008Y146408D01*
X212481Y146760D01*
X211859Y146884D01*
D02*
G37*
G36*
X310186Y146786D02*
X309564Y146662D01*
X309036Y146310D01*
X308684Y145782D01*
X308560Y145160D01*
X308684Y144539D01*
X309036Y144011D01*
X309564Y143659D01*
X310186Y143535D01*
X310808Y143659D01*
X311335Y144011D01*
X311687Y144539D01*
X311811Y145160D01*
X311687Y145782D01*
X311335Y146310D01*
X310808Y146662D01*
X310186Y146786D01*
D02*
G37*
G36*
X361170Y146392D02*
X360548Y146268D01*
X360021Y145916D01*
X359668Y145389D01*
X359545Y144767D01*
X359668Y144145D01*
X360021Y143618D01*
X360548Y143265D01*
X361170Y143141D01*
X361792Y143265D01*
X362319Y143618D01*
X362672Y144145D01*
X362795Y144767D01*
X362672Y145389D01*
X362319Y145916D01*
X361792Y146268D01*
X361170Y146392D01*
D02*
G37*
G36*
X257725Y146294D02*
X257103Y146170D01*
X256576Y145818D01*
X256224Y145290D01*
X256100Y144668D01*
X256224Y144046D01*
X256576Y143519D01*
X256890Y143309D01*
X256695Y142839D01*
X256642Y142849D01*
X256020Y142725D01*
X255493Y142373D01*
X255141Y141846D01*
X255017Y141224D01*
X255141Y140602D01*
X255493Y140074D01*
X256020Y139722D01*
X256642Y139598D01*
X257264Y139722D01*
X257792Y140074D01*
X258144Y140602D01*
X258268Y141224D01*
X258144Y141846D01*
X257792Y142373D01*
X257478Y142582D01*
X257673Y143053D01*
X257725Y143043D01*
X258347Y143167D01*
X258874Y143519D01*
X259227Y144046D01*
X259350Y144668D01*
X259227Y145290D01*
X258874Y145818D01*
X258347Y146170D01*
X257725Y146294D01*
D02*
G37*
G36*
X50406Y146201D02*
X49784Y146077D01*
X49257Y145725D01*
X48905Y145197D01*
X48781Y144576D01*
X48905Y143954D01*
X49257Y143426D01*
X49784Y143074D01*
X50406Y142950D01*
X51028Y143074D01*
X51556Y143426D01*
X51908Y143954D01*
X52032Y144576D01*
X51908Y145197D01*
X51556Y145725D01*
X51028Y146077D01*
X50406Y146201D01*
D02*
G37*
G36*
X161528Y146159D02*
X160906Y146035D01*
X160379Y145683D01*
X160027Y145155D01*
X159903Y144533D01*
X160027Y143911D01*
X160379Y143384D01*
X160906Y143032D01*
X161528Y142908D01*
X162150Y143032D01*
X162678Y143384D01*
X163030Y143911D01*
X163154Y144533D01*
X163030Y145155D01*
X162678Y145683D01*
X162150Y146035D01*
X161528Y146159D01*
D02*
G37*
G36*
X207395Y145568D02*
X206772Y145444D01*
X206245Y145092D01*
X205893Y144565D01*
X205769Y143943D01*
X205893Y143321D01*
X206245Y142793D01*
X206559Y142584D01*
X206364Y142113D01*
X206312Y142123D01*
X205690Y141999D01*
X205163Y141647D01*
X204810Y141120D01*
X204686Y140498D01*
X204810Y139876D01*
X205163Y139348D01*
X205690Y138996D01*
X206312Y138872D01*
X206934Y138996D01*
X207461Y139348D01*
X207813Y139876D01*
X207937Y140498D01*
X207813Y141120D01*
X207461Y141647D01*
X207147Y141857D01*
X207342Y142328D01*
X207395Y142317D01*
X208016Y142441D01*
X208544Y142793D01*
X208896Y143321D01*
X209020Y143943D01*
X208896Y144565D01*
X208544Y145092D01*
X208016Y145444D01*
X207395Y145568D01*
D02*
G37*
G36*
X366190Y143735D02*
X365568Y143611D01*
X365040Y143259D01*
X364688Y142731D01*
X364564Y142109D01*
X364688Y141487D01*
X365040Y140960D01*
X365568Y140608D01*
X366190Y140484D01*
X366812Y140608D01*
X367339Y140960D01*
X367691Y141487D01*
X367815Y142109D01*
X367691Y142731D01*
X367339Y143259D01*
X366812Y143611D01*
X366190Y143735D01*
D02*
G37*
G36*
X265501Y143538D02*
X264879Y143414D01*
X264351Y143062D01*
X263999Y142534D01*
X263875Y141912D01*
X263999Y141290D01*
X264351Y140763D01*
X264879Y140411D01*
X265501Y140287D01*
X266123Y140411D01*
X266650Y140763D01*
X267002Y141290D01*
X267126Y141912D01*
X267002Y142534D01*
X266650Y143062D01*
X266123Y143414D01*
X265501Y143538D01*
D02*
G37*
G36*
X387745Y143243D02*
X387123Y143119D01*
X386596Y142766D01*
X386243Y142239D01*
X386120Y141617D01*
X386243Y140995D01*
X386596Y140468D01*
X387123Y140116D01*
X387745Y139992D01*
X388367Y140116D01*
X388894Y140468D01*
X389246Y140995D01*
X389370Y141617D01*
X389246Y142239D01*
X388894Y142766D01*
X388367Y143119D01*
X387745Y143243D01*
D02*
G37*
G36*
X316485Y143144D02*
X315863Y143020D01*
X315336Y142668D01*
X314983Y142141D01*
X314860Y141519D01*
X314983Y140897D01*
X315336Y140369D01*
X315863Y140017D01*
X316485Y139893D01*
X317107Y140017D01*
X317634Y140369D01*
X317987Y140897D01*
X318110Y141519D01*
X317987Y142141D01*
X317634Y142668D01*
X317107Y143020D01*
X316485Y143144D01*
D02*
G37*
G36*
X213040Y143046D02*
X212418Y142922D01*
X211891Y142570D01*
X211539Y142042D01*
X211415Y141420D01*
X211539Y140798D01*
X211891Y140271D01*
X212418Y139919D01*
X213040Y139795D01*
X213662Y139919D01*
X214189Y140271D01*
X214542Y140798D01*
X214665Y141420D01*
X214542Y142042D01*
X214189Y142570D01*
X213662Y142922D01*
X213040Y143046D01*
D02*
G37*
G36*
X309103Y142849D02*
X308481Y142725D01*
X307954Y142373D01*
X307601Y141846D01*
X307478Y141224D01*
X307601Y140602D01*
X307954Y140074D01*
X308481Y139722D01*
X309103Y139598D01*
X309725Y139722D01*
X310252Y140074D01*
X310605Y140602D01*
X310728Y141224D01*
X310605Y141846D01*
X310252Y142373D01*
X309725Y142725D01*
X309103Y142849D01*
D02*
G37*
G36*
X97650Y142657D02*
X97029Y142534D01*
X96501Y142182D01*
X96149Y141654D01*
X96025Y141032D01*
X96149Y140410D01*
X96501Y139883D01*
X97029Y139531D01*
X97650Y139407D01*
X98273Y139531D01*
X98800Y139883D01*
X99152Y140410D01*
X99276Y141032D01*
X99152Y141654D01*
X98800Y142182D01*
X98273Y142534D01*
X97650Y142657D01*
D02*
G37*
G36*
X360087Y142455D02*
X359465Y142331D01*
X358938Y141979D01*
X358586Y141452D01*
X358462Y140830D01*
X358586Y140208D01*
X358938Y139681D01*
X359465Y139328D01*
X360087Y139205D01*
X360709Y139328D01*
X361237Y139681D01*
X361589Y140208D01*
X361713Y140830D01*
X361589Y141452D01*
X361237Y141979D01*
X360709Y142331D01*
X360087Y142455D01*
D02*
G37*
G36*
X162709Y142320D02*
X162087Y142196D01*
X161560Y141844D01*
X161208Y141317D01*
X161084Y140695D01*
X161208Y140073D01*
X161560Y139545D01*
X162087Y139193D01*
X162709Y139069D01*
X163331Y139193D01*
X163859Y139545D01*
X164211Y140073D01*
X164335Y140695D01*
X164211Y141317D01*
X163859Y141844D01*
X163331Y142196D01*
X162709Y142320D01*
D02*
G37*
G36*
X79652Y140677D02*
X79030Y140553D01*
X78503Y140201D01*
X78150Y139674D01*
X78026Y139052D01*
X78150Y138430D01*
X78503Y137903D01*
X79030Y137550D01*
X79652Y137427D01*
X80274Y137550D01*
X80801Y137903D01*
X81153Y138430D01*
X81277Y139052D01*
X81153Y139674D01*
X80801Y140201D01*
X80274Y140553D01*
X79652Y140677D01*
D02*
G37*
G36*
X368847Y140093D02*
X368225Y139969D01*
X367698Y139617D01*
X367346Y139090D01*
X367222Y138468D01*
X367346Y137846D01*
X367698Y137318D01*
X368225Y136966D01*
X368847Y136842D01*
X369469Y136966D01*
X369996Y137318D01*
X370349Y137846D01*
X370473Y138468D01*
X370349Y139090D01*
X369996Y139617D01*
X369469Y139969D01*
X368847Y140093D01*
D02*
G37*
G36*
X384595Y138912D02*
X383973Y138788D01*
X383446Y138436D01*
X383094Y137908D01*
X382970Y137286D01*
X383094Y136664D01*
X383446Y136137D01*
X383973Y135785D01*
X384595Y135661D01*
X385217Y135785D01*
X385745Y136137D01*
X386097Y136664D01*
X386221Y137286D01*
X386097Y137908D01*
X385745Y138436D01*
X385217Y138788D01*
X384595Y138912D01*
D02*
G37*
G36*
X366406Y136166D02*
X365784Y136042D01*
X365257Y135690D01*
X364905Y135162D01*
X364781Y134540D01*
X364905Y133918D01*
X365257Y133391D01*
X365784Y133039D01*
X366406Y132915D01*
X367028Y133039D01*
X367555Y133391D01*
X367908Y133918D01*
X368032Y134540D01*
X367908Y135162D01*
X367555Y135690D01*
X367028Y136042D01*
X366406Y136166D01*
D02*
G37*
G36*
X387351Y135369D02*
X386729Y135245D01*
X386202Y134892D01*
X385849Y134365D01*
X385726Y133743D01*
X385849Y133121D01*
X386202Y132594D01*
X386729Y132242D01*
X387351Y132118D01*
X387973Y132242D01*
X388500Y132594D01*
X388853Y133121D01*
X388976Y133743D01*
X388853Y134365D01*
X388500Y134892D01*
X387973Y135245D01*
X387351Y135369D01*
D02*
G37*
G36*
X369241Y133006D02*
X368619Y132883D01*
X368092Y132530D01*
X367739Y132003D01*
X367616Y131381D01*
X367739Y130759D01*
X368092Y130232D01*
X368619Y129879D01*
X369241Y129756D01*
X369863Y129879D01*
X370390Y130232D01*
X370743Y130759D01*
X370866Y131381D01*
X370743Y132003D01*
X370390Y132530D01*
X369863Y132883D01*
X369241Y133006D01*
D02*
G37*
G36*
X301500Y132625D02*
X300878Y132502D01*
X300351Y132149D01*
X299998Y131622D01*
X299875Y131000D01*
X299998Y130378D01*
X300351Y129851D01*
X300878Y129498D01*
X301500Y129375D01*
X302122Y129498D01*
X302649Y129851D01*
X303002Y130378D01*
X303125Y131000D01*
X303002Y131622D01*
X302649Y132149D01*
X302122Y132502D01*
X301500Y132625D01*
D02*
G37*
G36*
X251347D02*
X250726Y132502D01*
X250198Y132149D01*
X249846Y131622D01*
X249722Y131000D01*
X249846Y130378D01*
X250198Y129851D01*
X250726Y129498D01*
X251347Y129375D01*
X251970Y129498D01*
X252497Y129851D01*
X252849Y130378D01*
X252973Y131000D01*
X252849Y131622D01*
X252497Y132149D01*
X251970Y132502D01*
X251347Y132625D01*
D02*
G37*
G36*
X199000D02*
X198378Y132502D01*
X197851Y132149D01*
X197498Y131622D01*
X197375Y131000D01*
X197498Y130378D01*
X197851Y129851D01*
X198378Y129498D01*
X199000Y129375D01*
X199622Y129498D01*
X200149Y129851D01*
X200502Y130378D01*
X200625Y131000D01*
X200502Y131622D01*
X200149Y132149D01*
X199622Y132502D01*
X199000Y132625D01*
D02*
G37*
G36*
X384595Y132219D02*
X383973Y132095D01*
X383446Y131743D01*
X383094Y131216D01*
X382970Y130594D01*
X383094Y129972D01*
X383446Y129444D01*
X383973Y129092D01*
X384595Y128968D01*
X385217Y129092D01*
X385745Y129444D01*
X386097Y129972D01*
X386221Y130594D01*
X386097Y131216D01*
X385745Y131743D01*
X385217Y132095D01*
X384595Y132219D01*
D02*
G37*
G36*
X60741Y140492D02*
X60119Y140368D01*
X59592Y140016D01*
X59240Y139489D01*
X59116Y138867D01*
X59240Y138245D01*
X59592Y137718D01*
X60119Y137365D01*
X60741Y137241D01*
X61354Y137363D01*
X61385Y137342D01*
X61709Y136995D01*
X61549Y136755D01*
X61425Y136133D01*
X61549Y135511D01*
X61901Y134984D01*
X62050Y134884D01*
Y134384D01*
X61910Y134290D01*
X61557Y133762D01*
X61433Y133141D01*
X61557Y132518D01*
X61910Y131991D01*
X62047Y131899D01*
Y131399D01*
X61901Y131301D01*
X61549Y130774D01*
X61425Y130152D01*
X61549Y129530D01*
X61901Y129003D01*
X62428Y128651D01*
X63050Y128527D01*
X63672Y128651D01*
X64199Y129003D01*
X64552Y129530D01*
X64675Y130152D01*
X64552Y130774D01*
X64199Y131301D01*
X64062Y131394D01*
Y131894D01*
X64208Y131991D01*
X64560Y132518D01*
X64684Y133141D01*
X64560Y133762D01*
X64208Y134290D01*
X64059Y134389D01*
Y134889D01*
X64199Y134984D01*
X64552Y135511D01*
X64675Y136133D01*
X64552Y136755D01*
X64199Y137282D01*
X63672Y137634D01*
X63050Y137758D01*
X62437Y137636D01*
X62406Y137658D01*
X62082Y138004D01*
X62243Y138245D01*
X62366Y138867D01*
X62243Y139489D01*
X61890Y140016D01*
X61363Y140368D01*
X60741Y140492D01*
D02*
G37*
G36*
X352000Y130731D02*
X351378Y130607D01*
X350851Y130255D01*
X350499Y129728D01*
X350375Y129106D01*
X350499Y128484D01*
X350851Y127957D01*
X351378Y127605D01*
X352000Y127481D01*
X352622Y127605D01*
X353149Y127957D01*
X353501Y128484D01*
X353625Y129106D01*
X353501Y129728D01*
X353149Y130255D01*
X352622Y130607D01*
X352000Y130731D01*
D02*
G37*
G36*
X366879Y129069D02*
X366257Y128946D01*
X365729Y128593D01*
X365377Y128066D01*
X365253Y127444D01*
X365377Y126822D01*
X365729Y126295D01*
X366257Y125942D01*
X366879Y125819D01*
X367501Y125942D01*
X368028Y126295D01*
X368380Y126822D01*
X368504Y127444D01*
X368380Y128066D01*
X368028Y128593D01*
X367501Y128946D01*
X366879Y129069D01*
D02*
G37*
G36*
X387548Y128971D02*
X386926Y128847D01*
X386399Y128495D01*
X386046Y127968D01*
X385923Y127346D01*
X386046Y126724D01*
X386399Y126196D01*
X386926Y125844D01*
X387548Y125720D01*
X388170Y125844D01*
X388697Y126196D01*
X389050Y126724D01*
X389173Y127346D01*
X389050Y127968D01*
X388697Y128495D01*
X388170Y128847D01*
X387548Y128971D01*
D02*
G37*
G36*
X302377Y128059D02*
X301755Y127935D01*
X301228Y127583D01*
X300876Y127056D01*
X300752Y126434D01*
X300876Y125812D01*
X301228Y125285D01*
X301755Y124933D01*
X302377Y124809D01*
X302999Y124933D01*
X303526Y125285D01*
X303878Y125812D01*
X304002Y126434D01*
X303878Y127056D01*
X303526Y127583D01*
X302999Y127935D01*
X302377Y128059D01*
D02*
G37*
G36*
X353506Y127142D02*
X352884Y127018D01*
X352357Y126666D01*
X352005Y126139D01*
X351881Y125517D01*
X352005Y124895D01*
X352357Y124368D01*
X352884Y124015D01*
X353506Y123892D01*
X354128Y124015D01*
X354655Y124368D01*
X355008Y124895D01*
X355132Y125517D01*
X355008Y126139D01*
X354655Y126666D01*
X354128Y127018D01*
X353506Y127142D01*
D02*
G37*
G36*
X253000Y126625D02*
X252378Y126501D01*
X251851Y126149D01*
X251499Y125622D01*
X251375Y125000D01*
X251499Y124378D01*
X251851Y123851D01*
X252378Y123499D01*
X253000Y123375D01*
X253622Y123499D01*
X254149Y123851D01*
X254501Y124378D01*
X254625Y125000D01*
X254501Y125622D01*
X254149Y126149D01*
X253622Y126501D01*
X253000Y126625D01*
D02*
G37*
G36*
X8379Y136566D02*
X7084Y136438D01*
X5839Y136061D01*
X4692Y135447D01*
X3687Y134622D01*
X2861Y133616D01*
X2248Y132469D01*
X1870Y131224D01*
X1743Y129930D01*
X1870Y128635D01*
X2248Y127390D01*
X2861Y126243D01*
X3687Y125238D01*
X4692Y124412D01*
X5839Y123799D01*
X7084Y123422D01*
X8379Y123294D01*
X9674Y123422D01*
X10918Y123799D01*
X12066Y124412D01*
X13071Y125238D01*
X13896Y126243D01*
X14510Y127390D01*
X14887Y128635D01*
X15015Y129930D01*
X14887Y131224D01*
X14510Y132469D01*
X13896Y133616D01*
X13071Y134622D01*
X12066Y135447D01*
X10918Y136061D01*
X9674Y136438D01*
X8379Y136566D01*
D02*
G37*
G36*
X202725Y125151D02*
X202103Y125028D01*
X201576Y124675D01*
X201224Y124148D01*
X201100Y123526D01*
X201224Y122905D01*
X201576Y122377D01*
X202103Y122025D01*
X202725Y121902D01*
X203347Y122025D01*
X203874Y122377D01*
X204226Y122905D01*
X204350Y123526D01*
X204226Y124148D01*
X203874Y124675D01*
X203347Y125028D01*
X202725Y125151D01*
D02*
G37*
G36*
X195500Y125125D02*
X194878Y125001D01*
X194351Y124649D01*
X193999Y124122D01*
X193875Y123500D01*
X193999Y122878D01*
X194351Y122351D01*
X194878Y121999D01*
X195500Y121875D01*
X196122Y121999D01*
X196649Y122351D01*
X197001Y122878D01*
X197125Y123500D01*
X197001Y124122D01*
X196649Y124649D01*
X196122Y125001D01*
X195500Y125125D01*
D02*
G37*
G36*
X256485Y124069D02*
X255863Y123946D01*
X255336Y123593D01*
X254983Y123066D01*
X254860Y122444D01*
X254983Y121822D01*
X255336Y121295D01*
X255863Y120942D01*
X256485Y120819D01*
X257107Y120942D01*
X257634Y121295D01*
X257986Y121822D01*
X258110Y122444D01*
X257986Y123066D01*
X257634Y123593D01*
X257107Y123946D01*
X256485Y124069D01*
D02*
G37*
G36*
X352000Y122125D02*
X351378Y122002D01*
X350851Y121649D01*
X350498Y121122D01*
X350375Y120500D01*
X350498Y119878D01*
X350851Y119351D01*
X351378Y118998D01*
X352000Y118875D01*
X352622Y118998D01*
X353149Y119351D01*
X353502Y119878D01*
X353625Y120500D01*
X353502Y121122D01*
X353149Y121649D01*
X352622Y122002D01*
X352000Y122125D01*
D02*
G37*
G36*
X486997Y138024D02*
X485017Y137829D01*
X483114Y137252D01*
X481359Y136314D01*
X479822Y135052D01*
X478560Y133514D01*
X477622Y131760D01*
X477045Y129857D01*
X476850Y127877D01*
X477045Y125898D01*
X477622Y123994D01*
X478560Y122240D01*
X479822Y120702D01*
X481359Y119440D01*
X483114Y118503D01*
X485017Y117925D01*
X486997Y117730D01*
X488976Y117925D01*
X490880Y118503D01*
X492634Y119440D01*
X494172Y120702D01*
X495434Y122240D01*
X496371Y123994D01*
X496949Y125898D01*
X497144Y127877D01*
X496949Y129857D01*
X496371Y131760D01*
X495434Y133514D01*
X494172Y135052D01*
X492634Y136314D01*
X490880Y137252D01*
X488976Y137829D01*
X486997Y138024D01*
D02*
G37*
G36*
X249300Y119029D02*
X248678Y118905D01*
X248151Y118553D01*
X247798Y118026D01*
X247683Y117448D01*
X247549Y117374D01*
X247187Y117290D01*
X247149Y117347D01*
X246622Y117699D01*
X246000Y117823D01*
X245378Y117699D01*
X244851Y117347D01*
X244498Y116820D01*
X244375Y116198D01*
X244498Y115576D01*
X244851Y115048D01*
X245378Y114696D01*
X246000Y114572D01*
X246622Y114696D01*
X247149Y115048D01*
X247502Y115576D01*
X247617Y116154D01*
X247751Y116227D01*
X248112Y116312D01*
X248151Y116254D01*
X248678Y115902D01*
X249300Y115778D01*
X249922Y115902D01*
X250449Y116254D01*
X250801Y116782D01*
X250925Y117404D01*
X250801Y118026D01*
X250449Y118553D01*
X249922Y118905D01*
X249300Y119029D01*
D02*
G37*
G36*
X301000Y119625D02*
X300378Y119501D01*
X299851Y119149D01*
X299499Y118622D01*
X299375Y118000D01*
X299499Y117378D01*
X299851Y116851D01*
X300378Y116499D01*
X301000Y116375D01*
X301622Y116499D01*
X302149Y116851D01*
X302501Y117378D01*
X302625Y118000D01*
X302501Y118622D01*
X302149Y119149D01*
X301622Y119501D01*
X301000Y119625D01*
D02*
G37*
G36*
X183000Y118625D02*
X182378Y118501D01*
X181851Y118149D01*
X181499Y117622D01*
X181375Y117000D01*
X181499Y116378D01*
X181851Y115851D01*
X182378Y115499D01*
X183000Y115375D01*
X183622Y115499D01*
X184149Y115851D01*
X184501Y116378D01*
X184625Y117000D01*
X184501Y117622D01*
X184149Y118149D01*
X183622Y118501D01*
X183000Y118625D01*
D02*
G37*
G36*
X198920Y118082D02*
X198298Y117958D01*
X197771Y117606D01*
X197419Y117079D01*
X197295Y116457D01*
X197419Y115835D01*
X197771Y115308D01*
X198298Y114955D01*
X198920Y114832D01*
X199542Y114955D01*
X200069Y115308D01*
X200421Y115835D01*
X200545Y116457D01*
X200421Y117079D01*
X200069Y117606D01*
X199542Y117958D01*
X198920Y118082D01*
D02*
G37*
G36*
X348500Y117410D02*
X347878Y117287D01*
X347351Y116934D01*
X346998Y116407D01*
X346875Y115785D01*
X346998Y115163D01*
X347351Y114636D01*
X347878Y114283D01*
X348500Y114160D01*
X349122Y114283D01*
X349649Y114636D01*
X350002Y115163D01*
X350125Y115785D01*
X350002Y116407D01*
X349649Y116934D01*
X349122Y117287D01*
X348500Y117410D01*
D02*
G37*
G36*
X316553Y117230D02*
X315931Y117106D01*
X315404Y116754D01*
X315051Y116227D01*
X314928Y115605D01*
X315051Y114983D01*
X315404Y114456D01*
X315931Y114103D01*
X316553Y113980D01*
X317175Y114103D01*
X317702Y114456D01*
X318054Y114983D01*
X318178Y115605D01*
X318054Y116227D01*
X317702Y116754D01*
X317175Y117106D01*
X316553Y117230D01*
D02*
G37*
G36*
X297500Y117046D02*
X296878Y116923D01*
X296351Y116570D01*
X295998Y116043D01*
X295875Y115421D01*
X295998Y114799D01*
X296351Y114272D01*
X296878Y113919D01*
X297500Y113796D01*
X298122Y113919D01*
X298649Y114272D01*
X299002Y114799D01*
X299125Y115421D01*
X299002Y116043D01*
X298649Y116570D01*
X298122Y116923D01*
X297500Y117046D01*
D02*
G37*
G36*
X231446Y115086D02*
X230824Y114963D01*
X230296Y114610D01*
X229944Y114083D01*
X229820Y113461D01*
X229944Y112839D01*
X230296Y112312D01*
X230824Y111959D01*
X231446Y111836D01*
X232068Y111959D01*
X232595Y112312D01*
X232947Y112839D01*
X233071Y113461D01*
X232947Y114083D01*
X232595Y114610D01*
X232068Y114963D01*
X231446Y115086D01*
D02*
G37*
G36*
X54517Y113598D02*
X53895Y113475D01*
X53367Y113122D01*
X53015Y112595D01*
X52891Y111973D01*
X53015Y111351D01*
X53367Y110824D01*
X53895Y110471D01*
X54517Y110348D01*
X55138Y110471D01*
X55666Y110824D01*
X56018Y111351D01*
X56142Y111973D01*
X56018Y112595D01*
X55666Y113122D01*
X55138Y113475D01*
X54517Y113598D01*
D02*
G37*
G36*
X143500Y113125D02*
X142878Y113002D01*
X142351Y112649D01*
X141998Y112122D01*
X141875Y111500D01*
X141998Y110878D01*
X142351Y110351D01*
X142878Y109998D01*
X143500Y109875D01*
X144122Y109998D01*
X144649Y110351D01*
X145002Y110878D01*
X145125Y111500D01*
X145002Y112122D01*
X144649Y112649D01*
X144122Y113002D01*
X143500Y113125D01*
D02*
G37*
G36*
X49127Y112638D02*
X48505Y112514D01*
X47978Y112162D01*
X47625Y111635D01*
X47502Y111012D01*
X47625Y110390D01*
X47978Y109863D01*
X48505Y109511D01*
X49127Y109387D01*
X49749Y109511D01*
X50276Y109863D01*
X50629Y110390D01*
X50752Y111012D01*
X50629Y111635D01*
X50276Y112162D01*
X49749Y112514D01*
X49127Y112638D01*
D02*
G37*
G36*
X65465Y110256D02*
X64843Y110132D01*
X64316Y109780D01*
X63964Y109253D01*
X63840Y108631D01*
X63964Y108009D01*
X64316Y107481D01*
X64843Y107129D01*
X65465Y107005D01*
X66088Y107129D01*
X66615Y107481D01*
X66967Y108009D01*
X67091Y108631D01*
X66967Y109253D01*
X66615Y109780D01*
X66088Y110132D01*
X65465Y110256D01*
D02*
G37*
G36*
X179083Y109778D02*
X178461Y109654D01*
X177934Y109302D01*
X177582Y108775D01*
X177458Y108153D01*
X177582Y107531D01*
X177934Y107003D01*
X178461Y106651D01*
X179083Y106527D01*
X179705Y106651D01*
X180233Y107003D01*
X180585Y107531D01*
X180709Y108153D01*
X180585Y108775D01*
X180233Y109302D01*
X179705Y109654D01*
X179083Y109778D01*
D02*
G37*
G36*
X199001Y106431D02*
X198379Y106308D01*
X197851Y105956D01*
X197499Y105428D01*
X197375Y104806D01*
X197499Y104184D01*
X197536Y104130D01*
X197235Y103680D01*
X196866Y103753D01*
X196244Y103629D01*
X195717Y103277D01*
X195365Y102750D01*
X195241Y102128D01*
X195348Y101590D01*
X195167Y101311D01*
X195002Y101149D01*
X194779Y101194D01*
X194157Y101070D01*
X193629Y100717D01*
X193277Y100190D01*
X193240Y100006D01*
X192718Y99754D01*
X192096Y99878D01*
X191474Y99754D01*
X190946Y99402D01*
X190594Y98875D01*
X190470Y98253D01*
X190594Y97631D01*
X190946Y97103D01*
X191474Y96751D01*
X192096Y96627D01*
X192393Y96686D01*
X192806Y96259D01*
X192744Y95944D01*
X192867Y95322D01*
X193220Y94794D01*
X193747Y94442D01*
X194369Y94318D01*
X194991Y94442D01*
X195518Y94794D01*
X195871Y95322D01*
X195994Y95944D01*
X195871Y96566D01*
X195518Y97093D01*
X194991Y97445D01*
X194915Y97460D01*
Y97970D01*
X195401Y98067D01*
X195928Y98419D01*
X196280Y98946D01*
X196404Y99568D01*
X196297Y100106D01*
X196478Y100385D01*
X196643Y100547D01*
X196866Y100502D01*
X197488Y100626D01*
X198016Y100979D01*
X198368Y101506D01*
X198492Y102128D01*
X198368Y102750D01*
X198331Y102804D01*
X198632Y103254D01*
X199001Y103181D01*
X199623Y103305D01*
X200150Y103657D01*
X200502Y104184D01*
X200626Y104806D01*
X200502Y105428D01*
X200150Y105956D01*
X199623Y106308D01*
X199001Y106431D01*
D02*
G37*
G36*
X194383Y106530D02*
X193761Y106406D01*
X193233Y106054D01*
X192881Y105527D01*
X192757Y104905D01*
X192881Y104283D01*
X193233Y103755D01*
X193761Y103403D01*
X194383Y103279D01*
X195005Y103403D01*
X195532Y103755D01*
X195884Y104283D01*
X196008Y104905D01*
X195884Y105527D01*
X195532Y106054D01*
X195005Y106406D01*
X194383Y106530D01*
D02*
G37*
G36*
X224446Y106399D02*
X223824Y106275D01*
X223297Y105923D01*
X222945Y105395D01*
X222821Y104773D01*
X222945Y104151D01*
X223297Y103624D01*
X223824Y103272D01*
X224446Y103148D01*
X225068Y103272D01*
X225596Y103624D01*
X225948Y104151D01*
X226072Y104773D01*
X225948Y105395D01*
X225596Y105923D01*
X225068Y106275D01*
X224446Y106399D01*
D02*
G37*
G36*
X257627Y105565D02*
X257005Y105442D01*
X256477Y105089D01*
X256125Y104562D01*
X256001Y103940D01*
X256125Y103318D01*
X256477Y102791D01*
X257005Y102438D01*
X257627Y102315D01*
X258249Y102438D01*
X258776Y102791D01*
X259128Y103318D01*
X259252Y103940D01*
X259128Y104562D01*
X258776Y105089D01*
X258249Y105442D01*
X257627Y105565D01*
D02*
G37*
G36*
X240737Y105309D02*
X240115Y105186D01*
X239588Y104833D01*
X239235Y104306D01*
X239112Y103684D01*
X239235Y103062D01*
X239588Y102535D01*
X240115Y102183D01*
X240737Y102059D01*
X241359Y102183D01*
X241886Y102535D01*
X242238Y103062D01*
X242362Y103684D01*
X242238Y104306D01*
X241886Y104833D01*
X241359Y105186D01*
X240737Y105309D01*
D02*
G37*
G36*
X236800Y105211D02*
X236178Y105087D01*
X235651Y104735D01*
X235298Y104208D01*
X235175Y103586D01*
X235298Y102964D01*
X235651Y102436D01*
X236178Y102084D01*
X236800Y101960D01*
X237422Y102084D01*
X237949Y102436D01*
X238301Y102964D01*
X238425Y103586D01*
X238301Y104208D01*
X237949Y104735D01*
X237422Y105087D01*
X236800Y105211D01*
D02*
G37*
G36*
X443975Y104955D02*
X443353Y104831D01*
X442826Y104479D01*
X442474Y103952D01*
X442350Y103330D01*
X442474Y102708D01*
X442826Y102181D01*
X443353Y101828D01*
X443975Y101705D01*
X444597Y101828D01*
X445124Y102181D01*
X445477Y102708D01*
X445600Y103330D01*
X445477Y103952D01*
X445124Y104479D01*
X444597Y104831D01*
X443975Y104955D01*
D02*
G37*
G36*
X448768Y104660D02*
X448146Y104536D01*
X447619Y104184D01*
X447267Y103656D01*
X447143Y103034D01*
X447267Y102413D01*
X447619Y101885D01*
X448146Y101533D01*
X448768Y101409D01*
X449390Y101533D01*
X449918Y101885D01*
X450270Y102413D01*
X450394Y103034D01*
X450270Y103656D01*
X449918Y104184D01*
X449390Y104536D01*
X448768Y104660D01*
D02*
G37*
G36*
X439713D02*
X439091Y104536D01*
X438564Y104184D01*
X438212Y103656D01*
X438088Y103034D01*
X438212Y102413D01*
X438564Y101885D01*
X439091Y101533D01*
X439713Y101409D01*
X440335Y101533D01*
X440863Y101885D01*
X441215Y102413D01*
X441339Y103034D01*
X441215Y103656D01*
X440863Y104184D01*
X440335Y104536D01*
X439713Y104660D01*
D02*
G37*
G36*
X60977Y104340D02*
X60359Y104218D01*
X59835Y103867D01*
X59485Y103343D01*
X59362Y102725D01*
X59485Y102107D01*
X59835Y101583D01*
X60359Y101233D01*
X60977Y101110D01*
X61595Y101233D01*
X62120Y101583D01*
X62470Y102107D01*
X62593Y102725D01*
X62470Y103343D01*
X62120Y103867D01*
X61595Y104218D01*
X60977Y104340D01*
D02*
G37*
G36*
X57040D02*
X56422Y104218D01*
X55898Y103867D01*
X55548Y103343D01*
X55425Y102725D01*
X55548Y102107D01*
X55898Y101583D01*
X56422Y101233D01*
X57040Y101110D01*
X57658Y101233D01*
X58183Y101583D01*
X58533Y102107D01*
X58656Y102725D01*
X58533Y103343D01*
X58183Y103867D01*
X57658Y104218D01*
X57040Y104340D01*
D02*
G37*
G36*
X53103D02*
X52485Y104218D01*
X51961Y103867D01*
X51611Y103343D01*
X51488Y102725D01*
X51611Y102107D01*
X51961Y101583D01*
X52485Y101233D01*
X53103Y101110D01*
X53721Y101233D01*
X54246Y101583D01*
X54596Y102107D01*
X54719Y102725D01*
X54596Y103343D01*
X54246Y103867D01*
X53721Y104218D01*
X53103Y104340D01*
D02*
G37*
G36*
X262117Y104319D02*
X261495Y104196D01*
X260968Y103843D01*
X260615Y103316D01*
X260492Y102694D01*
X260615Y102072D01*
X260968Y101545D01*
X261495Y101192D01*
X262117Y101069D01*
X262739Y101192D01*
X263266Y101545D01*
X263619Y102072D01*
X263742Y102694D01*
X263619Y103316D01*
X263266Y103843D01*
X262739Y104196D01*
X262117Y104319D01*
D02*
G37*
G36*
X216091Y106235D02*
X215469Y106111D01*
X214942Y105759D01*
X214590Y105231D01*
X214466Y104609D01*
X214590Y103987D01*
X214942Y103460D01*
X215354Y103184D01*
X215421Y102774D01*
X215398Y102612D01*
X215220Y102493D01*
X214867Y101966D01*
X214744Y101344D01*
X214867Y100722D01*
X215220Y100195D01*
X215747Y99842D01*
X216369Y99718D01*
X216991Y99842D01*
X217518Y100195D01*
X217871Y100722D01*
X217994Y101344D01*
X217871Y101966D01*
X217518Y102493D01*
X217106Y102769D01*
X217039Y103179D01*
X217062Y103341D01*
X217241Y103460D01*
X217593Y103987D01*
X217717Y104609D01*
X217593Y105231D01*
X217241Y105759D01*
X216713Y106111D01*
X216091Y106235D01*
D02*
G37*
G36*
X222778Y102838D02*
X222156Y102714D01*
X221629Y102362D01*
X221276Y101834D01*
X221153Y101212D01*
X221276Y100590D01*
X221629Y100063D01*
X222156Y99711D01*
X222778Y99587D01*
X223400Y99711D01*
X223927Y100063D01*
X224279Y100590D01*
X224403Y101212D01*
X224279Y101834D01*
X223927Y102362D01*
X223400Y102714D01*
X222778Y102838D01*
D02*
G37*
G36*
X13970Y106054D02*
X12996Y105926D01*
X12088Y105550D01*
X11309Y104952D01*
X10711Y104173D01*
X10335Y103266D01*
X10207Y102292D01*
X10335Y101318D01*
X10711Y100411D01*
X11309Y99632D01*
X12088Y99034D01*
X12996Y98658D01*
X13970Y98530D01*
X14943Y98658D01*
X15850Y99034D01*
X16630Y99632D01*
X17228Y100411D01*
X17603Y101318D01*
X17732Y102292D01*
X17603Y103266D01*
X17228Y104173D01*
X16630Y104952D01*
X15850Y105550D01*
X14943Y105926D01*
X13970Y106054D01*
D02*
G37*
G36*
X277689Y101105D02*
X277067Y100981D01*
X276540Y100629D01*
X276187Y100101D01*
X276064Y99479D01*
X276187Y98857D01*
X276540Y98330D01*
X277067Y97978D01*
X277689Y97854D01*
X278311Y97978D01*
X278838Y98330D01*
X279190Y98857D01*
X279314Y99479D01*
X279190Y100101D01*
X278838Y100629D01*
X278311Y100981D01*
X277689Y101105D01*
D02*
G37*
G36*
X358837Y104914D02*
X351535D01*
Y97612D01*
X358837D01*
Y104914D01*
D02*
G37*
G36*
X328837D02*
X321535D01*
Y97612D01*
X328837D01*
Y104914D01*
D02*
G37*
G36*
X345186Y104946D02*
X344233Y104820D01*
X343344Y104452D01*
X342582Y103867D01*
X341996Y103104D01*
X341629Y102216D01*
X341503Y101263D01*
X341629Y100310D01*
X341996Y99422D01*
X342582Y98659D01*
X343344Y98074D01*
X344233Y97706D01*
X345186Y97580D01*
X346139Y97706D01*
X347027Y98074D01*
X347790Y98659D01*
X348375Y99422D01*
X348743Y100310D01*
X348868Y101263D01*
X348743Y102216D01*
X348375Y103104D01*
X347790Y103867D01*
X347027Y104452D01*
X346139Y104820D01*
X345186Y104946D01*
D02*
G37*
G36*
X315186D02*
X314233Y104820D01*
X313344Y104452D01*
X312582Y103867D01*
X311996Y103104D01*
X311629Y102216D01*
X311503Y101263D01*
X311629Y100310D01*
X311996Y99422D01*
X312582Y98659D01*
X313344Y98074D01*
X314233Y97706D01*
X315186Y97580D01*
X316139Y97706D01*
X317027Y98074D01*
X317790Y98659D01*
X318375Y99422D01*
X318743Y100310D01*
X318868Y101263D01*
X318743Y102216D01*
X318375Y103104D01*
X317790Y103867D01*
X317027Y104452D01*
X316139Y104820D01*
X315186Y104946D01*
D02*
G37*
G36*
X60977Y100403D02*
X60359Y100280D01*
X59835Y99930D01*
X59485Y99406D01*
X59362Y98788D01*
X59485Y98170D01*
X59835Y97646D01*
X60359Y97296D01*
X60977Y97173D01*
X61595Y97296D01*
X62120Y97646D01*
X62470Y98170D01*
X62593Y98788D01*
X62470Y99406D01*
X62120Y99930D01*
X61595Y100280D01*
X60977Y100403D01*
D02*
G37*
G36*
X57040D02*
X56422Y100280D01*
X55898Y99930D01*
X55548Y99406D01*
X55425Y98788D01*
X55548Y98170D01*
X55898Y97646D01*
X56422Y97296D01*
X57040Y97173D01*
X57658Y97296D01*
X58183Y97646D01*
X58533Y98170D01*
X58656Y98788D01*
X58533Y99406D01*
X58183Y99930D01*
X57658Y100280D01*
X57040Y100403D01*
D02*
G37*
G36*
X53103D02*
X52485Y100280D01*
X51961Y99930D01*
X51611Y99406D01*
X51488Y98788D01*
X51611Y98170D01*
X51961Y97646D01*
X52485Y97296D01*
X53103Y97173D01*
X53721Y97296D01*
X54246Y97646D01*
X54596Y98170D01*
X54719Y98788D01*
X54596Y99406D01*
X54246Y99930D01*
X53721Y100280D01*
X53103Y100403D01*
D02*
G37*
G36*
X366879Y100034D02*
X366257Y99910D01*
X365729Y99558D01*
X365377Y99031D01*
X365253Y98409D01*
X365377Y97787D01*
X365729Y97259D01*
X366257Y96907D01*
X366879Y96783D01*
X367501Y96907D01*
X368028Y97259D01*
X368380Y97787D01*
X368504Y98409D01*
X368380Y99031D01*
X368028Y99558D01*
X367501Y99910D01*
X366879Y100034D01*
D02*
G37*
G36*
X388139Y99936D02*
X387516Y99812D01*
X386989Y99459D01*
X386637Y98932D01*
X386513Y98310D01*
X386637Y97688D01*
X386989Y97161D01*
X387516Y96808D01*
X388139Y96685D01*
X388760Y96808D01*
X389288Y97161D01*
X389640Y97688D01*
X389764Y98310D01*
X389640Y98932D01*
X389288Y99459D01*
X388760Y99812D01*
X388139Y99936D01*
D02*
G37*
G36*
X383808D02*
X383186Y99812D01*
X382659Y99459D01*
X382306Y98932D01*
X382183Y98310D01*
X382306Y97688D01*
X382659Y97161D01*
X383186Y96808D01*
X383808Y96685D01*
X384430Y96808D01*
X384957Y97161D01*
X385309Y97688D01*
X385433Y98310D01*
X385309Y98932D01*
X384957Y99459D01*
X384430Y99812D01*
X383808Y99936D01*
D02*
G37*
G36*
X262548Y98754D02*
X261926Y98631D01*
X261399Y98278D01*
X261046Y97751D01*
X260923Y97129D01*
X261046Y96507D01*
X261399Y95980D01*
X261926Y95627D01*
X262548Y95504D01*
X263170Y95627D01*
X263697Y95980D01*
X264050Y96507D01*
X264173Y97129D01*
X264050Y97751D01*
X263697Y98278D01*
X263170Y98631D01*
X262548Y98754D01*
D02*
G37*
G36*
X60977Y96466D02*
X60359Y96343D01*
X59835Y95993D01*
X59485Y95469D01*
X59362Y94851D01*
X59485Y94233D01*
X59835Y93709D01*
X60359Y93359D01*
X60977Y93236D01*
X61595Y93359D01*
X62120Y93709D01*
X62470Y94233D01*
X62593Y94851D01*
X62470Y95469D01*
X62120Y95993D01*
X61595Y96343D01*
X60977Y96466D01*
D02*
G37*
G36*
X57040D02*
X56422Y96343D01*
X55898Y95993D01*
X55548Y95469D01*
X55425Y94851D01*
X55548Y94233D01*
X55898Y93709D01*
X56422Y93359D01*
X57040Y93236D01*
X57658Y93359D01*
X58183Y93709D01*
X58533Y94233D01*
X58656Y94851D01*
X58533Y95469D01*
X58183Y95993D01*
X57658Y96343D01*
X57040Y96466D01*
D02*
G37*
G36*
X53103D02*
X52485Y96343D01*
X51961Y95993D01*
X51611Y95469D01*
X51488Y94851D01*
X51611Y94233D01*
X51961Y93709D01*
X52485Y93359D01*
X53103Y93236D01*
X53721Y93359D01*
X54246Y93709D01*
X54596Y94233D01*
X54719Y94851D01*
X54596Y95469D01*
X54246Y95993D01*
X53721Y96343D01*
X53103Y96466D01*
D02*
G37*
G36*
X370028Y96392D02*
X369406Y96268D01*
X368879Y95916D01*
X368527Y95389D01*
X368403Y94767D01*
X368527Y94145D01*
X368879Y93618D01*
X369406Y93265D01*
X370028Y93142D01*
X370650Y93265D01*
X371178Y93618D01*
X371530Y94145D01*
X371654Y94767D01*
X371530Y95389D01*
X371178Y95916D01*
X370650Y96268D01*
X370028Y96392D01*
D02*
G37*
G36*
X2788Y100660D02*
X1815Y100532D01*
X907Y100156D01*
X128Y99559D01*
X-470Y98779D01*
X-846Y97872D01*
X-974Y96898D01*
X-846Y95925D01*
X-470Y95017D01*
X128Y94238D01*
X907Y93640D01*
X1815Y93264D01*
X2788Y93136D01*
X3762Y93264D01*
X4669Y93640D01*
X5449Y94238D01*
X6046Y95017D01*
X6422Y95925D01*
X6550Y96898D01*
X6422Y97872D01*
X6046Y98779D01*
X5449Y99559D01*
X4669Y100156D01*
X3762Y100532D01*
X2788Y100660D01*
D02*
G37*
G36*
X322500Y96125D02*
X321878Y96001D01*
X321351Y95649D01*
X320999Y95122D01*
X320875Y94500D01*
X320999Y93878D01*
X321351Y93351D01*
X321878Y92999D01*
X322500Y92875D01*
X323122Y92999D01*
X323649Y93351D01*
X324001Y93878D01*
X324125Y94500D01*
X324001Y95122D01*
X323649Y95649D01*
X323122Y96001D01*
X322500Y96125D01*
D02*
G37*
G36*
X273493Y95683D02*
X272871Y95560D01*
X272344Y95207D01*
X271991Y94680D01*
X271867Y94058D01*
X271991Y93436D01*
X272344Y92909D01*
X272871Y92557D01*
X273493Y92433D01*
X274115Y92557D01*
X274642Y92909D01*
X274994Y93436D01*
X275118Y94058D01*
X274994Y94680D01*
X274642Y95207D01*
X274115Y95560D01*
X273493Y95683D01*
D02*
G37*
G36*
X486997Y111857D02*
X485017Y111662D01*
X483114Y111085D01*
X481359Y110147D01*
X479822Y108885D01*
X478560Y107347D01*
X477622Y105593D01*
X477045Y103690D01*
X476850Y101710D01*
X477045Y99731D01*
X477622Y97827D01*
X478560Y96073D01*
X479822Y94535D01*
X481359Y93273D01*
X483114Y92336D01*
X485017Y91758D01*
X486997Y91563D01*
X488976Y91758D01*
X490880Y92336D01*
X492634Y93273D01*
X494172Y94535D01*
X495434Y96073D01*
X496371Y97827D01*
X496949Y99731D01*
X497144Y101710D01*
X496949Y103690D01*
X496371Y105593D01*
X495434Y107347D01*
X494172Y108885D01*
X492634Y110147D01*
X490880Y111085D01*
X488976Y111662D01*
X486997Y111857D01*
D02*
G37*
G36*
X169896Y94108D02*
X169274Y93985D01*
X168747Y93632D01*
X168394Y93105D01*
X168271Y92483D01*
X168394Y91861D01*
X168747Y91334D01*
X169274Y90981D01*
X169896Y90858D01*
X170518Y90981D01*
X171045Y91334D01*
X171397Y91861D01*
X171521Y92483D01*
X171397Y93105D01*
X171045Y93632D01*
X170518Y93985D01*
X169896Y94108D01*
D02*
G37*
G36*
X367666Y92849D02*
X367044Y92725D01*
X366517Y92373D01*
X366164Y91846D01*
X366041Y91224D01*
X366164Y90601D01*
X366517Y90074D01*
X367044Y89722D01*
X367666Y89598D01*
X368288Y89722D01*
X368815Y90074D01*
X369168Y90601D01*
X369291Y91224D01*
X369168Y91846D01*
X368815Y92373D01*
X368288Y92725D01*
X367666Y92849D01*
D02*
G37*
G36*
X388139Y92061D02*
X387516Y91938D01*
X386989Y91585D01*
X386637Y91058D01*
X386513Y90436D01*
X386637Y89814D01*
X386989Y89287D01*
X387516Y88934D01*
X388139Y88811D01*
X388760Y88934D01*
X389288Y89287D01*
X389640Y89814D01*
X389764Y90436D01*
X389640Y91058D01*
X389288Y91585D01*
X388760Y91938D01*
X388139Y92061D01*
D02*
G37*
G36*
X173060Y91799D02*
X172438Y91676D01*
X171910Y91323D01*
X171558Y90796D01*
X171434Y90174D01*
X171558Y89552D01*
X171910Y89025D01*
X172438Y88672D01*
X173060Y88549D01*
X173682Y88672D01*
X174209Y89025D01*
X174561Y89552D01*
X174685Y90174D01*
X174561Y90796D01*
X174209Y91323D01*
X173682Y91676D01*
X173060Y91799D01*
D02*
G37*
G36*
X310329Y91125D02*
X309707Y91001D01*
X309180Y90649D01*
X308827Y90122D01*
X308704Y89500D01*
X308827Y88878D01*
X309180Y88351D01*
X309707Y87999D01*
X310329Y87875D01*
X310950Y87999D01*
X311477Y88351D01*
X311830Y88878D01*
X311953Y89500D01*
X311830Y90122D01*
X311477Y90649D01*
X310950Y91001D01*
X310329Y91125D01*
D02*
G37*
G36*
X13970Y95267D02*
X12996Y95139D01*
X12088Y94763D01*
X11309Y94165D01*
X10711Y93386D01*
X10335Y92478D01*
X10207Y91505D01*
X10335Y90531D01*
X10711Y89624D01*
X11309Y88844D01*
X12088Y88247D01*
X12996Y87871D01*
X13970Y87743D01*
X14943Y87871D01*
X15850Y88247D01*
X16630Y88844D01*
X17228Y89624D01*
X17603Y90531D01*
X17732Y91505D01*
X17603Y92478D01*
X17228Y93386D01*
X16630Y94165D01*
X15850Y94763D01*
X14943Y95139D01*
X13970Y95267D01*
D02*
G37*
G36*
X370422Y88912D02*
X369800Y88788D01*
X369273Y88436D01*
X368920Y87909D01*
X368797Y87287D01*
X368920Y86664D01*
X369273Y86137D01*
X369800Y85785D01*
X370422Y85661D01*
X371044Y85785D01*
X371571Y86137D01*
X371924Y86664D01*
X372047Y87287D01*
X371924Y87909D01*
X371571Y88436D01*
X371044Y88788D01*
X370422Y88912D01*
D02*
G37*
G36*
X385776Y88518D02*
X385154Y88394D01*
X384627Y88042D01*
X384275Y87515D01*
X384151Y86893D01*
X384275Y86271D01*
X384627Y85743D01*
X385154Y85391D01*
X385776Y85268D01*
X386398Y85391D01*
X386926Y85743D01*
X387278Y86271D01*
X387402Y86893D01*
X387278Y87515D01*
X386926Y88042D01*
X386398Y88394D01*
X385776Y88518D01*
D02*
G37*
G36*
X62988Y87354D02*
X62366Y87230D01*
X61839Y86878D01*
X61487Y86351D01*
X61363Y85729D01*
X61487Y85107D01*
X61839Y84579D01*
X62366Y84227D01*
X62988Y84104D01*
X63610Y84227D01*
X64137Y84579D01*
X64490Y85107D01*
X64613Y85729D01*
X64490Y86351D01*
X64137Y86878D01*
X63610Y87230D01*
X62988Y87354D01*
D02*
G37*
G36*
X2788Y89873D02*
X1815Y89745D01*
X907Y89369D01*
X128Y88771D01*
X-470Y87992D01*
X-846Y87085D01*
X-974Y86111D01*
X-846Y85137D01*
X-470Y84230D01*
X128Y83451D01*
X907Y82853D01*
X1815Y82477D01*
X2788Y82349D01*
X3762Y82477D01*
X4669Y82853D01*
X5449Y83451D01*
X6046Y84230D01*
X6422Y85137D01*
X6550Y86111D01*
X6422Y87085D01*
X6046Y87992D01*
X5449Y88771D01*
X4669Y89369D01*
X3762Y89745D01*
X2788Y89873D01*
D02*
G37*
G36*
X56257Y86690D02*
X55635Y86566D01*
X55108Y86214D01*
X54755Y85686D01*
X54632Y85064D01*
X54755Y84442D01*
X55003Y84071D01*
X54870Y83599D01*
X54814Y83524D01*
X54757Y83513D01*
X54230Y83160D01*
X53878Y82633D01*
X53808Y82284D01*
X53278Y82180D01*
X53039Y82537D01*
X52512Y82889D01*
X51890Y83013D01*
X51268Y82889D01*
X50741Y82537D01*
X50543Y82241D01*
X50198Y82057D01*
X49913Y82129D01*
X49572Y82357D01*
X48950Y82481D01*
X48328Y82357D01*
X47800Y82005D01*
X47448Y81477D01*
X47324Y80855D01*
X47448Y80234D01*
X47800Y79706D01*
X48328Y79354D01*
X48950Y79230D01*
X49572Y79354D01*
X50099Y79706D01*
X50297Y80003D01*
X50642Y80186D01*
X50927Y80114D01*
X51268Y79886D01*
X51890Y79763D01*
X52512Y79886D01*
X53039Y80239D01*
X53392Y80766D01*
X53461Y81115D01*
X53992Y81218D01*
X54230Y80862D01*
X54757Y80510D01*
X55379Y80386D01*
X56001Y80510D01*
X56528Y80862D01*
X56881Y81389D01*
X57004Y82011D01*
X56881Y82633D01*
X56633Y83004D01*
X56766Y83477D01*
X56823Y83552D01*
X56879Y83563D01*
X57406Y83915D01*
X57759Y84442D01*
X57882Y85064D01*
X57759Y85686D01*
X57406Y86214D01*
X56879Y86566D01*
X56257Y86690D01*
D02*
G37*
G36*
X367666Y85369D02*
X367044Y85245D01*
X366517Y84892D01*
X366164Y84365D01*
X366041Y83743D01*
X366164Y83121D01*
X366517Y82594D01*
X367044Y82242D01*
X367666Y82118D01*
X368288Y82242D01*
X368815Y82594D01*
X369168Y83121D01*
X369291Y83743D01*
X369168Y84365D01*
X368815Y84892D01*
X368288Y85245D01*
X367666Y85369D01*
D02*
G37*
G36*
X388139Y84975D02*
X387516Y84851D01*
X386989Y84499D01*
X386637Y83972D01*
X386513Y83350D01*
X386637Y82727D01*
X386989Y82200D01*
X387516Y81848D01*
X388139Y81724D01*
X388760Y81848D01*
X389288Y82200D01*
X389640Y82727D01*
X389764Y83350D01*
X389640Y83972D01*
X389288Y84499D01*
X388760Y84851D01*
X388139Y84975D01*
D02*
G37*
G36*
X261734Y89847D02*
X261112Y89723D01*
X260585Y89371D01*
X260233Y88844D01*
X260109Y88222D01*
X260233Y87600D01*
X260585Y87072D01*
X260739Y86970D01*
X260769Y86388D01*
X260416Y85861D01*
X260293Y85239D01*
X260416Y84617D01*
X260769Y84090D01*
X261124Y83852D01*
X261287Y83599D01*
X261263Y83235D01*
X261042Y82904D01*
X260918Y82282D01*
X261042Y81660D01*
X261394Y81133D01*
X261922Y80781D01*
X262544Y80657D01*
X263166Y80781D01*
X263693Y81133D01*
X264045Y81660D01*
X264169Y82282D01*
X264045Y82904D01*
X263693Y83432D01*
X263337Y83669D01*
X263175Y83922D01*
X263199Y84287D01*
X263420Y84617D01*
X263543Y85239D01*
X263420Y85861D01*
X263067Y86388D01*
X262914Y86491D01*
X262884Y87073D01*
X263236Y87600D01*
X263360Y88222D01*
X263236Y88844D01*
X262884Y89371D01*
X262356Y89723D01*
X261734Y89847D01*
D02*
G37*
G36*
X311823Y81125D02*
X311201Y81001D01*
X310674Y80649D01*
X310322Y80122D01*
X310198Y79500D01*
X310322Y78878D01*
X310674Y78351D01*
X311201Y77999D01*
X311823Y77875D01*
X312445Y77999D01*
X312972Y78351D01*
X313324Y78878D01*
X313448Y79500D01*
X313324Y80122D01*
X312972Y80649D01*
X312445Y81001D01*
X311823Y81125D01*
D02*
G37*
G36*
X13970Y84479D02*
X12996Y84351D01*
X12088Y83975D01*
X11309Y83377D01*
X10711Y82598D01*
X10335Y81691D01*
X10207Y80717D01*
X10335Y79743D01*
X10711Y78836D01*
X11309Y78057D01*
X12088Y77459D01*
X12996Y77083D01*
X13970Y76955D01*
X14943Y77083D01*
X15850Y77459D01*
X16630Y78057D01*
X17228Y78836D01*
X17603Y79743D01*
X17732Y80717D01*
X17603Y81691D01*
X17228Y82598D01*
X16630Y83377D01*
X15850Y83975D01*
X14943Y84351D01*
X13970Y84479D01*
D02*
G37*
G36*
X177755Y76661D02*
X177133Y76538D01*
X176605Y76185D01*
X176253Y75658D01*
X176129Y75036D01*
X176253Y74414D01*
X176602Y73892D01*
X176605Y73885D01*
X176565Y73312D01*
X176284Y73125D01*
X175932Y72597D01*
X175902Y72448D01*
X175346Y72218D01*
X175345Y72219D01*
X175067Y72274D01*
X174756Y72679D01*
X174768Y72804D01*
X174869Y73314D01*
X174746Y73936D01*
X174393Y74463D01*
X173866Y74815D01*
X173244Y74939D01*
X172623Y74815D01*
X172095Y74463D01*
X171743Y73936D01*
X171619Y73314D01*
X171743Y72692D01*
X172095Y72165D01*
X172623Y71813D01*
X172900Y71758D01*
X172995Y71634D01*
X173196Y71209D01*
X173098Y70717D01*
X173170Y70353D01*
X172784Y69920D01*
X172162Y69797D01*
X171635Y69444D01*
X171283Y68917D01*
X171159Y68295D01*
X171283Y67673D01*
X171635Y67146D01*
X172162Y66793D01*
X172784Y66670D01*
X173406Y66793D01*
X173933Y67146D01*
X174286Y67673D01*
X174409Y68295D01*
X174337Y68659D01*
X174723Y69092D01*
X175345Y69216D01*
X175872Y69568D01*
X176225Y70095D01*
X176254Y70245D01*
X176810Y70475D01*
X176811Y70474D01*
X177433Y70350D01*
X178055Y70474D01*
X178583Y70826D01*
X178935Y71354D01*
X179059Y71975D01*
X178935Y72597D01*
X178586Y73119D01*
X178583Y73126D01*
X178623Y73699D01*
X178904Y73887D01*
X179256Y74414D01*
X179380Y75036D01*
X179256Y75658D01*
X178904Y76185D01*
X178377Y76538D01*
X177755Y76661D01*
D02*
G37*
G36*
X359005Y75393D02*
X358383Y75269D01*
X357855Y74917D01*
X357503Y74389D01*
X357379Y73767D01*
X357503Y73145D01*
X357855Y72618D01*
X358383Y72266D01*
X359005Y72142D01*
X359627Y72266D01*
X360154Y72618D01*
X360506Y73145D01*
X360630Y73767D01*
X360506Y74389D01*
X360154Y74917D01*
X359627Y75269D01*
X359005Y75393D01*
D02*
G37*
G36*
X353971D02*
X353349Y75269D01*
X352822Y74917D01*
X352469Y74389D01*
X352346Y73767D01*
X352469Y73145D01*
X352822Y72618D01*
X353349Y72266D01*
X353971Y72142D01*
X354593Y72266D01*
X355120Y72618D01*
X355473Y73145D01*
X355596Y73767D01*
X355473Y74389D01*
X355120Y74917D01*
X354593Y75269D01*
X353971Y75393D01*
D02*
G37*
G36*
X344067Y74995D02*
X343445Y74871D01*
X342917Y74519D01*
X342565Y73992D01*
X342441Y73370D01*
X342565Y72748D01*
X342917Y72220D01*
X343445Y71868D01*
X344067Y71744D01*
X344689Y71868D01*
X345216Y72220D01*
X345568Y72748D01*
X345692Y73370D01*
X345568Y73992D01*
X345216Y74519D01*
X344689Y74871D01*
X344067Y74995D01*
D02*
G37*
G36*
X2788Y79086D02*
X1815Y78957D01*
X907Y78582D01*
X128Y77984D01*
X-470Y77205D01*
X-846Y76297D01*
X-974Y75323D01*
X-846Y74350D01*
X-470Y73443D01*
X128Y72663D01*
X907Y72065D01*
X1815Y71690D01*
X2788Y71561D01*
X3762Y71690D01*
X4669Y72065D01*
X5449Y72663D01*
X6046Y73443D01*
X6422Y74350D01*
X6550Y75323D01*
X6422Y76297D01*
X6046Y77205D01*
X5449Y77984D01*
X4669Y78582D01*
X3762Y78957D01*
X2788Y79086D01*
D02*
G37*
G36*
X485129Y77843D02*
X477664D01*
Y70377D01*
X485129D01*
Y77843D01*
D02*
G37*
G36*
X60899Y72333D02*
X60280Y72210D01*
X59756Y71859D01*
X59406Y71335D01*
X59283Y70717D01*
X59406Y70099D01*
X59756Y69575D01*
X60280Y69225D01*
X60899Y69102D01*
X61517Y69225D01*
X62041Y69575D01*
X62391Y70099D01*
X62514Y70717D01*
X62391Y71335D01*
X62041Y71859D01*
X61517Y72210D01*
X60899Y72333D01*
D02*
G37*
G36*
X56962D02*
X56343Y72210D01*
X55819Y71859D01*
X55469Y71335D01*
X55346Y70717D01*
X55469Y70099D01*
X55819Y69575D01*
X56343Y69225D01*
X56962Y69102D01*
X57580Y69225D01*
X58104Y69575D01*
X58454Y70099D01*
X58577Y70717D01*
X58454Y71335D01*
X58104Y71859D01*
X57580Y72210D01*
X56962Y72333D01*
D02*
G37*
G36*
X53025D02*
X52406Y72210D01*
X51882Y71859D01*
X51532Y71335D01*
X51409Y70717D01*
X51532Y70099D01*
X51882Y69575D01*
X52406Y69225D01*
X53025Y69102D01*
X53643Y69225D01*
X54167Y69575D01*
X54517Y70099D01*
X54640Y70717D01*
X54517Y71335D01*
X54167Y71859D01*
X53643Y72210D01*
X53025Y72333D01*
D02*
G37*
G36*
X131000Y71625D02*
X130378Y71502D01*
X129851Y71149D01*
X129498Y70622D01*
X129375Y70000D01*
X129498Y69378D01*
X129851Y68851D01*
X130378Y68498D01*
X131000Y68375D01*
X131622Y68498D01*
X132149Y68851D01*
X132502Y69378D01*
X132625Y70000D01*
X132502Y70622D01*
X132149Y71149D01*
X131622Y71502D01*
X131000Y71625D01*
D02*
G37*
G36*
X121000D02*
X120378Y71502D01*
X119851Y71149D01*
X119498Y70622D01*
X119375Y70000D01*
X119498Y69378D01*
X119851Y68851D01*
X120378Y68498D01*
X121000Y68375D01*
X121622Y68498D01*
X122149Y68851D01*
X122502Y69378D01*
X122625Y70000D01*
X122502Y70622D01*
X122149Y71149D01*
X121622Y71502D01*
X121000Y71625D01*
D02*
G37*
G36*
X125906Y71568D02*
X125284Y71445D01*
X124757Y71092D01*
X124404Y70565D01*
X124280Y69943D01*
X124404Y69321D01*
X124757Y68794D01*
X125284Y68441D01*
X125906Y68318D01*
X126528Y68441D01*
X127055Y68794D01*
X127407Y69321D01*
X127531Y69943D01*
X127407Y70565D01*
X127055Y71092D01*
X126528Y71445D01*
X125906Y71568D01*
D02*
G37*
G36*
X316378Y71271D02*
X315756Y71147D01*
X315229Y70795D01*
X314877Y70267D01*
X314753Y69646D01*
X314877Y69024D01*
X315229Y68497D01*
X315756Y68144D01*
X316378Y68021D01*
X317000Y68144D01*
X317527Y68497D01*
X317879Y69024D01*
X318003Y69646D01*
X317879Y70267D01*
X317527Y70795D01*
X317000Y71147D01*
X316378Y71271D01*
D02*
G37*
G36*
X13970Y73692D02*
X12996Y73564D01*
X12088Y73188D01*
X11309Y72590D01*
X10711Y71811D01*
X10335Y70903D01*
X10207Y69930D01*
X10335Y68956D01*
X10711Y68049D01*
X11309Y67270D01*
X12088Y66672D01*
X12996Y66296D01*
X13970Y66168D01*
X14943Y66296D01*
X15850Y66672D01*
X16630Y67270D01*
X17228Y68049D01*
X17603Y68956D01*
X17732Y69930D01*
X17603Y70903D01*
X17228Y71811D01*
X16630Y72590D01*
X15850Y73188D01*
X14943Y73564D01*
X13970Y73692D01*
D02*
G37*
G36*
X322500Y69125D02*
X321878Y69001D01*
X321351Y68649D01*
X320999Y68122D01*
X320875Y67500D01*
X320999Y66878D01*
X321351Y66351D01*
X321878Y65999D01*
X322500Y65875D01*
X323122Y65999D01*
X323649Y66351D01*
X324001Y66878D01*
X324125Y67500D01*
X324001Y68122D01*
X323649Y68649D01*
X323122Y69001D01*
X322500Y69125D01*
D02*
G37*
G36*
X306345Y71880D02*
X305723Y71756D01*
X305196Y71404D01*
X304843Y70876D01*
X304720Y70255D01*
X304843Y69633D01*
X305196Y69106D01*
X305347Y69005D01*
X305359Y68806D01*
X305289Y68442D01*
X304851Y68149D01*
X304499Y67622D01*
X304375Y67000D01*
X304499Y66378D01*
X304851Y65851D01*
X305378Y65499D01*
X306000Y65375D01*
X306622Y65499D01*
X307149Y65851D01*
X307501Y66378D01*
X307625Y67000D01*
X307501Y67622D01*
X307149Y68149D01*
X306998Y68250D01*
X306985Y68448D01*
X307055Y68813D01*
X307493Y69106D01*
X307846Y69633D01*
X307969Y70255D01*
X307846Y70876D01*
X307493Y71404D01*
X306966Y71756D01*
X306345Y71880D01*
D02*
G37*
G36*
X60899Y68396D02*
X60280Y68273D01*
X59756Y67922D01*
X59406Y67398D01*
X59283Y66780D01*
X59406Y66162D01*
X59756Y65638D01*
X60280Y65288D01*
X60899Y65165D01*
X61517Y65288D01*
X62041Y65638D01*
X62391Y66162D01*
X62514Y66780D01*
X62391Y67398D01*
X62041Y67922D01*
X61517Y68273D01*
X60899Y68396D01*
D02*
G37*
G36*
X56962D02*
X56343Y68273D01*
X55819Y67922D01*
X55469Y67398D01*
X55346Y66780D01*
X55469Y66162D01*
X55819Y65638D01*
X56343Y65288D01*
X56962Y65165D01*
X57580Y65288D01*
X58104Y65638D01*
X58454Y66162D01*
X58577Y66780D01*
X58454Y67398D01*
X58104Y67922D01*
X57580Y68273D01*
X56962Y68396D01*
D02*
G37*
G36*
X53025D02*
X52406Y68273D01*
X51882Y67922D01*
X51532Y67398D01*
X51409Y66780D01*
X51532Y66162D01*
X51882Y65638D01*
X52406Y65288D01*
X53025Y65165D01*
X53643Y65288D01*
X54167Y65638D01*
X54517Y66162D01*
X54640Y66780D01*
X54517Y67398D01*
X54167Y67922D01*
X53643Y68273D01*
X53025Y68396D01*
D02*
G37*
G36*
X176047Y67752D02*
X175425Y67628D01*
X174897Y67276D01*
X174545Y66748D01*
X174421Y66126D01*
X174545Y65504D01*
X174621Y65390D01*
X174261Y65029D01*
X174231Y65050D01*
X173609Y65174D01*
X172986Y65050D01*
X172459Y64697D01*
X172107Y64170D01*
X171983Y63548D01*
X172107Y62926D01*
X172459Y62399D01*
X172986Y62046D01*
X173609Y61923D01*
X174231Y62046D01*
X174758Y62399D01*
X175110Y62926D01*
X175234Y63548D01*
X175110Y64170D01*
X175034Y64285D01*
X175394Y64645D01*
X175425Y64625D01*
X176047Y64501D01*
X176669Y64625D01*
X177196Y64977D01*
X177548Y65504D01*
X177672Y66126D01*
X177548Y66748D01*
X177196Y67276D01*
X176669Y67628D01*
X176047Y67752D01*
D02*
G37*
G36*
X60899Y64459D02*
X60280Y64336D01*
X59756Y63985D01*
X59406Y63461D01*
X59283Y62843D01*
X59406Y62225D01*
X59756Y61701D01*
X60280Y61351D01*
X60899Y61228D01*
X61517Y61351D01*
X62041Y61701D01*
X62391Y62225D01*
X62514Y62843D01*
X62391Y63461D01*
X62041Y63985D01*
X61517Y64336D01*
X60899Y64459D01*
D02*
G37*
G36*
X56962D02*
X56343Y64336D01*
X55819Y63985D01*
X55469Y63461D01*
X55346Y62843D01*
X55469Y62225D01*
X55819Y61701D01*
X56343Y61351D01*
X56962Y61228D01*
X57580Y61351D01*
X58104Y61701D01*
X58454Y62225D01*
X58577Y62843D01*
X58454Y63461D01*
X58104Y63985D01*
X57580Y64336D01*
X56962Y64459D01*
D02*
G37*
G36*
X53025D02*
X52406Y64336D01*
X51882Y63985D01*
X51532Y63461D01*
X51409Y62843D01*
X51532Y62225D01*
X51882Y61701D01*
X52406Y61351D01*
X53025Y61228D01*
X53643Y61351D01*
X54167Y61701D01*
X54517Y62225D01*
X54640Y62843D01*
X54517Y63461D01*
X54167Y63985D01*
X53643Y64336D01*
X53025Y64459D01*
D02*
G37*
G36*
X287193Y64109D02*
X286572Y63985D01*
X286044Y63633D01*
X285692Y63105D01*
X285568Y62483D01*
X285692Y61861D01*
X286044Y61334D01*
X286572Y60982D01*
X287193Y60858D01*
X287815Y60982D01*
X288343Y61334D01*
X288695Y61861D01*
X288819Y62483D01*
X288695Y63105D01*
X288343Y63633D01*
X287815Y63985D01*
X287193Y64109D01*
D02*
G37*
G36*
X2788Y68298D02*
X1815Y68170D01*
X907Y67794D01*
X128Y67196D01*
X-470Y66417D01*
X-846Y65510D01*
X-974Y64536D01*
X-846Y63562D01*
X-470Y62655D01*
X128Y61876D01*
X907Y61278D01*
X1815Y60902D01*
X2788Y60774D01*
X3762Y60902D01*
X4669Y61278D01*
X5449Y61876D01*
X6046Y62655D01*
X6422Y63562D01*
X6550Y64536D01*
X6422Y65510D01*
X6046Y66417D01*
X5449Y67196D01*
X4669Y67794D01*
X3762Y68170D01*
X2788Y68298D01*
D02*
G37*
G36*
X169877Y61248D02*
X169255Y61125D01*
X168728Y60772D01*
X168627Y60621D01*
X168025D01*
X167958Y60721D01*
X167431Y61073D01*
X166809Y61197D01*
X166188Y61073D01*
X165660Y60721D01*
X165308Y60194D01*
X165184Y59572D01*
X165308Y58950D01*
X165660Y58423D01*
X166188Y58071D01*
X166809Y57947D01*
X167431Y58071D01*
X167958Y58423D01*
X168059Y58574D01*
X168661D01*
X168728Y58474D01*
X169255Y58122D01*
X169877Y57998D01*
X170499Y58122D01*
X171026Y58474D01*
X171378Y59001D01*
X171502Y59623D01*
X171378Y60245D01*
X171026Y60772D01*
X170499Y61125D01*
X169877Y61248D01*
D02*
G37*
G36*
X481397Y67075D02*
X480422Y66947D01*
X479514Y66571D01*
X478735Y65972D01*
X478136Y65193D01*
X477760Y64285D01*
X477632Y63310D01*
X477760Y62336D01*
X478136Y61428D01*
X478735Y60648D01*
X479514Y60050D01*
X480422Y59674D01*
X481397Y59545D01*
X482371Y59674D01*
X483279Y60050D01*
X484059Y60648D01*
X484657Y61428D01*
X485033Y62336D01*
X485162Y63310D01*
X485033Y64285D01*
X484657Y65193D01*
X484059Y65972D01*
X483279Y66571D01*
X482371Y66947D01*
X481397Y67075D01*
D02*
G37*
G36*
X307000Y62625D02*
X306378Y62501D01*
X305851Y62149D01*
X305499Y61622D01*
X305375Y61000D01*
X305499Y60378D01*
X305851Y59851D01*
X306378Y59499D01*
X307000Y59375D01*
X307622Y59499D01*
X308149Y59851D01*
X308501Y60378D01*
X308625Y61000D01*
X308501Y61622D01*
X308149Y62149D01*
X307622Y62501D01*
X307000Y62625D01*
D02*
G37*
G36*
X447194Y62534D02*
X446572Y62410D01*
X446044Y62058D01*
X445692Y61531D01*
X445568Y60909D01*
X445692Y60287D01*
X446044Y59759D01*
X446572Y59407D01*
X447194Y59283D01*
X447816Y59407D01*
X448343Y59759D01*
X448695Y60287D01*
X448819Y60909D01*
X448695Y61531D01*
X448343Y62058D01*
X447816Y62410D01*
X447194Y62534D01*
D02*
G37*
G36*
X443257D02*
X442635Y62410D01*
X442107Y62058D01*
X441755Y61531D01*
X441631Y60909D01*
X441755Y60287D01*
X442107Y59759D01*
X442635Y59407D01*
X443257Y59283D01*
X443879Y59407D01*
X444406Y59759D01*
X444758Y60287D01*
X444882Y60909D01*
X444758Y61531D01*
X444406Y62058D01*
X443879Y62410D01*
X443257Y62534D01*
D02*
G37*
G36*
X439320D02*
X438698Y62410D01*
X438170Y62058D01*
X437818Y61531D01*
X437694Y60909D01*
X437818Y60287D01*
X438170Y59759D01*
X438698Y59407D01*
X439320Y59283D01*
X439942Y59407D01*
X440469Y59759D01*
X440821Y60287D01*
X440945Y60909D01*
X440821Y61531D01*
X440469Y62058D01*
X439942Y62410D01*
X439320Y62534D01*
D02*
G37*
G36*
X357823Y61747D02*
X357202Y61623D01*
X356674Y61270D01*
X356322Y60743D01*
X356198Y60121D01*
X356322Y59499D01*
X356674Y58972D01*
X357202Y58620D01*
X357823Y58496D01*
X358446Y58620D01*
X358973Y58972D01*
X359325Y59499D01*
X359449Y60121D01*
X359325Y60743D01*
X358973Y61270D01*
X358446Y61623D01*
X357823Y61747D01*
D02*
G37*
G36*
X262843Y65782D02*
X262221Y65658D01*
X261694Y65306D01*
X261342Y64779D01*
X261218Y64157D01*
X261342Y63535D01*
X261694Y63007D01*
X261619Y62456D01*
X261415Y62319D01*
X261063Y61792D01*
X260939Y61170D01*
X261063Y60548D01*
X261415Y60021D01*
X261942Y59668D01*
X262313Y59595D01*
X262419Y59064D01*
X262186Y58908D01*
X261834Y58381D01*
X261710Y57759D01*
X261834Y57137D01*
X262186Y56610D01*
X262713Y56257D01*
X263335Y56134D01*
X263957Y56257D01*
X264485Y56610D01*
X264837Y57137D01*
X264961Y57759D01*
X264837Y58381D01*
X264485Y58908D01*
X263957Y59261D01*
X263586Y59334D01*
X263481Y59865D01*
X263714Y60021D01*
X264066Y60548D01*
X264190Y61170D01*
X264066Y61792D01*
X263714Y62319D01*
X263788Y62871D01*
X263993Y63007D01*
X264345Y63535D01*
X264469Y64157D01*
X264345Y64779D01*
X263993Y65306D01*
X263465Y65658D01*
X262843Y65782D01*
D02*
G37*
G36*
X312000Y59125D02*
X311378Y59001D01*
X310851Y58649D01*
X310499Y58122D01*
X310375Y57500D01*
X310499Y56878D01*
X310851Y56351D01*
X311378Y55999D01*
X312000Y55875D01*
X312622Y55999D01*
X313149Y56351D01*
X313501Y56878D01*
X313625Y57500D01*
X313501Y58122D01*
X313149Y58649D01*
X312622Y59001D01*
X312000Y59125D01*
D02*
G37*
G36*
X17699Y62872D02*
X10239D01*
Y55413D01*
X17699D01*
Y62872D01*
D02*
G37*
G36*
X367336Y57225D02*
X366714Y57101D01*
X366187Y56749D01*
X365834Y56221D01*
X365711Y55599D01*
X365834Y54977D01*
X366187Y54450D01*
X366714Y54098D01*
X367336Y53974D01*
X367958Y54098D01*
X368485Y54450D01*
X368838Y54977D01*
X368961Y55599D01*
X368838Y56221D01*
X368485Y56749D01*
X367958Y57101D01*
X367336Y57225D01*
D02*
G37*
G36*
X60853Y55484D02*
X60231Y55360D01*
X59704Y55008D01*
X59352Y54481D01*
X59263Y54034D01*
X59228Y53859D01*
X58740Y53771D01*
X58676Y54090D01*
X58324Y54617D01*
X57797Y54970D01*
X57175Y55093D01*
X56553Y54970D01*
X56025Y54617D01*
X55967Y54530D01*
X55365D01*
X55207Y54766D01*
X54680Y55118D01*
X54058Y55242D01*
X53436Y55118D01*
X52909Y54766D01*
X52557Y54239D01*
X52433Y53617D01*
X52557Y52995D01*
X52909Y52468D01*
X53436Y52115D01*
X54058Y51991D01*
X54680Y52115D01*
X55207Y52468D01*
X55266Y52555D01*
X55867D01*
X56025Y52319D01*
X56553Y51966D01*
X57175Y51843D01*
X57797Y51966D01*
X58324Y52319D01*
X58676Y52846D01*
X58765Y53293D01*
X58800Y53468D01*
X59288Y53556D01*
X59352Y53237D01*
X59704Y52710D01*
X60231Y52357D01*
X60853Y52233D01*
X61475Y52357D01*
X62003Y52710D01*
X62355Y53237D01*
X62479Y53859D01*
X62355Y54481D01*
X62003Y55008D01*
X61475Y55360D01*
X60853Y55484D01*
D02*
G37*
G36*
X388926Y55054D02*
X388304Y54930D01*
X387777Y54577D01*
X387424Y54050D01*
X387301Y53428D01*
X387424Y52806D01*
X387777Y52279D01*
X388304Y51927D01*
X388926Y51803D01*
X389548Y51927D01*
X390075Y52279D01*
X390427Y52806D01*
X390551Y53428D01*
X390427Y54050D01*
X390075Y54577D01*
X389548Y54930D01*
X388926Y55054D01*
D02*
G37*
G36*
X333354Y54125D02*
X332733Y54001D01*
X332205Y53649D01*
X331853Y53122D01*
X331729Y52500D01*
X331853Y51878D01*
X332205Y51351D01*
X332733Y50999D01*
X333354Y50875D01*
X333976Y50999D01*
X334503Y51351D01*
X334856Y51878D01*
X334979Y52500D01*
X334856Y53122D01*
X334503Y53649D01*
X333976Y54001D01*
X333354Y54125D01*
D02*
G37*
G36*
X312000D02*
X311378Y54001D01*
X310851Y53649D01*
X310499Y53122D01*
X310375Y52500D01*
X310499Y51878D01*
X310851Y51351D01*
X311378Y50999D01*
X312000Y50875D01*
X312622Y50999D01*
X313149Y51351D01*
X313501Y51878D01*
X313625Y52500D01*
X313501Y53122D01*
X313149Y53649D01*
X312622Y54001D01*
X312000Y54125D01*
D02*
G37*
G36*
X370486Y53583D02*
X369864Y53459D01*
X369336Y53107D01*
X368984Y52579D01*
X368860Y51958D01*
X368984Y51336D01*
X369336Y50808D01*
X369864Y50456D01*
X370486Y50332D01*
X371108Y50456D01*
X371635Y50808D01*
X371987Y51336D01*
X372111Y51958D01*
X371987Y52579D01*
X371635Y53107D01*
X371108Y53459D01*
X370486Y53583D01*
D02*
G37*
G36*
X307365Y53380D02*
X306743Y53256D01*
X306216Y52904D01*
X305864Y52377D01*
X305740Y51755D01*
X305864Y51133D01*
X306216Y50606D01*
X306743Y50254D01*
X307365Y50130D01*
X307987Y50254D01*
X308514Y50606D01*
X308867Y51133D01*
X308990Y51755D01*
X308867Y52377D01*
X308514Y52904D01*
X307987Y53256D01*
X307365Y53380D01*
D02*
G37*
G36*
X272489Y53380D02*
X271867Y53257D01*
X271340Y52904D01*
X270987Y52377D01*
X270864Y51755D01*
X270987Y51133D01*
X271340Y50606D01*
X271867Y50253D01*
X272489Y50130D01*
X273111Y50253D01*
X273638Y50606D01*
X273991Y51133D01*
X274114Y51755D01*
X273991Y52377D01*
X273638Y52904D01*
X273111Y53257D01*
X272489Y53380D01*
D02*
G37*
G36*
X386170Y52298D02*
X385548Y52174D01*
X385021Y51822D01*
X384668Y51294D01*
X384545Y50672D01*
X384668Y50050D01*
X385021Y49523D01*
X385548Y49171D01*
X386170Y49047D01*
X386792Y49171D01*
X387319Y49523D01*
X387672Y50050D01*
X387795Y50672D01*
X387672Y51294D01*
X387319Y51822D01*
X386792Y52174D01*
X386170Y52298D01*
D02*
G37*
G36*
X481397Y56275D02*
X480422Y56147D01*
X479514Y55771D01*
X478735Y55172D01*
X478136Y54393D01*
X477760Y53485D01*
X477632Y52510D01*
X477760Y51536D01*
X478136Y50628D01*
X478735Y49848D01*
X479514Y49250D01*
X480422Y48873D01*
X481397Y48745D01*
X482371Y48873D01*
X483279Y49250D01*
X484059Y49848D01*
X484657Y50628D01*
X485033Y51536D01*
X485162Y52510D01*
X485033Y53485D01*
X484657Y54393D01*
X484059Y55172D01*
X483279Y55771D01*
X482371Y56147D01*
X481397Y56275D01*
D02*
G37*
G36*
X121500Y51625D02*
X120878Y51501D01*
X120351Y51149D01*
X119999Y50622D01*
X119875Y50000D01*
X119999Y49378D01*
X120351Y48851D01*
X120878Y48499D01*
X121500Y48375D01*
X122122Y48499D01*
X122649Y48851D01*
X123001Y49378D01*
X123125Y50000D01*
X123001Y50622D01*
X122649Y51149D01*
X122122Y51501D01*
X121500Y51625D01*
D02*
G37*
G36*
X131000Y51625D02*
X130378Y51502D01*
X129851Y51149D01*
X129498Y50622D01*
X129375Y50000D01*
X129498Y49378D01*
X129851Y48851D01*
X130378Y48498D01*
X131000Y48375D01*
X131622Y48498D01*
X132149Y48851D01*
X132502Y49378D01*
X132625Y50000D01*
X132502Y50622D01*
X132149Y51149D01*
X131622Y51502D01*
X131000Y51625D01*
D02*
G37*
G36*
X139634Y51440D02*
X139013Y51316D01*
X138485Y50964D01*
X138133Y50437D01*
X138010Y49815D01*
X138133Y49193D01*
X138485Y48666D01*
X139013Y48314D01*
X139634Y48190D01*
X140256Y48314D01*
X140783Y48666D01*
X141136Y49193D01*
X141259Y49815D01*
X141136Y50437D01*
X140783Y50964D01*
X140256Y51316D01*
X139634Y51440D01*
D02*
G37*
G36*
X337790Y49935D02*
X337168Y49812D01*
X336641Y49459D01*
X336288Y48932D01*
X336165Y48310D01*
X336288Y47688D01*
X336641Y47161D01*
X337168Y46808D01*
X337790Y46685D01*
X338412Y46808D01*
X338939Y47161D01*
X339292Y47688D01*
X339415Y48310D01*
X339292Y48932D01*
X338939Y49459D01*
X338412Y49812D01*
X337790Y49935D01*
D02*
G37*
G36*
X52483Y49600D02*
X51861Y49477D01*
X51333Y49124D01*
X50981Y48597D01*
X50858Y47975D01*
X50981Y47353D01*
X51333Y46826D01*
X51861Y46474D01*
X52483Y46350D01*
X53105Y46474D01*
X53632Y46826D01*
X53984Y47353D01*
X54108Y47975D01*
X53984Y48597D01*
X53632Y49124D01*
X53105Y49477D01*
X52483Y49600D01*
D02*
G37*
G36*
X388596Y49252D02*
X387974Y49128D01*
X387446Y48776D01*
X387094Y48249D01*
X386970Y47627D01*
X387094Y47005D01*
X387446Y46478D01*
X387974Y46125D01*
X388596Y46001D01*
X389218Y46125D01*
X389745Y46478D01*
X390097Y47005D01*
X390221Y47627D01*
X390097Y48249D01*
X389745Y48776D01*
X389218Y49128D01*
X388596Y49252D01*
D02*
G37*
G36*
X48680Y49154D02*
X48058Y49030D01*
X47531Y48678D01*
X47179Y48150D01*
X47055Y47528D01*
X47179Y46906D01*
X47531Y46379D01*
X48058Y46027D01*
X48680Y45903D01*
X49302Y46027D01*
X49829Y46379D01*
X50182Y46906D01*
X50305Y47528D01*
X50182Y48150D01*
X49829Y48678D01*
X49302Y49030D01*
X48680Y49154D01*
D02*
G37*
G36*
X262559Y51584D02*
X261937Y51460D01*
X261409Y51108D01*
X261057Y50581D01*
X260933Y49959D01*
X261057Y49337D01*
X261409Y48809D01*
X261779Y48562D01*
X261842Y48019D01*
X261839Y48001D01*
X261486Y47473D01*
X261363Y46852D01*
X261486Y46230D01*
X261839Y45702D01*
X262366Y45350D01*
X262988Y45226D01*
X263610Y45350D01*
X264137Y45702D01*
X264490Y46230D01*
X264613Y46852D01*
X264490Y47473D01*
X264137Y48001D01*
X263768Y48248D01*
X263704Y48792D01*
X263708Y48809D01*
X264060Y49337D01*
X264184Y49959D01*
X264060Y50581D01*
X263708Y51108D01*
X263181Y51460D01*
X262559Y51584D01*
D02*
G37*
G36*
X368123Y50040D02*
X367501Y49916D01*
X366974Y49564D01*
X366622Y49036D01*
X366498Y48414D01*
X366622Y47792D01*
X366974Y47265D01*
X367501Y46913D01*
X368100Y46793D01*
X368134Y46776D01*
X368483Y46351D01*
X368403Y45948D01*
X368488Y45518D01*
X368477Y45494D01*
X368120Y45137D01*
X368095Y45126D01*
X367666Y45211D01*
X367044Y45087D01*
X366517Y44735D01*
X366164Y44208D01*
X366041Y43586D01*
X366164Y42964D01*
X366517Y42437D01*
X367044Y42084D01*
X367666Y41960D01*
X368288Y42084D01*
X368815Y42437D01*
X369168Y42964D01*
X369291Y43586D01*
X369206Y44015D01*
X369217Y44039D01*
X369574Y44397D01*
X369599Y44408D01*
X370028Y44323D01*
X370650Y44446D01*
X371178Y44799D01*
X371530Y45326D01*
X371654Y45948D01*
X371530Y46570D01*
X371178Y47097D01*
X370650Y47449D01*
X370052Y47569D01*
X370017Y47587D01*
X369669Y48011D01*
X369749Y48414D01*
X369625Y49036D01*
X369273Y49564D01*
X368745Y49916D01*
X368123Y50040D01*
D02*
G37*
G36*
X386234Y45709D02*
X385612Y45585D01*
X385084Y45233D01*
X384732Y44706D01*
X384608Y44083D01*
X384732Y43462D01*
X385084Y42934D01*
X385612Y42582D01*
X386234Y42458D01*
X386856Y42582D01*
X387383Y42934D01*
X387735Y43462D01*
X387859Y44083D01*
X387735Y44706D01*
X387383Y45233D01*
X386856Y45585D01*
X386234Y45709D01*
D02*
G37*
G36*
X174457Y45605D02*
X173835Y45481D01*
X173308Y45129D01*
X172956Y44601D01*
X172832Y43979D01*
X172956Y43358D01*
X173308Y42830D01*
X173835Y42478D01*
X174457Y42354D01*
X175079Y42478D01*
X175607Y42830D01*
X175959Y43358D01*
X176083Y43979D01*
X175959Y44601D01*
X175607Y45129D01*
X175079Y45481D01*
X174457Y45605D01*
D02*
G37*
G36*
X388596Y42166D02*
X387974Y42042D01*
X387446Y41690D01*
X387094Y41162D01*
X386970Y40540D01*
X387094Y39918D01*
X387446Y39391D01*
X387974Y39039D01*
X388596Y38915D01*
X389218Y39039D01*
X389745Y39391D01*
X390097Y39918D01*
X390221Y40540D01*
X390097Y41162D01*
X389745Y41690D01*
X389218Y42042D01*
X388596Y42166D01*
D02*
G37*
G36*
X176622Y41865D02*
X176000Y41741D01*
X175473Y41388D01*
X175120Y40861D01*
X174997Y40239D01*
X175120Y39617D01*
X175473Y39090D01*
X176000Y38738D01*
X176622Y38614D01*
X177244Y38738D01*
X177771Y39090D01*
X178123Y39617D01*
X178247Y40239D01*
X178123Y40861D01*
X177771Y41388D01*
X177244Y41741D01*
X176622Y41865D01*
D02*
G37*
G36*
X481397Y45475D02*
X480422Y45347D01*
X479514Y44971D01*
X478735Y44372D01*
X478136Y43593D01*
X477760Y42685D01*
X477632Y41710D01*
X477760Y40736D01*
X478136Y39828D01*
X478735Y39048D01*
X479514Y38450D01*
X480422Y38074D01*
X481397Y37945D01*
X482371Y38074D01*
X483279Y38450D01*
X484059Y39048D01*
X484657Y39828D01*
X485033Y40736D01*
X485162Y41710D01*
X485033Y42685D01*
X484657Y43593D01*
X484059Y44372D01*
X483279Y44971D01*
X482371Y45347D01*
X481397Y45475D01*
D02*
G37*
G36*
X328328Y41032D02*
X327706Y40908D01*
X327179Y40556D01*
X326826Y40028D01*
X326702Y39406D01*
X326826Y38784D01*
X327179Y38257D01*
X327706Y37905D01*
X328328Y37781D01*
X328950Y37905D01*
X329477Y38257D01*
X329829Y38784D01*
X329953Y39406D01*
X329829Y40028D01*
X329477Y40556D01*
X328950Y40908D01*
X328328Y41032D01*
D02*
G37*
G36*
X189562Y40329D02*
X188940Y40205D01*
X188412Y39853D01*
X188060Y39326D01*
X187936Y38704D01*
X188060Y38082D01*
X188353Y37644D01*
X187992Y37283D01*
X187875Y37362D01*
X187253Y37485D01*
X186631Y37362D01*
X186103Y37009D01*
X185751Y36482D01*
X185627Y35860D01*
X185751Y35238D01*
X186103Y34711D01*
X186631Y34359D01*
X187253Y34235D01*
X187875Y34359D01*
X188402Y34711D01*
X188754Y35238D01*
X188878Y35860D01*
X188754Y36482D01*
X188461Y36920D01*
X188822Y37281D01*
X188940Y37202D01*
X189562Y37078D01*
X190184Y37202D01*
X190711Y37554D01*
X191063Y38082D01*
X191187Y38704D01*
X191063Y39326D01*
X190711Y39853D01*
X190184Y40205D01*
X189562Y40329D01*
D02*
G37*
G36*
X60938Y40482D02*
X60320Y40359D01*
X59796Y40009D01*
X59446Y39485D01*
X59323Y38867D01*
X59446Y38249D01*
X59796Y37725D01*
X60320Y37374D01*
X60938Y37252D01*
X61556Y37374D01*
X62080Y37725D01*
X62430Y38249D01*
X62553Y38867D01*
X62430Y39485D01*
X62080Y40009D01*
X61556Y40359D01*
X60938Y40482D01*
D02*
G37*
G36*
X57001D02*
X56383Y40359D01*
X55859Y40009D01*
X55509Y39485D01*
X55386Y38867D01*
X55509Y38249D01*
X55859Y37725D01*
X56383Y37374D01*
X57001Y37252D01*
X57619Y37374D01*
X58143Y37725D01*
X58493Y38249D01*
X58616Y38867D01*
X58493Y39485D01*
X58143Y40009D01*
X57619Y40359D01*
X57001Y40482D01*
D02*
G37*
G36*
X53064D02*
X52446Y40359D01*
X51922Y40009D01*
X51572Y39485D01*
X51449Y38867D01*
X51572Y38249D01*
X51922Y37725D01*
X52446Y37374D01*
X53064Y37252D01*
X53682Y37374D01*
X54206Y37725D01*
X54556Y38249D01*
X54679Y38867D01*
X54556Y39485D01*
X54206Y40009D01*
X53682Y40359D01*
X53064Y40482D01*
D02*
G37*
G36*
X168500Y40125D02*
X167878Y40001D01*
X167351Y39649D01*
X166999Y39122D01*
X166875Y38500D01*
X166999Y37878D01*
X167351Y37351D01*
X167878Y36999D01*
X168500Y36875D01*
X169122Y36999D01*
X169649Y37351D01*
X170001Y37878D01*
X170125Y38500D01*
X170001Y39122D01*
X169649Y39649D01*
X169122Y40001D01*
X168500Y40125D01*
D02*
G37*
G36*
X263335Y38518D02*
X262713Y38394D01*
X262186Y38042D01*
X261834Y37515D01*
X261710Y36893D01*
X261834Y36271D01*
X262186Y35743D01*
X262713Y35391D01*
X263335Y35267D01*
X263957Y35391D01*
X264485Y35743D01*
X264837Y36271D01*
X264961Y36893D01*
X264837Y37515D01*
X264485Y38042D01*
X263957Y38394D01*
X263335Y38518D01*
D02*
G37*
G36*
X178931Y37485D02*
X178309Y37362D01*
X177782Y37009D01*
X177429Y36482D01*
X177306Y35860D01*
X177429Y35238D01*
X177782Y34711D01*
X178309Y34359D01*
X178931Y34235D01*
X179553Y34359D01*
X180080Y34711D01*
X180433Y35238D01*
X180556Y35860D01*
X180433Y36482D01*
X180080Y37009D01*
X179553Y37362D01*
X178931Y37485D01*
D02*
G37*
G36*
X60938Y36545D02*
X60320Y36422D01*
X59796Y36072D01*
X59446Y35548D01*
X59323Y34930D01*
X59446Y34312D01*
X59796Y33788D01*
X60320Y33437D01*
X60938Y33315D01*
X61556Y33437D01*
X62080Y33788D01*
X62430Y34312D01*
X62553Y34930D01*
X62430Y35548D01*
X62080Y36072D01*
X61556Y36422D01*
X60938Y36545D01*
D02*
G37*
G36*
X57001D02*
X56383Y36422D01*
X55859Y36072D01*
X55509Y35548D01*
X55386Y34930D01*
X55509Y34312D01*
X55859Y33788D01*
X56383Y33437D01*
X57001Y33315D01*
X57619Y33437D01*
X58143Y33788D01*
X58493Y34312D01*
X58616Y34930D01*
X58493Y35548D01*
X58143Y36072D01*
X57619Y36422D01*
X57001Y36545D01*
D02*
G37*
G36*
X53064D02*
X52446Y36422D01*
X51922Y36072D01*
X51572Y35548D01*
X51449Y34930D01*
X51572Y34312D01*
X51922Y33788D01*
X52446Y33437D01*
X53064Y33315D01*
X53682Y33437D01*
X54206Y33788D01*
X54556Y34312D01*
X54679Y34930D01*
X54556Y35548D01*
X54206Y36072D01*
X53682Y36422D01*
X53064Y36545D01*
D02*
G37*
G36*
X295570Y35648D02*
X294948Y35524D01*
X294420Y35172D01*
X294068Y34645D01*
X293944Y34023D01*
X294068Y33401D01*
X294420Y32874D01*
X294948Y32521D01*
X295570Y32398D01*
X296192Y32521D01*
X296719Y32874D01*
X297071Y33401D01*
X297195Y34023D01*
X297071Y34645D01*
X296719Y35172D01*
X296192Y35524D01*
X295570Y35648D01*
D02*
G37*
G36*
X302076Y35647D02*
X301453Y35523D01*
X300926Y35171D01*
X300574Y34643D01*
X300450Y34021D01*
X300574Y33400D01*
X300926Y32872D01*
X301453Y32520D01*
X302076Y32396D01*
X302697Y32520D01*
X303225Y32872D01*
X303577Y33400D01*
X303701Y34021D01*
X303577Y34643D01*
X303225Y35171D01*
X302697Y35523D01*
X302076Y35647D01*
D02*
G37*
G36*
X307568Y35638D02*
X306946Y35515D01*
X306418Y35162D01*
X306066Y34635D01*
X305942Y34013D01*
X306066Y33391D01*
X306418Y32864D01*
X306946Y32511D01*
X307568Y32388D01*
X308190Y32511D01*
X308717Y32864D01*
X309069Y33391D01*
X309193Y34013D01*
X309069Y34635D01*
X308717Y35162D01*
X308190Y35515D01*
X307568Y35638D01*
D02*
G37*
G36*
X290501Y34975D02*
X289879Y34851D01*
X289351Y34499D01*
X288999Y33972D01*
X288875Y33349D01*
X288999Y32728D01*
X289351Y32200D01*
X289879Y31848D01*
X290501Y31724D01*
X291123Y31848D01*
X291650Y32200D01*
X292002Y32728D01*
X292126Y33349D01*
X292002Y33972D01*
X291650Y34499D01*
X291123Y34851D01*
X290501Y34975D01*
D02*
G37*
G36*
X192360Y31726D02*
X191738Y31602D01*
X191211Y31250D01*
X190998Y30931D01*
X190717Y30745D01*
X190364Y30800D01*
X190054Y31007D01*
X189432Y31131D01*
X188810Y31007D01*
X188283Y30655D01*
X187930Y30128D01*
X187806Y29506D01*
X187930Y28884D01*
X188283Y28357D01*
X188810Y28004D01*
X189432Y27880D01*
X190054Y28004D01*
X190581Y28357D01*
X190794Y28675D01*
X191075Y28862D01*
X191428Y28807D01*
X191738Y28599D01*
X192360Y28475D01*
X192647Y28533D01*
X193086Y28296D01*
X193133Y28158D01*
X193231Y27663D01*
X193584Y27135D01*
X194111Y26783D01*
X194733Y26659D01*
X195355Y26783D01*
X195882Y27135D01*
X196235Y27663D01*
X196333Y28156D01*
X196382Y28297D01*
X196819Y28530D01*
X197108Y28473D01*
X197730Y28596D01*
X198257Y28949D01*
X198610Y29476D01*
X198733Y30098D01*
X198610Y30720D01*
X198257Y31247D01*
X197730Y31599D01*
X197108Y31723D01*
X196486Y31599D01*
X195959Y31247D01*
X195607Y30720D01*
X195508Y30227D01*
X195459Y30085D01*
X195022Y29852D01*
X194733Y29910D01*
X194446Y29853D01*
X194008Y30089D01*
X193960Y30227D01*
X193862Y30723D01*
X193509Y31250D01*
X192982Y31602D01*
X192360Y31726D01*
D02*
G37*
G36*
X168000Y33946D02*
X167378Y33822D01*
X166851Y33470D01*
X166499Y32943D01*
X166375Y32321D01*
X166499Y31699D01*
X166851Y31172D01*
X167378Y30820D01*
X168000Y30696D01*
X168622Y30820D01*
X169149Y31172D01*
X169501Y31699D01*
X169625Y32321D01*
X169501Y32943D01*
X169149Y33470D01*
X168622Y33822D01*
X168000Y33946D01*
D02*
G37*
G36*
X216815Y30740D02*
X216194Y30617D01*
X215666Y30264D01*
X215504Y30022D01*
X214903D01*
X214824Y30140D01*
X214297Y30492D01*
X213675Y30616D01*
X213053Y30492D01*
X212525Y30140D01*
X212173Y29612D01*
X212049Y28991D01*
X212173Y28368D01*
X212525Y27841D01*
X213053Y27489D01*
X213675Y27365D01*
X214297Y27489D01*
X214824Y27841D01*
X214986Y28084D01*
X215587D01*
X215666Y27966D01*
X216194Y27613D01*
X216815Y27490D01*
X217438Y27613D01*
X217965Y27966D01*
X218317Y28493D01*
X218441Y29115D01*
X218317Y29737D01*
X217965Y30264D01*
X217438Y30617D01*
X216815Y30740D01*
D02*
G37*
G36*
X60938Y32608D02*
X60320Y32485D01*
X59796Y32135D01*
X59446Y31611D01*
X59323Y30993D01*
X59446Y30375D01*
X59796Y29851D01*
X60320Y29500D01*
X60938Y29377D01*
X61556Y29500D01*
X62080Y29851D01*
X62430Y30375D01*
X62553Y30993D01*
X62430Y31611D01*
X62080Y32135D01*
X61556Y32485D01*
X60938Y32608D01*
D02*
G37*
G36*
X57001D02*
X56383Y32485D01*
X55859Y32135D01*
X55509Y31611D01*
X55386Y30993D01*
X55509Y30375D01*
X55859Y29851D01*
X56383Y29500D01*
X57001Y29377D01*
X57619Y29500D01*
X58143Y29851D01*
X58493Y30375D01*
X58616Y30993D01*
X58493Y31611D01*
X58143Y32135D01*
X57619Y32485D01*
X57001Y32608D01*
D02*
G37*
G36*
X53064D02*
X52446Y32485D01*
X51922Y32135D01*
X51572Y31611D01*
X51449Y30993D01*
X51572Y30375D01*
X51922Y29851D01*
X52446Y29500D01*
X53064Y29377D01*
X53682Y29500D01*
X54206Y29851D01*
X54556Y30375D01*
X54679Y30993D01*
X54556Y31611D01*
X54206Y32135D01*
X53682Y32485D01*
X53064Y32608D01*
D02*
G37*
G36*
X481397Y34675D02*
X480422Y34547D01*
X479514Y34171D01*
X478735Y33572D01*
X478136Y32793D01*
X477760Y31885D01*
X477632Y30910D01*
X477760Y29936D01*
X478136Y29028D01*
X478735Y28248D01*
X479514Y27650D01*
X480422Y27273D01*
X481397Y27145D01*
X482371Y27273D01*
X483279Y27650D01*
X484059Y28248D01*
X484657Y29028D01*
X485033Y29936D01*
X485162Y30910D01*
X485033Y31885D01*
X484657Y32793D01*
X484059Y33572D01*
X483279Y34171D01*
X482371Y34547D01*
X481397Y34675D01*
D02*
G37*
G36*
X201958Y30604D02*
X201337Y30480D01*
X200809Y30128D01*
X200457Y29600D01*
X200333Y28978D01*
X200457Y28356D01*
X200809Y27829D01*
X201337Y27477D01*
X201958Y27353D01*
X202580Y27477D01*
X202833Y27645D01*
X203388Y27417D01*
X203395Y27384D01*
X203747Y26856D01*
X204274Y26504D01*
X204896Y26380D01*
X205518Y26504D01*
X206046Y26856D01*
X206398Y27384D01*
X206522Y28005D01*
X206398Y28627D01*
X206046Y29155D01*
X205518Y29507D01*
X204896Y29631D01*
X204274Y29507D01*
X204022Y29338D01*
X203467Y29567D01*
X203460Y29600D01*
X203108Y30128D01*
X202580Y30480D01*
X201958Y30604D01*
D02*
G37*
G36*
X8379Y38180D02*
X7084Y38052D01*
X5839Y37675D01*
X4692Y37062D01*
X3687Y36236D01*
X2861Y35231D01*
X2248Y34083D01*
X1870Y32839D01*
X1743Y31544D01*
X1870Y30249D01*
X2248Y29005D01*
X2861Y27857D01*
X3687Y26852D01*
X4692Y26026D01*
X5839Y25413D01*
X7084Y25036D01*
X8379Y24908D01*
X9674Y25036D01*
X10918Y25413D01*
X12066Y26026D01*
X13071Y26852D01*
X13896Y27857D01*
X14510Y29005D01*
X14887Y30249D01*
X15015Y31544D01*
X14887Y32839D01*
X14510Y34083D01*
X13896Y35231D01*
X13071Y36236D01*
X12066Y37062D01*
X10918Y37675D01*
X9674Y38052D01*
X8379Y38180D01*
D02*
G37*
G36*
X92011Y30553D02*
X91202Y30446D01*
X90448Y30134D01*
X89800Y29637D01*
X89303Y28989D01*
X88991Y28235D01*
X88885Y27426D01*
X88991Y26617D01*
X89303Y25863D01*
X89800Y25215D01*
X90448Y24718D01*
X91202Y24406D01*
X92011Y24299D01*
X92821Y24406D01*
X93575Y24718D01*
X94222Y25215D01*
X94719Y25863D01*
X95031Y26617D01*
X95138Y27426D01*
X95031Y28235D01*
X94719Y28989D01*
X94222Y29637D01*
X93575Y30134D01*
X92821Y30446D01*
X92011Y30553D01*
D02*
G37*
G36*
X113229Y30295D02*
X112419Y30189D01*
X111665Y29876D01*
X111018Y29379D01*
X110521Y28732D01*
X110209Y27978D01*
X110102Y27168D01*
X110209Y26359D01*
X110521Y25605D01*
X111018Y24958D01*
X111665Y24461D01*
X112419Y24148D01*
X113229Y24042D01*
X114038Y24148D01*
X114792Y24461D01*
X115440Y24958D01*
X115937Y25605D01*
X116249Y26359D01*
X116356Y27168D01*
X116249Y27978D01*
X115937Y28732D01*
X115440Y29379D01*
X114792Y29876D01*
X114038Y30189D01*
X113229Y30295D01*
D02*
G37*
G36*
X60803Y23937D02*
X60181Y23814D01*
X59654Y23461D01*
X59447Y23153D01*
X58972Y23044D01*
X58847Y23086D01*
X58398Y23386D01*
X57776Y23510D01*
X57154Y23386D01*
X56627Y23034D01*
X56275Y22506D01*
X56151Y21885D01*
X56275Y21263D01*
X56627Y20735D01*
X57154Y20383D01*
X57776Y20259D01*
X58398Y20383D01*
X58925Y20735D01*
X59132Y21044D01*
X59607Y21152D01*
X59732Y21111D01*
X60181Y20811D01*
X60803Y20687D01*
X61425Y20811D01*
X61952Y21163D01*
X62304Y21690D01*
X62428Y22312D01*
X62304Y22934D01*
X61952Y23461D01*
X61425Y23814D01*
X60803Y23937D01*
D02*
G37*
G36*
X325806Y25721D02*
X325184Y25597D01*
X324657Y25245D01*
X324304Y24717D01*
X324181Y24096D01*
X324304Y23474D01*
X324657Y22946D01*
X325184Y22594D01*
X325806Y22470D01*
X326428Y22594D01*
X326955Y22946D01*
X327307Y23474D01*
X327431Y24096D01*
X327307Y24717D01*
X326955Y25245D01*
X326428Y25597D01*
X325806Y25721D01*
D02*
G37*
G36*
X53851Y23904D02*
X53229Y23780D01*
X52702Y23427D01*
X52350Y22900D01*
X52226Y22278D01*
X52350Y21656D01*
X52702Y21129D01*
X53229Y20777D01*
X53851Y20653D01*
X54473Y20777D01*
X55001Y21129D01*
X55353Y21656D01*
X55477Y22278D01*
X55353Y22900D01*
X55001Y23427D01*
X54473Y23780D01*
X53851Y23904D01*
D02*
G37*
G36*
X333722Y23250D02*
X333100Y23126D01*
X332573Y22774D01*
X332220Y22246D01*
X332097Y21624D01*
X332220Y21002D01*
X332573Y20475D01*
X333100Y20123D01*
X333722Y19999D01*
X334344Y20123D01*
X334871Y20475D01*
X335224Y21002D01*
X335347Y21624D01*
X335224Y22246D01*
X334871Y22774D01*
X334344Y23126D01*
X333722Y23250D01*
D02*
G37*
G36*
X192883Y20408D02*
X192261Y20284D01*
X191733Y19932D01*
X191381Y19405D01*
X191257Y18783D01*
X191381Y18161D01*
X191733Y17633D01*
X192261Y17281D01*
X192883Y17157D01*
X193505Y17281D01*
X194032Y17633D01*
X194384Y18161D01*
X194508Y18783D01*
X194384Y19405D01*
X194032Y19932D01*
X193505Y20284D01*
X192883Y20408D01*
D02*
G37*
G36*
X431690Y20166D02*
X431068Y20042D01*
X430541Y19690D01*
X430188Y19163D01*
X430065Y18541D01*
X430188Y17919D01*
X430541Y17391D01*
X431068Y17039D01*
X431690Y16915D01*
X432312Y17039D01*
X432839Y17391D01*
X433192Y17919D01*
X433315Y18541D01*
X433192Y19163D01*
X432839Y19690D01*
X432312Y20042D01*
X431690Y20166D01*
D02*
G37*
G36*
X447194Y20014D02*
X446572Y19891D01*
X446044Y19538D01*
X445692Y19011D01*
X445568Y18389D01*
X445692Y17767D01*
X446044Y17240D01*
X446572Y16887D01*
X447194Y16764D01*
X447816Y16887D01*
X448343Y17240D01*
X448695Y17767D01*
X448819Y18389D01*
X448695Y19011D01*
X448343Y19538D01*
X447816Y19891D01*
X447194Y20014D01*
D02*
G37*
G36*
X443257D02*
X442635Y19891D01*
X442107Y19538D01*
X441755Y19011D01*
X441631Y18389D01*
X441755Y17767D01*
X442107Y17240D01*
X442635Y16887D01*
X443257Y16764D01*
X443879Y16887D01*
X444406Y17240D01*
X444758Y17767D01*
X444882Y18389D01*
X444758Y19011D01*
X444406Y19538D01*
X443879Y19891D01*
X443257Y20014D01*
D02*
G37*
G36*
X435627Y20166D02*
X435005Y20042D01*
X434478Y19690D01*
X434125Y19163D01*
X434002Y18541D01*
X434125Y17919D01*
X434478Y17391D01*
X435005Y17039D01*
X435627Y16915D01*
X436249Y17039D01*
X436776Y17391D01*
X437129Y17919D01*
X437223Y18392D01*
X437694Y18389D01*
X437818Y17767D01*
X438170Y17240D01*
X438698Y16887D01*
X439320Y16764D01*
X439942Y16887D01*
X440469Y17240D01*
X440821Y17767D01*
X440945Y18389D01*
X440821Y19011D01*
X440469Y19538D01*
X439942Y19891D01*
X439320Y20014D01*
X438698Y19891D01*
X438170Y19538D01*
X437818Y19011D01*
X437724Y18538D01*
X437252Y18541D01*
X437129Y19163D01*
X436776Y19690D01*
X436249Y20042D01*
X435627Y20166D01*
D02*
G37*
G36*
X246200Y19692D02*
X245578Y19569D01*
X245051Y19216D01*
X244699Y18689D01*
X244575Y18067D01*
X244699Y17445D01*
X245051Y16918D01*
X245578Y16566D01*
X246200Y16442D01*
X246822Y16566D01*
X247350Y16918D01*
X247702Y17445D01*
X247826Y18067D01*
X247702Y18689D01*
X247350Y19216D01*
X246822Y19569D01*
X246200Y19692D01*
D02*
G37*
G36*
X53081Y18659D02*
X52459Y18535D01*
X51932Y18183D01*
X51580Y17656D01*
X51456Y17034D01*
X51580Y16412D01*
X51932Y15885D01*
X52459Y15532D01*
X53081Y15408D01*
X53703Y15532D01*
X54230Y15885D01*
X54583Y16412D01*
X54707Y17034D01*
X54583Y17656D01*
X54230Y18183D01*
X53703Y18535D01*
X53081Y18659D01*
D02*
G37*
G36*
X213729Y17731D02*
X213107Y17607D01*
X212580Y17255D01*
X212227Y16727D01*
X212104Y16105D01*
X212227Y15483D01*
X212580Y14956D01*
X213107Y14604D01*
X213729Y14480D01*
X214351Y14604D01*
X214878Y14956D01*
X215231Y15483D01*
X215354Y16105D01*
X215231Y16727D01*
X214878Y17255D01*
X214351Y17607D01*
X213729Y17731D01*
D02*
G37*
G36*
X48110Y17677D02*
X47488Y17553D01*
X46961Y17201D01*
X46608Y16674D01*
X46485Y16052D01*
X46608Y15430D01*
X46961Y14903D01*
X47488Y14550D01*
X48110Y14427D01*
X48732Y14550D01*
X49259Y14903D01*
X49611Y15430D01*
X49735Y16052D01*
X49611Y16674D01*
X49259Y17201D01*
X48732Y17553D01*
X48110Y17677D01*
D02*
G37*
G36*
X350973Y17376D02*
X350351Y17253D01*
X349824Y16900D01*
X349471Y16373D01*
X349348Y15751D01*
X349471Y15129D01*
X349824Y14602D01*
X350351Y14250D01*
X350973Y14126D01*
X351595Y14250D01*
X352122Y14602D01*
X352475Y15129D01*
X352599Y15751D01*
X352475Y16373D01*
X352122Y16900D01*
X351595Y17253D01*
X350973Y17376D01*
D02*
G37*
G36*
X235787Y15957D02*
X235165Y15833D01*
X234638Y15481D01*
X234285Y14954D01*
X234162Y14332D01*
X234285Y13710D01*
X234638Y13183D01*
X235165Y12830D01*
X235787Y12707D01*
X236409Y12830D01*
X236936Y13183D01*
X237289Y13710D01*
X237412Y14332D01*
X237289Y14954D01*
X236936Y15481D01*
X236409Y15833D01*
X235787Y15957D01*
D02*
G37*
G36*
X329796Y11156D02*
X329174Y11032D01*
X328647Y10680D01*
X328295Y10153D01*
X328171Y9531D01*
X328295Y8909D01*
X328647Y8381D01*
X329174Y8029D01*
X329796Y7905D01*
X330418Y8029D01*
X330946Y8381D01*
X331298Y8909D01*
X331422Y9531D01*
X331298Y10153D01*
X330946Y10680D01*
X330418Y11032D01*
X329796Y11156D01*
D02*
G37*
G36*
X411761Y10565D02*
X411139Y10442D01*
X410611Y10089D01*
X410259Y9562D01*
X410135Y8940D01*
X410259Y8318D01*
X410611Y7791D01*
X411139Y7439D01*
X411761Y7315D01*
X412383Y7439D01*
X412910Y7791D01*
X413262Y8318D01*
X413386Y8940D01*
X413262Y9562D01*
X412910Y10089D01*
X412383Y10442D01*
X411761Y10565D01*
D02*
G37*
G36*
X61844Y9380D02*
X61225Y9257D01*
X60701Y8907D01*
X60351Y8383D01*
X60228Y7764D01*
X60351Y7146D01*
X60701Y6622D01*
X61225Y6272D01*
X61844Y6149D01*
X62462Y6272D01*
X62986Y6622D01*
X63336Y7146D01*
X63459Y7764D01*
X63336Y8383D01*
X62986Y8907D01*
X62462Y9257D01*
X61844Y9380D01*
D02*
G37*
G36*
X57906D02*
X57288Y9257D01*
X56764Y8907D01*
X56414Y8383D01*
X56291Y7764D01*
X56414Y7146D01*
X56764Y6622D01*
X57288Y6272D01*
X57906Y6149D01*
X58525Y6272D01*
X59049Y6622D01*
X59399Y7146D01*
X59522Y7764D01*
X59399Y8383D01*
X59049Y8907D01*
X58525Y9257D01*
X57906Y9380D01*
D02*
G37*
G36*
X53969D02*
X53351Y9257D01*
X52827Y8907D01*
X52477Y8383D01*
X52354Y7764D01*
X52477Y7146D01*
X52827Y6622D01*
X53351Y6272D01*
X53969Y6149D01*
X54588Y6272D01*
X55112Y6622D01*
X55462Y7146D01*
X55585Y7764D01*
X55462Y8383D01*
X55112Y8907D01*
X54588Y9257D01*
X53969Y9380D01*
D02*
G37*
G36*
X259191Y8582D02*
X258569Y8458D01*
X258042Y8106D01*
X257690Y7578D01*
X257566Y6956D01*
X257690Y6334D01*
X258042Y5807D01*
X258569Y5455D01*
X259191Y5331D01*
X259813Y5455D01*
X260341Y5807D01*
X260693Y6334D01*
X260817Y6956D01*
X260693Y7578D01*
X260341Y8106D01*
X259813Y8458D01*
X259191Y8582D01*
D02*
G37*
G36*
X61844Y5443D02*
X61225Y5320D01*
X60701Y4970D01*
X60351Y4446D01*
X60228Y3827D01*
X60351Y3209D01*
X60701Y2685D01*
X61225Y2335D01*
X61844Y2212D01*
X62462Y2335D01*
X62986Y2685D01*
X63336Y3209D01*
X63459Y3827D01*
X63336Y4446D01*
X62986Y4970D01*
X62462Y5320D01*
X61844Y5443D01*
D02*
G37*
G36*
X57906D02*
X57288Y5320D01*
X56764Y4970D01*
X56414Y4446D01*
X56291Y3827D01*
X56414Y3209D01*
X56764Y2685D01*
X57288Y2335D01*
X57906Y2212D01*
X58525Y2335D01*
X59049Y2685D01*
X59399Y3209D01*
X59522Y3827D01*
X59399Y4446D01*
X59049Y4970D01*
X58525Y5320D01*
X57906Y5443D01*
D02*
G37*
G36*
X53969D02*
X53351Y5320D01*
X52827Y4970D01*
X52477Y4446D01*
X52354Y3827D01*
X52477Y3209D01*
X52827Y2685D01*
X53351Y2335D01*
X53969Y2212D01*
X54588Y2335D01*
X55112Y2685D01*
X55462Y3209D01*
X55585Y3827D01*
X55462Y4446D01*
X55112Y4970D01*
X54588Y5320D01*
X53969Y5443D01*
D02*
G37*
G36*
X193749Y5054D02*
X193127Y4930D01*
X192599Y4578D01*
X192247Y4050D01*
X192123Y3428D01*
X192247Y2806D01*
X192599Y2279D01*
X193127Y1927D01*
X193749Y1803D01*
X194371Y1927D01*
X194898Y2279D01*
X195250Y2806D01*
X195374Y3428D01*
X195250Y4050D01*
X194898Y4578D01*
X194371Y4930D01*
X193749Y5054D01*
D02*
G37*
G36*
X416485Y1864D02*
X415863Y1740D01*
X415336Y1388D01*
X414984Y861D01*
X414860Y239D01*
X414984Y-383D01*
X415336Y-910D01*
X415863Y-1262D01*
X416485Y-1386D01*
X417107Y-1262D01*
X417634Y-910D01*
X417986Y-383D01*
X418110Y239D01*
X417986Y861D01*
X417634Y1388D01*
X417107Y1740D01*
X416485Y1864D01*
D02*
G37*
G36*
X61844Y1506D02*
X61225Y1383D01*
X60701Y1033D01*
X60351Y509D01*
X60228Y-109D01*
X60351Y-728D01*
X60701Y-1252D01*
X61225Y-1602D01*
X61844Y-1725D01*
X62462Y-1602D01*
X62986Y-1252D01*
X63336Y-728D01*
X63459Y-109D01*
X63336Y509D01*
X62986Y1033D01*
X62462Y1383D01*
X61844Y1506D01*
D02*
G37*
G36*
X57906D02*
X57288Y1383D01*
X56764Y1033D01*
X56414Y509D01*
X56291Y-109D01*
X56414Y-728D01*
X56764Y-1252D01*
X57288Y-1602D01*
X57906Y-1725D01*
X58525Y-1602D01*
X59049Y-1252D01*
X59399Y-728D01*
X59522Y-109D01*
X59399Y509D01*
X59049Y1033D01*
X58525Y1383D01*
X57906Y1506D01*
D02*
G37*
G36*
X53969D02*
X53351Y1383D01*
X52827Y1033D01*
X52477Y509D01*
X52354Y-109D01*
X52477Y-728D01*
X52827Y-1252D01*
X53351Y-1602D01*
X53969Y-1725D01*
X54588Y-1602D01*
X55112Y-1252D01*
X55462Y-728D01*
X55585Y-109D01*
X55462Y509D01*
X55112Y1033D01*
X54588Y1383D01*
X53969Y1506D01*
D02*
G37*
G36*
X259462Y1398D02*
X258840Y1275D01*
X258312Y922D01*
X257960Y395D01*
X257836Y-227D01*
X257960Y-849D01*
X258312Y-1376D01*
X258840Y-1729D01*
X259462Y-1852D01*
X260084Y-1729D01*
X260611Y-1376D01*
X260963Y-849D01*
X261087Y-227D01*
X260963Y395D01*
X260611Y922D01*
X260084Y1275D01*
X259462Y1398D01*
D02*
G37*
G36*
X379517Y-862D02*
X378895Y-986D01*
X378368Y-1338D01*
X378015Y-1866D01*
X377892Y-2488D01*
X378015Y-3110D01*
X378368Y-3637D01*
X378895Y-3989D01*
X379517Y-4113D01*
X380139Y-3989D01*
X380666Y-3637D01*
X381019Y-3110D01*
X381142Y-2488D01*
X381019Y-1866D01*
X380666Y-1338D01*
X380139Y-986D01*
X379517Y-862D01*
D02*
G37*
G36*
X158690Y-2387D02*
X158068Y-2511D01*
X157540Y-2863D01*
X157188Y-3391D01*
X157064Y-4013D01*
X157188Y-4635D01*
X157540Y-5162D01*
X158068Y-5514D01*
X158690Y-5638D01*
X159312Y-5514D01*
X159839Y-5162D01*
X160191Y-4635D01*
X160315Y-4013D01*
X160191Y-3391D01*
X159839Y-2863D01*
X159312Y-2511D01*
X158690Y-2387D01*
D02*
G37*
G36*
X132981Y-2466D02*
X132359Y-2590D01*
X131832Y-2942D01*
X131479Y-3469D01*
X131356Y-4091D01*
X131479Y-4713D01*
X131832Y-5241D01*
X132359Y-5593D01*
X132981Y-5717D01*
X133603Y-5593D01*
X134130Y-5241D01*
X134483Y-4713D01*
X134606Y-4091D01*
X134483Y-3469D01*
X134130Y-2942D01*
X133603Y-2590D01*
X132981Y-2466D01*
D02*
G37*
G36*
X162784Y-2584D02*
X162162Y-2708D01*
X161635Y-3060D01*
X161283Y-3588D01*
X161159Y-4210D01*
X161283Y-4831D01*
X161635Y-5359D01*
X162162Y-5711D01*
X162784Y-5835D01*
X163406Y-5711D01*
X163933Y-5359D01*
X164286Y-4831D01*
X164409Y-4210D01*
X164286Y-3588D01*
X163933Y-3060D01*
X163406Y-2708D01*
X162784Y-2584D01*
D02*
G37*
G36*
X145717Y-2624D02*
X145095Y-2747D01*
X144568Y-3100D01*
X144216Y-3627D01*
X144092Y-4249D01*
X144216Y-4871D01*
X144568Y-5398D01*
X145095Y-5751D01*
X145717Y-5874D01*
X146339Y-5751D01*
X146867Y-5398D01*
X147219Y-4871D01*
X147343Y-4249D01*
X147219Y-3627D01*
X146867Y-3100D01*
X146339Y-2747D01*
X145717Y-2624D01*
D02*
G37*
G36*
X153886Y-2742D02*
X153265Y-2865D01*
X152737Y-3218D01*
X152385Y-3745D01*
X152261Y-4367D01*
X152385Y-4989D01*
X152737Y-5516D01*
X153265Y-5869D01*
X153886Y-5992D01*
X154508Y-5869D01*
X155036Y-5516D01*
X155388Y-4989D01*
X155512Y-4367D01*
X155388Y-3745D01*
X155036Y-3218D01*
X154508Y-2865D01*
X153886Y-2742D01*
D02*
G37*
G36*
X136760Y-3017D02*
X136139Y-3141D01*
X135611Y-3493D01*
X135259Y-4021D01*
X135135Y-4643D01*
X135259Y-5265D01*
X135611Y-5792D01*
X136139Y-6144D01*
X136760Y-6268D01*
X137382Y-6144D01*
X137910Y-5792D01*
X138262Y-5265D01*
X138386Y-4643D01*
X138262Y-4021D01*
X137910Y-3493D01*
X137382Y-3141D01*
X136760Y-3017D01*
D02*
G37*
G36*
X486997Y13457D02*
X485017Y13262D01*
X483114Y12685D01*
X481359Y11747D01*
X479822Y10485D01*
X478560Y8947D01*
X477622Y7193D01*
X477045Y5290D01*
X476850Y3310D01*
X477045Y1331D01*
X477622Y-573D01*
X478560Y-2327D01*
X479822Y-3865D01*
X481359Y-5127D01*
X483114Y-6064D01*
X485017Y-6642D01*
X486997Y-6837D01*
X488976Y-6642D01*
X490880Y-6064D01*
X492634Y-5127D01*
X494172Y-3865D01*
X495434Y-2327D01*
X496371Y-573D01*
X496949Y1331D01*
X497144Y3310D01*
X496949Y5290D01*
X496371Y7193D01*
X495434Y8947D01*
X494172Y10485D01*
X492634Y11747D01*
X490880Y12685D01*
X488976Y13262D01*
X486997Y13457D01*
D02*
G37*
G36*
X259307Y-3932D02*
X258685Y-4056D01*
X258157Y-4408D01*
X257805Y-4936D01*
X257681Y-5557D01*
X257805Y-6179D01*
X258157Y-6707D01*
X258685Y-7059D01*
X259307Y-7183D01*
X259929Y-7059D01*
X260456Y-6707D01*
X260808Y-6179D01*
X260932Y-5557D01*
X260808Y-4936D01*
X260456Y-4408D01*
X259929Y-4056D01*
X259307Y-3932D01*
D02*
G37*
G36*
X324000Y-156D02*
X322930Y-297D01*
X321932Y-710D01*
X321076Y-1367D01*
X320419Y-2224D01*
X320005Y-3221D01*
X319865Y-4291D01*
X320005Y-5362D01*
X320419Y-6359D01*
X321076Y-7215D01*
X321932Y-7873D01*
X322930Y-8286D01*
X324000Y-8427D01*
X325070Y-8286D01*
X326068Y-7873D01*
X326924Y-7215D01*
X327581Y-6359D01*
X327994Y-5362D01*
X328135Y-4291D01*
X327994Y-3221D01*
X327581Y-2224D01*
X326924Y-1367D01*
X326068Y-710D01*
X325070Y-297D01*
X324000Y-156D01*
D02*
G37*
G36*
X314000Y-365D02*
X312930Y-506D01*
X311932Y-919D01*
X311076Y-1576D01*
X310419Y-2432D01*
X310005Y-3430D01*
X309865Y-4500D01*
X310005Y-5570D01*
X310419Y-6568D01*
X311076Y-7424D01*
X311932Y-8081D01*
X312930Y-8495D01*
X314000Y-8635D01*
X315070Y-8495D01*
X316068Y-8081D01*
X316924Y-7424D01*
X317581Y-6568D01*
X317994Y-5570D01*
X318135Y-4500D01*
X317994Y-3430D01*
X317581Y-2432D01*
X316924Y-1576D01*
X316068Y-919D01*
X315070Y-506D01*
X314000Y-365D01*
D02*
G37*
G36*
X334000Y-471D02*
X332930Y-612D01*
X331932Y-1025D01*
X331076Y-1682D01*
X330419Y-2539D01*
X330006Y-3536D01*
X329865Y-4606D01*
X330006Y-5677D01*
X330419Y-6674D01*
X331076Y-7530D01*
X331932Y-8188D01*
X332930Y-8601D01*
X334000Y-8742D01*
X335070Y-8601D01*
X336068Y-8188D01*
X336924Y-7530D01*
X337581Y-6674D01*
X337995Y-5677D01*
X338135Y-4606D01*
X337995Y-3536D01*
X337581Y-2539D01*
X336924Y-1682D01*
X336068Y-1025D01*
X335070Y-612D01*
X334000Y-471D01*
D02*
G37*
G36*
X304000Y-604D02*
X302930Y-745D01*
X301932Y-1158D01*
X301076Y-1815D01*
X300419Y-2672D01*
X300006Y-3669D01*
X299865Y-4739D01*
X300006Y-5810D01*
X300419Y-6807D01*
X301076Y-7663D01*
X301932Y-8321D01*
X302930Y-8734D01*
X304000Y-8875D01*
X305070Y-8734D01*
X306068Y-8321D01*
X306924Y-7663D01*
X307581Y-6807D01*
X307995Y-5810D01*
X308135Y-4739D01*
X307995Y-3669D01*
X307581Y-2672D01*
X306924Y-1815D01*
X306068Y-1158D01*
X305070Y-745D01*
X304000Y-604D01*
D02*
G37*
G36*
X294000D02*
X292930Y-745D01*
X291932Y-1158D01*
X291076Y-1815D01*
X290419Y-2672D01*
X290005Y-3669D01*
X289865Y-4739D01*
X290005Y-5810D01*
X290419Y-6807D01*
X291076Y-7663D01*
X291932Y-8321D01*
X292930Y-8734D01*
X294000Y-8875D01*
X295070Y-8734D01*
X296068Y-8321D01*
X296924Y-7663D01*
X297581Y-6807D01*
X297994Y-5810D01*
X298135Y-4739D01*
X297994Y-3669D01*
X297581Y-2672D01*
X296924Y-1815D01*
X296068Y-1158D01*
X295070Y-745D01*
X294000Y-604D01*
D02*
G37*
G36*
X150000Y-6375D02*
X149378Y-6498D01*
X148851Y-6851D01*
X148498Y-7378D01*
X148375Y-8000D01*
X148498Y-8622D01*
X148851Y-9149D01*
X149378Y-9502D01*
X150000Y-9625D01*
X150622Y-9502D01*
X151149Y-9149D01*
X151502Y-8622D01*
X151625Y-8000D01*
X151502Y-7378D01*
X151149Y-6851D01*
X150622Y-6498D01*
X150000Y-6375D01*
D02*
G37*
G36*
X54416Y-6947D02*
X53794Y-7070D01*
X53267Y-7423D01*
X52914Y-7950D01*
X52790Y-8572D01*
X52914Y-9194D01*
X53267Y-9721D01*
X53794Y-10074D01*
X54416Y-10197D01*
X55038Y-10074D01*
X55565Y-9721D01*
X55917Y-9194D01*
X56041Y-8572D01*
X55917Y-7950D01*
X55565Y-7423D01*
X55038Y-7070D01*
X54416Y-6947D01*
D02*
G37*
G36*
X68143Y-7087D02*
X67522Y-7211D01*
X66994Y-7564D01*
X66642Y-8091D01*
X66518Y-8713D01*
X66642Y-9335D01*
X66994Y-9862D01*
X67522Y-10214D01*
X68143Y-10338D01*
X68765Y-10214D01*
X69293Y-9862D01*
X69645Y-9335D01*
X69769Y-8713D01*
X69645Y-8091D01*
X69293Y-7564D01*
X68765Y-7211D01*
X68143Y-7087D01*
D02*
G37*
G36*
X431406Y-6758D02*
X430784Y-6881D01*
X430257Y-7233D01*
X429905Y-7761D01*
X429781Y-8383D01*
X429905Y-9005D01*
X430257Y-9532D01*
X430372Y-9609D01*
Y-10109D01*
X430257Y-10186D01*
X429905Y-10713D01*
X429781Y-11336D01*
X429905Y-11958D01*
X430257Y-12485D01*
X430784Y-12837D01*
X431406Y-12961D01*
X432028Y-12837D01*
X432555Y-12485D01*
X432908Y-11958D01*
X433032Y-11336D01*
X432908Y-10713D01*
X432555Y-10186D01*
X432440Y-10109D01*
Y-9609D01*
X432555Y-9532D01*
X432908Y-9005D01*
X433032Y-8383D01*
X432908Y-7761D01*
X432555Y-7233D01*
X432028Y-6881D01*
X431406Y-6758D01*
D02*
G37*
G36*
X427482D02*
X426860Y-6881D01*
X426333Y-7233D01*
X425980Y-7761D01*
X425856Y-8383D01*
X425980Y-9005D01*
X426333Y-9532D01*
X426448Y-9609D01*
Y-10109D01*
X426333Y-10186D01*
X425980Y-10713D01*
X425856Y-11336D01*
X425980Y-11958D01*
X426333Y-12485D01*
X426860Y-12837D01*
X427482Y-12961D01*
X428104Y-12837D01*
X428631Y-12485D01*
X428983Y-11958D01*
X429107Y-11336D01*
X428983Y-10713D01*
X428631Y-10186D01*
X428516Y-10109D01*
Y-9609D01*
X428631Y-9532D01*
X428983Y-9005D01*
X429107Y-8383D01*
X428983Y-7761D01*
X428631Y-7233D01*
X428104Y-6881D01*
X427482Y-6758D01*
D02*
G37*
G36*
X423471Y-9710D02*
X422849Y-9834D01*
X422322Y-10186D01*
X421970Y-10713D01*
X421846Y-11336D01*
X421970Y-11958D01*
X422322Y-12485D01*
X422849Y-12837D01*
X423471Y-12961D01*
X424093Y-12837D01*
X424621Y-12485D01*
X424973Y-11958D01*
X425097Y-11336D01*
X424973Y-10713D01*
X424621Y-10186D01*
X424093Y-9834D01*
X423471Y-9710D01*
D02*
G37*
G36*
X419461D02*
X418839Y-9834D01*
X418312Y-10186D01*
X417959Y-10713D01*
X417836Y-11336D01*
X417959Y-11958D01*
X418312Y-12485D01*
X418839Y-12837D01*
X419461Y-12961D01*
X420083Y-12837D01*
X420610Y-12485D01*
X420963Y-11958D01*
X421086Y-11336D01*
X420963Y-10713D01*
X420610Y-10186D01*
X420083Y-9834D01*
X419461Y-9710D01*
D02*
G37*
G36*
X415451D02*
X414829Y-9834D01*
X414301Y-10186D01*
X413949Y-10713D01*
X413825Y-11336D01*
X413949Y-11958D01*
X414301Y-12485D01*
X414829Y-12837D01*
X415451Y-12961D01*
X416073Y-12837D01*
X416600Y-12485D01*
X416952Y-11958D01*
X417076Y-11336D01*
X416952Y-10713D01*
X416600Y-10186D01*
X416073Y-9834D01*
X415451Y-9710D01*
D02*
G37*
G36*
X411440D02*
X410818Y-9834D01*
X410291Y-10186D01*
X409939Y-10713D01*
X409815Y-11336D01*
X409939Y-11958D01*
X410291Y-12485D01*
X410818Y-12837D01*
X411440Y-12961D01*
X412062Y-12837D01*
X412590Y-12485D01*
X412942Y-11958D01*
X413065Y-11336D01*
X412942Y-10713D01*
X412590Y-10186D01*
X412062Y-9834D01*
X411440Y-9710D01*
D02*
G37*
G36*
X407430D02*
X406808Y-9834D01*
X406281Y-10186D01*
X405928Y-10713D01*
X405804Y-11336D01*
X405928Y-11958D01*
X406281Y-12485D01*
X406808Y-12837D01*
X407430Y-12961D01*
X408052Y-12837D01*
X408579Y-12485D01*
X408931Y-11958D01*
X409055Y-11336D01*
X408931Y-10713D01*
X408579Y-10186D01*
X408052Y-9834D01*
X407430Y-9710D01*
D02*
G37*
G36*
X48688Y-10557D02*
X48066Y-10681D01*
X47539Y-11033D01*
X47187Y-11561D01*
X47063Y-12183D01*
X47187Y-12805D01*
X47539Y-13332D01*
X48066Y-13684D01*
X48688Y-13808D01*
X49310Y-13684D01*
X49837Y-13332D01*
X50190Y-12805D01*
X50314Y-12183D01*
X50190Y-11561D01*
X49837Y-11033D01*
X49310Y-10681D01*
X48688Y-10557D01*
D02*
G37*
%LPD*%
D184*
X124950Y223094D02*
D03*
X151918Y211912D02*
D03*
X130343D02*
D03*
X384280Y223094D02*
D03*
X362705D02*
D03*
X389674Y211912D02*
D03*
X368099D02*
D03*
X254516D02*
D03*
X276091D02*
D03*
X249123Y223094D02*
D03*
D185*
X108768Y211912D02*
D03*
X232942D02*
D03*
D190*
X492597Y68710D02*
D03*
Y57910D02*
D03*
Y47110D02*
D03*
Y36310D02*
D03*
Y160877D02*
D03*
Y171677D02*
D03*
Y182477D02*
D03*
Y193277D02*
D03*
D212*
X199713Y-7950D02*
D03*
X225698D02*
D03*
D215*
X405383Y34885D02*
D03*
X429005Y30160D02*
D03*
X424280D02*
D03*
X419556D02*
D03*
X414831D02*
D03*
X410107D02*
D03*
X405383D02*
D03*
X400658D02*
D03*
X429005Y34885D02*
D03*
X424280D02*
D03*
X419556D02*
D03*
X410107D02*
D03*
X400658D02*
D03*
X429005Y39609D02*
D03*
X424280D02*
D03*
X419556D02*
D03*
X414831D02*
D03*
X410107D02*
D03*
X405383D02*
D03*
X400658D02*
D03*
X429005Y44334D02*
D03*
X424280D02*
D03*
X419556D02*
D03*
X414831D02*
D03*
X410107D02*
D03*
X405383D02*
D03*
X400658D02*
D03*
X414831Y34885D02*
D03*
X429005Y115830D02*
D03*
X424280D02*
D03*
X419556D02*
D03*
X414831D02*
D03*
X410107D02*
D03*
X405383D02*
D03*
X400658D02*
D03*
X429005Y120554D02*
D03*
X424280D02*
D03*
X419556D02*
D03*
X410107D02*
D03*
X405383D02*
D03*
X400658D02*
D03*
X429005Y125279D02*
D03*
X424280D02*
D03*
X419556D02*
D03*
X414831D02*
D03*
X410107D02*
D03*
X405383D02*
D03*
X400658D02*
D03*
X429005Y130003D02*
D03*
X424280D02*
D03*
X419556D02*
D03*
X414831D02*
D03*
X410107D02*
D03*
X405383D02*
D03*
X400658D02*
D03*
X414831Y120554D02*
D03*
Y162969D02*
D03*
X400658Y172418D02*
D03*
X405383D02*
D03*
X410107D02*
D03*
X414831D02*
D03*
X419556D02*
D03*
X424280D02*
D03*
X429005D02*
D03*
X400658Y167693D02*
D03*
X405383D02*
D03*
X410107D02*
D03*
X414831D02*
D03*
X419556D02*
D03*
X424280D02*
D03*
X429005D02*
D03*
X400658Y162969D02*
D03*
X405383D02*
D03*
X410107D02*
D03*
X419556D02*
D03*
X424280D02*
D03*
X429005D02*
D03*
X400658Y158244D02*
D03*
X405383D02*
D03*
X410107D02*
D03*
X414831D02*
D03*
X419556D02*
D03*
X424280D02*
D03*
X429005D02*
D03*
Y72286D02*
D03*
X424280D02*
D03*
X419556D02*
D03*
X414831D02*
D03*
X410107D02*
D03*
X405383D02*
D03*
X400658D02*
D03*
X429005Y77011D02*
D03*
X424280D02*
D03*
X419556D02*
D03*
X410107D02*
D03*
X405383D02*
D03*
X400658D02*
D03*
X429005Y81735D02*
D03*
X424280D02*
D03*
X419556D02*
D03*
X414831D02*
D03*
X410107D02*
D03*
X405383D02*
D03*
X400658D02*
D03*
X429005Y86460D02*
D03*
X424280D02*
D03*
X419556D02*
D03*
X414831D02*
D03*
X410107D02*
D03*
X405383D02*
D03*
X400658D02*
D03*
X414831Y77011D02*
D03*
D216*
X208335Y120816D02*
D03*
X301499Y176197D02*
D03*
X301991Y185015D02*
D03*
X47847Y11209D02*
D03*
X48680Y42213D02*
D03*
X41962Y17538D02*
D03*
X281446Y170751D02*
D03*
X232627Y171145D02*
D03*
X251131Y175476D02*
D03*
X197194Y176657D02*
D03*
X197587Y182956D02*
D03*
X251131Y183350D02*
D03*
X176141Y169885D02*
D03*
X48517Y175822D02*
D03*
X56312Y130402D02*
D03*
X68065Y119650D02*
D03*
X64088Y144379D02*
D03*
X71174Y3827D02*
D03*
X385026Y11893D02*
D03*
X352800Y175638D02*
D03*
X353467Y182956D02*
D03*
X217666Y7365D02*
D03*
X336957Y170357D02*
D03*
X219639Y104605D02*
D03*
X198262Y113436D02*
D03*
X185383Y106578D02*
D03*
D217*
X379500Y500D02*
D03*
M02*
