M48
;Layer_Color=9474304
;FILE_FORMAT=2:4
INCH,LZ
;TYPE=PLATED
T1F00S00C0.0079
T2F00S00C0.0118
T3F00S00C0.0130
T5F00S00C0.0280
T6F00S00C0.0409
T7F00S00C0.0410
T8F00S00C0.0500
T9F00S00C0.1250
T10F00S00C0.1280
;TYPE=NON_PLATED
T11F00S00C0.1201
%
T01
X004869Y-001218
X005442Y-000857
X006814Y-000871
X007117Y000383
X00608Y002231
X005778Y002188
X005385Y002228
X005308Y001703
X004811Y001605
X004785Y001121
X004196Y001754
X004868Y004221
Y004753
X005248Y004798
X005406Y005362
X005717Y005347
X006085Y005386
X005538Y008201
X005189Y008139
X004895Y008086
X0121Y007
X01215Y005
X0131
X013963Y004981
X0131Y007
X012591Y006994
X017278Y00683
X017472Y007072
X017743Y007198
X017775Y007504
X017324Y007331
X017605Y006613
X017361Y006355
X016988Y005962
X016681Y005957
X01685Y00385
X0168Y003232
X017893Y003586
X017662Y004024
X017446Y004398
X018956Y00387
X018725Y003586
X018943Y002951
X019236Y00301
X019473Y002828
X019711Y00301
X020196Y002898
X02049Y002801
X021367Y002899
X021682Y002912
X021373Y001611
X021767Y000737
X023579Y001433
X02462Y001807
X025919Y000696
X025946Y-000023
X025931Y-000556
X026334Y003689
X026299Y004685
X026256Y004996
X026334Y005776
X026256Y006117
X026284Y006416
X026254Y008228
X027249Y005175
X019288Y001878
X019375Y000343
X016278Y-000421
X015869Y-000401
X015389Y-000437
X015Y-0008
X014572Y-000425
X013676Y-000464
X013298Y-000409
X02905Y003335
X029557Y003402
X030208Y003402
X030757Y003401
X030737Y005175
X0312Y00525
Y00575
X0307Y0061
X0306Y0067
X030634Y007025
X031638Y006965
X03225Y00675
X031182Y00795
X034407Y007337
X035397Y007377
X0359
X035782Y006012
X036734Y00556
X037049Y005196
X036812Y004841
X037003Y004595
X036767Y004359
X038623Y004408
X03886Y004054
Y004763
X038617Y005067
X038893Y005343
X038814Y008335
X036767Y008374
X033779Y004831
X033335Y00525
X032833Y003941
X032581Y00241
X033372Y002162
X03298Y000953
X035097Y001575
X038503Y001189
X03795Y00005
X037952Y-000249
X040743Y-001134
X041144
X041545
X041946
X042347
X042748
Y-000838
X043141
Y-001134
X041648Y000024
X041176Y000894
X043169Y001854
X043563
X028719Y006248
X043932Y006091
X044326
X044719
Y001839
X044326
X043932
X043971Y010303
X044398Y010333
X044877Y010303
X044753Y014674
X044365
X043932
X046885Y019713
X046883Y020196
X038715Y018483
X03846Y018217
X038696Y017784
X03846Y01739
X038696Y017036
X037082Y017351
X037093Y017873
X036769Y01802
Y017587
X036747Y017046
X03528Y017564
X035347Y018296
X033696Y017036
X031648Y015599
X03153Y015254
X031648Y0149
X03153Y014536
X031648Y014152
X03091Y014122
X031019Y014516
X030891Y014939
X031038Y015333
X03092Y015717
X03015Y01762
X030199Y018502
X028145Y017075
X03015Y0131
X030238Y012643
X0301Y0118
X02975Y011542
X031655Y01156
X03225Y00945
X031033Y00895
X036767Y009122
X037003Y009477
X036688Y009841
X037042Y008729
X038578Y008689
X038814Y009044
Y009831
X038381
X038755Y012735
X03846Y013059
X038735Y013374
X03846Y013729
X038774Y014162
X036885Y013847
X036619Y014211
X036009Y014083
X036117Y014477
X035989Y0149
X036137Y015294
X036019Y015677
X036641Y013454
X036924Y013138
X036688Y012744
X035351Y012552
X0352Y012911
Y01205
X03485Y011578
X027769Y009948
X027349Y009406
X026255Y009713
X026212Y010269
X025763Y010394
X024074Y010368
X02368Y010359
X022445Y010477
X021964Y01046
X021609Y010461
X021637Y010134
X022278Y010121
X023145Y011346
X0246Y01162
X02493Y01174
X0253Y0125
X025648Y012244
X025135Y0131
X025664Y014122
X025773Y014467
X025645Y01489
X025792Y015284
X025674Y015668
X02655Y015638
X026432Y015294
X02655Y014939
X026432Y014575
X02655Y014191
X025113Y017548
Y018335
X023263Y017114
X021304Y015589
X021186Y015244
X020759Y015211
X020641Y015595
X020611Y014817
X020739Y014394
X020631Y01405
X021304Y014142
X021186Y014526
X021304Y01489
X0199Y0131
X01955Y01235
X020272Y012353
X020833Y012082
X019892Y011646
X019826Y011344
X0199Y010481
X019438Y01049
X019687Y010213
X019478Y009957
X01921Y009825
X019437Y009594
X018538Y010658
X017908Y010815
X0183Y0117
X017306Y009017
X01699Y009248
X01435Y01115
X016271Y014069
X016153Y014453
Y015172
X016271Y015516
X017614Y016988
X019719Y017666
X019759Y018296
X014678Y018656
X026173Y008822
X026192Y008524
X006299Y008573
X005626Y008506
X005452Y011197
X004913Y011101
X006547Y010863
X006807Y011965
X006305Y013015
X006306Y013314
X006305Y013613
X006074Y013887
X006409Y014438
X006139Y015157
X005041Y014458
X005044Y016235
X00529Y016478
X005621Y016697
X006169Y017405
X004852Y017582
X004485Y016921
X003899Y017351
X002176Y017351
X001637Y016308
X001294Y01634
X000992Y016316
X00073Y016852
X00005Y017332
X002055Y014926
X005631Y01304
X007965Y013905
X009303Y014545
X009765Y014103
X009493Y015997
X009107Y016018
X008737Y01599
X008618Y017167
X007706Y017344
X01015Y0171
X010569Y019011
T02
X005397Y-000011
X005791
X006184
Y000383
X005791
Y000776
X006184
X005397
Y000383
X005306Y003099
Y003493
Y003887
X0057
X006094
Y003493
X0057
Y003099
X006094
X00609Y006284
X005696
X005302
Y006678
X005696
X00609
Y007072
X005696
X005302
X00531Y009485
Y009879
Y010273
X005704
X006098
Y009879
X005704
Y009485
X006098
T03
X040066Y003016
X040538
Y003488
Y003961
X041011
Y003488
Y003016
X041483
X041956
X042428
X0429
Y003488
Y003961
X042428
Y003488
X041956
Y003961
X041483
Y003488
Y004433
X041956
X042428
X0429
X041011
X040538
X040066
Y003961
Y003488
Y007229
X040538
X041011
X041483
X041956
X042428
X0429
Y007701
Y008174
X042428
Y007701
X041956
Y008174
X041483
Y007701
X041011
Y008174
X040538
Y007701
X040066
Y008174
Y008646
X040538
X041011
X041483
X041956
X042428
X0429
Y011583
X042428
X041956
X041483
X041011
X040538
X040066
Y012055
Y012528
X040538
Y012055
X041011
Y012528
X041483
Y012055
X041956
Y012528
X042428
Y012055
X0429
Y012528
Y013
X042428
X041956
X041483
X041011
X040538
X040066
Y015824
Y016297
Y016769
Y017242
X040538
X041011
X041483
X041956
X042428
X0429
Y016769
Y016297
X042428
Y016769
X041956
Y016297
X041483
Y016769
X041011
Y016297
X040538
Y016769
Y015824
X041011
X041483
X041956
X042428
X0429
T05
X009201Y002743
X011323Y002717
T06
X000279Y006454
Y007532
X001397Y006993
Y005914
Y008072
X031519Y010126
X032519
X034519
X035519
X035731Y021191
X03681
X037889
X038967
X040046
X039507Y022309
X038428
X037349
X036271
X02707
X025991
X024912
X023834
X023294Y021191
X024373
X025452
X02653
X027609
X015192
X014113
X013034
X012495Y022309
X013574
X014652
X011416
X011956Y021191
X010877
X001397Y010229
Y00915
X000279Y008611
Y00969
T07
X04814Y003091
Y004171
Y005251
Y006331
Y007411
X04926Y006871
Y005791
Y004711
Y003631
Y016088
Y017168
Y018248
Y019328
X04814Y018788
Y017708
Y016628
Y015548
Y019868
T08
X0294Y-000474
X0304
X0314Y-00045
X0324Y-000429
X0334Y-000461
T09
X0487Y000331
Y010171
Y012788
Y022628
T10
X-000012Y-000031
X045582Y000008
Y022843
X000002Y022804
T11
X000838Y003154
X030373Y02175
X032971
X04281
X020534
X017956
X008117
X000838Y012993
M30
