G04*
G04 #@! TF.GenerationSoftware,Altium Limited,Altium Designer,21.6.4 (81)*
G04*
G04 Layer_Color=0*
%FSLAX25Y25*%
%MOIN*%
G70*
G04*
G04 #@! TF.SameCoordinates,21ADAE42-517F-4329-814C-ACF1F8BA2FEA*
G04*
G04*
G04 #@! TF.FilePolarity,Positive*
G04*
G01*
G75*
%ADD222C,0.00394*%
D222*
X395894Y-469D02*
Y3468D01*
X393926Y1499D02*
X397863D01*
X156988Y47124D02*
Y51061D01*
X155020Y49093D02*
X158957D01*
X138531Y111500D02*
X142469D01*
X140500Y109531D02*
Y113469D01*
X130363Y215534D02*
Y219472D01*
X128394Y217503D02*
X132331D01*
X140757Y69759D02*
X144694D01*
X142725Y67790D02*
Y71727D01*
X278138Y31932D02*
Y34294D01*
X276957Y33113D02*
X279320D01*
X280542Y66317D02*
X284479D01*
X282510Y64349D02*
Y68286D01*
X158031Y97500D02*
X161969D01*
X160000Y95531D02*
Y99468D01*
X375500Y2531D02*
Y6469D01*
X373532Y4500D02*
X377468D01*
X327828Y9531D02*
X331765D01*
X329796Y7562D02*
Y11499D01*
X372430Y-5430D02*
X376367D01*
X374398Y-7399D02*
Y-3461D01*
X414516Y-3698D02*
X418453D01*
X416485Y-5666D02*
Y-1729D01*
X130286Y79174D02*
Y83111D01*
X128318Y81142D02*
X132255D01*
X300422Y55987D02*
X304359D01*
X302391Y54019D02*
Y57956D01*
X291839Y55928D02*
X295776D01*
X293808Y53960D02*
Y57897D01*
X92011Y13646D02*
Y17583D01*
X90043Y15615D02*
X93980D01*
X113229Y13389D02*
Y17326D01*
X111260Y15357D02*
X115197D01*
X125031Y148500D02*
X128969D01*
X127000Y146531D02*
Y150469D01*
X8379Y78768D02*
Y82705D01*
X6410Y80737D02*
X10347D01*
X90150Y133827D02*
X94087D01*
X92119Y131859D02*
Y135796D01*
X500354Y52510D02*
X523240D01*
X511797Y41067D02*
Y63953D01*
X454162Y37129D02*
X458099D01*
X456131Y35160D02*
Y39097D01*
X378906Y215534D02*
Y219472D01*
X376938Y217503D02*
X380875D01*
X465934Y120515D02*
Y124452D01*
X463965Y122483D02*
X467902D01*
X463335Y167208D02*
X467272D01*
X465304Y165239D02*
Y169176D01*
X465776Y78546D02*
Y82483D01*
X463808Y80515D02*
X467745D01*
X454280Y119924D02*
X458217D01*
X456249Y117956D02*
Y121893D01*
X455737Y161184D02*
Y165121D01*
X453768Y163153D02*
X457705D01*
X455461Y78310D02*
Y82247D01*
X453493Y80279D02*
X457430D01*
X464398Y37129D02*
X468335D01*
X466367Y35160D02*
Y39097D01*
X511797Y165634D02*
Y188520D01*
X500354Y177077D02*
X523240D01*
X284182Y83389D02*
Y87326D01*
X282213Y85357D02*
X286150D01*
X252568Y217503D02*
X256505D01*
X254536Y215534D02*
Y219472D01*
M02*
