G04*
G04 #@! TF.GenerationSoftware,Altium Limited,Altium Designer,21.6.4 (81)*
G04*
G04 Layer_Color=16711935*
%FSLAX25Y25*%
%MOIN*%
G70*
G04*
G04 #@! TF.SameCoordinates,21ADAE42-517F-4329-814C-ACF1F8BA2FEA*
G04*
G04*
G04 #@! TF.FilePolarity,Positive*
G04*
G01*
G75*
%ADD11C,0.00787*%
%ADD13C,0.00500*%
%ADD16C,0.00300*%
%ADD221C,0.00100*%
%ADD222C,0.00394*%
%ADD223R,0.10984X0.02383*%
D11*
X44678Y8946D02*
G03*
X44678Y8946I-394J0D01*
G01*
X43773Y40048D02*
G03*
X43773Y40048I-394J0D01*
G01*
X43812Y103906D02*
G03*
X43812Y103906I-394J0D01*
G01*
X43733Y71898D02*
G03*
X43733Y71898I-394J0D01*
G01*
X98812Y178202D02*
G03*
X98812Y178202I-394J0D01*
G01*
X60131Y180481D02*
G03*
X60131Y180481I-394J0D01*
G01*
X46351Y139965D02*
G03*
X46351Y139965I-394J0D01*
G01*
X20210Y179823D02*
G03*
X20210Y179823I-394J0D01*
G01*
X186406Y10948D02*
G03*
X186406Y10948I-394J0D01*
G01*
X47965Y83434D02*
Y87371D01*
X49934D01*
Y83434D02*
Y87371D01*
X47965Y83434D02*
X49934D01*
X47985Y-11763D02*
Y-7826D01*
X49954D01*
Y-11763D02*
Y-7826D01*
X47985Y-11763D02*
X49954D01*
X47710Y50914D02*
Y54851D01*
X49678D01*
Y50914D02*
Y54851D01*
X47710Y50914D02*
X49678D01*
X47395Y19772D02*
Y23709D01*
X49363D01*
Y19772D02*
Y23709D01*
X47395Y19772D02*
X49363D01*
D13*
X48064Y-6015D02*
Y13670D01*
X67749Y-6015D02*
Y13670D01*
X48064D02*
X67749D01*
X48064Y-6015D02*
X67749D01*
X47158Y25087D02*
X66843D01*
X47158Y44772D02*
X66843D01*
Y25087D02*
Y44772D01*
X47158Y25087D02*
Y44772D01*
X47198Y88946D02*
X66883D01*
X47198Y108631D02*
X66883D01*
Y88946D02*
Y108631D01*
X47198Y88946D02*
Y108631D01*
X47119Y56938D02*
Y76623D01*
X66804Y56938D02*
Y76623D01*
X47119D02*
X66804D01*
X47119Y56938D02*
X66804D01*
X99383Y157946D02*
Y169954D01*
X87375Y157946D02*
Y169954D01*
X99383D01*
X87375Y157946D02*
X99383D01*
X60702Y160225D02*
Y172233D01*
X48694Y160225D02*
Y172233D01*
X60702D01*
X48694Y160225D02*
X60702D01*
X66214Y128922D02*
Y140930D01*
X54206Y128922D02*
Y140930D01*
Y128922D02*
X66214D01*
X54206Y140930D02*
X66214D01*
X8773Y159567D02*
X20780D01*
X8773Y171575D02*
X20780D01*
X8773Y159567D02*
Y171575D01*
X20780Y159567D02*
Y171575D01*
X180698Y5633D02*
X191328D01*
X180698Y-10115D02*
X191328D01*
X181012Y2759D02*
X191013D01*
X191328Y-10115D02*
Y5633D01*
X180698Y-10115D02*
Y5633D01*
D16*
X240336Y85080D02*
X243669Y88412D01*
Y85080D02*
X240336Y88412D01*
X242003Y85080D02*
Y88412D01*
X243669Y86746D02*
X240336D01*
X211769Y55782D02*
X208436Y52450D01*
Y55782D02*
X211769Y52450D01*
X210103Y55782D02*
Y52450D01*
X208436Y54116D02*
X211769D01*
D221*
X185875Y100611D02*
Y101711D01*
X181925D02*
X185875D01*
X181925Y100611D02*
Y101711D01*
Y100611D02*
X185875D01*
Y98643D02*
Y99743D01*
X181925D02*
X185875D01*
X181925Y98643D02*
Y99743D01*
Y98643D02*
X185875D01*
Y96674D02*
Y97774D01*
X181925D02*
X185875D01*
X181925Y96674D02*
Y97774D01*
Y96674D02*
X185875D01*
Y94706D02*
Y95806D01*
X181925D02*
X185875D01*
X181925Y94706D02*
Y95806D01*
Y94706D02*
X185875D01*
Y92737D02*
Y93837D01*
X181925D02*
X185875D01*
X181925Y92737D02*
Y93837D01*
Y92737D02*
X185875D01*
Y90769D02*
Y91869D01*
X181925D02*
X185875D01*
X181925Y90769D02*
Y91869D01*
Y90769D02*
X185875D01*
Y88800D02*
Y89900D01*
X181925D02*
X185875D01*
X181925Y88800D02*
Y89900D01*
Y88800D02*
X185875D01*
Y86832D02*
Y87932D01*
X181925D02*
X185875D01*
X181925Y86832D02*
Y87932D01*
Y86832D02*
X185875D01*
Y84863D02*
Y85963D01*
X181925D02*
X185875D01*
X181925Y84863D02*
Y85963D01*
Y84863D02*
X185875D01*
Y82895D02*
Y83995D01*
X181925D02*
X185875D01*
X181925Y82895D02*
Y83995D01*
Y82895D02*
X185875D01*
Y80926D02*
Y82026D01*
X181925D02*
X185875D01*
X181925Y80926D02*
Y82026D01*
Y80926D02*
X185875D01*
Y78958D02*
Y80058D01*
X181925D02*
X185875D01*
X181925Y78958D02*
Y80058D01*
Y78958D02*
X185875D01*
Y76989D02*
Y78089D01*
X181925D02*
X185875D01*
X181925Y76989D02*
Y78089D01*
Y76989D02*
X185875D01*
Y75021D02*
Y76121D01*
X181925D02*
X185875D01*
X181925Y75021D02*
Y76121D01*
Y75021D02*
X185875D01*
Y73052D02*
Y74152D01*
X181925D02*
X185875D01*
X181925Y73052D02*
Y74152D01*
Y73052D02*
X185875D01*
Y71084D02*
Y72184D01*
X181925D02*
X185875D01*
X181925Y71084D02*
Y72184D01*
Y71084D02*
X185875D01*
Y69115D02*
Y70215D01*
X181925D02*
X185875D01*
X181925Y69115D02*
Y70215D01*
Y69115D02*
X185875D01*
Y67147D02*
Y68247D01*
X181925D02*
X185875D01*
X181925Y67147D02*
Y68247D01*
Y67147D02*
X185875D01*
Y65178D02*
Y66278D01*
X181925D02*
X185875D01*
X181925Y65178D02*
Y66278D01*
Y65178D02*
X185875D01*
Y63210D02*
Y64310D01*
X181925D02*
X185875D01*
X181925Y63210D02*
Y64310D01*
Y63210D02*
X185875D01*
Y61241D02*
Y62341D01*
X181925D02*
X185875D01*
X181925Y61241D02*
Y62341D01*
Y61241D02*
X185875D01*
Y59273D02*
Y60373D01*
X181925D02*
X185875D01*
X181925Y59273D02*
Y60373D01*
Y59273D02*
X185875D01*
Y57304D02*
Y58404D01*
X181925D02*
X185875D01*
X181925Y57304D02*
Y58404D01*
Y57304D02*
X185875D01*
Y55336D02*
Y56436D01*
X181925D02*
X185875D01*
X181925Y55336D02*
Y56436D01*
Y55336D02*
X185875D01*
Y53367D02*
Y54467D01*
X181925D02*
X185875D01*
X181925Y53367D02*
Y54467D01*
Y53367D02*
X185875D01*
Y51399D02*
Y52499D01*
X181925D02*
X185875D01*
X181925Y51399D02*
Y52499D01*
Y51399D02*
X185875D01*
Y49430D02*
Y50530D01*
X181925D02*
X185875D01*
X181925Y49430D02*
Y50530D01*
Y49430D02*
X185875D01*
Y47462D02*
Y48562D01*
X181925D02*
X185875D01*
X181925Y47462D02*
Y48562D01*
Y47462D02*
X185875D01*
Y45493D02*
Y46593D01*
X181925D02*
X185875D01*
X181925Y45493D02*
Y46593D01*
Y45493D02*
X185875D01*
Y43525D02*
Y44625D01*
X181925D02*
X185875D01*
X181925Y43525D02*
Y44625D01*
Y43525D02*
X185875D01*
Y41556D02*
Y42656D01*
X181925D02*
X185875D01*
X181925Y41556D02*
Y42656D01*
Y41556D02*
X185875D01*
Y39588D02*
Y40688D01*
X181925D02*
X185875D01*
X181925Y39588D02*
Y40688D01*
Y39588D02*
X185875D01*
Y37619D02*
Y38719D01*
X181925D02*
X185875D01*
X181925Y37619D02*
Y38719D01*
Y37619D02*
X185875D01*
Y35651D02*
Y36751D01*
X181925D02*
X185875D01*
X181925Y35651D02*
Y36751D01*
Y35651D02*
X185875D01*
Y33682D02*
Y34782D01*
X181925D02*
X185875D01*
X181925Y33682D02*
Y34782D01*
Y33682D02*
X185875D01*
Y31714D02*
Y32814D01*
X181925D02*
X185875D01*
X181925Y31714D02*
Y32814D01*
Y31714D02*
X185875D01*
X190226Y27362D02*
X191326D01*
X190226Y23413D02*
Y27362D01*
Y23413D02*
X191326D01*
Y27362D01*
X192195D02*
X193295D01*
X192195Y23413D02*
Y27362D01*
Y23413D02*
X193295D01*
Y27362D01*
X194163D02*
X195263D01*
X194163Y23413D02*
Y27362D01*
Y23413D02*
X195263D01*
Y27362D01*
X196132D02*
X197232D01*
X196132Y23413D02*
Y27362D01*
Y23413D02*
X197232D01*
Y27362D01*
X198100D02*
X199200D01*
X198100Y23413D02*
Y27362D01*
Y23413D02*
X199200D01*
Y27362D01*
X200069D02*
X201169D01*
X200069Y23413D02*
Y27362D01*
Y23413D02*
X201169D01*
Y27362D01*
X202037D02*
X203137D01*
X202037Y23413D02*
Y27362D01*
Y23413D02*
X203137D01*
Y27362D01*
X204006D02*
X205106D01*
X204006Y23413D02*
Y27362D01*
Y23413D02*
X205106D01*
Y27362D01*
X205974D02*
X207074D01*
X205974Y23413D02*
Y27362D01*
Y23413D02*
X207074D01*
Y27362D01*
X207943D02*
X209043D01*
X207943Y23413D02*
Y27362D01*
Y23413D02*
X209043D01*
Y27362D01*
X209911D02*
X211011D01*
X209911Y23413D02*
Y27362D01*
Y23413D02*
X211011D01*
Y27362D01*
X211880D02*
X212980D01*
X211880Y23413D02*
Y27362D01*
Y23413D02*
X212980D01*
Y27362D01*
X213848D02*
X214948D01*
X213848Y23413D02*
Y27362D01*
Y23413D02*
X214948D01*
Y27362D01*
X215817D02*
X216917D01*
X215817Y23413D02*
Y27362D01*
Y23413D02*
X216917D01*
Y27362D01*
X217785D02*
X218885D01*
X217785Y23413D02*
Y27362D01*
Y23413D02*
X218885D01*
Y27362D01*
X219754D02*
X220854D01*
X219754Y23413D02*
Y27362D01*
Y23413D02*
X220854D01*
Y27362D01*
X221722D02*
X222822D01*
X221722Y23413D02*
Y27362D01*
Y23413D02*
X222822D01*
Y27362D01*
X223691D02*
X224791D01*
X223691Y23413D02*
Y27362D01*
Y23413D02*
X224791D01*
Y27362D01*
X225659D02*
X226759D01*
X225659Y23413D02*
Y27362D01*
Y23413D02*
X226759D01*
Y27362D01*
X227628D02*
X228728D01*
X227628Y23413D02*
Y27362D01*
Y23413D02*
X228728D01*
Y27362D01*
X229596D02*
X230696D01*
X229596Y23413D02*
Y27362D01*
Y23413D02*
X230696D01*
Y27362D01*
X231565D02*
X232665D01*
X231565Y23413D02*
Y27362D01*
Y23413D02*
X232665D01*
Y27362D01*
X233533D02*
X234633D01*
X233533Y23413D02*
Y27362D01*
Y23413D02*
X234633D01*
Y27362D01*
X235502D02*
X236602D01*
X235502Y23413D02*
Y27362D01*
Y23413D02*
X236602D01*
Y27362D01*
X237470D02*
X238570D01*
X237470Y23413D02*
Y27362D01*
Y23413D02*
X238570D01*
Y27362D01*
X239439D02*
X240539D01*
X239439Y23413D02*
Y27362D01*
Y23413D02*
X240539D01*
Y27362D01*
X241407D02*
X242507D01*
X241407Y23413D02*
Y27362D01*
Y23413D02*
X242507D01*
Y27362D01*
X243376D02*
X244476D01*
X243376Y23413D02*
Y27362D01*
Y23413D02*
X244476D01*
Y27362D01*
X245344D02*
X246444D01*
X245344Y23413D02*
Y27362D01*
Y23413D02*
X246444D01*
Y27362D01*
X247313D02*
X248413D01*
X247313Y23413D02*
Y27362D01*
Y23413D02*
X248413D01*
Y27362D01*
X249281D02*
X250381D01*
X249281Y23413D02*
Y27362D01*
Y23413D02*
X250381D01*
Y27362D01*
X251250D02*
X252350D01*
X251250Y23413D02*
Y27362D01*
Y23413D02*
X252350D01*
Y27362D01*
X253218D02*
X254318D01*
X253218Y23413D02*
Y27362D01*
Y23413D02*
X254318D01*
Y27362D01*
X255187D02*
X256287D01*
X255187Y23413D02*
Y27362D01*
Y23413D02*
X256287D01*
Y27362D01*
X257155D02*
X258255D01*
X257155Y23413D02*
Y27362D01*
Y23413D02*
X258255D01*
Y27362D01*
X259124D02*
X260224D01*
X259124Y23413D02*
Y27362D01*
Y23413D02*
X260224D01*
Y27362D01*
X264575Y31714D02*
Y32814D01*
Y31714D02*
X268525D01*
Y32814D01*
X264575D02*
X268525D01*
X264575Y33682D02*
Y34782D01*
Y33682D02*
X268525D01*
Y34782D01*
X264575D02*
X268525D01*
X264575Y35651D02*
Y36751D01*
Y35651D02*
X268525D01*
Y36751D01*
X264575D02*
X268525D01*
X264575Y37619D02*
Y38719D01*
Y37619D02*
X268525D01*
Y38719D01*
X264575D02*
X268525D01*
X264575Y39588D02*
Y40688D01*
Y39588D02*
X268525D01*
Y40688D01*
X264575D02*
X268525D01*
X264575Y41556D02*
Y42656D01*
Y41556D02*
X268525D01*
Y42656D01*
X264575D02*
X268525D01*
X264575Y43525D02*
Y44625D01*
Y43525D02*
X268525D01*
Y44625D01*
X264575D02*
X268525D01*
X264575Y45493D02*
Y46593D01*
Y45493D02*
X268525D01*
Y46593D01*
X264575D02*
X268525D01*
X264575Y47462D02*
Y48562D01*
Y47462D02*
X268525D01*
Y48562D01*
X264575D02*
X268525D01*
X264575Y49430D02*
Y50530D01*
Y49430D02*
X268525D01*
Y50530D01*
X264575D02*
X268525D01*
X264575Y51399D02*
Y52499D01*
Y51399D02*
X268525D01*
Y52499D01*
X264575D02*
X268525D01*
X264575Y53367D02*
Y54467D01*
Y53367D02*
X268525D01*
Y54467D01*
X264575D02*
X268525D01*
X264575Y55336D02*
Y56436D01*
Y55336D02*
X268525D01*
Y56436D01*
X264575D02*
X268525D01*
X264575Y57304D02*
Y58404D01*
Y57304D02*
X268525D01*
Y58404D01*
X264575D02*
X268525D01*
X264575Y59273D02*
Y60373D01*
Y59273D02*
X268525D01*
Y60373D01*
X264575D02*
X268525D01*
X264575Y61241D02*
Y62341D01*
Y61241D02*
X268525D01*
Y62341D01*
X264575D02*
X268525D01*
X264575Y63210D02*
Y64310D01*
Y63210D02*
X268525D01*
Y64310D01*
X264575D02*
X268525D01*
X264575Y65178D02*
Y66278D01*
Y65178D02*
X268525D01*
Y66278D01*
X264575D02*
X268525D01*
X264575Y67147D02*
Y68247D01*
Y67147D02*
X268525D01*
Y68247D01*
X264575D02*
X268525D01*
X264575Y69115D02*
Y70215D01*
Y69115D02*
X268525D01*
Y70215D01*
X264575D02*
X268525D01*
X264575Y71084D02*
Y72184D01*
Y71084D02*
X268525D01*
Y72184D01*
X264575D02*
X268525D01*
X264575Y73052D02*
Y74152D01*
Y73052D02*
X268525D01*
Y74152D01*
X264575D02*
X268525D01*
X264575Y75021D02*
Y76121D01*
Y75021D02*
X268525D01*
Y76121D01*
X264575D02*
X268525D01*
X264575Y76989D02*
Y78089D01*
Y76989D02*
X268525D01*
Y78089D01*
X264575D02*
X268525D01*
X264575Y78958D02*
Y80058D01*
Y78958D02*
X268525D01*
Y80058D01*
X264575D02*
X268525D01*
X264575Y80926D02*
Y82026D01*
Y80926D02*
X268525D01*
Y82026D01*
X264575D02*
X268525D01*
X264575Y82895D02*
Y83995D01*
Y82895D02*
X268525D01*
Y83995D01*
X264575D02*
X268525D01*
X264575Y84863D02*
Y85963D01*
Y84863D02*
X268525D01*
Y85963D01*
X264575D02*
X268525D01*
X264575Y86832D02*
Y87932D01*
Y86832D02*
X268525D01*
Y87932D01*
X264575D02*
X268525D01*
X264575Y88800D02*
Y89900D01*
Y88800D02*
X268525D01*
Y89900D01*
X264575D02*
X268525D01*
X264575Y90769D02*
Y91869D01*
Y90769D02*
X268525D01*
Y91869D01*
X264575D02*
X268525D01*
X264575Y92737D02*
Y93837D01*
Y92737D02*
X268525D01*
Y93837D01*
X264575D02*
X268525D01*
X264575Y94706D02*
Y95806D01*
Y94706D02*
X268525D01*
Y95806D01*
X264575D02*
X268525D01*
X264575Y96674D02*
Y97774D01*
Y96674D02*
X268525D01*
Y97774D01*
X264575D02*
X268525D01*
X264575Y98643D02*
Y99743D01*
Y98643D02*
X268525D01*
Y99743D01*
X264575D02*
X268525D01*
X264575Y100611D02*
Y101711D01*
Y100611D02*
X268525D01*
Y101711D01*
X264575D02*
X268525D01*
X259124Y106062D02*
X260224D01*
Y110012D01*
X259124D02*
X260224D01*
X259124Y106062D02*
Y110012D01*
X257155Y106062D02*
X258255D01*
Y110012D01*
X257155D02*
X258255D01*
X257155Y106062D02*
Y110012D01*
X255187Y106062D02*
X256287D01*
Y110012D01*
X255187D02*
X256287D01*
X255187Y106062D02*
Y110012D01*
X253218Y106062D02*
X254318D01*
Y110012D01*
X253218D02*
X254318D01*
X253218Y106062D02*
Y110012D01*
X251250Y106062D02*
X252350D01*
Y110012D01*
X251250D02*
X252350D01*
X251250Y106062D02*
Y110012D01*
X249281Y106062D02*
X250381D01*
Y110012D01*
X249281D02*
X250381D01*
X249281Y106062D02*
Y110012D01*
X247313Y106062D02*
X248413D01*
Y110012D01*
X247313D02*
X248413D01*
X247313Y106062D02*
Y110012D01*
X245344Y106062D02*
X246444D01*
Y110012D01*
X245344D02*
X246444D01*
X245344Y106062D02*
Y110012D01*
X243376Y106062D02*
X244476D01*
Y110012D01*
X243376D02*
X244476D01*
X243376Y106062D02*
Y110012D01*
X241407Y106062D02*
X242507D01*
Y110012D01*
X241407D02*
X242507D01*
X241407Y106062D02*
Y110012D01*
X239439Y106062D02*
X240539D01*
Y110012D01*
X239439D02*
X240539D01*
X239439Y106062D02*
Y110012D01*
X237470Y106062D02*
X238570D01*
Y110012D01*
X237470D02*
X238570D01*
X237470Y106062D02*
Y110012D01*
X235502Y106062D02*
X236602D01*
Y110012D01*
X235502D02*
X236602D01*
X235502Y106062D02*
Y110012D01*
X233533Y106062D02*
X234633D01*
Y110012D01*
X233533D02*
X234633D01*
X233533Y106062D02*
Y110012D01*
X231565Y106062D02*
X232665D01*
Y110012D01*
X231565D02*
X232665D01*
X231565Y106062D02*
Y110012D01*
X229596Y106062D02*
X230696D01*
Y110012D01*
X229596D02*
X230696D01*
X229596Y106062D02*
Y110012D01*
X227628Y106062D02*
X228728D01*
Y110012D01*
X227628D02*
X228728D01*
X227628Y106062D02*
Y110012D01*
X225659Y106062D02*
X226759D01*
Y110012D01*
X225659D02*
X226759D01*
X225659Y106062D02*
Y110012D01*
X223691Y106062D02*
X224791D01*
Y110012D01*
X223691D02*
X224791D01*
X223691Y106062D02*
Y110012D01*
X221722Y106062D02*
X222822D01*
Y110012D01*
X221722D02*
X222822D01*
X221722Y106062D02*
Y110012D01*
X219754Y106062D02*
X220854D01*
Y110012D01*
X219754D02*
X220854D01*
X219754Y106062D02*
Y110012D01*
X217785Y106062D02*
X218885D01*
Y110012D01*
X217785D02*
X218885D01*
X217785Y106062D02*
Y110012D01*
X215817Y106062D02*
X216917D01*
Y110012D01*
X215817D02*
X216917D01*
X215817Y106062D02*
Y110012D01*
X213848Y106062D02*
X214948D01*
Y110012D01*
X213848D02*
X214948D01*
X213848Y106062D02*
Y110012D01*
X211880Y106062D02*
X212980D01*
Y110012D01*
X211880D02*
X212980D01*
X211880Y106062D02*
Y110012D01*
X209911Y106062D02*
X211011D01*
Y110012D01*
X209911D02*
X211011D01*
X209911Y106062D02*
Y110012D01*
X207943Y106062D02*
X209043D01*
Y110012D01*
X207943D02*
X209043D01*
X207943Y106062D02*
Y110012D01*
X205974Y106062D02*
X207074D01*
Y110012D01*
X205974D02*
X207074D01*
X205974Y106062D02*
Y110012D01*
X204006Y106062D02*
X205106D01*
Y110012D01*
X204006D02*
X205106D01*
X204006Y106062D02*
Y110012D01*
X202037Y106062D02*
X203137D01*
Y110012D01*
X202037D02*
X203137D01*
X202037Y106062D02*
Y110012D01*
X200069Y106062D02*
X201169D01*
Y110012D01*
X200069D02*
X201169D01*
X200069Y106062D02*
Y110012D01*
X198100Y106062D02*
X199200D01*
Y110012D01*
X198100D02*
X199200D01*
X198100Y106062D02*
Y110012D01*
X196132Y106062D02*
X197232D01*
Y110012D01*
X196132D02*
X197232D01*
X196132Y106062D02*
Y110012D01*
X194163Y106062D02*
X195263D01*
Y110012D01*
X194163D02*
X195263D01*
X194163Y106062D02*
Y110012D01*
X192195Y106062D02*
X193295D01*
Y110012D01*
X192195D02*
X193295D01*
X192195Y106062D02*
Y110012D01*
X190226Y106062D02*
X191326D01*
Y110012D01*
X190226D02*
X191326D01*
X190226Y106062D02*
Y110012D01*
X185875Y32362D02*
X190875Y27362D01*
X264575D02*
Y106062D01*
X185875D02*
X264575D01*
X185875Y27362D02*
Y106062D01*
Y27362D02*
X264575D01*
X260462Y3322D02*
X269162D01*
Y-1978D02*
Y3322D01*
X260462Y-1978D02*
X269162D01*
X260462D02*
Y3322D01*
X267971Y-3678D02*
Y-1978D01*
X266771Y-3678D02*
X267971D01*
X266771D02*
Y-1978D01*
X267971D01*
X262853Y-3678D02*
Y-1978D01*
X261653Y-3678D02*
X262853D01*
X261653D02*
Y-1978D01*
X262853D01*
X261653Y3322D02*
Y5022D01*
X262853D01*
Y3322D02*
Y5022D01*
X261653Y3322D02*
X262853D01*
X264212D02*
Y5022D01*
X265412D01*
Y3322D02*
Y5022D01*
X264212Y3322D02*
X265412D01*
X266771D02*
Y5022D01*
X267971D01*
Y3322D02*
Y5022D01*
X266771Y3322D02*
X267971D01*
D222*
X435117Y20515D02*
G03*
X435117Y20515I-1969J0D01*
G01*
X206642Y123802D02*
G03*
X206642Y123802I-1969J0D01*
G01*
X257272Y124019D02*
G03*
X257272Y124019I-1969J0D01*
G01*
X308847D02*
G03*
X308847Y124019I-1969J0D01*
G01*
X359949D02*
G03*
X359949Y124019I-1969J0D01*
G01*
X435117Y106184D02*
G03*
X435117Y106184I-1969J0D01*
G01*
Y62641D02*
G03*
X435117Y62641I-1969J0D01*
G01*
Y148599D02*
G03*
X435117Y148599I-1969J0D01*
G01*
X390422Y165341D02*
G03*
X390422Y165341I-12402J0D01*
G01*
Y38979D02*
G03*
X390422Y38979I-12402J0D01*
G01*
Y122926D02*
G03*
X390422Y122926I-12402J0D01*
G01*
Y79383D02*
G03*
X390422Y79383I-12402J0D01*
G01*
X358414Y62208D02*
G03*
X358414Y62208I-1969J0D01*
G01*
X279337Y15830D02*
X286030D01*
X279337Y3231D02*
X286030D01*
Y15830D01*
X279337Y3231D02*
Y15830D01*
X457686Y103861D02*
Y112129D01*
X452371Y103861D02*
Y112129D01*
X457686D01*
X452371Y103861D02*
X457686D01*
X314823Y91646D02*
X330177D01*
Y72354D02*
Y91646D01*
X314823Y72354D02*
X330177D01*
X314823D02*
Y91646D01*
Y86646D02*
X319823Y91646D01*
X312646Y47083D02*
X318354D01*
X312646Y38421D02*
X318354D01*
Y47083D01*
X312646Y38421D02*
Y47083D01*
X315000Y64646D02*
X320000Y69646D01*
X315000Y50354D02*
Y69646D01*
Y50354D02*
X330354D01*
Y69646D01*
X315000D02*
X330354D01*
X341146Y57583D02*
X346854D01*
X341146Y48921D02*
X346854D01*
Y57583D01*
X341146Y48921D02*
Y57583D01*
X323138Y28664D02*
X334635D01*
X323138Y33783D02*
X334635D01*
X323138Y28664D02*
Y33783D01*
X334635Y28664D02*
Y33783D01*
X123650Y83796D02*
Y124347D01*
X93532Y83796D02*
X123650D01*
X83099Y96198D02*
X93532Y83796D01*
X83099Y96198D02*
Y111946D01*
X93532Y124347D01*
X123650D01*
X147349Y41698D02*
X151090D01*
X147349Y48391D02*
X151090D01*
X147349Y41698D02*
Y48391D01*
X151090Y41698D02*
Y48391D01*
X372056Y9137D02*
Y13074D01*
X379142Y9137D02*
Y13074D01*
X372056D02*
X379142D01*
X372056Y9137D02*
X379142D01*
X392597Y57739D02*
X450471D01*
X392597Y16755D02*
X450471D01*
X392597D02*
Y57739D01*
X450471Y16755D02*
Y57739D01*
X287228Y5153D02*
X290772D01*
X287228Y11846D02*
X290772D01*
X287228Y5153D02*
Y11846D01*
X290772Y5153D02*
Y11846D01*
X318728Y5654D02*
X322272D01*
X318728Y12347D02*
X322272D01*
X318728Y5654D02*
Y12347D01*
X322272Y5654D02*
Y12347D01*
X334597Y12188D02*
X338141D01*
X334597Y5495D02*
X338141D01*
Y12188D01*
X334597Y5495D02*
Y12188D01*
X74816Y116426D02*
X78753D01*
X74816Y123512D02*
X78753D01*
X74816Y116426D02*
Y123512D01*
X78753Y116426D02*
Y123512D01*
X78221Y146313D02*
Y150250D01*
X85308Y146313D02*
Y150250D01*
X78221D02*
X85308D01*
X78221Y146313D02*
X85308D01*
X584Y148583D02*
Y152520D01*
X7670Y148583D02*
Y152520D01*
X584D02*
X7670D01*
X584Y148583D02*
X7670D01*
X38576Y148906D02*
Y152843D01*
X45662Y148906D02*
Y152843D01*
X38576D02*
X45662D01*
X38576Y148906D02*
X45662D01*
X353138Y177031D02*
Y180771D01*
X346446Y177031D02*
Y180771D01*
Y177031D02*
X353138D01*
X346446Y180771D02*
X353138D01*
X353099Y184944D02*
Y188684D01*
X346406Y184944D02*
Y188684D01*
Y184944D02*
X353099D01*
X346406Y188684D02*
X353099D01*
X302154Y177070D02*
Y180810D01*
X295461Y177070D02*
Y180810D01*
Y177070D02*
X302154D01*
X295461Y180810D02*
X302154D01*
X302115Y185535D02*
Y189275D01*
X295422Y185535D02*
Y189275D01*
Y185535D02*
X302115D01*
X295422Y189275D02*
X302115D01*
X249438Y176834D02*
Y180574D01*
X242745Y176834D02*
Y180574D01*
Y176834D02*
X249438D01*
X242745Y180574D02*
X249438D01*
X249851Y185416D02*
Y189157D01*
X243158Y185416D02*
Y189157D01*
Y185416D02*
X249851D01*
X243158Y189157D02*
X249851D01*
X193690Y177306D02*
Y181046D01*
X186997Y177306D02*
Y181046D01*
Y177306D02*
X193690D01*
X186997Y181046D02*
X193690D01*
X193572Y185653D02*
Y189393D01*
X186879Y185653D02*
Y189393D01*
Y185653D02*
X193572D01*
X186879Y189393D02*
X193572D01*
X469516Y101539D02*
Y114924D01*
X462430Y101539D02*
Y114924D01*
X469516D01*
X462430Y101539D02*
X469516D01*
X469674Y145594D02*
Y158979D01*
X462587Y145594D02*
Y158979D01*
X469674D01*
X462587Y145594D02*
X469674D01*
X469635Y59097D02*
Y72483D01*
X462548Y59097D02*
Y72483D01*
X469635D01*
X462548Y59097D02*
X469635D01*
X469753Y15357D02*
Y28743D01*
X462666Y15357D02*
Y28743D01*
X469753D01*
X462666Y15357D02*
X469753D01*
X452371Y146538D02*
X457686D01*
X452371Y154806D02*
X457686D01*
X452371Y146538D02*
Y154806D01*
X457686Y146538D02*
Y154806D01*
X452883Y60692D02*
X458197D01*
X452883Y68960D02*
X458197D01*
X452883Y60692D02*
Y68960D01*
X458197Y60692D02*
Y68960D01*
X452804Y18231D02*
X458119D01*
X452804Y26499D02*
X458119D01*
X452804Y18231D02*
Y26499D01*
X458119Y18231D02*
Y26499D01*
X141603Y98861D02*
Y105160D01*
X153020D01*
Y98861D02*
Y105160D01*
X141603Y98861D02*
X153020D01*
X141603Y102602D02*
X145343Y98861D01*
X162244Y63768D02*
X167756D01*
X162244Y72232D02*
X167756D01*
X162244Y63768D02*
Y72232D01*
X167756Y63768D02*
Y72232D01*
X154244Y63768D02*
X159756D01*
X154244Y72232D02*
X159756D01*
X154244Y63768D02*
Y72232D01*
X159756Y63768D02*
Y72232D01*
X154244Y79268D02*
X159756D01*
X154244Y87732D02*
X159756D01*
X154244Y79268D02*
Y87732D01*
X159756Y79268D02*
Y87732D01*
X162244Y87732D02*
X167756D01*
X162244Y79268D02*
X167756D01*
Y87732D01*
X162244Y79268D02*
Y87732D01*
X113898Y39471D02*
Y80415D01*
X76890Y39471D02*
Y80415D01*
Y39471D02*
X113898D01*
X76890Y80415D02*
X113898D01*
X85505Y177646D02*
Y181386D01*
X78812Y177646D02*
Y181386D01*
Y177646D02*
X85505D01*
X78812Y181386D02*
X85505D01*
X89698Y146805D02*
Y150545D01*
X96588Y146805D02*
Y150545D01*
X89698D02*
X96588D01*
X89698Y146805D02*
X96588D01*
X62084Y163522D02*
Y170412D01*
X65824Y163522D02*
Y170412D01*
X62084Y163522D02*
X65824D01*
X62084Y170412D02*
X65824D01*
X83910Y163316D02*
Y170205D01*
X71903Y163316D02*
Y170205D01*
X83910D01*
X71903Y163316D02*
X83910D01*
X78123Y151490D02*
Y155230D01*
X85013Y151490D02*
Y155230D01*
X78123D02*
X85013D01*
X78123Y151490D02*
X85013D01*
X50702Y149477D02*
X57591D01*
X50702Y153217D02*
X57591D01*
Y149477D02*
Y153217D01*
X50702Y149477D02*
Y153217D01*
X53458Y142804D02*
Y146544D01*
X60347Y142804D02*
Y146544D01*
X53458D02*
X60347D01*
X53458Y142804D02*
X60347D01*
X38595Y154044D02*
X45485D01*
X38595Y157784D02*
X45485D01*
Y154044D02*
Y157784D01*
X38595Y154044D02*
Y157784D01*
X45485Y165476D02*
Y172366D01*
X33477Y165476D02*
Y172366D01*
X45485D01*
X33477Y165476D02*
X45485D01*
X39245Y130457D02*
X46135D01*
X39245Y134197D02*
X46135D01*
Y130457D02*
Y134197D01*
X39245Y130457D02*
Y134197D01*
Y135182D02*
X46135D01*
X39245Y138922D02*
X46135D01*
Y135182D02*
Y138922D01*
X39245Y135182D02*
Y138922D01*
X43339Y119453D02*
Y126146D01*
X47080Y119453D02*
Y126146D01*
X43339Y119453D02*
X47080D01*
X43339Y126146D02*
X47080D01*
X77414Y131028D02*
Y137918D01*
X73674Y131028D02*
Y137918D01*
X77414D01*
X73674Y131028D02*
X77414D01*
X54836Y125654D02*
X61725D01*
X54836Y113646D02*
X61725D01*
X54836D02*
Y125654D01*
X61725Y113646D02*
Y125654D01*
X44028Y54910D02*
X46194D01*
X44028Y50776D02*
X46194D01*
Y54910D01*
X44028Y50776D02*
Y54910D01*
X40446Y50776D02*
X42611D01*
X40446Y54910D02*
X42611D01*
X40446Y50776D02*
Y54910D01*
X42611Y50776D02*
Y54910D01*
X44088Y62823D02*
Y69713D01*
X40308Y62823D02*
Y69713D01*
X44088D01*
X40308Y62823D02*
X44088D01*
X58871Y83276D02*
X65761D01*
X58871Y79497D02*
X65761D01*
X58871D02*
Y83276D01*
X65761Y79497D02*
Y83276D01*
X43989Y87528D02*
X46154D01*
X43989Y83394D02*
X46154D01*
Y87528D01*
X43989Y83394D02*
Y87528D01*
X40091Y83473D02*
X42257D01*
X40091Y87607D02*
X42257D01*
X40091Y83473D02*
Y87607D01*
X42257Y83473D02*
Y87607D01*
X57887Y51780D02*
X64776D01*
X57887Y48001D02*
X64776D01*
X57887D02*
Y51780D01*
X64776Y48001D02*
Y51780D01*
X44068Y23847D02*
X46233D01*
X44068Y19713D02*
X46233D01*
Y23847D01*
X44068Y19713D02*
Y23847D01*
X40879Y19713D02*
X43044D01*
X40879Y23847D02*
X43044D01*
X40879Y19713D02*
Y23847D01*
X43044Y19713D02*
Y23847D01*
X58280Y19891D02*
X65170D01*
X58280Y16111D02*
X65170D01*
X58280D02*
Y19891D01*
X65170Y16111D02*
Y19891D01*
X6607Y165079D02*
Y171969D01*
X-5401Y165079D02*
Y171969D01*
X6607D01*
X-5401Y165079D02*
X6607D01*
X485Y153799D02*
X7375D01*
X485Y157540D02*
X7375D01*
Y153799D02*
Y157540D01*
X485Y153799D02*
Y157540D01*
X44717Y-680D02*
Y6209D01*
X40938Y-680D02*
Y6209D01*
X44717D01*
X40938Y-680D02*
X44717D01*
X73694Y116638D02*
Y123528D01*
X69954Y116638D02*
Y123528D01*
X73694D01*
X69954Y116638D02*
X73694D01*
X43615Y95068D02*
Y101957D01*
X39836Y95068D02*
Y101957D01*
X43615D01*
X39836Y95068D02*
X43615D01*
X43576Y31091D02*
Y37981D01*
X39796Y31091D02*
Y37981D01*
X43576D01*
X39796Y31091D02*
X43576D01*
X11194Y148957D02*
X18084D01*
X11194Y152697D02*
X18084D01*
Y148957D02*
Y152697D01*
X11194Y148957D02*
Y152697D01*
X22749Y164654D02*
Y171544D01*
X26489Y164654D02*
Y171544D01*
X22749Y164654D02*
X26489D01*
X22749Y171544D02*
X26489D01*
X40879Y-11822D02*
X43044D01*
X40879Y-7688D02*
X43044D01*
X40879Y-11822D02*
Y-7688D01*
X43044Y-11822D02*
Y-7688D01*
X44462Y-7728D02*
X46627D01*
X44462Y-11862D02*
X46627D01*
Y-7728D01*
X44462Y-11862D02*
Y-7728D01*
X63399Y-14302D02*
Y-10523D01*
X56509Y-14302D02*
Y-10523D01*
Y-14302D02*
X63399D01*
X56509Y-10523D02*
X63399D01*
X505Y183288D02*
X7198D01*
X505Y179548D02*
X7198D01*
X505D02*
Y183288D01*
X7198Y179548D02*
Y183288D01*
X38930Y183847D02*
X45623D01*
X38930Y180107D02*
X45623D01*
X38930D02*
Y183847D01*
X45623Y180107D02*
Y183847D01*
X172075Y77936D02*
Y84826D01*
X175855Y77936D02*
Y84826D01*
X172075Y77936D02*
X175855D01*
X172075Y84826D02*
X175855D01*
X160973Y167503D02*
X208217D01*
X160973Y120259D02*
X208217D01*
X160973D02*
Y167503D01*
X208217Y120259D02*
Y167503D01*
X155639Y128172D02*
Y135062D01*
X151898Y128172D02*
Y135062D01*
X155639D01*
X151898Y128172D02*
X155639D01*
X173414Y54944D02*
X177194D01*
X173414Y48054D02*
X177194D01*
Y54944D01*
X173414Y48054D02*
Y54944D01*
X94304Y184568D02*
X98044D01*
X94304Y177678D02*
X98044D01*
Y184568D01*
X94304Y177678D02*
Y184568D01*
X89029Y184513D02*
X92769D01*
X89029Y177624D02*
X92769D01*
Y184513D01*
X89029Y177624D02*
Y184513D01*
X136780Y41153D02*
Y49815D01*
X142489Y41153D02*
Y49815D01*
X136780Y41153D02*
X142489D01*
X136780Y49815D02*
X142489D01*
X414713Y11539D02*
X418650D01*
X414713Y4452D02*
X418650D01*
Y11539D01*
X414713Y4452D02*
Y11539D01*
X420737Y-2241D02*
X424674D01*
X420737Y-9328D02*
X424674D01*
Y-2241D01*
X420737Y-9328D02*
Y-2241D01*
X211603Y167720D02*
X258847D01*
X211603Y120475D02*
X258847D01*
X211603D02*
Y167720D01*
X258847Y120475D02*
Y167720D01*
X310422Y120475D02*
Y167720D01*
X263178Y120475D02*
Y167720D01*
Y120475D02*
X310422D01*
X263178Y167720D02*
X310422D01*
X314280D02*
X361524D01*
X314280Y120475D02*
X361524D01*
X314280D02*
Y167720D01*
X361524Y120475D02*
Y167720D01*
X392597Y143409D02*
X450471D01*
X392597Y102424D02*
X450471D01*
X392597D02*
Y143409D01*
X450471Y102424D02*
Y143409D01*
X392597Y99865D02*
X450471D01*
X392597Y58881D02*
X450471D01*
X392597D02*
Y99865D01*
X450471Y58881D02*
Y99865D01*
X316748Y26941D02*
Y32059D01*
X305252Y26941D02*
Y32059D01*
X316748D01*
X305252Y26941D02*
X316748D01*
X450471Y144839D02*
Y185823D01*
X392597Y144839D02*
Y185823D01*
Y144839D02*
X450471D01*
X392597Y185823D02*
X450471D01*
X228178Y-16611D02*
Y3271D01*
X197233Y-16611D02*
X228178D01*
X197233D02*
Y3271D01*
X228178D01*
X365402Y1145D02*
Y18861D01*
X354418Y1145D02*
Y18861D01*
X365402D01*
X354418Y1145D02*
X365402D01*
X236898Y10515D02*
X250402D01*
Y-14485D02*
Y10515D01*
X236898Y-14485D02*
X250402D01*
X236898D02*
Y10515D01*
X299228Y71653D02*
X302772D01*
X299228Y78347D02*
X302772D01*
X299228Y71653D02*
Y78347D01*
X302772Y71653D02*
Y78347D01*
X150343Y161794D02*
Y168684D01*
X154083Y161794D02*
Y168684D01*
X150343Y161794D02*
X154083D01*
X150343Y168684D02*
X154083D01*
X23930Y186511D02*
X27670D01*
X23930Y179621D02*
X27670D01*
Y186511D01*
X23930Y179621D02*
Y186511D01*
X29127Y186589D02*
X32867D01*
X29127Y179700D02*
X32867D01*
Y186589D01*
X29127Y179700D02*
Y186589D01*
X49343Y187906D02*
X53083D01*
X49343Y181016D02*
X53083D01*
Y187906D01*
X49343Y181016D02*
Y187906D01*
X54500Y187945D02*
X58240D01*
X54500Y181055D02*
X58240D01*
Y187945D01*
X54500Y181055D02*
Y187945D01*
X463591Y140712D02*
X469300D01*
X463591Y132050D02*
X469300D01*
Y140712D01*
X463591Y132050D02*
Y140712D01*
X462843Y176972D02*
Y185633D01*
X468552Y176972D02*
Y185633D01*
X462843Y176972D02*
X468552D01*
X462843Y185633D02*
X468552D01*
X452528Y89019D02*
Y97680D01*
X458237Y89019D02*
Y97680D01*
X452528Y89019D02*
X458237D01*
X452528Y97680D02*
X458237D01*
X452577Y139216D02*
X458286D01*
X452577Y130554D02*
X458286D01*
Y139216D01*
X452577Y130554D02*
Y139216D01*
X452056Y183035D02*
X457764D01*
X452056Y174373D02*
X457764D01*
Y183035D01*
X452056Y174373D02*
Y183035D01*
X463355Y98035D02*
X469064D01*
X463355Y89373D02*
X469064D01*
Y98035D01*
X463355Y89373D02*
Y98035D01*
X453473Y45987D02*
Y54649D01*
X459182Y45987D02*
Y54649D01*
X453473Y45987D02*
X459182D01*
X453473Y54649D02*
X459182D01*
X463788Y55042D02*
X469497D01*
X463788Y46381D02*
X469497D01*
Y55042D01*
X463788Y46381D02*
Y55042D01*
X341800Y175791D02*
Y182483D01*
X329202Y175791D02*
Y182483D01*
Y175791D02*
X341800D01*
X329202Y182483D02*
X341800D01*
X329162Y190436D02*
X341761D01*
X329162Y183743D02*
X341761D01*
X329162D02*
Y190436D01*
X341761Y183743D02*
Y190436D01*
X352765Y169826D02*
Y173566D01*
X345875Y169826D02*
Y173566D01*
Y169826D02*
X352765D01*
X345875Y173566D02*
X352765D01*
X321505Y173802D02*
X328394D01*
X321505Y170062D02*
X328394D01*
X321505D02*
Y173802D01*
X328394Y170062D02*
Y173802D01*
X307027Y6086D02*
Y12976D01*
X303287Y6086D02*
Y12976D01*
X307027D01*
X303287Y6086D02*
X307027D01*
X272509Y6066D02*
X276052D01*
X272509Y12759D02*
X276052D01*
X272509Y6066D02*
Y12759D01*
X276052Y6066D02*
Y12759D01*
X424536Y653D02*
Y7542D01*
X420796Y653D02*
Y7542D01*
X424536D01*
X420796Y653D02*
X424536D01*
X220737Y6558D02*
Y10298D01*
X227430Y6558D02*
Y10298D01*
X220737D02*
X227430D01*
X220737Y6558D02*
X227430D01*
X199556Y10338D02*
Y14078D01*
X206249Y10338D02*
Y14078D01*
X199556D02*
X206249D01*
X199556Y10338D02*
X206249D01*
X295041Y3231D02*
Y15830D01*
X301734Y3231D02*
Y15830D01*
X295041Y3231D02*
X301734D01*
X295041Y15830D02*
X301734D01*
X290579Y175594D02*
Y182287D01*
X277981Y175594D02*
Y182287D01*
Y175594D02*
X290579D01*
X277981Y182287D02*
X290579D01*
X278020Y190515D02*
X290619D01*
X278020Y183822D02*
X290619D01*
X278020D02*
Y190515D01*
X290619Y183822D02*
Y190515D01*
X238060Y175751D02*
Y182444D01*
X225461Y175751D02*
Y182444D01*
Y175751D02*
X238060D01*
X225461Y182444D02*
X238060D01*
X225461Y190712D02*
X238060D01*
X225461Y184019D02*
X238060D01*
X225461D02*
Y190712D01*
X238060Y184019D02*
Y190712D01*
X181839Y175712D02*
Y182405D01*
X169241Y175712D02*
Y182405D01*
Y175712D02*
X181839D01*
X169241Y182405D02*
X181839D01*
X181839Y183979D02*
Y190672D01*
X169241Y183979D02*
Y190672D01*
Y183979D02*
X181839D01*
X169241Y190672D02*
X181839D01*
X310746Y15830D02*
X317439D01*
X310746Y3231D02*
X317439D01*
Y15830D01*
X310746Y3231D02*
Y15830D01*
X275127Y43349D02*
X282016D01*
X275127Y47129D02*
X282016D01*
Y43349D02*
Y47129D01*
X275127Y43349D02*
Y47129D01*
X196308Y19767D02*
X203198D01*
X196308Y15987D02*
X203198D01*
X196308D02*
Y19767D01*
X203198Y15987D02*
Y19767D01*
X218237Y18074D02*
X225127D01*
X218237Y14294D02*
X225127D01*
X218237D02*
Y18074D01*
X225127Y14294D02*
Y18074D01*
X186555Y117890D02*
X193445D01*
X186555Y114110D02*
X193445D01*
X186555D02*
Y117890D01*
X193445Y114110D02*
Y117890D01*
X210284Y113349D02*
X217174D01*
X210284Y117129D02*
X217174D01*
Y113349D02*
Y117129D01*
X210284Y113349D02*
Y117129D01*
X309182Y96519D02*
X331190D01*
Y106008D01*
X309182Y106007D02*
X331190D01*
X309182Y96519D02*
Y106007D01*
X339182Y96519D02*
X361190D01*
Y106008D01*
X339182Y106007D02*
X361190D01*
X339182Y96519D02*
Y106007D01*
X294103Y173920D02*
X300993D01*
X294103Y170180D02*
X300993D01*
X294103D02*
Y173920D01*
X300993Y170180D02*
Y173920D01*
X270166Y173881D02*
X277056D01*
X270166Y170141D02*
X277056D01*
X270166D02*
Y173881D01*
X277056Y170141D02*
Y173881D01*
X242489Y173645D02*
X249379D01*
X242489Y169905D02*
X249379D01*
X242489D02*
Y173645D01*
X249379Y169905D02*
Y173645D01*
X221406Y173901D02*
X228296D01*
X221406Y170160D02*
X228296D01*
X221406D02*
Y173901D01*
X228296Y170160D02*
Y173901D01*
X305639Y41223D02*
X309379D01*
X305639Y47916D02*
X309379D01*
X305639Y41223D02*
Y47916D01*
X309379Y41223D02*
Y47916D01*
X300009Y41302D02*
Y47995D01*
X303749Y41302D02*
Y47995D01*
X300009Y41302D02*
X303749D01*
X300009Y47995D02*
X303749D01*
X293788Y41243D02*
X297528D01*
X293788Y47936D02*
X297528D01*
X293788Y41243D02*
Y47936D01*
X297528Y41243D02*
Y47936D01*
X288512Y47897D02*
X292253D01*
X288512Y41204D02*
X292253D01*
Y47897D01*
X288512Y41204D02*
Y47897D01*
X348178Y53940D02*
Y65751D01*
X359989Y53940D02*
Y65751D01*
X348178Y53940D02*
X359989D01*
X348178Y65751D02*
X359989D01*
X341052Y43723D02*
X346564D01*
X341052Y35259D02*
X346564D01*
Y43723D01*
X341052Y35259D02*
Y43723D01*
X348690Y35141D02*
Y43605D01*
X354202Y35141D02*
Y43605D01*
X348690Y35141D02*
X354202D01*
X348690Y43605D02*
X354202D01*
X356721Y35141D02*
Y43605D01*
X362233Y35141D02*
Y43605D01*
X356721Y35141D02*
X362233D01*
X356721Y43605D02*
X362233D01*
X355264Y76558D02*
Y85023D01*
X349753Y76558D02*
Y85023D01*
X355264D01*
X349753Y76558D02*
X355264D01*
X361760Y76755D02*
Y85220D01*
X356249Y76755D02*
Y85220D01*
X361760D01*
X356249Y76755D02*
X361760D01*
X341957Y79992D02*
Y93378D01*
X349043Y79992D02*
Y93378D01*
X341957Y79992D02*
X349043D01*
X341957Y93378D02*
X349043D01*
X198394Y170259D02*
Y173999D01*
X191505Y170259D02*
Y173999D01*
Y170259D02*
X198394D01*
X191505Y173999D02*
X198394D01*
X173079Y170062D02*
Y173802D01*
X166190Y170062D02*
Y173802D01*
Y170062D02*
X173079D01*
X166190Y173802D02*
X173079D01*
X273257Y103369D02*
Y110259D01*
X277036Y103369D02*
Y110259D01*
X273257Y103369D02*
X277036D01*
X273257Y110259D02*
X277036D01*
X274044Y64353D02*
Y71243D01*
X277823Y64353D02*
Y71243D01*
X274044Y64353D02*
X277823D01*
X274044Y71243D02*
X277823D01*
X256544Y15633D02*
Y19412D01*
X249654Y15633D02*
Y19412D01*
Y15633D02*
X256544D01*
X249654Y19412D02*
X256544D01*
X299162Y89353D02*
X302705D01*
X299162Y82661D02*
X302705D01*
Y89353D01*
X299162Y82661D02*
Y89353D01*
X342194Y64157D02*
X345737D01*
X342194Y70850D02*
X345737D01*
X342194Y64157D02*
Y70850D01*
X345737Y64157D02*
Y70850D01*
X342154Y16105D02*
X348847D01*
X342154Y3507D02*
X348847D01*
Y16105D01*
X342154Y3507D02*
Y16105D01*
D223*
X359910Y2336D02*
D03*
M02*
