G04*
G04 #@! TF.GenerationSoftware,Altium Limited,Altium Designer,21.6.4 (81)*
G04*
G04 Layer_Color=32768*
%FSLAX25Y25*%
%MOIN*%
G70*
G04*
G04 #@! TF.SameCoordinates,21ADAE42-517F-4329-814C-ACF1F8BA2FEA*
G04*
G04*
G04 #@! TF.FilePolarity,Positive*
G04*
G01*
G75*
%ADD11C,0.00787*%
%ADD15C,0.00600*%
%ADD222C,0.00394*%
%ADD224C,0.00197*%
G36*
X259462Y-2978D02*
Y4322D01*
X260553D01*
Y7522D01*
X269071D01*
Y4322D01*
X270162D01*
Y-2978D01*
X269071D01*
Y-6178D01*
X260553D01*
Y-2978D01*
X259462D01*
D02*
G37*
G36*
X265575Y30814D02*
Y26362D01*
X261124D01*
Y21012D01*
X189326D01*
Y26362D01*
X184875D01*
Y30814D01*
X179525D01*
Y102611D01*
X184875D01*
Y107062D01*
X189326D01*
Y112413D01*
X261124D01*
Y107062D01*
X265575D01*
Y102611D01*
X270925D01*
Y30814D01*
X265575D01*
D02*
G37*
D11*
X436862Y2595D02*
Y14405D01*
X432138Y2595D02*
X436862D01*
X432138D02*
Y14405D01*
X436862D01*
X467406Y197138D02*
Y201862D01*
X455594D02*
X467406D01*
X455594Y197138D02*
Y201862D01*
Y197138D02*
X467406D01*
D15*
X261124Y26362D02*
X265575D01*
X261124Y21012D02*
Y26362D01*
X189326Y21012D02*
X261124D01*
X189326D02*
Y26362D01*
X184875D02*
X189326D01*
X261124Y107062D02*
X265575D01*
X261124D02*
Y112413D01*
X189326D02*
X261124D01*
X189326Y107062D02*
Y112413D01*
X184875Y107062D02*
X189326D01*
X184875Y26362D02*
Y30814D01*
X179525D02*
X184875D01*
X179525D02*
Y102611D01*
X184875D01*
Y107062D01*
X265575Y26362D02*
Y30814D01*
X270925D01*
Y102611D01*
X265575D02*
X270925D01*
X265575D02*
Y107062D01*
X259462Y-2978D02*
Y4322D01*
Y-2978D02*
X260553D01*
Y-6178D02*
Y-2978D01*
Y-6178D02*
X269071D01*
Y-2978D01*
X270162D01*
Y4322D01*
X269071D02*
X270162D01*
X269071D02*
Y7522D01*
X260553D02*
X269071D01*
X260553Y4322D02*
Y7522D01*
X259462Y4322D02*
X260553D01*
D222*
X434500Y6532D02*
Y10469D01*
X432531Y8500D02*
X436469D01*
X278747Y18586D02*
X286621D01*
X278747Y476D02*
X286621D01*
Y18586D01*
X278747Y476D02*
Y18586D01*
X282684Y7562D02*
Y11499D01*
X280715Y9531D02*
X284652D01*
X455028Y106027D02*
Y109964D01*
X453060Y107995D02*
X456997D01*
X315500Y40784D02*
Y44721D01*
X313531Y42752D02*
X317469D01*
X344000Y51284D02*
Y55221D01*
X342032Y53252D02*
X345969D01*
X328887Y29255D02*
Y33192D01*
X326918Y31223D02*
X330855D01*
X73650Y128284D02*
X133099D01*
Y79859D02*
Y128284D01*
X73650Y79859D02*
X133099D01*
X73650D02*
Y128284D01*
X147054Y40320D02*
X151385D01*
X147054Y49769D02*
X151385D01*
X147054Y40320D02*
Y49769D01*
X151385Y40320D02*
Y49769D01*
X149220Y43174D02*
Y46914D01*
X147349Y45044D02*
X151090D01*
X373631Y11105D02*
X377568D01*
X375599Y9137D02*
Y13074D01*
X429211Y35279D02*
Y39216D01*
X427243Y37247D02*
X431180D01*
X392597Y58704D02*
X451652D01*
X392597Y15790D02*
X451652D01*
X392597D02*
Y58704D01*
X451652Y15790D02*
Y58704D01*
X289000Y6728D02*
Y10272D01*
X287228Y8500D02*
X290772D01*
X320500Y7228D02*
Y10772D01*
X318728Y9000D02*
X322272D01*
X336369Y7070D02*
Y10613D01*
X334597Y8842D02*
X338141D01*
X76784Y118001D02*
Y121938D01*
X74816Y119969D02*
X78753D01*
X79796Y148281D02*
X83733D01*
X81765Y146313D02*
Y150250D01*
X2158Y150551D02*
X6095D01*
X4127Y148583D02*
Y152520D01*
X40151Y150875D02*
X44088D01*
X42119Y148906D02*
Y152843D01*
X354516Y176735D02*
Y181066D01*
X345068Y176735D02*
Y181066D01*
Y176735D02*
X354516D01*
X345068Y181066D02*
X354516D01*
X347922Y178901D02*
X351662D01*
X349792Y177031D02*
Y180771D01*
X354477Y184649D02*
Y188979D01*
X345028Y184649D02*
Y188979D01*
Y184649D02*
X354477D01*
X345028Y188979D02*
X354477D01*
X347883Y186814D02*
X351623D01*
X349753Y184944D02*
Y188684D01*
X303532Y176775D02*
Y181105D01*
X294083Y176775D02*
Y181105D01*
Y176775D02*
X303532D01*
X294083Y181105D02*
X303532D01*
X296938Y178940D02*
X300678D01*
X298808Y177070D02*
Y180810D01*
X303493Y185239D02*
Y189570D01*
X294044Y185239D02*
Y189570D01*
Y185239D02*
X303493D01*
X294044Y189570D02*
X303493D01*
X296898Y187405D02*
X300639D01*
X298768Y185535D02*
Y189275D01*
X250816Y176539D02*
Y180869D01*
X241367Y176539D02*
Y180869D01*
Y176539D02*
X250816D01*
X241367Y180869D02*
X250816D01*
X244221Y178704D02*
X247961D01*
X246091Y176834D02*
Y180574D01*
X251229Y185121D02*
Y189452D01*
X241780Y185121D02*
Y189452D01*
Y185121D02*
X251229D01*
X241780Y189452D02*
X251229D01*
X244635Y187286D02*
X248375D01*
X246505Y185416D02*
Y189157D01*
X195068Y177011D02*
Y181342D01*
X185619Y177011D02*
Y181342D01*
Y177011D02*
X195068D01*
X185619Y181342D02*
X195068D01*
X188473Y179176D02*
X192213D01*
X190343Y177306D02*
Y181046D01*
X194949Y185357D02*
Y189688D01*
X185501Y185357D02*
Y189688D01*
Y185357D02*
X194949D01*
X185501Y189688D02*
X194949D01*
X188355Y187523D02*
X192095D01*
X190225Y185653D02*
Y189393D01*
X464005Y108231D02*
X467942D01*
X465973Y106263D02*
Y110200D01*
X469713Y100357D02*
Y116105D01*
X462233Y100357D02*
Y116105D01*
X469713D01*
X462233Y100357D02*
X469713D01*
X464162Y152287D02*
X468099D01*
X466131Y150318D02*
Y154255D01*
X469871Y144413D02*
Y160161D01*
X462391Y144413D02*
Y160161D01*
X469871D01*
X462391Y144413D02*
X469871D01*
X464123Y65790D02*
X468060D01*
X466091Y63822D02*
Y67759D01*
X469831Y57916D02*
Y73664D01*
X462351Y57916D02*
Y73664D01*
X469831D01*
X462351Y57916D02*
X469831D01*
X464241Y22050D02*
X468178D01*
X466209Y20082D02*
Y24019D01*
X469949Y14176D02*
Y29924D01*
X462469Y14176D02*
Y29924D01*
X469949D01*
X462469Y14176D02*
X469949D01*
X455028Y148704D02*
Y152641D01*
X453060Y150672D02*
X456997D01*
X455540Y62857D02*
Y66794D01*
X453572Y64826D02*
X457509D01*
X455461Y20397D02*
Y24334D01*
X453493Y22365D02*
X457430D01*
X162047Y62488D02*
X167953D01*
X162047Y73512D02*
X167953D01*
X162047Y62488D02*
Y73512D01*
X167953Y62488D02*
Y73512D01*
X165000Y66031D02*
Y69968D01*
X163031Y68000D02*
X166969D01*
X154047Y62488D02*
X159953D01*
X154047Y73512D02*
X159953D01*
X154047Y62488D02*
Y73512D01*
X159953Y62488D02*
Y73512D01*
X157000Y66031D02*
Y69968D01*
X155032Y68000D02*
X158968D01*
X154047Y77988D02*
X159953D01*
X154047Y89012D02*
X159953D01*
X154047Y77988D02*
Y89012D01*
X159953Y77988D02*
Y89012D01*
X157000Y81532D02*
Y85469D01*
X155032Y83500D02*
X158968D01*
X162047Y89012D02*
X167953D01*
X162047Y77988D02*
X167953D01*
Y89012D01*
X162047Y77988D02*
Y89012D01*
X165000Y81532D02*
Y85469D01*
X163031Y83500D02*
X166969D01*
X99134Y59943D02*
X103071D01*
X101103Y57974D02*
Y61911D01*
X86883Y177351D02*
Y181682D01*
X77434Y177351D02*
Y181682D01*
Y177351D02*
X86883D01*
X77434Y181682D02*
X86883D01*
X80288Y179516D02*
X84029D01*
X82158Y177646D02*
Y181386D01*
X88418Y146509D02*
Y150840D01*
X97867Y146509D02*
Y150840D01*
X88418D02*
X97867D01*
X88418Y146509D02*
X97867D01*
X91273Y148675D02*
X95013D01*
X93143Y146805D02*
Y150545D01*
X62084Y166967D02*
X65824D01*
X63954Y165097D02*
Y168837D01*
X61788Y162243D02*
Y171692D01*
X66119Y162243D02*
Y171692D01*
X61788Y162243D02*
X66119D01*
X61788Y171692D02*
X66119D01*
X75938Y166761D02*
X79875D01*
X77907Y164792D02*
Y168729D01*
X76844Y151195D02*
Y155525D01*
X86292Y151195D02*
Y155525D01*
X76844D02*
X86292D01*
X76844Y151195D02*
X86292D01*
X79698Y153360D02*
X83438D01*
X81568Y151490D02*
Y155230D01*
X54147Y149477D02*
Y153217D01*
X52276Y151347D02*
X56017D01*
X49422Y149182D02*
X58871D01*
X49422Y153513D02*
X58871D01*
Y149182D02*
Y153513D01*
X49422Y149182D02*
Y153513D01*
X52178Y142509D02*
Y146839D01*
X61627Y142509D02*
Y146839D01*
X52178D02*
X61627D01*
X52178Y142509D02*
X61627D01*
X55032Y144674D02*
X58773D01*
X56902Y142804D02*
Y146544D01*
X42040Y154044D02*
Y157784D01*
X40170Y155914D02*
X43910D01*
X37316Y153749D02*
X46765D01*
X37316Y158079D02*
X46765D01*
Y153749D02*
Y158079D01*
X37316Y153749D02*
Y158079D01*
X37513Y168921D02*
X41450D01*
X39481Y166953D02*
Y170890D01*
X42690Y130457D02*
Y134197D01*
X40820Y132327D02*
X44560D01*
X37966Y130162D02*
X47414D01*
X37966Y134493D02*
X47414D01*
Y130162D02*
Y134493D01*
X37966Y130162D02*
Y134493D01*
X42690Y135182D02*
Y138922D01*
X40820Y137052D02*
X44560D01*
X37966Y134886D02*
X47414D01*
X37966Y139217D02*
X47414D01*
Y134886D02*
Y139217D01*
X37966Y134886D02*
Y139217D01*
X43339Y122800D02*
X47080D01*
X45210Y120930D02*
Y124670D01*
X43044Y118075D02*
Y127524D01*
X47375Y118075D02*
Y127524D01*
X43044Y118075D02*
X47375D01*
X43044Y127524D02*
X47375D01*
X73674Y134473D02*
X77414D01*
X75544Y132603D02*
Y136343D01*
X77710Y129748D02*
Y139197D01*
X73379Y129748D02*
Y139197D01*
X77710D01*
X73379Y129748D02*
X77710D01*
X58280Y117682D02*
Y121619D01*
X56312Y119650D02*
X60249D01*
X45111Y51761D02*
Y53926D01*
X44028Y52843D02*
X46194D01*
X41528Y51761D02*
Y53926D01*
X40446Y52843D02*
X42611D01*
X40308Y66268D02*
X44088D01*
X42198Y64379D02*
Y68158D01*
X62316Y79497D02*
Y83276D01*
X60426Y81387D02*
X64206D01*
X45072Y84379D02*
Y86544D01*
X43989Y85461D02*
X46154D01*
X41174Y84457D02*
Y86623D01*
X40091Y85540D02*
X42257D01*
X61332Y48001D02*
Y51780D01*
X59442Y49891D02*
X63221D01*
X45151Y20698D02*
Y22863D01*
X44068Y21780D02*
X46233D01*
X41962Y20698D02*
Y22863D01*
X40879Y21780D02*
X43044D01*
X61725Y16111D02*
Y19891D01*
X59836Y18001D02*
X63615D01*
X-1365Y168524D02*
X2572D01*
X603Y166555D02*
Y170492D01*
X3930Y153799D02*
Y157540D01*
X2060Y155670D02*
X5800D01*
X-794Y153504D02*
X8654D01*
X-794Y157835D02*
X8654D01*
Y153504D02*
Y157835D01*
X-794Y153504D02*
Y157835D01*
X40938Y2764D02*
X44717D01*
X42828Y875D02*
Y4654D01*
X69954Y120083D02*
X73694D01*
X71824Y118213D02*
Y121953D01*
X73989Y115359D02*
Y124808D01*
X69658Y115359D02*
Y124808D01*
X73989D01*
X69658Y115359D02*
X73989D01*
X39836Y98513D02*
X43615D01*
X41725Y96623D02*
Y100402D01*
X39796Y34536D02*
X43576D01*
X41686Y32646D02*
Y36426D01*
X14639Y148957D02*
Y152697D01*
X12769Y150827D02*
X16509D01*
X9914Y148662D02*
X19363D01*
X9914Y152992D02*
X19363D01*
Y148662D02*
Y152992D01*
X9914Y148662D02*
Y152992D01*
X22749Y168099D02*
X26489D01*
X24619Y166229D02*
Y169969D01*
X22454Y163375D02*
Y172824D01*
X26784Y163375D02*
Y172824D01*
X22454Y163375D02*
X26784D01*
X22454Y172824D02*
X26784D01*
X41962Y-10838D02*
Y-8672D01*
X40879Y-9755D02*
X43044D01*
X45544Y-10877D02*
Y-8712D01*
X44462Y-9795D02*
X46627D01*
X58064Y-12413D02*
X61844D01*
X59954Y-14302D02*
Y-10523D01*
X3851Y179548D02*
Y183288D01*
X1981Y181418D02*
X5721D01*
X-873Y183583D02*
X8576D01*
X-873Y179252D02*
X8576D01*
X-873D02*
Y183583D01*
X8576Y179252D02*
Y183583D01*
X42276Y180107D02*
Y183847D01*
X40407Y181977D02*
X44147D01*
X37552Y184142D02*
X47001D01*
X37552Y179812D02*
X47001D01*
X37552D02*
Y184142D01*
X47001Y179812D02*
Y184142D01*
X172075Y81381D02*
X175855D01*
X173965Y79491D02*
Y83271D01*
X184595Y141912D02*
Y145850D01*
X182627Y143881D02*
X186564D01*
X151898Y131617D02*
X155639D01*
X153768Y129747D02*
Y133487D01*
X155934Y126893D02*
Y136342D01*
X151603Y126893D02*
Y136342D01*
X155934D01*
X151603Y126893D02*
X155934D01*
X175304Y49609D02*
Y53389D01*
X173414Y51499D02*
X177194D01*
X94009Y185847D02*
X98339D01*
X94009Y176398D02*
X98339D01*
Y185847D01*
X94009Y176398D02*
Y185847D01*
X96174Y179253D02*
Y182993D01*
X94304Y181123D02*
X98044D01*
X88733Y185793D02*
X93064D01*
X88733Y176344D02*
X93064D01*
Y185793D01*
X88733Y176344D02*
Y185793D01*
X90899Y179198D02*
Y182939D01*
X89029Y181069D02*
X92769D01*
X461500Y197531D02*
Y201468D01*
X459531Y199500D02*
X463469D01*
X137666Y45484D02*
X141603D01*
X139634Y43516D02*
Y47453D01*
X416682Y6027D02*
Y9964D01*
X414713Y7995D02*
X418650D01*
X422705Y-7753D02*
Y-3816D01*
X420737Y-5784D02*
X424674D01*
X235225Y142129D02*
Y146066D01*
X233257Y144097D02*
X237194D01*
X284831D02*
X288768D01*
X286800Y142129D02*
Y146066D01*
X337902Y142129D02*
Y146066D01*
X335934Y144097D02*
X339871D01*
X429211Y120948D02*
Y124885D01*
X427243Y122916D02*
X431180D01*
X392597Y144373D02*
X451652D01*
X392597Y101460D02*
X451652D01*
X392597D02*
Y144373D01*
X451652Y101460D02*
Y144373D01*
X429211Y77405D02*
Y81342D01*
X427243Y79373D02*
X431180D01*
X392597Y100830D02*
X451652D01*
X392597Y57916D02*
X451652D01*
X392597D02*
Y100830D01*
X451652Y57916D02*
Y100830D01*
X309032Y29500D02*
X312968D01*
X311000Y27531D02*
Y31468D01*
X451652Y143874D02*
Y186788D01*
X392597Y143874D02*
Y186788D01*
Y143874D02*
X451652D01*
X392597Y186788D02*
X451652D01*
X427243Y165331D02*
X431180D01*
X429211Y163363D02*
Y167299D01*
X212705Y-4603D02*
Y-666D01*
X210737Y-2635D02*
X214674D01*
X357942Y10003D02*
X361879D01*
X359910Y8034D02*
Y11972D01*
X378020Y163372D02*
Y167309D01*
X376052Y165341D02*
X379989D01*
X378020Y37011D02*
Y40948D01*
X376052Y38979D02*
X379989D01*
X241682Y-1985D02*
X245619D01*
X243650Y-3954D02*
Y-17D01*
X301000Y73228D02*
Y76772D01*
X299228Y75000D02*
X302772D01*
X150343Y165239D02*
X154083D01*
X152213Y163369D02*
Y167109D01*
X150048Y160515D02*
Y169964D01*
X154379Y160515D02*
Y169964D01*
X150048Y160515D02*
X154379D01*
X150048Y169964D02*
X154379D01*
X23635Y187790D02*
X27966D01*
X23635Y178341D02*
X27966D01*
Y187790D01*
X23635Y178341D02*
Y187790D01*
X25800Y181196D02*
Y184936D01*
X23930Y183066D02*
X27670D01*
X28832Y187869D02*
X33162D01*
X28832Y178420D02*
X33162D01*
Y187869D01*
X28832Y178420D02*
Y187869D01*
X30997Y181274D02*
Y185014D01*
X29127Y183144D02*
X32867D01*
X378020Y120958D02*
Y124895D01*
X376052Y122926D02*
X379989D01*
X376052Y79383D02*
X379989D01*
X378020Y77415D02*
Y81352D01*
X49047Y189185D02*
X53378D01*
X49047Y179736D02*
X53378D01*
Y189185D01*
X49047Y179736D02*
Y189185D01*
X51213Y182591D02*
Y186331D01*
X49343Y184461D02*
X53083D01*
X54205Y189224D02*
X58535D01*
X54205Y179776D02*
X58535D01*
Y189224D01*
X54205Y179776D02*
Y189224D01*
X56370Y182630D02*
Y186370D01*
X54500Y184500D02*
X58240D01*
X466446Y134413D02*
Y138349D01*
X464477Y136381D02*
X468414D01*
X463729Y181302D02*
X467666D01*
X465697Y179334D02*
Y183271D01*
X453414Y93349D02*
X457351D01*
X455383Y91381D02*
Y95318D01*
X455432Y132916D02*
Y136853D01*
X453463Y134885D02*
X457400D01*
X454910Y176735D02*
Y180672D01*
X452942Y178704D02*
X456879D01*
X466209Y91735D02*
Y95672D01*
X464241Y93704D02*
X468178D01*
X454359Y50318D02*
X458296D01*
X456327Y48349D02*
Y52286D01*
X466642Y48743D02*
Y52680D01*
X464674Y50712D02*
X468611D01*
X344556Y175200D02*
Y183074D01*
X326446Y175200D02*
Y183074D01*
Y175200D02*
X344556D01*
X326446Y183074D02*
X344556D01*
X333532Y179137D02*
X337469D01*
X335501Y177168D02*
Y181105D01*
X335461Y185121D02*
Y189058D01*
X333493Y187090D02*
X337430D01*
X326406Y191027D02*
X344516D01*
X326406Y183153D02*
X344516D01*
X326406D02*
Y191027D01*
X344516Y183153D02*
Y191027D01*
X347449Y171696D02*
X351190D01*
X349320Y169826D02*
Y173566D01*
X324950Y170062D02*
Y173802D01*
X323079Y171932D02*
X326820D01*
X303287Y9531D02*
X307027D01*
X305157Y7660D02*
Y11401D01*
X274280Y7641D02*
Y11184D01*
X272509Y9413D02*
X276052D01*
X420796Y4098D02*
X424536D01*
X422666Y2228D02*
Y5968D01*
X219359Y6263D02*
Y10594D01*
X228808Y6263D02*
Y10594D01*
X219359D02*
X228808D01*
X219359Y6263D02*
X228808D01*
X222213Y8428D02*
X225954D01*
X224083Y6558D02*
Y10298D01*
X198178Y10042D02*
Y14373D01*
X207627Y10042D02*
Y14373D01*
X198178D02*
X207627D01*
X198178Y10042D02*
X207627D01*
X201032Y12208D02*
X204772D01*
X202902Y10338D02*
Y14078D01*
X296419Y9531D02*
X300356D01*
X298388Y7562D02*
Y11499D01*
X294451Y476D02*
Y18586D01*
X302325Y476D02*
Y18586D01*
X294451Y476D02*
X302325D01*
X294451Y18586D02*
X302325D01*
X293335Y175003D02*
Y182877D01*
X275225Y175003D02*
Y182877D01*
Y175003D02*
X293335D01*
X275225Y182877D02*
X293335D01*
X282312Y178940D02*
X286249D01*
X284280Y176972D02*
Y180909D01*
X284320Y185200D02*
Y189137D01*
X282351Y187168D02*
X286288D01*
X275265Y191105D02*
X293375D01*
X275265Y183231D02*
X293375D01*
X275265D02*
Y191105D01*
X293375Y183231D02*
Y191105D01*
X240816Y175161D02*
Y183035D01*
X222705Y175161D02*
Y183035D01*
Y175161D02*
X240816D01*
X222705Y183035D02*
X240816D01*
X229792Y179097D02*
X233729D01*
X231761Y177129D02*
Y181066D01*
X231761Y185397D02*
Y189334D01*
X229792Y187365D02*
X233729D01*
X222705Y191302D02*
X240816D01*
X222705Y183428D02*
X240816D01*
X222705D02*
Y191302D01*
X240816Y183428D02*
Y191302D01*
X184595Y175121D02*
Y182995D01*
X166485Y175121D02*
Y182995D01*
Y175121D02*
X184595D01*
X166485Y182995D02*
X184595D01*
X173572Y179058D02*
X177509D01*
X175540Y177090D02*
Y181027D01*
X184595Y183389D02*
Y191263D01*
X166485Y183389D02*
Y191263D01*
Y183389D02*
X184595D01*
X166485Y191263D02*
X184595D01*
X173572Y187326D02*
X177509D01*
X175540Y185357D02*
Y189294D01*
X310155Y18586D02*
X318029D01*
X310155Y476D02*
X318029D01*
Y18586D01*
X310155Y476D02*
Y18586D01*
X314092Y7562D02*
Y11499D01*
X312124Y9531D02*
X316061D01*
X278572Y43349D02*
Y47129D01*
X276682Y45239D02*
X280461D01*
X199753Y15987D02*
Y19767D01*
X197863Y17877D02*
X201642D01*
X221682Y14294D02*
Y18074D01*
X219792Y16184D02*
X223572D01*
X190000Y114110D02*
Y117890D01*
X188110Y116000D02*
X191890D01*
X213729Y113349D02*
Y117129D01*
X211839Y115239D02*
X215619D01*
X297548Y170180D02*
Y173920D01*
X295678Y172050D02*
X299418D01*
X273611Y170141D02*
Y173881D01*
X271741Y172011D02*
X275481D01*
X245934Y169905D02*
Y173645D01*
X244064Y171775D02*
X247804D01*
X224851Y170160D02*
Y173901D01*
X222981Y172031D02*
X226721D01*
X305343Y39846D02*
X309674D01*
X305343Y49294D02*
X309674D01*
X305343Y39846D02*
Y49294D01*
X309674Y39846D02*
Y49294D01*
X307509Y42700D02*
Y46440D01*
X305639Y44570D02*
X309379D01*
X300009Y44649D02*
X303749D01*
X301879Y42779D02*
Y46519D01*
X299713Y39924D02*
Y49373D01*
X304044Y39924D02*
Y49373D01*
X299713Y39924D02*
X304044D01*
X299713Y49373D02*
X304044D01*
X293493Y39865D02*
X297824D01*
X293493Y49314D02*
X297824D01*
X293493Y39865D02*
Y49314D01*
X297824Y39865D02*
Y49314D01*
X295658Y42720D02*
Y46460D01*
X293788Y44590D02*
X297528D01*
X288217Y49275D02*
X292548D01*
X288217Y39826D02*
X292548D01*
Y49275D01*
X288217Y39826D02*
Y49275D01*
X290383Y42680D02*
Y46420D01*
X288512Y44550D02*
X292253D01*
X352115Y59846D02*
X356052D01*
X354083Y57877D02*
Y61814D01*
X340855Y45003D02*
X346761D01*
X340855Y33979D02*
X346761D01*
Y45003D01*
X340855Y33979D02*
Y45003D01*
X343808Y37523D02*
Y41460D01*
X341839Y39491D02*
X345776D01*
X349477Y39373D02*
X353414D01*
X351446Y37405D02*
Y41342D01*
X348493Y33861D02*
Y44885D01*
X354398Y33861D02*
Y44885D01*
X348493Y33861D02*
X354398D01*
X348493Y44885D02*
X354398D01*
X357509Y39373D02*
X361446D01*
X359477Y37405D02*
Y41342D01*
X356524Y33861D02*
Y44885D01*
X362430Y33861D02*
Y44885D01*
X356524Y33861D02*
X362430D01*
X356524Y44885D02*
X362430D01*
X350540Y80790D02*
X354477D01*
X352509Y78822D02*
Y82759D01*
X355461Y75279D02*
Y86302D01*
X349556Y75279D02*
Y86302D01*
X355461D01*
X349556Y75279D02*
X355461D01*
X357036Y80987D02*
X360973D01*
X359005Y79019D02*
Y82956D01*
X361957Y75476D02*
Y86499D01*
X356052Y75476D02*
Y86499D01*
X361957D01*
X356052Y75476D02*
X361957D01*
X343531Y86685D02*
X347468D01*
X345500Y84716D02*
Y88653D01*
X341760Y78811D02*
Y94559D01*
X349240Y78811D02*
Y94559D01*
X341760Y78811D02*
X349240D01*
X341760Y94559D02*
X349240D01*
X193079Y172129D02*
X196820D01*
X194949Y170259D02*
Y173999D01*
X167764Y171932D02*
X171505D01*
X169635Y170062D02*
Y173802D01*
X273257Y106814D02*
X277036D01*
X275146Y104924D02*
Y108704D01*
X274044Y67798D02*
X277823D01*
X275934Y65909D02*
Y69688D01*
X251209Y17523D02*
X254989D01*
X253099Y15633D02*
Y19412D01*
X300934Y84235D02*
Y87779D01*
X299162Y86007D02*
X302705D01*
X343965Y65731D02*
Y69275D01*
X342194Y67503D02*
X345737D01*
X341564Y18861D02*
X349438D01*
X341564Y751D02*
X349438D01*
Y18861D01*
X341564Y751D02*
Y18861D01*
X345501Y7838D02*
Y11775D01*
X343532Y9806D02*
X347469D01*
D224*
X458178Y102877D02*
Y113113D01*
X451879Y102877D02*
Y113113D01*
X458178D01*
X451879Y102877D02*
X458178D01*
X44028Y77479D02*
Y91505D01*
X53871D01*
Y77479D02*
Y91505D01*
X44028Y77479D02*
X53871D01*
X44048Y-17718D02*
Y-3692D01*
X53891D01*
Y-17718D02*
Y-3692D01*
X44048Y-17718D02*
X53891D01*
X43773Y44959D02*
Y58985D01*
X53615D01*
Y44959D02*
Y58985D01*
X43773Y44959D02*
X53615D01*
X43458Y13818D02*
Y27843D01*
X53300D01*
Y13818D02*
Y27843D01*
X43458Y13818D02*
X53300D01*
X307835Y92827D02*
X337165D01*
Y71173D02*
Y92827D01*
X307835Y71173D02*
X337165D01*
X307835D02*
Y92827D01*
X312154Y48067D02*
X318847D01*
X312154Y37437D02*
X318847D01*
Y48067D01*
X312154Y37437D02*
Y48067D01*
X308012Y49173D02*
Y70827D01*
Y49173D02*
X337343D01*
Y70827D01*
X308012D02*
X337343D01*
X340653Y58567D02*
X347346D01*
X340653Y47937D02*
X347346D01*
Y58567D01*
X340653Y47937D02*
Y58567D01*
X322745Y25121D02*
X335028D01*
X322745Y37326D02*
X335028D01*
X322745Y25121D02*
Y37326D01*
X335028Y25121D02*
Y37326D01*
X370284Y8153D02*
Y14058D01*
X380914Y8153D02*
Y14058D01*
X370284D02*
X380914D01*
X370284Y8153D02*
X380914D01*
X285063Y2004D02*
X292937D01*
X285063Y14996D02*
X292937D01*
X285063Y2004D02*
Y14996D01*
X292937Y2004D02*
Y14996D01*
X316563Y2504D02*
X324437D01*
X316563Y15496D02*
X324437D01*
X316563Y2504D02*
Y15496D01*
X324437Y2504D02*
Y15496D01*
X332432Y15338D02*
X340306D01*
X332432Y2346D02*
X340306D01*
Y15338D01*
X332432Y2346D02*
Y15338D01*
X74422Y115638D02*
X79147D01*
X74422Y124300D02*
X79147D01*
X74422Y115638D02*
Y124300D01*
X79147Y115638D02*
Y124300D01*
X77434Y145919D02*
Y150643D01*
X86095Y145919D02*
Y150643D01*
X77434D02*
X86095D01*
X77434Y145919D02*
X86095D01*
X-204Y148189D02*
Y152914D01*
X8458Y148189D02*
Y152914D01*
X-204D02*
X8458D01*
X-204Y148189D02*
X8458D01*
X37788Y148512D02*
Y153237D01*
X46450Y148512D02*
Y153237D01*
X37788D02*
X46450D01*
X37788Y148512D02*
X46450D01*
X451879Y145554D02*
X458178D01*
X451879Y155790D02*
X458178D01*
X451879Y145554D02*
Y155790D01*
X458178Y145554D02*
Y155790D01*
X452390Y59708D02*
X458690D01*
X452390Y69944D02*
X458690D01*
X452390Y59708D02*
Y69944D01*
X458690Y59708D02*
Y69944D01*
X452312Y17247D02*
X458611D01*
X452312Y27483D02*
X458611D01*
X452312Y17247D02*
Y27483D01*
X458611Y17247D02*
Y27483D01*
X140619Y93842D02*
Y110180D01*
X154005D01*
Y93842D02*
Y110180D01*
X140619Y93842D02*
X154005D01*
X133780Y38289D02*
Y81596D01*
X68425Y38289D02*
Y81596D01*
Y38289D02*
X133780D01*
X68425Y81596D02*
X133780D01*
X70131Y-8397D02*
Y16052D01*
X45682Y-8397D02*
Y16052D01*
X70131D01*
X45682Y-8397D02*
X70131D01*
X44776Y22705D02*
X69225D01*
X44776Y47154D02*
X69225D01*
X44776Y22705D02*
Y47154D01*
X69225Y22705D02*
Y47154D01*
X44816Y86564D02*
X69265D01*
X44816Y111012D02*
X69265D01*
X44816Y86564D02*
Y111012D01*
X69265Y86564D02*
Y111012D01*
X69186Y54556D02*
Y79005D01*
X44737Y54556D02*
Y79005D01*
X69186D01*
X44737Y54556D02*
X69186D01*
X100367Y151608D02*
Y176293D01*
X86391Y151608D02*
Y176293D01*
X100367D01*
X86391Y151608D02*
X100367D01*
X61686Y153886D02*
Y178572D01*
X47710Y153886D02*
Y178572D01*
X61686D01*
X47710Y153886D02*
X61686D01*
X84403Y159871D02*
Y173650D01*
X71410Y159871D02*
Y173650D01*
X84403D01*
X71410Y159871D02*
X84403D01*
X72552Y127937D02*
Y141914D01*
X47867Y127937D02*
Y141914D01*
Y127937D02*
X72552D01*
X47867Y141914D02*
X72552D01*
X45977Y162031D02*
Y175811D01*
X32985Y162031D02*
Y175811D01*
X45977D01*
X32985Y162031D02*
X45977D01*
X51391Y126146D02*
X65170D01*
X51391Y113154D02*
X65170D01*
X51391D02*
Y126146D01*
X65170Y113154D02*
Y126146D01*
X43536Y55796D02*
X46686D01*
X43536Y49891D02*
X46686D01*
Y55796D01*
X43536Y49891D02*
Y55796D01*
X39954Y49891D02*
X43103D01*
X39954Y55796D02*
X43103D01*
X39954Y49891D02*
Y55796D01*
X43103Y49891D02*
Y55796D01*
X45151Y60363D02*
Y72174D01*
X39245Y60363D02*
Y72174D01*
X45151D01*
X39245Y60363D02*
X45151D01*
X56410Y84339D02*
X68221D01*
X56410Y78434D02*
X68221D01*
X56410D02*
Y84339D01*
X68221Y78434D02*
Y84339D01*
X43497Y88414D02*
X46647D01*
X43497Y82509D02*
X46647D01*
Y88414D01*
X43497Y82509D02*
Y88414D01*
X39599Y82587D02*
X42749D01*
X39599Y88493D02*
X42749D01*
X39599Y82587D02*
Y88493D01*
X42749Y82587D02*
Y88493D01*
X55426Y52843D02*
X67237D01*
X55426Y46938D02*
X67237D01*
X55426D02*
Y52843D01*
X67237Y46938D02*
Y52843D01*
X43576Y24733D02*
X46725D01*
X43576Y18827D02*
X46725D01*
Y24733D01*
X43576Y18827D02*
Y24733D01*
X40387Y18827D02*
X43536D01*
X40387Y24733D02*
X43536D01*
X40387Y18827D02*
Y24733D01*
X43536Y18827D02*
Y24733D01*
X55820Y20954D02*
X67631D01*
X55820Y15048D02*
X67631D01*
X55820D02*
Y20954D01*
X67631Y15048D02*
Y20954D01*
X7099Y161634D02*
Y175414D01*
X-5893Y161634D02*
Y175414D01*
X7099D01*
X-5893Y161634D02*
X7099D01*
X45781Y-3141D02*
Y8670D01*
X39875Y-3141D02*
Y8670D01*
X45781D01*
X39875Y-3141D02*
X45781D01*
X44678Y92607D02*
Y104418D01*
X38773Y92607D02*
Y104418D01*
X44678D01*
X38773Y92607D02*
X44678D01*
X44639Y28631D02*
Y40442D01*
X38733Y28631D02*
Y40442D01*
X44639D01*
X38733Y28631D02*
X44639D01*
X7788Y153229D02*
X21765D01*
X7788Y177914D02*
X21765D01*
X7788Y153229D02*
Y177914D01*
X21765Y153229D02*
Y177914D01*
X40387Y-12708D02*
X43536D01*
X40387Y-6803D02*
X43536D01*
X40387Y-12708D02*
Y-6803D01*
X43536Y-12708D02*
Y-6803D01*
X43970Y-6842D02*
X47119D01*
X43970Y-12747D02*
X47119D01*
Y-6842D01*
X43970Y-12747D02*
Y-6842D01*
X65859Y-15365D02*
Y-9460D01*
X54048Y-15365D02*
Y-9460D01*
Y-15365D02*
X65859D01*
X54048Y-9460D02*
X65859D01*
X171012Y75476D02*
Y87287D01*
X176918Y75476D02*
Y87287D01*
X171012Y75476D02*
X176918D01*
X171012Y87287D02*
X176918D01*
X159989Y168487D02*
X209202D01*
X159989Y119275D02*
X209202D01*
X159989D02*
Y168487D01*
X209202Y119275D02*
Y168487D01*
X172351Y57405D02*
X178257D01*
X172351Y45594D02*
X178257D01*
Y57405D01*
X172351Y45594D02*
Y57405D01*
X179713Y10160D02*
X192312D01*
Y-14643D02*
Y10160D01*
X179713Y-14643D02*
X192312D01*
X179713D02*
Y10160D01*
X134516Y37019D02*
Y53949D01*
X144753Y37019D02*
Y53949D01*
X134516Y37019D02*
X144753D01*
X134516Y53949D02*
X144753D01*
X412548Y14688D02*
X420816D01*
X412548Y1302D02*
X420816D01*
Y14688D01*
X412548Y1302D02*
Y14688D01*
X418572Y909D02*
X426839D01*
X418572Y-12477D02*
X426839D01*
Y909D01*
X418572Y-12477D02*
Y909D01*
X210619Y168704D02*
X259831D01*
X210619Y119491D02*
X259831D01*
X210619D02*
Y168704D01*
X259831Y119491D02*
Y168704D01*
X311406Y119491D02*
Y168704D01*
X262194Y119491D02*
Y168704D01*
Y119491D02*
X311406D01*
X262194Y168704D02*
X311406D01*
X313296D02*
X362509D01*
X313296Y119491D02*
X362509D01*
X313296D02*
Y168704D01*
X362509Y119491D02*
Y168704D01*
X317142Y23398D02*
Y35602D01*
X304858Y23398D02*
Y35602D01*
X317142D01*
X304858Y23398D02*
X317142D01*
X196564Y-16808D02*
Y5731D01*
X196564Y-17005D02*
X228847D01*
Y-16808D02*
Y5731D01*
X196564D02*
X228847D01*
X367390Y-3973D02*
Y23979D01*
X352430Y-3973D02*
Y23979D01*
X367390D01*
X352430Y-3973D02*
X367390D01*
X363847Y183254D02*
X392194Y183254D01*
Y147427D02*
Y183254D01*
X363847Y147427D02*
X392194D01*
X363847D02*
Y183254D01*
Y56893D02*
X392194Y56893D01*
Y21066D02*
Y56893D01*
X363847Y21066D02*
X392194D01*
X363847D02*
Y56893D01*
X229753Y10909D02*
X257548D01*
Y-14879D02*
Y10909D01*
X229753Y-14879D02*
X257548D01*
X229753D02*
Y10909D01*
X298047Y69685D02*
X303953D01*
X298047Y80315D02*
X303953D01*
X298047Y69685D02*
Y80315D01*
X303953Y69685D02*
Y80315D01*
X363847Y140840D02*
X392194Y140840D01*
Y105013D02*
Y140840D01*
X363847Y105013D02*
X392194D01*
X363847D02*
Y140840D01*
Y61470D02*
Y97296D01*
Y61470D02*
X392194D01*
Y97296D01*
X363847Y97296D02*
X392194Y97296D01*
X461328Y144846D02*
X471564D01*
X461328Y127916D02*
X471564D01*
Y144846D01*
X461328Y127916D02*
Y144846D01*
X460579Y172838D02*
Y189767D01*
X470816Y172838D02*
Y189767D01*
X460579Y172838D02*
X470816D01*
X460579Y189767D02*
X470816D01*
X450265Y84885D02*
Y101814D01*
X460501Y84885D02*
Y101814D01*
X450265Y84885D02*
X460501D01*
X450265Y101814D02*
X460501D01*
X451495Y141578D02*
X459369D01*
X451495Y128192D02*
X459369D01*
Y141578D01*
X451495Y128192D02*
Y141578D01*
X450973Y185397D02*
X458847D01*
X450973Y172011D02*
X458847D01*
Y185397D01*
X450973Y172011D02*
Y185397D01*
X462272Y100397D02*
X470146D01*
X462272Y87011D02*
X470146D01*
Y100397D01*
X462272Y87011D02*
Y100397D01*
X451209Y41853D02*
Y58783D01*
X461446Y41853D02*
Y58783D01*
X451209Y41853D02*
X461446D01*
X451209Y58783D02*
X461446D01*
X462705Y57405D02*
X470579D01*
X462705Y44019D02*
X470579D01*
Y57405D01*
X462705Y44019D02*
Y57405D01*
X353650Y169334D02*
Y174058D01*
X344989Y169334D02*
Y174058D01*
Y169334D02*
X353650D01*
X344989Y174058D02*
X353650D01*
X320619Y174294D02*
X329280D01*
X320619Y169570D02*
X329280D01*
X320619D02*
Y174294D01*
X329280Y169570D02*
Y174294D01*
X308110Y4216D02*
Y14846D01*
X302204Y4216D02*
Y14846D01*
X308110D01*
X302204Y4216D02*
X308110D01*
X270343Y2916D02*
X278217D01*
X270343Y15909D02*
X278217D01*
X270343Y2916D02*
Y15909D01*
X278217Y2916D02*
Y15909D01*
X425028Y-233D02*
Y8428D01*
X420304Y-233D02*
Y8428D01*
X425028D01*
X420304Y-233D02*
X425028D01*
X272666Y42287D02*
X284477D01*
X272666Y48192D02*
X284477D01*
Y42287D02*
Y48192D01*
X272666Y42287D02*
Y48192D01*
X193847Y20830D02*
X205658D01*
X193847Y14924D02*
X205658D01*
X193847D02*
Y20830D01*
X205658Y14924D02*
Y20830D01*
X215776Y19137D02*
X227587D01*
X215776Y13231D02*
X227587D01*
X215776D02*
Y19137D01*
X227587Y13231D02*
Y19137D01*
X184095Y118953D02*
X195905D01*
X184095Y113047D02*
X195905D01*
X184095D02*
Y118953D01*
X195905Y113047D02*
Y118953D01*
X207823Y112286D02*
X219635D01*
X207823Y118192D02*
X219635D01*
Y112286D02*
Y118192D01*
X207823Y112286D02*
Y118192D01*
X308296Y95633D02*
X332076D01*
X308296Y106893D02*
X332076D01*
Y95633D02*
Y106893D01*
X308296Y95633D02*
Y106893D01*
X338296Y95633D02*
X362075D01*
X338296Y106893D02*
X362075D01*
Y95633D02*
Y106893D01*
X338296Y95633D02*
Y106893D01*
X293217Y174413D02*
X301879D01*
X293217Y169688D02*
X301879D01*
X293217D02*
Y174413D01*
X301879Y169688D02*
Y174413D01*
X269280Y174373D02*
X277942D01*
X269280Y169649D02*
X277942D01*
X269280D02*
Y174373D01*
X277942Y169649D02*
Y174373D01*
X241603Y174137D02*
X250265D01*
X241603Y169413D02*
X250265D01*
X241603D02*
Y174137D01*
X250265Y169413D02*
Y174137D01*
X220520Y174393D02*
X229182D01*
X220520Y169668D02*
X229182D01*
X220520D02*
Y174393D01*
X229182Y169668D02*
Y174393D01*
X346209Y45672D02*
Y74019D01*
X361957Y45672D02*
Y74019D01*
X346209Y45672D02*
X361957D01*
X346209Y74019D02*
X361957D01*
X199280Y169767D02*
Y174491D01*
X190619Y169767D02*
Y174491D01*
Y169767D02*
X199280D01*
X190619Y174491D02*
X199280D01*
X173965Y169570D02*
Y174294D01*
X165304Y169570D02*
Y174294D01*
Y169570D02*
X173965D01*
X165304Y174294D02*
X173965D01*
X272194Y100909D02*
Y112720D01*
X278099Y100909D02*
Y112720D01*
X272194Y100909D02*
X278099D01*
X272194Y112720D02*
X278099D01*
X272981Y61893D02*
Y73704D01*
X278887Y61893D02*
Y73704D01*
X272981Y61893D02*
X278887D01*
X272981Y73704D02*
X278887D01*
X259005Y14570D02*
Y20475D01*
X247194Y14570D02*
Y20475D01*
Y14570D02*
X259005D01*
X247194Y20475D02*
X259005D01*
X297981Y91322D02*
X303887D01*
X297981Y80692D02*
X303887D01*
Y91322D01*
X297981Y80692D02*
Y91322D01*
X341013Y62188D02*
X346918D01*
X341013Y72818D02*
X346918D01*
X341013Y62188D02*
Y72818D01*
X346918Y62188D02*
Y72818D01*
M02*
